<svg xmlns="http://www.w3.org/2000/svg" width="744.01" height="260.044" viewBox="0 0 744.01 260.044">
  <g>
    <path d="M598.9,113.352q-9.4,8.341-18.807,16.666c-2.474,2.195-4.371,4.056-7.384,5.283-15.9,6.566-33.092,10.231-48.605,17.783q12.863,1.842,25.725,3.7,16.128,2.316,32.236,4.631c.056,0,.075.019.131.019.911-.112,1.823-.279,2.734-.409l16.09-2.344q12.946-12.583,25.911-25.168c15.105-14.695,31.548-28.571,44.551-45.219Q694.14,59.332,716.8,30.334A38.141,38.141,0,0,0,691.963,30c-11.011,3.646-18.582,12.463-26.432,20.517C644.047,72.578,621.967,92.909,598.9,113.352Z" fill="#333"/>
    <path d="M503.328,111.789c-3.293,2.325-8.371,2.809-12.165,3.85-14.49,3.963-29.856,10.231-44.755,12.259-4.446.595-8.966-1.228-13.319-2.269q-9.625-2.318-19.233-4.651a3.372,3.372,0,0,1-1.9-1.116c-3.8,1.1-7.571,2.214-11.347,3.311,11.514,2.623,23.028,5.376,34.375,8.557,16.183,4.557,31.938,10.621,48.177,15.03,6.548,1.785,13.412,2.343,20.127,3.31,2.864.428,5.729.838,8.612,1.247.093-.074.167-.13.261-.205,10.919-6.733,23.623-10.975,35.639-15.253q8.622-3.069,17.337-5.915c1.712-.577,3.46-1.246,5.227-1.693a6.61,6.61,0,0,0,1.172-.428c12.537-8.891,23.717-21.168,35.175-31.324,8.371-7.4,17.057-14.6,25.168-22.322a3.453,3.453,0,0,1,.241-.986q14.37-36.579,28.739-73.14A63.49,63.49,0,0,0,650.576.46c-9.6,1.172-19.513,4.8-25.782,12.5-12.7,15.644-15.011,38.208-25.149,55.283-4.687,7.887-14.769,14.342-21.5,20.5-5.1,4.688-10.23,9.263-15.364,13.821a3.241,3.241,0,0,1-1.563,1.358c-10.156,8.947-20.442,17.708-31.008,26.358-3.683,3.013-8.966-2.232-5.264-5.264,8.686-7.106,17.634-13.989,26.023-21.448,1.767-1.544,3.5-3.125,5.245-4.706,3.609-13.8,7.366-27.251,9.338-41.388q3.6-25.78,7.2-51.581A30.522,30.522,0,0,0,558.8,8.961c-14.249,7.422-16.09,26.34-18.787,40.458-1.712,8.984-1.972,18.285-3.7,27.2-.93,4.818-4.966,7.143-8.556,10.491-4.558,4.241-9.059,8.557-13.449,12.965C510.787,103.586,507.327,108.962,503.328,111.789Z" fill="#333"/>
    <path d="M721.3,154.07c-18.806-4.2-35.919,1.655-54.3,4.334q-39.621,5.775-79.26,11.533c-5.358.781-9.58.242-14.974-.54L531.7,163.482c-21.094-3.032-42.021-5.1-62.445-11.2-27.437-8.184-54.334-16.443-82.329-22.712a3.327,3.327,0,0,1-.688-.223c-11.719,3.59-23.363,7.4-34.9,11.737-21.615,8.129-44.16,14.118-66.425,20.108-4.651,1.247-6.6-5.934-1.991-7.18q12.166-3.264,24.275-6.771c13.634-3.943,27.362-7.887,40.7-12.8,7.422-2.716,14.361-6.009,21.969-8.315,27.716-8.389,56.064-15.105,83.315-24.945a230.425,230.425,0,0,0,43.843-21.651c11.124-7.032,12.556-19.476,7.106-30.972-4.52-9.524-18.862-7.329-27.94-7.012-25.8.893-49.851,7.85-73.382,18.1-18.452,8.054-38.3,13.114-58.538,12.556-26.693-.763-53.106-10.789-79.241-15.514-17.374-3.143-35.138-5.562-52.847-4.985-16.648.539-29.259,5.525-43.154,14.49-25.652,16.555-47.694,37.2-71,56.716-9.013,7.552-2.812,2.317-98.025,54,6.765,26.257,28.578,71.956,98.686,83.128q4.288-2.6,8.658-5.044c31.641-17.559,66.815-30.338,102.976-33.761,43.565-4.148,89.268,6.083,132.014,13.616,17.987,3.162,35.975,6.715,54.13,8.854,13.355,1.582,22.619.837,35.063-4.613,4.3-1.878,22.47-12.2,35.863-19.866,1.284-.186,2.586-.39,3.869-.576a4.311,4.311,0,0,1,1.395.037c5.116-.856,11.087.3,16.053.521,14.416.632,28.814,1.32,43.193,2.343,14.825,1.06,29.873,4.986,44.68,4.409,10.082-.409,19.233-5.469,28.534-9.04,11.738-4.5,23.531-8.8,35.343-13.077,21.6-7.831,43.192-15.681,64.9-23.177a29.009,29.009,0,0,0,3.05-1.116c4.278-1.73,8.52-3.627,12.779-5.432l22.824-9.71C737.686,159.018,729.017,155.8,721.3,154.07Z" fill="#333"/>
  </g>
</svg>
