<svg xmlns="http://www.w3.org/2000/svg" width="133.834" height="126.196" viewBox="0 0 133.834 126.196">
  <g>
    <g>
      <path d="M101.468,66.259c.085-.981.137-1.971.137-2.974a34,34,0,1,0-68,0c0,.865.043,1.72.107,2.569Q67.591,65.991,101.468,66.259Z" fill="#efd05f"/>
      <path d="M54.246,65.953a31.886,31.886,0,0,1,3.807-32.3A31.91,31.91,0,0,0,34.728,64.382c0,.495.015.986.037,1.476Q44.506,65.9,54.246,65.953Z" fill="#d57c6a" opacity="0.52"/>
      <g>
        <path d="M45.892.4c-3.04,7.49,8.26,8.64,10.96,13.88a5.911,5.911,0,0,1,.53,1.45,6.025,6.025,0,0,0-.49,2.23h-.06a7.919,7.919,0,0,0-.68-3.22c-1.05-2.12-3.04-3.26-4.92-4.45-3.26-2.05-7.13-4.31-6.54-8.08.35-.61.73-1.21,1.11-1.8a.266.266,0,0,0-.02-.33A.233.233,0,0,1,45.892.4Z" fill="#3a3a3a"/>
        <path d="M122.1,29.519a.434.434,0,0,0-.69.13,5.074,5.074,0,0,1-.87,1.53,8.352,8.352,0,0,1-2.82.75c-3.9.64-5.57,2.64-8.72,4.48-4.75,2.77-11.84-1.2-15.45,3.65l-.56-.59a4.639,4.639,0,0,1,1.64-1.73.27.27,0,0,0,.49-.04c.03-.1.07-.2.1-.3a9.682,9.682,0,0,1,3.62-.79,1.739,1.739,0,0,1-.18.11.255.255,0,0,0,.22.46,8.119,8.119,0,0,0,1.29-.61c.74-.02,1.48,0,2.17.01a11.211,11.211,0,0,0,4.12-.65,2.348,2.348,0,0,1-.25.19c-.21.15.03.52.26.39a5.448,5.448,0,0,0,1.58-1.28c1.45-.75,2.82-1.74,4.48-2.76,2.89-1.79,6.49-.78,9.04-3.15A.327.327,0,0,1,122.1,29.519Z" fill="#3a3a3a"/>
        <path d="M120.682,60.689a10.521,10.521,0,0,1,1.86-.06,4.015,4.015,0,0,0,1.07-.14,2.663,2.663,0,0,0,1.8-.56.245.245,0,0,0,.01-.36.351.351,0,0,0,.08-.05.3.3,0,0,1,.38.45c-1.26,1.23-2.34,1.31-4.01,1.3-1.75-.02-3.18.96-4.81,1.37a5.6,5.6,0,0,1-1.16.17c-.27.01-.29-.45-.02-.48C117.662,62.179,118.972,60.989,120.682,60.689Z" fill="#3a3a3a"/>
        <path d="M18.522,47.419c-1.61-1.08-3.47-.79-4.87-2.08a7.478,7.478,0,0,0,2.25.43c2.02,0,3.63-1.51,5.64-.75A6.974,6.974,0,0,0,22.5,47a9.166,9.166,0,0,0,2.94,2.28c.15.09.3.18.44.28a7.86,7.86,0,0,1-2.76,1.45C21.152,50.939,20.042,48.439,18.522,47.419Z" fill="#efd05f"/>
        <path d="M30.982,45.429a8.729,8.729,0,0,1-2.23-1.54c0-.02,0-.03-.02-.03a9.078,9.078,0,0,0-1.52-2.01c1.67,1.37,3.17,3.23,5.46,3.43,1.18.1,2.21-.11,3.1.56-.22-.04-.38.3-.17.42.16.09.32.19.48.29a.177.177,0,0,1-.17-.02C34.3,45.559,32.622,46.159,30.982,45.429Z" fill="#3a3a3a"/>
        <path d="M28.752,43.889c1.65,2.76,2.71,6.19,6.15,6.76a.364.364,0,0,1,.23.14c-.08.18-.14.36-.21.54a.138.138,0,0,1-.09,0A5.7,5.7,0,0,1,31.4,49.4c-1.84-2.07-2.65-5.25-4.55-7.33.61.57,1.23,1.21,1.88,1.79C28.742,43.869,28.742,43.879,28.752,43.889Z" fill="#3a3a3a"/>
        <path d="M92.7,40.649a.3.3,0,0,0,.47-.04,5.9,5.9,0,0,1,.38-.55,37.412,37.412,0,0,1,6.49,9.68c-.17.07-.34.14-.52.2-.3.1-.14.61.17.53.2-.05.4-.11.6-.17a34.888,34.888,0,0,1,3.02,15.68,2.452,2.452,0,0,1-.02.27c-.45.02-.92.02-1.39.02a30.9,30.9,0,0,0-.17-5.92,35.148,35.148,0,0,0-9.28-19.46Z" fill="#3a3a3a"/>
        <path d="M77.312,30.189a8,8,0,0,1-.28.97.2.2,0,0,1-.26.11.213.213,0,0,1-.13-.2c.02-.36.02-.71.01-1.04C76.872,30.069,77.092,30.129,77.312,30.189Z" fill="#3a3a3a"/>
        <path d="M26.732,41.939a.211.211,0,0,1,.18-.34c.1.08.2.16.3.25a9.078,9.078,0,0,1,1.52,2.01c-.65-.58-1.27-1.22-1.88-1.79A1.538,1.538,0,0,0,26.732,41.939Z" fill="#3a3a3a"/>
        <path d="M100.292,50.3c-.08-.19-.17-.38-.25-.56a11.268,11.268,0,0,0,3.3-2.09c1.01-.92,1.63-2.23,2.6-3.14a5.34,5.34,0,0,0-.28.59c-.12.3.34.55.51.26.05-.08.1-.16.16-.24a.452.452,0,0,0,.2-.01,10.138,10.138,0,0,1-2.76,3.33A9.47,9.47,0,0,1,100.292,50.3Z" fill="#3a3a3a"/>
        <path d="M93.572,7.839a.236.236,0,0,1,.09-.06.2.2,0,0,1,.11-.03.343.343,0,0,1,.3.42c-.46.18-.91.38-1.32.59A8.361,8.361,0,0,1,93.572,7.839Z" fill="#3a3a3a"/>
        <path d="M31.122,39.5c-2.86-.96-4.07-4.02-7.26-4.46-4.37-.6-7.84,2.64-10.22-1.43V33.6a10.26,10.26,0,0,1-.16-1.34c-.01-.25-.34-.28-.48-.11a.236.236,0,0,1,.45-.08c3.13,5.65,6.41,1.67,10.49,2.07a6.288,6.288,0,0,1,3.05,1.18c.01,0,.01,0,.01.01a5.383,5.383,0,0,0,3.09,2.69.232.232,0,0,0,.29-.25,8.38,8.38,0,0,0,1.47.64,5.3,5.3,0,0,0,1.26.74c.27.12.47-.26.26-.44a13.227,13.227,0,0,0,1.61.08,11.925,11.925,0,0,1,2.07.01,5.568,5.568,0,0,1,3.66,2.41,9.854,9.854,0,0,0-.67.78C37.262,38.679,34.7,40.7,31.122,39.5Z" fill="#3a3a3a"/>
        <path d="M92.192,17.729c.26-3.68-1.54-6.15.56-8.97.41-.21.86-.41,1.32-.59a.419.419,0,0,1-.09.14c-3.49,3.49-.03,7.37-1.13,11.19a13.549,13.549,0,0,1-.66,1.75,2.507,2.507,0,0,0-1.7,2.22.246.246,0,0,0,.49.04,2.092,2.092,0,0,1,.74-1.18,5.615,5.615,0,0,0-.33,2.85c.14,1.31.53,2.35.54,3.58-.21.13-.42.27-.63.41-.32-1.84-1.38-3.25-1.16-5.15C90.412,21.739,92.022,20.1,92.192,17.729Z" fill="#3a3a3a"/>
        <path d="M88.672,11.269a7.972,7.972,0,0,1,4.99-3.49.236.236,0,0,0-.09.06,8.361,8.361,0,0,0-.82.92,7.813,7.813,0,0,0-3.71,3.69c-.42.88-.65,1.86-1.13,2.72a5.9,5.9,0,0,1-3.07,2.73,23.6,23.6,0,0,1-3.72,1.12.3.3,0,0,0,.18-.28,6.242,6.242,0,0,1,.09-.77,14.6,14.6,0,0,0,3.64-1.1C87.392,15.569,87.452,13.329,88.672,11.269Z" fill="#3a3a3a"/>
        <path d="M64.742,1.649c2.59,4.47,8.4,7.04,9.55,12.3a8.8,8.8,0,0,1,.15,2.02,5.575,5.575,0,0,0-.62,1.37.212.212,0,0,0,.4.14,3.478,3.478,0,0,1,.21-.48v.23a12.312,12.312,0,0,0,1.02,5.24,5.55,5.55,0,0,0,.06,1.93c.05.27.49.27.49-.02.01-.21.02-.42.04-.61l.03.06c1.09,2.21,1.76,4.09,1.24,6.36-.22-.06-.44-.12-.66-.16-.11-3.49-1.76-5.61-2.73-8.8-.86-2.84.3-5.82-.86-8.6-1.72-4.15-6.36-6.23-8.58-10.17,0-.22,0-.44.02-.66a.238.238,0,0,0-.2-.26A.311.311,0,0,1,64.742,1.649Z" fill="#3a3a3a"/>
        <path d="M32.822,61.409c.01-.26.04-.53.07-.8l.35.06a.382.382,0,0,1-.07.76C33.052,61.419,32.942,61.409,32.822,61.409Z" fill="#3a3a3a"/>
        <path d="M46.8,36.319c-.13-.08-.25-.17-.37-.26a36.468,36.468,0,0,1,5.2-3.11,2.512,2.512,0,0,0,.79.37c.31.1.59-.34.28-.53-.11-.07-.22-.14-.31-.21.97-.45,1.96-.86,2.96-1.23.01.03.03.07.04.11.14.37.77.17.67-.22a.5.5,0,0,0-.04-.13,38.078,38.078,0,0,1,6.31-1.58,5.924,5.924,0,0,1,.3.62.31.31,0,0,0,.35.18l.06.41A35.953,35.953,0,0,0,41.262,42.5l-.07-.07a.5.5,0,0,0-.01-.59c-.16-.22-.31-.43-.47-.63.15-.19.31-.37.48-.55a35.005,35.005,0,0,1,4.77-4.26c.19.11.4.23.62.34C46.832,36.859,47.032,36.469,46.8,36.319Z" fill="#3a3a3a"/>
        <path d="M33.752,55.349a37.974,37.974,0,0,1,1.17-4.02.343.343,0,0,0,.21-.54,32.147,32.147,0,0,1,1.68-3.83,3.932,3.932,0,0,0,.56.24.291.291,0,0,0,.36-.17l.22.13a31.116,31.116,0,0,0-3.14,8.3.4.4,0,0,0-.26-.08A5.153,5.153,0,0,1,33.752,55.349Z" fill="#3a3a3a"/>
        <path d="M99.632,30.7a19.93,19.93,0,0,1,.49-2.06.182.182,0,0,1,.35.08c-.01.17-.02.34-.02.5A3.535,3.535,0,0,1,99.632,30.7Z" fill="#3a3a3a"/>
        <path d="M95.922,20.309c-1.07.82-3.09,1.06-4.2,2.02.14-.36.3-.7.47-1.08.84-.43,1.82-.72,2.49-1.05,2.02-.98,2.32-4.53,4.7-4.75a.277.277,0,0,1,.09.01,2.566,2.566,0,0,0-.84,1.11l-.01.01C97.562,17.709,97.222,19.309,95.922,20.309Z" fill="#3a3a3a"/>
        <path d="M106.462,35.929c1.99-1.53,2.43-3.88,3.29-6.13a11.561,11.561,0,0,1,.73-1.61,5.256,5.256,0,0,0,2.45-1.91.323.323,0,0,0,.06-.18.257.257,0,0,1,.04.39c-1.99,1.76-2.57,3.54-3.45,5.95a8.746,8.746,0,0,1-1.53,2.79A12.562,12.562,0,0,1,106.462,35.929Z" fill="#3a3a3a"/>
        <path d="M18.432,51.639c3.82.55,5.22.89,8.14-1.59A16.072,16.072,0,0,1,29.9,54c1.12,1.65,1.89,2.24,3.64,2.3a36.729,36.729,0,0,0-.65,4.31c-2.51-.41-5.12.25-7.61-.36-1.97-.49-3.7-2.07-5.58-2.85-4.17-1.72-8.62-.97-12.75-2.75a7.308,7.308,0,0,0,2.7-.16C12.872,53.649,14.742,51.109,18.432,51.639Z" fill="#d57c6a"/>
        <path d="M92.612,40.309a6.472,6.472,0,0,1,.38-.84l.56.59a5.9,5.9,0,0,0-.38.55.3.3,0,0,1-.47.04A.306.306,0,0,1,92.612,40.309Z" fill="#3a3a3a"/>
        <path d="M18.432,51.639c-3.69-.53-5.56,2.01-8.78,2.85a7.308,7.308,0,0,1-2.7.16,13.527,13.527,0,0,1-1.41-.73.052.052,0,0,0-.04-.02,10.442,10.442,0,0,0,6.43-1.24c1.32-.73,2.59-1.73,4.11-1.99a8.609,8.609,0,0,1,3.07.29,14.818,14.818,0,0,0,2.43.25,2.563,2.563,0,0,0,2.06.41.315.315,0,0,0-.11-.62,2.318,2.318,0,0,1-.37.01,7.86,7.86,0,0,0,2.76-1.45c.25.16.47.32.69.49C23.652,52.529,22.252,52.189,18.432,51.639Z" fill="#3a3a3a"/>
        <path d="M64.722,15.569a.288.288,0,0,1-.51.01c-.08-.13-.16-.27-.23-.41.16-.28.31-.56.45-.83.09.34.19.67.29,1A.362.362,0,0,1,64.722,15.569Z" fill="#3a3a3a"/>
        <path d="M33.372,38.709c.21.18.01.56-.26.44a5.3,5.3,0,0,1-1.26-.74A9.3,9.3,0,0,0,33.372,38.709Z" fill="#3a3a3a"/>
        <path d="M18.952,48.659c-1.84-1.79-4.87-1.16-6.12-3.57.27.08.55.17.82.25,1.4,1.29,3.26,1,4.87,2.08,1.52,1.02,2.63,3.52,4.6,3.59a5.7,5.7,0,0,1-1.58.2A19.555,19.555,0,0,1,18.952,48.659Z" fill="#3a3a3a"/>
        <path d="M76.652,30.029a35.879,35.879,0,0,0-13.54-.62,7.181,7.181,0,0,0-2.09-2.78.331.331,0,0,0,0-.22c-1.69-4.94,1.65-7.36,3.85-10.74a10.86,10.86,0,0,0,1.3-2.62c1.26-3.82-1.63-6.87-1.69-10.59,2.22,3.94,6.86,6.02,8.58,10.17,1.16,2.78,0,5.76.86,8.6C74.892,24.419,76.542,26.539,76.652,30.029Z" fill="#d57c6a"/>
        <path d="M13.642,33.6a9.615,9.615,0,0,1-.63-1.32.2.2,0,0,1-.01-.13c.14-.17.47-.14.48.11A10.26,10.26,0,0,0,13.642,33.6Z" fill="#3a3a3a"/>
        <path d="M43.152,9.519c-.6-2.71.27-5.08,1.54-7.31-.59,3.77,3.28,6.03,6.54,8.08,1.88,1.19,3.87,2.33,4.92,4.45a7.919,7.919,0,0,1,.68,3.22,38.767,38.767,0,0,0,.14,4.06c.55,3.82,3.76,4.51,5.36,7.51a38.078,38.078,0,0,0-6.31,1.58c-.86-2.86-4.84-3.62-4.6-6.95a.2.2,0,0,0-.23-.22.178.178,0,0,0-.3.16,3.533,3.533,0,0,1,.07.59,2.944,2.944,0,0,0,0,.42v.03c-.05,2.49-1.39,6.39.67,7.81a36.468,36.468,0,0,0-5.2,3.11c-5.8-4.27,1.56-10.51,1.69-15.57.05-1.98-.9-3.6-1.86-5.24C45.162,13.359,43.652,11.729,43.152,9.519Z" fill="#efd05f"/>
        <path d="M100.042,49.739c.08.18.17.37.25.56-.2.06-.4.12-.6.17-.31.08-.47-.43-.17-.53C99.7,49.879,99.872,49.809,100.042,49.739Z" fill="#3a3a3a"/>
        <path d="M31.662,28.789c-.24-3.82-3.79-4.87-5.18-7.99a8.278,8.278,0,0,1,.18-6.09.256.256,0,0,1,.31-.16.288.288,0,0,0-.15.31,4.679,4.679,0,0,0,.18.76.573.573,0,0,1,.04.14c.01,0,.01,0,0,.01a9.113,9.113,0,0,0,2.76,7.64,10.669,10.669,0,0,1,2.46,3.25c1.47,3.89-3.24,9.01,1.09,12.03.01.01.02.01.02.02a9.3,9.3,0,0,1-1.52-.3c-1.8-1.48-1.26-3.69-.72-5.96a.307.307,0,0,0,.42-.33,1.5,1.5,0,0,0-.22-.54A9.753,9.753,0,0,0,31.662,28.789Z" fill="#3a3a3a"/>
        <path d="M26.9,15.059a.246.246,0,0,1,.27-.25v.02c-.05.31-.1.61-.12.91a.612.612,0,0,1-.05-.12A3.887,3.887,0,0,1,26.9,15.059Z" fill="#3a3a3a"/>
        <path d="M12.842,61.619a.06.06,0,0,1-.03-.06Z" fill="#3a3a3a"/>
        <path d="M117.382,64.209a76.025,76.025,0,0,1-14.09,2.04,2.452,2.452,0,0,0,.02-.27,34.888,34.888,0,0,0-3.02-15.68,9.47,9.47,0,0,0,3.48-1.86,10.138,10.138,0,0,0,2.76-3.33c3.63-1.21,8.98,2.99,12.03,4.45,3.93,1.87,6.99.06,9.57-2.9a12.834,12.834,0,0,1-2.72,4.81c-1.42,1.4-3.18,1.89-4.89,2.83-1.55.85-2.81,1.91-4.12,2.77a7.762,7.762,0,0,1-6.11,1.4c-.22-.05-.28.29-.08.37,2.95,1.18,5.04.23,7.1-1.17,2.11.45,4.22,2.74,6.3,2.82a4.015,4.015,0,0,1-1.07.14,10.521,10.521,0,0,0-1.86.06c-1.71.3-3.02,1.49-4.8,1.64-.27.03-.25.49.02.48a5.6,5.6,0,0,0,1.16-.17Z" fill="#efd05f"/>
        <path d="M92.752,8.759c-2.1,2.82-.3,5.29-.56,8.97-.17,2.37-1.78,4.01-2.05,6.29-.22,1.9.84,3.31,1.16,5.15-1.99,1.39-3.59,3.12-3.83,5.67a31.912,31.912,0,0,0-4.72-2.69,32.429,32.429,0,0,0-5.44-1.96c.52-2.27-.15-4.15-1.24-6.36l-.03-.06c.33-3.33,2.47-4.1,4.97-4.73a.359.359,0,0,0,.11-.02,23.6,23.6,0,0,0,3.72-1.12,5.9,5.9,0,0,0,3.07-2.73c.48-.86.71-1.84,1.13-2.72A7.813,7.813,0,0,1,92.752,8.759Z" fill="#efd05f"/>
        <path d="M76.642,31.069a.213.213,0,0,0,.13.2l-.03.14a34.18,34.18,0,0,0-13.7-.67l-.06-.41a.317.317,0,0,0,.3-.39,4.109,4.109,0,0,0-.17-.53,35.879,35.879,0,0,1,13.54.62C76.662,30.359,76.662,30.709,76.642,31.069Z" fill="#3a3a3a"/>
        <path d="M58.372,2.609c.16,2.76,2.96,3.97,4.2,6.24a27.513,27.513,0,0,1,1.86,5.49c-.14.27-.29.55-.45.83-1.31-2.47-1.25-5.35-3.17-7.61-1.34-1.58-2.86-2.41-2.87-4.48a4.446,4.446,0,0,1,.38-.54c.01-.01.01-.01.01-.02A.1.1,0,0,1,58.372,2.609Z" fill="#3a3a3a"/>
        <path d="M91.3,29.189a.315.315,0,0,0,.62-.03c.01-.14.01-.27.01-.4,1.09-.71,2.26-1.32,3.37-1.92a.236.236,0,0,0,.37.09,3.055,3.055,0,0,0,.69-.7c5.07-3.08,6.09-9.76,11.65-12.06a.241.241,0,0,1,.32.17.251.251,0,0,0-.36-.06,2.085,2.085,0,0,0-1.1,1.34c-3.13,2.84-4.27,6.79-7.46,9.64-3.98,3.56-10.06,4.01-11.37,9.96-.19-.13-.38-.26-.57-.38.24-2.55,1.84-4.28,3.83-5.67Z" fill="#3a3a3a"/>
        <path d="M57.122,19.4a4.791,4.791,0,0,1-.23-1.44,6.025,6.025,0,0,1,.49-2.23,7.694,7.694,0,0,1,.21,1.58,5.226,5.226,0,0,0-.11,2.02A.184.184,0,0,1,57.122,19.4Z" fill="#3a3a3a"/>
        <path d="M28.662,50.409c1.92,2.01,2.09,4.64,5.09,4.94-.08.31-.15.63-.21.95-1.75-.06-2.52-.65-3.64-2.3a16.072,16.072,0,0,0-3.33-3.95c.07-.05.15-.12.23-.19a.4.4,0,0,0-.51-.61c-.14.11-.28.21-.41.31-.14-.1-.29-.19-.44-.28A9.166,9.166,0,0,1,22.5,47a6.974,6.974,0,0,1-.96-1.98,2.443,2.443,0,0,1,.24.1c.3.13.56-.2.5-.46l.14-.06a7.634,7.634,0,0,0,.84,1.56C24.742,48.2,26.962,48.639,28.662,50.409Z" fill="#3a3a3a"/>
        <path d="M117.312,57.669c-2.06,1.4-4.15,2.35-7.1,1.17-.2-.08-.14-.42.08-.37a7.762,7.762,0,0,0,6.11-1.4l.05.08c-.16.11-.13.44.1.43A2.472,2.472,0,0,1,117.312,57.669Z" fill="#3a3a3a"/>
        <path d="M59.822,10.5c.19,2.52-1.67,4.47-2.23,6.81a7.694,7.694,0,0,0-.21-1.58c.06-.17.13-.34.2-.52,1.06-2.57,1.93-4.13.66-6.96-1.01-2.24-2.53-4.1-.19-5.96.15-.12.39.06.28.23-.08-.14-.35-.08-.37.11-.01.15-.02.3-.02.45C56.332,5.769,59.622,7.809,59.822,10.5Z" fill="#3a3a3a"/>
        <path d="M5.542,53.919a13.527,13.527,0,0,0,1.41.73,12.785,12.785,0,0,1-1.54-.27c-.04-.03-.09-.06-.13-.09a.226.226,0,0,1,.08-.4h.01a.615.615,0,0,0,.13.01A.052.052,0,0,1,5.542,53.919Z" fill="#3a3a3a"/>
        <path d="M34.9,50.649c-3.44-.57-4.5-4-6.15-6.76a8.729,8.729,0,0,0,2.23,1.54c1.64.73,3.32.13,4.93,1.1a.177.177,0,0,0,.17.02c.24.14.48.29.73.41a32.147,32.147,0,0,0-1.68,3.83A.364.364,0,0,0,34.9,50.649Z" fill="#883929"/>
        <path d="M56.062,31.239c.1.39-.53.59-.67.22-.01-.04-.03-.08-.04-.11.23-.08.45-.16.67-.24A.5.5,0,0,1,56.062,31.239Z" fill="#3a3a3a"/>
        <path d="M56.972,22.019a38.767,38.767,0,0,1-.14-4.06h.06a4.791,4.791,0,0,0,.23,1.44.184.184,0,0,0,.36-.07,5.226,5.226,0,0,1,.11-2.02c.09,1.73-.18,3.47.32,5.26a7.1,7.1,0,0,0,2.3,3.33,8.036,8.036,0,0,0,.32.75.267.267,0,0,0,.49-.02,7.181,7.181,0,0,1,2.09,2.78q-.39.045-.78.12C60.732,26.529,57.522,25.839,56.972,22.019Z" fill="#3a3a3a"/>
        <path d="M31.332,31.579c-.05.29-.12.57-.2.87a.284.284,0,0,1-.11-.08c-1.59-1.82-4.2-2.03-6.16-3.19a7.181,7.181,0,0,0-1.3-1.52c-.02-.01-.03-.02-.05-.03a.2.2,0,0,1,.28-.01c1.43,1.21,3.26,1.62,4.97,2.29A5.114,5.114,0,0,1,31.332,31.579Z" fill="#3a3a3a"/>
        <path d="M51.632,32.949c-2.06-1.42-.72-5.32-.67-7.81a3.692,3.692,0,0,0,.41,1.39c-.16,2.26-.67,4.74,1.02,6.05C52.142,32.7,51.882,32.819,51.632,32.949Z" fill="#3a3a3a"/>
        <path d="M12.812,61.559c-.06-.18.16-.41.33-.25a3.056,3.056,0,0,0,1.35.69,2.809,2.809,0,0,1-1.56-.29.159.159,0,0,1-.09-.09Z" fill="#3a3a3a"/>
        <path d="M79.7,5.889a6.345,6.345,0,0,0,.31,4.95c.54,1.24,1.3,2.25,1.41,3.64.11,1.34-.63,2.42-.77,3.68-2.56.73-4.84,1.84-5.2,4.31a12.312,12.312,0,0,1-1.02-5.24V17c.94-1.91,2.99-3.03,3.52-5.25C78.5,9.429,77.862,7.5,79.7,5.889Z" fill="#efd05f"/>
        <path d="M90.672,37.289a2.91,2.91,0,0,0,.06.57.228.228,0,0,0,.45-.02.3.3,0,0,1,.02-.1c.61.56,1.21,1.14,1.79,1.73a6.472,6.472,0,0,0-.38.84.306.306,0,0,0,.09.34l-.25.24a33.128,33.128,0,0,0-15.31-9.38c-.13-.04-.27-.07-.4-.1l.03-.14a.2.2,0,0,0,.26-.11,8,8,0,0,0,.28-.97,32.429,32.429,0,0,1,5.44,1.96,31.912,31.912,0,0,1,4.72,2.69q-.03.375-.03.78a.256.256,0,0,0,.51.05c.03-.15.06-.31.09-.45C88.952,35.869,89.832,36.559,90.672,37.289Z" fill="#3a3a3a"/>
        <path d="M98.842,36.609c.01.01.01,0,.01,0,.44-.03.88-.05,1.32-.04a8.119,8.119,0,0,1-1.29.61.255.255,0,0,1-.22-.46A1.739,1.739,0,0,0,98.842,36.609Z" fill="#3a3a3a"/>
        <path d="M90.732,37.859a2.91,2.91,0,0,1-.06-.57c.18.15.35.3.53.45a.3.3,0,0,0-.02.1A.228.228,0,0,1,90.732,37.859Z" fill="#3a3a3a"/>
        <path d="M95.922,20.309c1.3-1,1.64-2.6,2.7-3.73a19.057,19.057,0,0,0-.8,2.9c-.25.91-.48,1.83-.78,2.72-.48,1.41-.62,3.29-1.69,4.36a.222.222,0,0,0-.05.28c-1.11.6-2.28,1.21-3.37,1.92-.01-1.23-.4-2.27-.54-3.58a5.615,5.615,0,0,1,.33-2.85C92.832,21.369,94.852,21.129,95.922,20.309Z" fill="#d57c6a"/>
        <path d="M25.282,60.249c2.49.61,5.1-.05,7.61.36-.03.27-.06.54-.07.8-2.43-.12-4.8.51-7.18-.13a29.967,29.967,0,0,1-5.22-2.54l.15-.09c.22-.14.05-.44-.15-.48a2.028,2.028,0,0,0-1.06.09c-4.63-1.84-9.74-.81-13.95-3.88a12.785,12.785,0,0,0,1.54.27c4.13,1.78,8.58,1.03,12.75,2.75C21.582,58.179,23.312,59.759,25.282,60.249Z" fill="#3a3a3a"/>
        <path d="M28.732,43.859c.02,0,.02.01.02.03C28.742,43.879,28.742,43.869,28.732,43.859Z" fill="#3a3a3a"/>
        <path d="M81.012,19.039c-2.5.63-4.64,1.4-4.97,4.73-.23-.46-.43-.89-.59-1.3.36-2.47,2.64-3.58,5.2-4.31a2.978,2.978,0,0,0-.02.52A.374.374,0,0,0,81.012,19.039Z" fill="#3a3a3a"/>
        <path d="M99.472,15.459a.222.222,0,0,1,.05.41,3.939,3.939,0,0,0-.89.7A2.566,2.566,0,0,1,99.472,15.459Z" fill="#3a3a3a"/>
        <path d="M20.812,63.479c-1.4-1.98-4.2-.93-6.32-1.48a4.434,4.434,0,0,0,2.04-.81c.61-.42,1.15-.92,1.75-1.35.68-.49,1.45-.68,2.14-1.1a29.967,29.967,0,0,0,5.22,2.54c2.38.64,4.75.01,7.18.13a36.6,36.6,0,0,0-.09,4.44v.01q-6.06-.03-12.13-.04l.01-1.91A.26.26,0,0,0,20.812,63.479Z" fill="#883929"/>
        <path d="M99.072,33.169c-1.37,1.52-3.09,2.26-3.85,4.23a4.994,4.994,0,0,0-.59.34.205.205,0,0,1-.05-.17c.19-1.61,1.33-2.6,2.52-3.58a7.463,7.463,0,0,0,2.21-2.37,4.251,4.251,0,0,0,.31-.91l.01-.01a3.535,3.535,0,0,0,.82-1.48A5.822,5.822,0,0,1,99.072,33.169Z" fill="#3a3a3a"/>
        <path d="M29.122,17.669c1.13.89,2.07.72,3.39.59a.244.244,0,0,1,.2.42,2.189,2.189,0,0,1-.25.2,5.955,5.955,0,0,1-3.22-.54,4.59,4.59,0,0,1-2.13-2.4,1.169,1.169,0,0,1-.06-.2c.02-.3.07-.6.12-.91v-.02a.165.165,0,0,1,.15.12,9.158,9.158,0,0,0,.61,1.31,3.227,3.227,0,0,0,.74,1.01c0,.01.01.01.02.02A3.284,3.284,0,0,0,29.122,17.669Z" fill="#3a3a3a"/>
        <path d="M120.522,54.3c1.71-.94,3.47-1.43,4.89-2.83a12.834,12.834,0,0,0,2.72-4.81c.13-.14.26-.29.38-.44a.226.226,0,0,0,.05-.15.223.223,0,0,1,.18.24c-.26,4.49-3.31,6.55-6.93,8.36a27.04,27.04,0,0,0-3.81,2.52,4.46,4.46,0,0,0-1.47-.06.188.188,0,0,0-.08.02l-.05-.08C117.712,56.209,118.972,55.149,120.522,54.3Z" fill="#3a3a3a"/>
        <path d="M24.862,29.179a5.238,5.238,0,0,1-1.4-1.18.263.263,0,0,1,.05-.37c.02.01.03.02.05.03A7.181,7.181,0,0,1,24.862,29.179Z" fill="#3a3a3a"/>
        <path d="M51.422,24.159c-.24,3.33,3.74,4.09,4.6,6.95-.22.08-.44.16-.67.24-.84-2.08-3.04-3.08-3.98-4.82a7.273,7.273,0,0,0-.11-2.49.145.145,0,0,0-.07-.1A.2.2,0,0,1,51.422,24.159Z" fill="#3a3a3a"/>
        <path d="M34.922,51.329a37.974,37.974,0,0,0-1.17,4.02c-3-.3-3.17-2.93-5.09-4.94L31.4,49.4a5.7,5.7,0,0,0,3.43,1.93A.138.138,0,0,0,34.922,51.329Z" fill="#d57c6a"/>
        <path d="M110.482,28.189a4.253,4.253,0,0,1,2.36-2.11.189.189,0,0,1,.15.01v.01a.323.323,0,0,1-.06.18A5.256,5.256,0,0,1,110.482,28.189Z" fill="#3a3a3a"/>
        <path d="M51.372,26.529a3.692,3.692,0,0,1-.41-1.39v-.03a2.94,2.94,0,0,0,0-.42,3.88,3.88,0,0,1,.05-.57.2.2,0,0,1,.18-.18.145.145,0,0,1,.07.1A7.273,7.273,0,0,1,51.372,26.529Z" fill="#3a3a3a"/>
        <path d="M103.9,29.4a3.931,3.931,0,0,0-.96.91c-.01.02-.03.04-.03.06l-.1-.02c.48-2.3.67-4.78,1.58-6.99.99-2.4,1.37-5.12,2.35-7.42.05-.12.09-.22.13-.32a12.679,12.679,0,0,1,1.38-1.08.173.173,0,0,0,.08-.2.238.238,0,0,1,.01.28c-1.17,1.9-1.45,5.19-2.32,7.33A34.687,34.687,0,0,0,103.9,29.4Z" fill="#3a3a3a"/>
        <path d="M31.132,32.449c.08-.3.15-.58.2-.87a1.5,1.5,0,0,1,.22.54A.307.307,0,0,1,31.132,32.449Z" fill="#3a3a3a"/>
        <path d="M63.282,29.939a.317.317,0,0,1-.3.39.31.31,0,0,1-.35-.18,5.924,5.924,0,0,0-.3-.62q.39-.075.78-.12A4.109,4.109,0,0,1,63.282,29.939Z" fill="#3a3a3a"/>
        <path d="M81.392,17.969a6.242,6.242,0,0,0-.09.77.3.3,0,0,1-.18.28.359.359,0,0,1-.11.02.374.374,0,0,1-.38-.36,2.978,2.978,0,0,1,.02-.52l.69-.18C81.362,17.979,81.372,17.969,81.392,17.969Z" fill="#3a3a3a"/>
        <path d="M93.652,33.3c-1.58.84-3.06,2.13-2.98,3.99-.84-.73-1.72-1.42-2.63-2.07,1.31-5.95,7.39-6.4,11.37-9.96,3.19-2.85,4.33-6.8,7.46-9.64-.04.1-.08.2-.13.32-.98,2.3-1.36,5.02-2.35,7.42-.91,2.21-1.1,4.69-1.58,6.99-.53,2.5-1.4,4.79-3.96,6.26,0,0,0,.01-.01,0a9.682,9.682,0,0,0-3.62.79c.76-1.97,2.48-2.71,3.85-4.23a5.822,5.822,0,0,0,1.38-3.95,2.768,2.768,0,0,0,.1-.5.265.265,0,0,0-.51-.11C98.8,31.4,96.152,31.969,93.652,33.3Z" fill="#d57c6a"/>
        <path d="M13.142,61.309c-.17-.16-.39.07-.33.25a.215.215,0,0,1,.22-.32c1.9.18,2.82-.45,4.24-1.6a7.448,7.448,0,0,1,2.09-1.38c.21.08.41.17.61.26.15.07.3.14.45.22-.69.42-1.46.61-2.14,1.1-.6.43-1.14.93-1.75,1.35a4.434,4.434,0,0,1-2.04.81A3.056,3.056,0,0,1,13.142,61.309Z" fill="#3a3a3a"/>
        <path d="M132.552,34.849c1.77,0,1.5,2.75-.26,2.75S130.792,34.849,132.552,34.849Z" fill="#3a3a3a"/>
        <path d="M128.562,46.069a.226.226,0,0,1-.05.15c-.12.15-.25.3-.38.44.06-.15.11-.3.17-.45A.22.22,0,0,1,128.562,46.069Z" fill="#3a3a3a"/>
        <path d="M128.562,46.069a.22.22,0,0,0-.26.14c-.06.15-.11.3-.17.45-2.58,2.96-5.64,4.77-9.57,2.9-3.05-1.46-8.4-5.66-12.03-4.45a3.956,3.956,0,0,0,.15-.45.109.109,0,0,0,.01-.05,4.418,4.418,0,0,1,.44-.53c1.89-.34,4.56,1.1,5.98,1.73a.181.181,0,0,0,.13.25,2.043,2.043,0,0,0,.59.08c1.23.57,2.43,1.2,3.62,1.86,4.28,2.38,7.33,1.48,10.68-2.13C128.292,45.7,128.552,45.869,128.562,46.069Z" fill="#3a3a3a"/>
        <path d="M124.722,28.1a1.194,1.194,0,0,1,1.06,1.29,1.207,1.207,0,0,1-1.29,1.06,1.19,1.19,0,0,1-1.06-1.28A1.215,1.215,0,0,1,124.722,28.1Z" fill="#3a3a3a"/>
        <path d="M125.422,59.569a.245.245,0,0,1-.01.36,2.663,2.663,0,0,1-1.8.56A5.352,5.352,0,0,0,125.422,59.569Z" fill="#3a3a3a"/>
        <path d="M125.222,59.509a.206.206,0,0,1,.2.06,5.352,5.352,0,0,1-1.81.92c-2.08-.08-4.19-2.37-6.3-2.82l.69-.48a6.777,6.777,0,0,1,2.22.94C121.962,59.189,123.112,60.019,125.222,59.509Z" fill="#3a3a3a"/>
        <path d="M124.662,55.039c.75,0,.63,1.16-.11,1.16S123.922,55.039,124.662,55.039Z" fill="#3a3a3a"/>
        <path d="M122.1,29.519a.361.361,0,0,1,.08.3,5.308,5.308,0,0,1-2.27,3.36c-.51.37-1.04.56-1.56.9a10.3,10.3,0,0,0-3.33,3.59,9.819,9.819,0,0,1-3.18,3.01,3.433,3.433,0,0,0-1.39.15c-.3.09-.24.56.09.49a1.737,1.737,0,0,1,.39-.05,17.648,17.648,0,0,0-3.8,2.81,1.979,1.979,0,0,0-.63.18.277.277,0,0,0-.34.04,1.446,1.446,0,0,0-.22.21c1.49-2.8,4.65-3.48,6.93-5.61,1.48-1.37,1.89-3.42,3.45-4.7,1.5-1.24,3.1-1.68,4.22-3.02a4.971,4.971,0,0,0,1.51-1.43A.282.282,0,0,0,122.1,29.519Z" fill="#3a3a3a"/>
        <path d="M122.1,29.519a.282.282,0,0,1-.05.23,4.971,4.971,0,0,1-1.51,1.43,5.074,5.074,0,0,0,.87-1.53A.434.434,0,0,1,122.1,29.519Z" fill="#3a3a3a"/>
        <path d="M121.672,41.009a.3.3,0,0,1-.13.58c-2.25-.25-3.34,1.46-4.76,2.91a4.29,4.29,0,0,1-2.95,1.64c-.22-.1-.43-.2-.65-.3a.488.488,0,0,0-.07-.03.229.229,0,0,1,.23-.18c2.3.06,3.71-2.88,5.54-4.2v-.01a4.478,4.478,0,0,1,2.16.11c.27.08.5-.29.24-.45a4.075,4.075,0,0,0-.6-.29A2.915,2.915,0,0,1,121.672,41.009Z" fill="#3a3a3a"/>
        <path d="M121.282,41.079c.26.16.03.53-.24.45a4.478,4.478,0,0,0-2.16-.11,2.984,2.984,0,0,1,1.8-.63A4.075,4.075,0,0,1,121.282,41.079Z" fill="#3a3a3a"/>
        <path d="M120.682,40.789a2.984,2.984,0,0,0-1.8.63v.01c-1.32.22-2.5.87-3.99.84-1.44-.03-2.54-1.09-3.96-1,.31-.2.61-.39.91-.59a3.61,3.61,0,0,1,.79.19c1.4.47,2.37.87,3.89.41S119.262,40.239,120.682,40.789Z" fill="#3a3a3a"/>
        <path d="M117.722,31.929a8.352,8.352,0,0,0,2.82-.75c-1.12,1.34-2.72,1.78-4.22,3.02-1.56,1.28-1.97,3.33-3.45,4.7-2.28,2.13-5.44,2.81-6.93,5.61-.97.91-1.59,2.22-2.6,3.14a11.268,11.268,0,0,1-3.3,2.09,37.412,37.412,0,0,0-6.49-9.68c3.61-4.85,10.7-.88,15.45-3.65C112.152,34.569,113.822,32.569,117.722,31.929Z" fill="#d57c6a"/>
        <path d="M116.532,57.129a4.46,4.46,0,0,1,1.47.06l-.69.48a2.472,2.472,0,0,0-.76-.09c-.23.01-.26-.32-.1-.43A.188.188,0,0,1,116.532,57.129Z" fill="#3a3a3a"/>
        <path d="M117.222,19.409a1.05,1.05,0,0,1,.08,2.07l-.18.03a1.074,1.074,0,1,1-.08-2.13Z" fill="#3a3a3a"/>
        <path d="M114.892,42.269c1.49.03,2.67-.62,3.99-.84-1.83,1.32-3.24,4.26-5.54,4.2a.229.229,0,0,0-.23.18c-1.42-.63-4.09-2.07-5.98-1.73a17.648,17.648,0,0,1,3.8-2.81C112.352,41.179,113.452,42.239,114.892,42.269Z" fill="#efd05f"/>
        <path d="M113.182,45.839c.22.1.43.2.65.3a2.043,2.043,0,0,1-.59-.08.181.181,0,0,1-.13-.25A.488.488,0,0,1,113.182,45.839Z" fill="#3a3a3a"/>
        <path d="M112.992,26.089a.189.189,0,0,0-.15-.01,4.253,4.253,0,0,0-2.36,2.11c-2.13.85-4.71.7-6.71,2.02.04-.28.09-.55.13-.81a6.463,6.463,0,0,1,2.54-.94c2.35-.44,4.3-.63,5.96-2.55A.333.333,0,0,1,112.992,26.089Z" fill="#3a3a3a"/>
        <path d="M110.452,40.829a3.433,3.433,0,0,1,1.39-.15c-.3.2-.6.39-.91.59a1.737,1.737,0,0,0-.39.05C110.212,41.389,110.152,40.919,110.452,40.829Z" fill="#3a3a3a"/>
        <path d="M110.832,20.5a1.264,1.264,0,0,1,.1,2.49.425.425,0,0,1-.11.02c-1.93.42-1.87-2.92-.1-2.53A.425.425,0,0,1,110.832,20.5Z" fill="#3a3a3a"/>
        <path d="M110.482,28.189a11.561,11.561,0,0,0-.73,1.61c-.86,2.25-1.3,4.6-3.29,6.13a11.211,11.211,0,0,1-4.12.65c-.69-.01-1.43-.03-2.17-.01,2.25-1.3,3.12-3.38,3.57-6.2.01-.05.02-.11.03-.16C105.772,28.889,108.352,29.039,110.482,28.189Z" fill="#efd05f"/>
        <path d="M108.332,14.339a.173.173,0,0,1-.08.2,12.679,12.679,0,0,0-1.38,1.08,2.085,2.085,0,0,1,1.1-1.34A.251.251,0,0,1,108.332,14.339Z" fill="#3a3a3a"/>
        <path d="M107.132,44.079a4.418,4.418,0,0,0-.44.53.366.366,0,0,0-.19-.35A1.979,1.979,0,0,1,107.132,44.079Z" fill="#3a3a3a"/>
        <path d="M108.052,35.229a5.448,5.448,0,0,1-1.58,1.28c-.23.13-.47-.24-.26-.39a2.348,2.348,0,0,0,.25-.19A12.562,12.562,0,0,0,108.052,35.229Z" fill="#3a3a3a"/>
        <path d="M106.5,44.259a.366.366,0,0,1,.19.35,2.946,2.946,0,0,0-.36.51c-.29-.06-.51-.42-.21-.64A2.08,2.08,0,0,1,106.5,44.259Z" fill="#3a3a3a"/>
        <path d="M106.692,44.609a.109.109,0,0,1-.01.05,3.956,3.956,0,0,1-.15.45.452.452,0,0,1-.2.01A2.946,2.946,0,0,1,106.692,44.609Z" fill="#3a3a3a"/>
        <path d="M106.162,44.3a.277.277,0,0,1,.34-.04,2.08,2.08,0,0,0-.38.22c-.3.22-.08.58.21.64-.06.08-.11.16-.16.24-.17.29-.63.04-.51-.26a5.34,5.34,0,0,1,.28-.59A1.446,1.446,0,0,1,106.162,44.3Z" fill="#3a3a3a"/>
        <path d="M103.9,29.4c-.04.26-.09.53-.13.81a6.406,6.406,0,0,0-.52.39.215.215,0,0,1-.34-.23c0-.02.02-.04.03-.06A3.931,3.931,0,0,1,103.9,29.4Z" fill="#3a3a3a"/>
        <path d="M103.772,30.209c-.01.05-.02.11-.03.16-.45,2.82-1.32,4.9-3.57,6.2-.44-.01-.88.01-1.32.04,2.56-1.47,3.43-3.76,3.96-6.26l.1.02a.215.215,0,0,0,.34.23A6.406,6.406,0,0,1,103.772,30.209Z" fill="#3a3a3a"/>
        <path d="M103.412,6.579c1.08,0,.92,1.68-.16,1.68S102.332,6.579,103.412,6.579Z" fill="#3a3a3a"/>
        <path d="M100.042,28.609a.265.265,0,0,1,.51.11,2.768,2.768,0,0,1-.1.5c0-.16.01-.33.02-.5a.182.182,0,0,0-.35-.08,19.93,19.93,0,0,0-.49,2.06l-.01.01a9.619,9.619,0,0,1-3.13,2.04c-2.52,1.18-4.9,1.93-5.29,4.99-.18-.15-.35-.3-.53-.45-.08-1.86,1.4-3.15,2.98-3.99C96.152,31.969,98.8,31.4,100.042,28.609Z" fill="#3a3a3a"/>
        <path d="M100.232,60.789a29.689,29.689,0,0,1,.28,5.47c-.31,0-.62-.01-.93-.01.13-3.19.03-2.59.18-5.44A.238.238,0,0,1,100.232,60.789Z" fill="#3a3a3a"/>
        <path d="M99.522,15.429c.25-.15.45.19.33.4-1.04,1.76-1.31,3.91-1.91,5.84-.44,1.42-.66,3.31-1.58,4.56a3.371,3.371,0,0,1-.32.19c-.24.14-.49.27-.74.42a.222.222,0,0,1,.05-.28c1.07-1.07,1.21-2.95,1.69-4.36.3-.89.53-1.81.78-2.72a19.057,19.057,0,0,1,.8-2.9l.01-.01a3.939,3.939,0,0,1,.89-.7.222.222,0,0,0-.05-.41C99.492,15.449,99.5,15.439,99.522,15.429Z" fill="#3a3a3a"/>
        <path d="M99.622,30.709a4.251,4.251,0,0,1-.31.91,7.463,7.463,0,0,1-2.21,2.37c-1.19.98-2.33,1.97-2.52,3.58a.205.205,0,0,0,.05.17,4.639,4.639,0,0,0-1.64,1.73c-.58-.59-1.18-1.17-1.79-1.73.39-3.06,2.77-3.81,5.29-4.99A9.619,9.619,0,0,0,99.622,30.709Z" fill="#883929"/>
        <path d="M97.342,9.469c1.28,0,1.09,1.98-.18,1.98C95.872,11.449,96.072,9.469,97.342,9.469Z" fill="#3a3a3a"/>
        <path d="M96.972,51.149c.13.17-.08.45-.27.3a6.069,6.069,0,0,1-1.56-2.09c-.14-.29.3-.49.45-.21A18.218,18.218,0,0,0,96.972,51.149Z" fill="#3a3a3a"/>
        <path d="M96.042,26.419a3.371,3.371,0,0,0,.32-.19,3.055,3.055,0,0,1-.69.7.236.236,0,0,1-.37-.09C95.552,26.689,95.8,26.559,96.042,26.419Z" fill="#3a3a3a"/>
        <path d="M95.222,37.4c-.03.1-.07.2-.1.3a.27.27,0,0,1-.49.04A4.994,4.994,0,0,1,95.222,37.4Z" fill="#3a3a3a"/>
        <path d="M94.4,51.189a.211.211,0,0,1-.38.18c-3.28-5.73-8.33-10.7-14.64-12.92-.26-.09-.11-.46.14-.39C85.392,39.639,92.182,45.489,94.4,51.189Z" fill="#3a3a3a"/>
        <path d="M94.172,7.619c.26-.07.39.36.14.45a2.443,2.443,0,0,0-.24.1.343.343,0,0,0-.3-.42C93.9,7.7,94.032,7.659,94.172,7.619Z" fill="#3a3a3a"/>
        <path d="M93.262,45.969c.13.23-.23.46-.38.25-4.43-5.94-10.33-9.67-17.26-12.14-.22-.08-.09-.41.13-.34C82.322,35.769,89.852,39.709,93.262,45.969Z" fill="#3a3a3a"/>
        <path d="M91.932,28.759c0,.13,0,.26-.01.4a.315.315,0,0,1-.62.03v-.02C91.512,29.029,91.722,28.889,91.932,28.759Z" fill="#3a3a3a"/>
        <path d="M92.192,21.249c-.17.38-.33.72-.47,1.08a2.092,2.092,0,0,0-.74,1.18.246.246,0,0,1-.49-.04A2.507,2.507,0,0,1,92.192,21.249Z" fill="#3a3a3a"/>
        <path d="M88.042,35.219c-.03.14-.06.3-.09.45a.256.256,0,0,1-.51-.05q0-.405.03-.78C87.662,34.959,87.852,35.089,88.042,35.219Z" fill="#3a3a3a"/>
        <path d="M85.1,4.229c-.5-.6-.99-1.2-1.49-1.8a2.589,2.589,0,0,1,.72.21,1.545,1.545,0,0,1,.22.12,1.047,1.047,0,0,1,.11.08A1.693,1.693,0,0,1,84.812,5C84.912,4.739,85,4.479,85.1,4.229Z" fill="#3a3a3a"/>
        <path d="M83.612,2.429c.5.6.99,1.2,1.49,1.8-.1.25-.19.51-.29.77a1.693,1.693,0,0,0-.15-2.16,1.548,1.548,0,0,1-.21,2.66,1.834,1.834,0,0,1-1.94-.07,1.7,1.7,0,0,1-.41-2.3,1.765,1.765,0,0,1,2.39-.42.265.265,0,0,1,.06.05,1.545,1.545,0,0,0-.22-.12A2.589,2.589,0,0,0,83.612,2.429Z" fill="#3a3a3a"/>
        <path d="M81.872,12.979c.7,1.95-.18,3.25-.48,4.99-.02,0-.03.01-.05.01l-.69.18c.14-1.26.88-2.34.77-3.68-.11-1.39-.87-2.4-1.41-3.64a6.345,6.345,0,0,1-.31-4.95,4.187,4.187,0,0,1,.56-.44c.01-.01.02-.01.02-.02a.108.108,0,0,1,0,.11C79.242,8.5,80.952,10.389,81.872,12.979Z" fill="#3a3a3a"/>
        <path d="M79.992,5.019c.24-.11.5.23.29.41a.194.194,0,0,0-.37-.03,5.156,5.156,0,0,0-.21.49c-1.84,1.61-1.2,3.54-1.75,5.86-.53,2.22-2.58,3.34-3.52,5.25,0-.36.01-.69.01-1.03a12.128,12.128,0,0,1,1.03-1.32,7.355,7.355,0,0,0,2.03-5.01C77.622,7.549,77.892,5.929,79.992,5.019Z" fill="#3a3a3a"/>
        <path d="M80.282,5.429c0,.01-.01.01-.02.02a4.187,4.187,0,0,0-.56.44,5.156,5.156,0,0,1,.21-.49A.194.194,0,0,1,80.282,5.429Z" fill="#3a3a3a"/>
        <path d="M76.042,23.769c-.02.19-.03.4-.04.61,0,.29-.44.29-.49.02a5.55,5.55,0,0,1-.06-1.93C75.612,22.879,75.812,23.309,76.042,23.769Z" fill="#3a3a3a"/>
        <path d="M75.192,1.439c1.19,0,1.01,1.84-.17,1.84S74.012,1.439,75.192,1.439Z" fill="#3a3a3a"/>
        <path d="M74.442,15.969c0,.34-.01.67-.01,1.03a3.478,3.478,0,0,0-.21.48.212.212,0,0,1-.4-.14A5.575,5.575,0,0,1,74.442,15.969Z" fill="#3a3a3a"/>
        <path d="M67.892,34.879a.193.193,0,0,1,.01.38,21.469,21.469,0,0,1-2.66.04c-.3,0-.25-.46.04-.46A20.642,20.642,0,0,1,67.892,34.879Z" fill="#3a3a3a"/>
        <path d="M66.782,31.969a.218.218,0,0,1-.09.42c-2.57-.23-5.03-.34-7.41.86-.27.14-.46-.28-.2-.42A9.92,9.92,0,0,1,66.782,31.969Z" fill="#3a3a3a"/>
        <path d="M64.482,2.459c.06,3.72,2.95,6.77,1.69,10.59a10.86,10.86,0,0,1-1.3,2.62l-.15-.1a.362.362,0,0,0,0-.23c-.1-.33-.2-.66-.29-1,1.13-2.28,1.24-4.33.19-7.62A10.65,10.65,0,0,1,64,1.749a.239.239,0,0,1,.3-.21.263.263,0,0,0-.11.37C64.282,2.1,64.382,2.279,64.482,2.459Z" fill="#3a3a3a"/>
        <path d="M64.722,15.569l.15.1c-2.2,3.38-5.54,5.8-3.85,10.74a.331.331,0,0,1,0,.22c-.27-.24-.54-.48-.81-.73-1.2-3.2.26-5.69,2.26-8.46.59-.82,1.1-1.56,1.51-2.27.07.14.15.28.23.41A.288.288,0,0,0,64.722,15.569Z" fill="#3a3a3a"/>
        <path d="M64.3,1.539a.238.238,0,0,1,.2.26c-.02.22-.02.44-.02.66-.1-.18-.2-.36-.29-.55A.263.263,0,0,1,64.3,1.539Z" fill="#3a3a3a"/>
        <path d="M60.812,7.559c1.92,2.26,1.86,5.14,3.17,7.61-.41.71-.92,1.45-1.51,2.27-2,2.77-3.46,5.26-2.26,8.46a7.1,7.1,0,0,1-2.3-3.33c-.5-1.79-.23-3.53-.32-5.26.56-2.34,2.42-4.29,2.23-6.81-.2-2.69-3.49-4.73-1.88-7.42C57.952,5.149,59.472,5.979,60.812,7.559Z" fill="#efd05f"/>
        <path d="M62.1,35.989c.27,0,.28.45.02.47-5.86.42-12.08,3.02-15.52,7.98-.14.2-.44-.02-.31-.22A19.887,19.887,0,0,1,62.1,35.989Z" fill="#3a3a3a"/>
        <path d="M60.212,25.9c.27.25.54.49.81.73a.267.267,0,0,1-.49.02A8.036,8.036,0,0,1,60.212,25.9Z" fill="#3a3a3a"/>
        <path d="M60.652,42.679a.208.208,0,0,1,.02.41,8.005,8.005,0,0,0-4.52,2c-.23.22-.53-.15-.31-.36A6.343,6.343,0,0,1,60.652,42.679Z" fill="#3a3a3a"/>
        <path d="M58.332,2.519c0,.01,0,.01-.01.02a4.446,4.446,0,0,0-.38.54c0-.15.01-.3.02-.45C57.982,2.439,58.252,2.379,58.332,2.519Z" fill="#3a3a3a"/>
        <path d="M56.252,34c.23-.03.35.3.13.39a16.324,16.324,0,0,0-2.82,1.45c-.27.18-.61-.2-.33-.39A7.185,7.185,0,0,1,56.252,34Z" fill="#3a3a3a"/>
        <path d="M52.7,32.789c.31.19.03.63-.28.53a2.512,2.512,0,0,1-.79-.37c.25-.13.51-.25.76-.37C52.482,32.649,52.592,32.719,52.7,32.789Z" fill="#3a3a3a"/>
        <path d="M55.352,31.349c-1,.37-1.99.78-2.96,1.23-1.69-1.31-1.18-3.79-1.02-6.05C52.312,28.269,54.512,29.269,55.352,31.349Z" fill="#883929"/>
        <path d="M50.892,24.1a.178.178,0,0,1,.3-.16.2.2,0,0,0-.18.18,3.88,3.88,0,0,0-.05.57A3.533,3.533,0,0,0,50.892,24.1Z" fill="#3a3a3a"/>
        <path d="M50.962,24.689a2.94,2.94,0,0,1,0,.42A2.944,2.944,0,0,1,50.962,24.689Z" fill="#3a3a3a"/>
        <path d="M48.612,38.079a.231.231,0,0,1,.3.35c-6.47,6.36-11.2,11.68-12.69,20.97-.04.25-.42.22-.39-.03A29.872,29.872,0,0,1,48.612,38.079Z" fill="#3a3a3a"/>
        <path d="M46.262,15.249c.96,1.64,1.91,3.26,1.86,5.24-.13,5.06-7.49,11.3-1.69,15.57-.16.11-.31.22-.47.34-4.43-2.73-1.6-7.71.14-11.73a.348.348,0,0,0,.46-.37,3.257,3.257,0,0,0-.1-.49q.12-.27.21-.54c2.08-5.69-3.23-8.58-4.31-13.61-.76-3.49.71-6.99,3-9.56a.272.272,0,0,1,.38-.04.309.309,0,0,0-.37.15,6.865,6.865,0,0,0-.68,2c-1.27,2.23-2.14,4.6-1.54,7.31C43.652,11.729,45.162,13.359,46.262,15.249Z" fill="#3a3a3a"/>
        <path d="M46.8,36.319c.23.15.03.54-.22.42-.22-.11-.43-.23-.62-.34.16-.12.31-.23.47-.34C46.552,36.149,46.672,36.239,46.8,36.319Z" fill="#3a3a3a"/>
        <path d="M46.562,24.3a.348.348,0,0,1-.46.37c.13-.3.25-.58.36-.86A3.257,3.257,0,0,1,46.562,24.3Z" fill="#3a3a3a"/>
        <path d="M46.462,23.809c-.11.28-.23.56-.36.86a.3.3,0,0,1-.18-.17c-1.03-2.34-3.95-.67-5.67-1.17-2-.59-2.89-2.8-4.59-3.82a5.727,5.727,0,0,0-3.2-.63,2.189,2.189,0,0,0,.25-.2.244.244,0,0,0-.2-.42c-1.32.13-2.26.3-3.39-.59a3.284,3.284,0,0,1-.43-.4c1.77,1.57,4.63.05,6.67.97,2.64,1.19,3.05,4.09,6.56,4.26C43.832,22.589,45.892,21.669,46.462,23.809Z" fill="#3a3a3a"/>
        <path d="M45.922,24.5a.3.3,0,0,0,.18.17c-1.74,4.02-4.57,9-.14,11.73a35.005,35.005,0,0,0-4.77,4.26c-.17.18-.33.36-.48.55a5.568,5.568,0,0,0-3.66-2.41,11.925,11.925,0,0,0-2.07-.01,13.227,13.227,0,0,1-1.61-.08c0-.01-.01-.01-.02-.02-4.33-3.02.38-8.14-1.09-12.03a10.669,10.669,0,0,0-2.46-3.25,9.113,9.113,0,0,1-2.76-7.64.865.865,0,0,1,.07.17c.76,2.08,3.36,4.39,5.35,2.94a5.727,5.727,0,0,1,3.2.63c1.7,1.02,2.59,3.23,4.59,3.82C41.972,23.829,44.892,22.159,45.922,24.5Z" fill="#d57c6a"/>
        <path d="M45.782.079a.266.266,0,0,1,.02.33c-.38.59-.76,1.19-1.11,1.8a6.865,6.865,0,0,1,.68-2,.309.309,0,0,1,.37-.15C45.762.069,45.772.069,45.782.079Z" fill="#3a3a3a"/>
        <path d="M44.3,46.4c.27-.15.53.27.29.45a4.857,4.857,0,0,0-1.05,1.12c-.28.45-.39.97-.66,1.42-.14.23-.43.05-.44-.16A3.736,3.736,0,0,1,44.3,46.4Z" fill="#3a3a3a"/>
        <path d="M41.182,41.839a.5.5,0,0,1,.01.59.458.458,0,0,1-.77.05c-.13-.18-.26-.34-.38-.49a9.854,9.854,0,0,1,.67-.78C40.872,41.409,41.022,41.619,41.182,41.839Z" fill="#3a3a3a"/>
        <path d="M41.192,42.429l.07.07a30.124,30.124,0,0,0-2.08,2.69c-.44.63-.85,1.29-1.23,1.97l-.22-.13a.262.262,0,0,0-.1-.32,4.4,4.4,0,0,0-.52-.3,28,28,0,0,1,2.93-4.42c.12.15.25.31.38.49A.458.458,0,0,0,41.192,42.429Z" fill="#3a3a3a"/>
        <path d="M37.632,46.709a.262.262,0,0,1,.1.32.291.291,0,0,1-.36.17,3.932,3.932,0,0,1-.56-.24c.1-.19.2-.37.3-.55A4.4,4.4,0,0,1,37.632,46.709Z" fill="#3a3a3a"/>
        <path d="M40.042,41.989a28,28,0,0,0-2.93,4.42c-.42-.21-.86-.37-1.29-.56a.09.09,0,0,0-.05-.01c-.89-.67-1.92-.46-3.1-.56-2.29-.2-3.79-2.06-5.46-3.43a2.079,2.079,0,0,0-.21-.21.122.122,0,0,0-.09-.04c-.01-.01-.03-.02-.04-.03-.2-.16-.4.15-.22.32.07.06.13.12.2.18,1.9,2.08,2.71,5.26,4.55,7.33l-2.74,1.01c-1.7-1.77-3.92-2.21-5.4-4.25a7.634,7.634,0,0,1-.84-1.56c-.66-1.65-.9-3.38-2.36-4.66-2.52-2.21-5.65-2.43-6.42-6.33,2.38,4.07,5.85.83,10.22,1.43,3.19.44,4.4,3.5,7.26,4.46C34.7,40.7,37.262,38.679,40.042,41.989Z" fill="#d57c6a"/>
        <path d="M37.112,46.409c-.1.18-.2.36-.3.55-.25-.12-.49-.27-.73-.41a.2.2,0,0,0,.1-.33,2.4,2.4,0,0,0-.41-.38.09.09,0,0,1,.05.01C36.252,46.039,36.692,46.2,37.112,46.409Z" fill="#3a3a3a"/>
        <path d="M36.182,46.219a.2.2,0,0,1-.1.33c-.16-.1-.32-.2-.48-.29-.21-.12-.05-.46.17-.42A2.4,2.4,0,0,1,36.182,46.219Z" fill="#3a3a3a"/>
        <path d="M35.132,50.789a.343.343,0,0,1-.21.54C34.992,51.149,35.052,50.969,35.132,50.789Z" fill="#3a3a3a"/>
        <path d="M34.812,55.459a.49.49,0,0,1-.18.8C34.692,55.989,34.752,55.729,34.812,55.459Z" fill="#3a3a3a"/>
        <path d="M34.812,55.459c-.06.27-.12.53-.18.8a.329.329,0,0,1-.17.04c-.34.01-.64.02-.92,0,.06-.32.13-.64.21-.95a5.153,5.153,0,0,0,.8.03A.4.4,0,0,1,34.812,55.459Z" fill="#3a3a3a"/>
        <path d="M34.462,56.3a.329.329,0,0,0,.17-.04,38.955,38.955,0,0,0-.71,9.6h-1.19v-.01a36.6,36.6,0,0,1,.09-4.44c.12,0,.23.01.35.02a.382.382,0,0,0,.07-.76l-.35-.06a36.729,36.729,0,0,1,.65-4.31C33.822,56.319,34.122,56.309,34.462,56.3Z" fill="#3a3a3a"/>
        <path d="M29.242,18.339a5.955,5.955,0,0,0,3.22.54c-1.99,1.45-4.59-.86-5.35-2.94A4.59,4.59,0,0,0,29.242,18.339Z" fill="#3a3a3a"/>
        <path d="M31.022,32.369a.284.284,0,0,0,.11.08c-.54,2.27-1.08,4.48.72,5.96a8.38,8.38,0,0,1-1.47-.64.148.148,0,0,0-.09-.13c-3.17-1.85-3.54-5.66-5.43-8.46C26.822,30.339,29.432,30.549,31.022,32.369Z" fill="#efd05f"/>
        <path d="M30.382,37.769a.232.232,0,0,1-.29.25A5.383,5.383,0,0,1,27,35.329c.29.19.58.41.88.65A20.048,20.048,0,0,0,30.382,37.769Z" fill="#3a3a3a"/>
        <path d="M30.292,37.639a.148.148,0,0,1,.09.13,20.048,20.048,0,0,1-2.5-1.79c-.3-.24-.59-.46-.88-.65,0-.01,0-.01-.01-.01-1.34-2.34-1.87-5.51-3.72-7.35-.17-.16.06-.42.24-.34a.263.263,0,0,0-.05.37,5.238,5.238,0,0,0,1.4,1.18C26.752,31.979,27.122,35.789,30.292,37.639Z" fill="#3a3a3a"/>
        <path d="M27.932,16.239a5.245,5.245,0,0,0,.74,1.01A3.227,3.227,0,0,1,27.932,16.239Z" fill="#3a3a3a"/>
        <path d="M27.422,14.749a5.877,5.877,0,0,0,.51,1.49,9.158,9.158,0,0,1-.61-1.31.165.165,0,0,0-.15-.12.243.243,0,0,0-.2-.26A.3.3,0,0,1,27.422,14.749Z" fill="#3a3a3a"/>
        <path d="M27.212,41.849c-.1-.09-.2-.17-.3-.25a.122.122,0,0,1,.09.04A2.079,2.079,0,0,1,27.212,41.849Z" fill="#3a3a3a"/>
        <path d="M26.972,14.549a.243.243,0,0,1,.2.26.246.246,0,0,0-.27.25,3.887,3.887,0,0,0,.1.56,4.679,4.679,0,0,1-.18-.76A.288.288,0,0,1,26.972,14.549Z" fill="#3a3a3a"/>
        <path d="M27.052,15.739a1.169,1.169,0,0,0,.06.2.865.865,0,0,0-.07-.17c.01-.01.01-.01,0-.01A.031.031,0,0,1,27.052,15.739Z" fill="#3a3a3a"/>
        <path d="M27.052,15.739a.031.031,0,0,0-.01.02.573.573,0,0,0-.04-.14A.612.612,0,0,0,27.052,15.739Z" fill="#3a3a3a"/>
        <path d="M26.912,41.6a.211.211,0,0,0-.18.34,1.538,1.538,0,0,1,.12.13c-.07-.06-.13-.12-.2-.18-.18-.17.02-.48.22-.32C26.882,41.579,26.9,41.589,26.912,41.6Z" fill="#3a3a3a"/>
        <path d="M26.292,49.249a.4.4,0,0,1,.51.61c-.08.07-.16.14-.23.19-.22-.17-.44-.33-.69-.49C26.012,49.459,26.152,49.359,26.292,49.249Z" fill="#3a3a3a"/>
        <path d="M23.492,51a.315.315,0,0,1,.11.62,2.563,2.563,0,0,1-2.06-.41,5.7,5.7,0,0,0,1.58-.2A2.318,2.318,0,0,0,23.492,51Z" fill="#3a3a3a"/>
        <path d="M22.422,44.6l-.14.06a.328.328,0,0,0-.15-.2,3.481,3.481,0,0,0-.97-.41c-.01-.03-.03-.06-.04-.09-1.34-2.88-3.41-3.77-5.73-5.5a6.9,6.9,0,0,1-2.45-6.18.161.161,0,0,1,.06-.13.2.2,0,0,0,.01.13,9.615,9.615,0,0,0,.63,1.32v.01c.77,3.9,3.9,4.12,6.42,6.33C21.522,41.219,21.762,42.949,22.422,44.6Z" fill="#3a3a3a"/>
        <path d="M22.282,44.659c.06.26-.2.59-.5.46a2.443,2.443,0,0,0-.24-.1c-.12-.32-.23-.65-.38-.97a3.481,3.481,0,0,1,.97.41A.328.328,0,0,1,22.282,44.659Z" fill="#3a3a3a"/>
        <path d="M21.162,44.049c.15.32.26.65.38.97-2.01-.76-3.62.75-5.64.75a7.478,7.478,0,0,1-2.25-.43,3.836,3.836,0,0,1-.52-.59c-.15-.2-.47.02-.36.23.02.04.04.07.06.11l-.34-.09c-.29-.07-.15-.48.11-.48a17.231,17.231,0,0,1,2.36.45,6.774,6.774,0,0,0,3.32-.54A5.281,5.281,0,0,1,21.162,44.049Z" fill="#3a3a3a"/>
        <path d="M20.812,63.479a.26.26,0,0,1-.2.43.282.282,0,0,1-.15-.04,10.313,10.313,0,0,0-4.79-.99,3.48,3.48,0,0,1-2.83-1.26.159.159,0,0,0,.09.09,2.809,2.809,0,0,0,1.56.29C16.612,62.549,19.412,61.5,20.812,63.479Z" fill="#3a3a3a"/>
        <path d="M20.422,58.169c.2.04.37.34.15.48l-.15.09c-.15-.08-.3-.15-.45-.22-.2-.09-.4-.18-.61-.26A2.028,2.028,0,0,1,20.422,58.169Z" fill="#3a3a3a"/>
        <path d="M18.3,23.069c1.11,0,.94,1.71-.16,1.71S17.2,23.069,18.3,23.069Z" fill="#3a3a3a"/>
        <path d="M13.132,44.749a3.836,3.836,0,0,0,.52.59c-.27-.08-.55-.17-.82-.25-.02-.04-.04-.07-.06-.11C12.662,44.769,12.982,44.549,13.132,44.749Z" fill="#3a3a3a"/>
        <path d="M8.032,40.149c1.68-.43,1.85,2.75-.2,2.23-.03-.01-.07-.01-.1-.02-1.19-.3-.78-1.94.2-2.19C7.962,40.159,8,40.159,8.032,40.149Z" fill="#3a3a3a"/>
        <path d="M6.882,28.159a.671.671,0,0,1,.05,1.04,2.2,2.2,0,0,1-.18.14.84.84,0,1,1-.06-1.33C6.752,28.059,6.822,28.109,6.882,28.159Z" fill="#3a3a3a"/>
        <path d="M5.5,53.9a.615.615,0,0,1-.13-.01A.2.2,0,0,1,5.5,53.9Z" fill="#3a3a3a"/>
        <path d="M5.412,54.379a2.048,2.048,0,0,1-.24-.05c-.27-.07-.25-.48.05-.45a.66.66,0,0,0,.14.01.226.226,0,0,0-.08.4C5.322,54.319,5.372,54.349,5.412,54.379Z" fill="#3a3a3a"/>
        <path d="M1.892,61.459a1.733,1.733,0,0,1-.33,3.45A1.759,1.759,0,0,1,0,63.019,1.779,1.779,0,0,1,1.892,61.459Z" fill="#3a3a3a"/>
      </g>
    </g>
    <g>
      <path d="M101.549,59.94c.085.981.137,1.971.137,2.974a34,34,0,0,1-68,0c0-.865.043-1.72.107-2.568Q67.671,60.208,101.549,59.94Z" fill="#efd05f"/>
      <path d="M54.327,60.246a31.886,31.886,0,0,0,3.807,32.3A31.908,31.908,0,0,1,34.809,61.817c0-.495.015-.986.037-1.476Q44.585,60.3,54.327,60.246Z" fill="#d57c6a" opacity="0.52"/>
      <g>
        <path d="M132.632,91.347c1.77,0,1.5-2.74-.26-2.74S130.872,91.347,132.632,91.347Z" fill="#3a3a3a"/>
        <path d="M128.642,80.127a.213.213,0,0,0,.18-.23c-.26-4.5-3.31-6.56-6.92-8.37a28.12,28.12,0,0,1-3.83-2.51,4.706,4.706,0,0,1-1.46.05.188.188,0,0,1-.08-.02l-.05.08c1.31.86,2.57,1.92,4.12,2.78,1.71.94,3.47,1.42,4.89,2.83a12.507,12.507,0,0,1,2.71,4.79c.13.14.26.3.39.45A.226.226,0,0,1,128.642,80.127Z" fill="#3a3a3a"/>
        <path d="M128.642,80.127a.226.226,0,0,0-.05-.15c-.13-.15-.26-.31-.39-.45.06.16.12.31.18.47A.2.2,0,0,0,128.642,80.127Z" fill="#3a3a3a"/>
        <path d="M128.642,80.127a.2.2,0,0,1-.26-.13c-.06-.16-.12-.31-.18-.47-2.58-2.95-5.64-4.76-9.56-2.88-3.05,1.45-8.4,5.65-12.03,4.44a3.956,3.956,0,0,1,.15.45.109.109,0,0,1,.01.05,4.7,4.7,0,0,0,.45.55c1.89.31,4.56-1.11,5.97-1.75a.181.181,0,0,1,.13-.25,2.043,2.043,0,0,1,.59-.08c1.23-.57,2.43-1.2,3.62-1.86,4.28-2.38,7.33-1.47,10.68,2.14C128.372,80.507,128.632,80.327,128.642,80.127Z" fill="#3a3a3a"/>
        <path d="M126.552,60.587a4.669,4.669,0,0,0,2.2-.81,76.156,76.156,0,0,0-9.7.94,13.426,13.426,0,0,0-1.79,1.14c-4.63,3.38-8.21,8.01-14.2,4.84-.04.29-.09.58-.14.86,2.85,1.94,5.58,1.5,8.2.08a7.045,7.045,0,0,0-.75.1c-.22.04-.28-.3-.08-.38a7.309,7.309,0,0,1,2.12-.51,32.439,32.439,0,0,0,2.65-2.01c.38-.32.75-.63,1.13-.94a1.81,1.81,0,0,0-.23-.03c-.27-.02-.25-.48.02-.47a4.175,4.175,0,0,1,.72.08,13.232,13.232,0,0,1,5.24-2.81C123.442,60.307,125.042,60.8,126.552,60.587Z" fill="#3a3a3a"/>
        <path d="M125.582,66.677a.291.291,0,0,0,.38-.44c-1.26-1.24-2.34-1.32-4.01-1.3-1.9.01-3.43-1.15-5.25-1.46l-.51.42c1.66.22,2.93,1.32,4.57,1.62a10.521,10.521,0,0,0,1.86.06,3.823,3.823,0,0,1,1.05.13,2.713,2.713,0,0,1,1.82.56.234.234,0,0,1,.01.35C125.532,66.637,125.552,66.657,125.582,66.677Z" fill="#3a3a3a"/>
        <path d="M128.2,79.527a12.507,12.507,0,0,0-2.71-4.79c-1.42-1.41-3.18-1.89-4.89-2.83-1.55-.86-2.81-1.92-4.12-2.78a7.789,7.789,0,0,0-5.36-1.49c-2.62,1.42-5.35,1.86-8.2-.08a35.286,35.286,0,0,1-2.55,8.34,9.494,9.494,0,0,1,3.48,1.87,10.122,10.122,0,0,1,2.76,3.32c3.63,1.21,8.98-2.99,12.03-4.44C122.562,74.767,125.622,76.577,128.2,79.527Z" fill="#efd05f"/>
        <path d="M124.8,98.1a1.194,1.194,0,0,0,1.06-1.29,1.215,1.215,0,0,0-1.29-1.06,1.194,1.194,0,0,0-1.06,1.29A1.215,1.215,0,0,0,124.8,98.1Z" fill="#3a3a3a"/>
        <path d="M125.5,66.617a.234.234,0,0,0-.01-.35,2.713,2.713,0,0,0-1.82-.56A5.692,5.692,0,0,1,125.5,66.617Z" fill="#3a3a3a"/>
        <path d="M125.3,66.7a.19.19,0,0,0,.2-.08,5.692,5.692,0,0,0-1.83-.91c-2.09.1-4.19,2.39-6.29,2.83.23.15.46.32.69.48a6.561,6.561,0,0,0,2.23-.95C122.052,67.007,123.192,66.177,125.3,66.7Z" fill="#3a3a3a"/>
        <path d="M124.742,71.157c.75,0,.63-1.16-.11-1.16S124,71.157,124.742,71.157Z" fill="#3a3a3a"/>
        <path d="M123.672,65.707a3.823,3.823,0,0,0-1.05-.13,10.521,10.521,0,0,1-1.86-.06c-1.64-.3-2.91-1.4-4.57-1.62-.38.31-.75.62-1.13.94a32.439,32.439,0,0,1-2.65,2.01,7.57,7.57,0,0,1,4.97,1.69C119.482,68.1,121.582,65.807,123.672,65.707Z" fill="#883929"/>
        <path d="M122.182,96.657a.3.3,0,0,0,.08-.28,5.288,5.288,0,0,0-2.27-3.35c-.51-.38-1.04-.57-1.56-.91a10.27,10.27,0,0,1-3.33-3.58,10.109,10.109,0,0,0-3.16-3.02,3.217,3.217,0,0,1-1.41-.15c-.3-.09-.23-.55.09-.49a1.737,1.737,0,0,0,.39.05,17.839,17.839,0,0,1-3.79-2.79,2.328,2.328,0,0,1-.65-.19.279.279,0,0,1-.33-.05c-.07-.06-.14-.12-.21-.19,1.5,2.78,4.65,3.48,6.92,5.59,1.48,1.37,1.89,3.42,3.45,4.71,1.5,1.24,3.1,1.67,4.2,3.01a4.876,4.876,0,0,1,1.53,1.43A.276.276,0,0,1,122.182,96.657Z" fill="#3a3a3a"/>
        <path d="M122.182,96.657a.276.276,0,0,0-.05-.21,4.876,4.876,0,0,0-1.53-1.43,5.158,5.158,0,0,1,.89,1.54A.412.412,0,0,0,122.182,96.657Z" fill="#3a3a3a"/>
        <path d="M122.182,96.657a.412.412,0,0,1-.69-.1,5.158,5.158,0,0,0-.89-1.54,8.064,8.064,0,0,0-2.8-.75c-3.9-.64-5.57-2.64-8.72-4.48-4.75-2.77-11.83,1.21-15.45-3.64-.18.19-.36.39-.55.58a4.642,4.642,0,0,0,1.63,1.74.268.268,0,0,1,.49.04c.03.1.07.2.1.29l.01.01a10.045,10.045,0,0,0,3.65.8,2.529,2.529,0,0,0-.22-.13.255.255,0,0,1,.22-.46,7.578,7.578,0,0,1,1.31.63c.73,0,1.46-.02,2.15-.03a11.472,11.472,0,0,1,4.13.66,2.348,2.348,0,0,0-.25-.19c-.22-.16.02-.53.25-.4a5.448,5.448,0,0,1,1.58,1.28c1.45.75,2.82,1.74,4.48,2.77,2.89,1.78,6.49.77,9.04,3.14A.326.326,0,0,0,122.182,96.657Z" fill="#3a3a3a"/>
        <path d="M121.752,85.187a.3.3,0,0,0-.13-.58c-2.25.25-3.34-1.46-4.76-2.91a4.29,4.29,0,0,0-2.95-1.64c-.22.1-.43.2-.65.3a.488.488,0,0,1-.07.03.237.237,0,0,0,.23.19c2.29-.06,3.7,2.85,5.51,4.19.01-.01.01,0,.01,0a4.423,4.423,0,0,0,2.18-.1c.27-.08.51.29.24.45a4.479,4.479,0,0,1-.58.29A2.811,2.811,0,0,0,121.752,85.187Z" fill="#3a3a3a"/>
        <path d="M121.362,85.117c.27-.16.03-.53-.24-.45a4.423,4.423,0,0,1-2.18.1,2.963,2.963,0,0,0,1.84.64A4.479,4.479,0,0,0,121.362,85.117Z" fill="#3a3a3a"/>
        <path d="M120.782,85.407a2.963,2.963,0,0,1-1.84-.64s0-.01-.01,0c-1.31-.23-2.48-.87-3.96-.84-1.44.03-2.54,1.09-3.96,1,.31.19.63.39.93.59a4.306,4.306,0,0,0,.77-.19c1.4-.46,2.37-.87,3.89-.41S119.362,85.967,120.782,85.407Z" fill="#3a3a3a"/>
        <path d="M117.8,94.267a8.064,8.064,0,0,1,2.8.75c-1.1-1.34-2.7-1.77-4.2-3.01-1.56-1.29-1.97-3.34-3.45-4.71-2.27-2.11-5.42-2.81-6.92-5.59-.01-.01-.01-.01-.01-.02-.97-.9-1.59-2.21-2.6-3.13a11.1,11.1,0,0,0-3.3-2.1,36.967,36.967,0,0,1-6.49,9.69c3.62,4.85,10.7.87,15.45,3.64C112.232,91.627,113.9,93.627,117.8,94.267Z" fill="#d57c6a"/>
        <path d="M117.262,61.857a13.426,13.426,0,0,1,1.79-1.14c-5.24.72-10.48,1.34-15.65-.29a33.682,33.682,0,0,1-.34,6.27C109.052,69.867,112.632,65.237,117.262,61.857Z" fill="#d57c6a"/>
        <path d="M116.612,69.067a4.706,4.706,0,0,0,1.46-.05c-.23-.16-.46-.33-.69-.48a2.737,2.737,0,0,1-.75.08c-.23-.01-.26.32-.1.43A.188.188,0,0,0,116.612,69.067Z" fill="#3a3a3a"/>
        <path d="M117.3,106.787a1.05,1.05,0,0,0,.08-2.07,1.1,1.1,0,0,0-.18-.02,1.07,1.07,0,1,0-.08,2.12Z" fill="#3a3a3a"/>
        <path d="M116.632,68.617a2.737,2.737,0,0,0,.75-.08,7.57,7.57,0,0,0-4.97-1.69,14.378,14.378,0,0,1-1.29.79,7.789,7.789,0,0,1,5.36,1.49l.05-.08C116.372,68.937,116.4,68.607,116.632,68.617Z" fill="#3a3a3a"/>
        <path d="M116.192,63.9l.51-.42a4.175,4.175,0,0,0-.72-.08c-.27-.01-.29.45-.02.47A1.81,1.81,0,0,1,116.192,63.9Z" fill="#3a3a3a"/>
        <path d="M114.972,83.927c1.48-.03,2.65.61,3.96.84-1.81-1.34-3.22-4.25-5.51-4.19a.237.237,0,0,1-.23-.19c-1.41.64-4.08,2.06-5.97,1.75a17.839,17.839,0,0,0,3.79,2.79C112.432,85.017,113.532,83.957,114.972,83.927Z" fill="#efd05f"/>
        <path d="M113.262,80.357c.22-.1.43-.2.65-.3a2.043,2.043,0,0,0-.59.08.181.181,0,0,0-.13.25A.488.488,0,0,0,113.262,80.357Z" fill="#3a3a3a"/>
        <path d="M113.072,100.1a.247.247,0,0,0,.04-.38c-1.99-1.77-2.57-3.54-3.45-5.96a8.746,8.746,0,0,0-1.53-2.79,12.376,12.376,0,0,0-1.58-.69c1.98,1.53,2.42,3.87,3.28,6.13a10.947,10.947,0,0,0,.73,1.6,5.24,5.24,0,0,1,2.45,1.91A.323.323,0,0,1,113.072,100.1Z" fill="#3a3a3a"/>
        <path d="M113.072,100.107v-.01a.323.323,0,0,0-.06-.18,5.24,5.24,0,0,0-2.45-1.91,4.253,4.253,0,0,0,2.36,2.11A.189.189,0,0,0,113.072,100.107Z" fill="#3a3a3a"/>
        <path d="M113.072,100.107a.189.189,0,0,1-.15.01,4.253,4.253,0,0,1-2.36-2.11c-2.13-.85-4.71-.69-6.71-2.02.04.28.09.55.14.82a6.463,6.463,0,0,0,2.53.93c2.35.44,4.3.63,5.96,2.55A.333.333,0,0,0,113.072,100.107Z" fill="#3a3a3a"/>
        <path d="M110.532,85.367a3.217,3.217,0,0,0,1.41.15c-.3-.2-.62-.4-.93-.59a1.737,1.737,0,0,1-.39-.05C110.3,84.817,110.232,85.277,110.532,85.367Z" fill="#3a3a3a"/>
        <path d="M111.122,67.637a14.378,14.378,0,0,0,1.29-.79,7.309,7.309,0,0,0-2.12.51c-.2.08-.14.42.08.38A7.045,7.045,0,0,1,111.122,67.637Z" fill="#3a3a3a"/>
        <path d="M110.912,105.7a1.264,1.264,0,0,0,.1-2.49c-.04-.01-.07-.01-.11-.02-1.93-.42-1.87,2.92-.1,2.54Z" fill="#3a3a3a"/>
        <path d="M110.562,98.007a10.947,10.947,0,0,1-.73-1.6c-.86-2.26-1.3-4.6-3.28-6.13a11.472,11.472,0,0,0-4.13-.66c-.69.01-1.42.03-2.15.03,2.24,1.3,3.1,3.37,3.55,6.18.01.05.02.11.03.16C105.852,97.317,108.432,97.157,110.562,98.007Z" fill="#efd05f"/>
        <path d="M108.412,111.867a.237.237,0,0,0,.01-.28c-1.17-1.91-1.45-5.19-2.32-7.33a34.822,34.822,0,0,1-2.11-7.45,4,4,0,0,1-.97-.92.192.192,0,0,1-.04-.12l-.11.02c.5,2.32.68,4.82,1.6,7.06.99,2.39,1.37,5.11,2.35,7.42.05.12.09.22.13.31a12.679,12.679,0,0,0,1.38,1.08A.191.191,0,0,1,108.412,111.867Z" fill="#3a3a3a"/>
        <path d="M108.412,111.867a.191.191,0,0,0-.08-.21,12.679,12.679,0,0,1-1.38-1.08,2.085,2.085,0,0,0,1.1,1.34A.26.26,0,0,0,108.412,111.867Z" fill="#3a3a3a"/>
        <path d="M108.412,111.867a.26.26,0,0,1-.36.05,2.085,2.085,0,0,1-1.1-1.34c-3.13-2.84-4.27-6.79-7.46-9.64-3.98-3.56-10.05-4.01-11.37-9.95-.19.13-.37.26-.56.38.23,2.55,1.83,4.28,3.82,5.66v-.01a.314.314,0,0,1,.62.02c.01.14.01.28.01.41,1.09.7,2.25,1.31,3.36,1.92a.242.242,0,0,1,.38-.1,3.179,3.179,0,0,1,.68.69c5.08,3.09,6.09,9.78,11.66,12.08A.251.251,0,0,0,108.412,111.867Z" fill="#3a3a3a"/>
        <path d="M107.222,82.137a4.7,4.7,0,0,1-.45-.55.378.378,0,0,1-.2.36A2.328,2.328,0,0,0,107.222,82.137Z" fill="#3a3a3a"/>
        <path d="M108.132,90.967a5.448,5.448,0,0,0-1.58-1.28c-.23-.13-.47.24-.25.4a2.348,2.348,0,0,1,.25.19A12.376,12.376,0,0,1,108.132,90.967Z" fill="#3a3a3a"/>
        <path d="M106.952,110.577c-.04-.09-.08-.19-.13-.31-.98-2.31-1.36-5.03-2.35-7.42-.92-2.24-1.1-4.74-1.6-7.06-.52-2.47-1.4-4.72-3.91-6.18a10.045,10.045,0,0,1-3.65-.8c.75,1.96,2.47,2.71,3.84,4.22a5.84,5.84,0,0,1,1.38,3.95,2.768,2.768,0,0,1,.1.5.264.264,0,0,1-.51.11c-1.24-2.79-3.89-3.36-6.39-4.68-1.58-.85-3.06-2.14-2.98-3.99a32.771,32.771,0,0,1-2.63,2.07c1.32,5.94,7.39,6.39,11.37,9.95C102.682,103.787,103.822,107.737,106.952,110.577Z" fill="#d57c6a"/>
        <path d="M106.572,81.947a.378.378,0,0,0,.2-.36,2.946,2.946,0,0,1-.36-.51c-.29.06-.51.42-.21.65A2,2,0,0,0,106.572,81.947Z" fill="#3a3a3a"/>
        <path d="M106.772,81.587a.109.109,0,0,0-.01-.05,3.956,3.956,0,0,0-.15-.45.452.452,0,0,0-.2-.01A2.946,2.946,0,0,0,106.772,81.587Z" fill="#3a3a3a"/>
        <path d="M106.412,81.077a.452.452,0,0,1,.2.01,10.122,10.122,0,0,0-2.76-3.32,9.494,9.494,0,0,0-3.48-1.87c-.08.19-.16.38-.25.56a11.1,11.1,0,0,1,3.3,2.1c1.01.92,1.63,2.23,2.6,3.13a5.34,5.34,0,0,1-.28-.59c-.12-.29.34-.55.51-.26C106.3,80.917,106.352,81,106.412,81.077Z" fill="#3a3a3a"/>
        <path d="M106.242,81.9a.279.279,0,0,0,.33.05,2,2,0,0,1-.37-.22c-.3-.23-.08-.59.21-.65-.06-.08-.11-.16-.16-.24-.17-.29-.63-.03-.51.26a5.34,5.34,0,0,0,.28.59c0,.01,0,.01.01.02C106.1,81.777,106.172,81.837,106.242,81.9Z" fill="#3a3a3a"/>
        <path d="M103.992,96.807c-.05-.27-.1-.54-.14-.82a6.406,6.406,0,0,1-.52-.39.22.22,0,0,0-.35.17.192.192,0,0,0,.04.12A4,4,0,0,0,103.992,96.807Z" fill="#3a3a3a"/>
        <path d="M103.852,95.987c-.01-.05-.02-.11-.03-.16-.45-2.81-1.31-4.88-3.55-6.18-.43,0-.87-.01-1.31-.04,2.51,1.46,3.39,3.71,3.91,6.18l.11-.02a.22.22,0,0,1,.35-.17A6.406,6.406,0,0,0,103.852,95.987Z" fill="#3a3a3a"/>
        <path d="M103.492,119.617c1.08,0,.92-1.68-.16-1.68S102.412,119.617,103.492,119.617Z" fill="#3a3a3a"/>
        <path d="M103.062,66.7a33.682,33.682,0,0,0,.34-6.27,14.9,14.9,0,0,1-1.42-.49,30.9,30.9,0,0,1-.17,5.92c-.03.26-.07.53-.11.79l.29.04a.329.329,0,0,1,.48-.32C102.672,66.487,102.872,66.6,103.062,66.7Z" fill="#3a3a3a"/>
        <path d="M103.062,66.7c-.19-.1-.39-.21-.59-.33a.329.329,0,0,0-.48.32.321.321,0,0,0,.11.25,8.836,8.836,0,0,0,.82.62C102.972,67.277,103.022,66.987,103.062,66.7Z" fill="#3a3a3a"/>
        <path d="M102.922,67.557a8.836,8.836,0,0,1-.82-.62.321.321,0,0,1-.11-.25l-.29-.04a35.333,35.333,0,0,1-9.16,18.67l.24.23a.3.3,0,0,1,.47.05,4.451,4.451,0,0,0,.38.55,36.967,36.967,0,0,0,6.49-9.69c-.17-.07-.34-.14-.52-.2-.3-.1-.14-.61.17-.53.2.05.4.11.6.17A35.286,35.286,0,0,0,102.922,67.557Z" fill="#3a3a3a"/>
        <path d="M100.122,97.587a.264.264,0,0,0,.51-.11,2.768,2.768,0,0,0-.1-.5c0,.17.01.34.02.51a.182.182,0,0,1-.35.08c-.24-.67-.32-1.39-.49-2.07l-.01-.01a9.783,9.783,0,0,0-3.13-2.04c-2.52-1.17-4.89-1.93-5.29-4.98-.18.15-.35.3-.53.45-.08,1.85,1.4,3.14,2.98,3.99C96.232,94.227,98.882,94.8,100.122,97.587Z" fill="#3a3a3a"/>
        <path d="M100.312,65.417a29.689,29.689,0,0,0,.28-5.47c-.31,0-.62.01-.93.01.07,1.73.08,3.53.18,5.44A.238.238,0,0,0,100.312,65.417Z" fill="#3a3a3a"/>
        <path d="M100.2,97.567a.182.182,0,0,0,.35-.08c-.01-.17-.02-.34-.02-.51a3.6,3.6,0,0,0-.82-1.48C99.882,96.177,99.962,96.9,100.2,97.567Z" fill="#3a3a3a"/>
        <path d="M100.532,96.977a5.84,5.84,0,0,0-1.38-3.95c-1.37-1.51-3.09-2.26-3.84-4.22l-.01-.01a5.6,5.6,0,0,1-.59-.33.194.194,0,0,0-.05.16c.19,1.62,1.33,2.6,2.52,3.58a7.5,7.5,0,0,1,2.21,2.38,4.168,4.168,0,0,1,.31.9l.01.01A3.6,3.6,0,0,1,100.532,96.977Z" fill="#3a3a3a"/>
        <path d="M100.372,75.9c-.2-.06-.4-.12-.6-.17-.31-.08-.47.43-.17.53.18.06.35.13.52.2C100.212,76.277,100.292,76.087,100.372,75.9Z" fill="#3a3a3a"/>
        <path d="M99.6,110.767c.25.15.45-.19.33-.39-1.04-1.76-1.31-3.92-1.91-5.85-.44-1.42-.66-3.32-1.59-4.57-.1-.06-.2-.12-.31-.18-.25-.14-.5-.28-.75-.41a.26.26,0,0,0,.06.27c1.07,1.08,1.21,2.95,1.69,4.36.3.9.53,1.81.78,2.72a19.057,19.057,0,0,0,.8,2.9l.01.01a3.939,3.939,0,0,0,.89.7.222.222,0,0,1-.05.41C99.572,110.747,99.582,110.757,99.6,110.767Z" fill="#3a3a3a"/>
        <path d="M99.552,110.737a.222.222,0,0,0,.05-.41,3.939,3.939,0,0,1-.89-.7A2.566,2.566,0,0,0,99.552,110.737Z" fill="#3a3a3a"/>
        <path d="M99.462,110.747a.248.248,0,0,0,.09-.01,2.566,2.566,0,0,1-.84-1.11l-.01-.01c-1.06-1.12-1.4-2.72-2.7-3.72-1.07-.82-3.09-1.07-4.2-2.03.14.35.3.7.46,1.07a.01.01,0,0,0,.01.01c.84.43,1.82.72,2.49,1.05C96.782,106.977,97.082,110.537,99.462,110.747Z" fill="#3a3a3a"/>
        <path d="M99.7,95.487a4.168,4.168,0,0,0-.31-.9,7.5,7.5,0,0,0-2.21-2.38c-1.19-.98-2.33-1.96-2.52-3.58a.194.194,0,0,1,.05-.16,4.642,4.642,0,0,1-1.63-1.74q-.87.9-1.8,1.74c.4,3.05,2.77,3.81,5.29,4.98A9.783,9.783,0,0,1,99.7,95.487Z" fill="#883929"/>
        <path d="M100.272,89.647a7.578,7.578,0,0,0-1.31-.63.255.255,0,0,0-.22.46,2.529,2.529,0,0,1,.22.13C99.4,89.637,99.842,89.647,100.272,89.647Z" fill="#3a3a3a"/>
        <path d="M98.7,109.617a19.057,19.057,0,0,1-.8-2.9c-.25-.91-.48-1.82-.78-2.72-.48-1.41-.62-3.28-1.69-4.36a.26.26,0,0,1-.06-.27c-1.11-.61-2.27-1.22-3.36-1.92a34.549,34.549,0,0,1-.54,3.58,5.59,5.59,0,0,0,.33,2.84c1.11.96,3.13,1.21,4.2,2.03C97.3,106.9,97.642,108.5,98.7,109.617Z" fill="#d57c6a"/>
        <path d="M97.422,116.727c1.28,0,1.09-1.98-.18-1.98C95.952,114.747,96.152,116.727,97.422,116.727Z" fill="#3a3a3a"/>
        <path d="M97.052,75.057c.13-.18-.08-.45-.27-.3a6.032,6.032,0,0,0-1.56,2.08.251.251,0,0,0,.45.22A16.49,16.49,0,0,1,97.052,75.057Z" fill="#3a3a3a"/>
        <path d="M96.122,99.777c.11.06.21.12.31.18a3.179,3.179,0,0,0-.68-.69.242.242,0,0,0-.38.1C95.622,99.5,95.872,99.637,96.122,99.777Z" fill="#3a3a3a"/>
        <path d="M95.3,88.8c-.03-.09-.07-.19-.1-.29a.268.268,0,0,0-.49-.04A5.6,5.6,0,0,0,95.3,88.8Z" fill="#3a3a3a"/>
        <path d="M94.482,75.007a.211.211,0,0,0-.38-.18c-3.28,5.73-8.33,10.71-14.64,12.93-.26.09-.11.45.14.38C85.472,86.557,92.262,80.717,94.482,75.007Z" fill="#3a3a3a"/>
        <path d="M94.252,118.577c.26.07.39-.35.14-.45a2.443,2.443,0,0,1-.24-.1c.06.23-.18.5-.4.4C93.912,118.477,94.082,118.527,94.252,118.577Z" fill="#3a3a3a"/>
        <path d="M93.752,118.427c.22.1.46-.17.4-.4a13.154,13.154,0,0,1-1.32-.58,8.361,8.361,0,0,0,.82.92A.207.207,0,0,0,93.752,118.427Z" fill="#3a3a3a"/>
        <path d="M94.152,118.027a.419.419,0,0,0-.09-.14c-3.49-3.48-.03-7.37-1.13-11.19a13.549,13.549,0,0,0-.66-1.75.01.01,0,0,1-.01-.01,2.486,2.486,0,0,1-1.69-2.2.246.246,0,0,1,.49-.05,2.092,2.092,0,0,0,.74,1.18,5.59,5.59,0,0,1-.33-2.84,34.549,34.549,0,0,0,.54-3.58q-.315-.2-.63-.42c-.31,1.84-1.38,3.25-1.16,5.15.27,2.29,1.88,3.92,2.05,6.29.26,3.69-1.54,6.16.56,8.98A13.154,13.154,0,0,0,94.152,118.027Z" fill="#3a3a3a"/>
        <path d="M93.752,118.427a.207.207,0,0,1-.1-.06,8.361,8.361,0,0,1-.82-.92,7.9,7.9,0,0,1-3.71-3.69c-.42-.89-.65-1.87-1.13-2.73a5.9,5.9,0,0,0-3.07-2.73,23.179,23.179,0,0,0-3.83-1.14v.01a.283.283,0,0,1,.29.29,4.771,4.771,0,0,0,.09.77,15.714,15.714,0,0,1,3.65,1.1c2.35,1.3,2.41,3.54,3.63,5.6A8.007,8.007,0,0,0,93.752,118.427Z" fill="#3a3a3a"/>
        <path d="M93.082,86.727c.19-.19.37-.39.55-.58a4.451,4.451,0,0,1-.38-.55.3.3,0,0,0-.47-.05.306.306,0,0,0-.09.34A4.608,4.608,0,0,0,93.082,86.727Z" fill="#3a3a3a"/>
        <path d="M93.342,80.227c.13-.23-.23-.45-.38-.24-4.43,5.93-10.33,9.66-17.26,12.14-.22.07-.09.4.13.33C82.4,90.427,89.932,86.5,93.342,80.227Z" fill="#3a3a3a"/>
        <path d="M93.082,86.727a4.608,4.608,0,0,1-.39-.84.306.306,0,0,1,.09-.34l-.24-.23a33.21,33.21,0,0,1-15.32,9.38c-.13.04-.27.07-.4.1l.03.13a.2.2,0,0,1,.26.12,7.512,7.512,0,0,1,.28.97,32.429,32.429,0,0,0,5.44-1.96,33.917,33.917,0,0,0,4.73-2.69,6.851,6.851,0,0,1-.04-.79.256.256,0,0,1,.51-.05c.03.16.06.31.09.46a32.771,32.771,0,0,0,2.63-2.07,2.833,2.833,0,0,1,.06-.57.227.227,0,0,1,.45.01.359.359,0,0,0,.02.11Q92.212,87.627,93.082,86.727Z" fill="#3a3a3a"/>
        <path d="M92.832,117.447c-2.1-2.82-.3-5.29-.56-8.98-.17-2.37-1.78-4-2.05-6.29-.22-1.9.85-3.31,1.16-5.15-1.99-1.38-3.59-3.11-3.82-5.66a33.917,33.917,0,0,1-4.73,2.69,32.429,32.429,0,0,1-5.44,1.96c.52,2.26-.15,4.15-1.24,6.36l-.03.06c.33,3.32,2.47,4.09,4.97,4.72a23.179,23.179,0,0,1,3.83,1.14,5.9,5.9,0,0,1,3.07,2.73c.48.86.71,1.84,1.13,2.73A7.9,7.9,0,0,0,92.832,117.447Z" fill="#efd05f"/>
        <path d="M92.012,97.447c0-.13,0-.27-.01-.41a.314.314,0,0,0-.62-.02v.01Q91.7,97.252,92.012,97.447Z" fill="#3a3a3a"/>
        <path d="M92.262,104.937c-.16-.37-.32-.72-.46-1.07a2.092,2.092,0,0,1-.74-1.18.246.246,0,0,0-.49.05A2.486,2.486,0,0,0,92.262,104.937Z" fill="#3a3a3a"/>
        <path d="M91.282,88.467a.359.359,0,0,1-.02-.11.227.227,0,0,0-.45-.01,2.833,2.833,0,0,0-.06.57C90.932,88.767,91.1,88.617,91.282,88.467Z" fill="#3a3a3a"/>
        <path d="M88.122,90.987c-.03-.15-.06-.3-.09-.46a.256.256,0,0,0-.51.05,6.851,6.851,0,0,0,.04.79C87.752,91.247,87.932,91.117,88.122,90.987Z" fill="#3a3a3a"/>
        <path d="M85.182,121.967c-.5.6-.99,1.2-1.49,1.8a2.959,2.959,0,0,0,.72-.2,1.281,1.281,0,0,0,.2-.11.035.035,0,0,0,.02-.01.874.874,0,0,0,.1-.08,1.694,1.694,0,0,0,.16-2.17C84.992,121.467,85.082,121.727,85.182,121.967Z" fill="#3a3a3a"/>
        <path d="M83.692,123.767c.5-.6.99-1.2,1.49-1.8-.1-.24-.19-.5-.29-.77a1.694,1.694,0,0,1-.16,2.17,1.542,1.542,0,0,0-.19-2.66,1.83,1.83,0,0,0-1.95.07,1.683,1.683,0,0,0-.41,2.29,1.74,1.74,0,0,0,2.23.5A2.959,2.959,0,0,1,83.692,123.767Z" fill="#3a3a3a"/>
        <path d="M81.952,113.217c.7-1.94-.18-3.25-.48-4.99-.02,0-.03-.01-.05-.01l-.69-.18c.14,1.27.88,2.34.77,3.68-.11,1.4-.87,2.4-1.41,3.64a6.31,6.31,0,0,0-.3,4.97,5,5,0,0,0,.55.43c.01.01.02.01.02.02a.108.108,0,0,0,0-.11C79.322,117.707,81.032,115.807,81.952,113.217Z" fill="#3a3a3a"/>
        <path d="M81.5,111.717c.11-1.34-.63-2.41-.77-3.68-2.56-.73-4.83-1.84-5.2-4.3a12.234,12.234,0,0,0-1.02,5.23v.24c.95,1.91,2.99,3.02,3.52,5.24.55,2.33-.1,4.26,1.76,5.88a6.31,6.31,0,0,1,.3-4.97C80.632,114.117,81.392,113.117,81.5,111.717Z" fill="#efd05f"/>
        <path d="M81.422,108.217c.02,0,.03.01.05.01a4.771,4.771,0,0,1-.09-.77.283.283,0,0,0-.29-.29.373.373,0,0,0-.38.35,2.978,2.978,0,0,0,.02.52Z" fill="#3a3a3a"/>
        <path d="M81.092,107.167v-.01c-2.5-.63-4.64-1.4-4.97-4.72-.23.46-.43.89-.59,1.3.37,2.46,2.64,3.57,5.2,4.3a2.978,2.978,0,0,1-.02-.52A.373.373,0,0,1,81.092,107.167Z" fill="#3a3a3a"/>
        <path d="M80.072,121.177c.24.11.5-.23.29-.4a.2.2,0,0,1-.37.02,4.728,4.728,0,0,1-.2-.47c-1.86-1.62-1.21-3.55-1.76-5.88-.53-2.22-2.57-3.33-3.52-5.24,0,.35.01.69.01,1.03a12.041,12.041,0,0,0,1.03,1.31,7.374,7.374,0,0,1,2.03,5.01C77.7,118.657,77.972,120.267,80.072,121.177Z" fill="#3a3a3a"/>
        <path d="M80.362,120.777c0-.01-.01-.01-.02-.02a5,5,0,0,1-.55-.43,4.728,4.728,0,0,0,.2.47A.2.2,0,0,0,80.362,120.777Z" fill="#3a3a3a"/>
        <path d="M76.152,102.377c1.09-2.21,1.76-4.1,1.24-6.36-.22.06-.44.11-.66.16-.11,3.48-1.76,5.61-2.73,8.79-.86,2.84.3,5.82-.85,8.61-1.73,4.14-6.37,6.23-8.59,10.17,0,.21,0,.43.02.65a.242.242,0,0,1-.21.27.322.322,0,0,0,.45-.11c2.59-4.47,8.4-7.04,9.55-12.3a8.84,8.84,0,0,0,.15-2.02,5.937,5.937,0,0,1-.62-1.37.214.214,0,0,1,.4-.15,4.248,4.248,0,0,0,.21.49v-.24a12.234,12.234,0,0,1,1.02-5.23,5.6,5.6,0,0,1,.06-1.94c.05-.27.49-.27.49.02.01.22.02.42.04.62Z" fill="#3a3a3a"/>
        <path d="M76.732,96.177c.22-.05.44-.1.66-.16a7.512,7.512,0,0,0-.28-.97.2.2,0,0,0-.26-.12.213.213,0,0,0-.13.2C76.742,95.5,76.742,95.847,76.732,96.177Z" fill="#3a3a3a"/>
        <path d="M76.852,94.927l-.03-.13a34.073,34.073,0,0,1-13.75.66l-.06.4a.333.333,0,0,1,.35.4,4.263,4.263,0,0,1-.17.54,35.879,35.879,0,0,0,13.54-.62c.01-.33.01-.68-.01-1.05A.213.213,0,0,1,76.852,94.927Z" fill="#3a3a3a"/>
        <path d="M76.122,102.437c-.02-.2-.03-.4-.04-.62,0-.29-.44-.29-.49-.02a5.6,5.6,0,0,0-.06,1.94C75.692,103.327,75.892,102.9,76.122,102.437Z" fill="#3a3a3a"/>
        <path d="M75.272,124.767c1.19,0,1.01-1.84-.17-1.84S74.092,124.767,75.272,124.767Z" fill="#3a3a3a"/>
        <path d="M74.522,110.237c0-.34-.01-.68-.01-1.03a4.248,4.248,0,0,1-.21-.49.214.214,0,0,0-.4.15A5.937,5.937,0,0,0,74.522,110.237Z" fill="#3a3a3a"/>
        <path d="M74,104.967c.97-3.18,2.62-5.31,2.73-8.79a35.879,35.879,0,0,1-13.54.62,7.1,7.1,0,0,1-2.1,2.77.276.276,0,0,1,.01.22c-1.69,4.94,1.65,7.36,3.85,10.75a10.613,10.613,0,0,1,1.3,2.61c1.26,3.82-1.63,6.88-1.69,10.6,2.22-3.94,6.86-6.03,8.59-10.17C74.3,110.787,73.142,107.807,74,104.967Z" fill="#d57c6a"/>
        <path d="M67.972,91.327a.2.2,0,0,0,.01-.39,23.612,23.612,0,0,0-2.66-.04c-.3.01-.25.46.04.47A22.7,22.7,0,0,0,67.972,91.327Z" fill="#3a3a3a"/>
        <path d="M66.862,94.227a.212.212,0,0,0-.09-.41c-2.57.22-5.03.33-7.41-.87-.27-.14-.46.28-.2.42A9.882,9.882,0,0,0,66.862,94.227Z" fill="#3a3a3a"/>
        <path d="M64.562,123.747c.06-3.72,2.95-6.78,1.69-10.6a10.613,10.613,0,0,0-1.3-2.61l-.15.1a.362.362,0,0,1,0,.23c-.1.32-.2.66-.29.99,1.13,2.28,1.24,4.34.19,7.62a10.666,10.666,0,0,0-.62,4.97.243.243,0,0,0,.29.22.277.277,0,0,1-.1-.37C64.362,124.107,64.462,123.927,64.562,123.747Z" fill="#3a3a3a"/>
        <path d="M64.8,110.637l.15-.1c-2.2-3.39-5.54-5.81-3.85-10.75a.276.276,0,0,0-.01-.22c-.26.24-.53.48-.79.72-1.22,3.21.25,5.71,2.25,8.47.6.82,1.1,1.57,1.52,2.28a3.233,3.233,0,0,1,.22-.41A.288.288,0,0,1,64.8,110.637Z" fill="#3a3a3a"/>
        <path d="M64.8,110.867a.362.362,0,0,0,0-.23.288.288,0,0,0-.51-.01,3.233,3.233,0,0,0-.22.41c.16.28.31.55.44.82C64.6,111.527,64.7,111.187,64.8,110.867Z" fill="#3a3a3a"/>
        <path d="M64.372,124.667a.242.242,0,0,0,.21-.27c-.02-.22-.02-.44-.02-.65-.1.18-.2.36-.29.55A.277.277,0,0,0,64.372,124.667Z" fill="#3a3a3a"/>
        <path d="M64.512,111.857c-.13-.27-.28-.54-.44-.82-1.32,2.47-1.26,5.34-3.18,7.61-1.34,1.57-2.86,2.4-2.87,4.48a4.446,4.446,0,0,0,.38.54c.01.01.01.01.01.02a.116.116,0,0,0,.04-.1c.16-2.76,2.96-3.97,4.2-6.24A27.3,27.3,0,0,0,64.512,111.857Z" fill="#3a3a3a"/>
        <path d="M63.362,96.257a.333.333,0,0,0-.35-.4.3.3,0,0,0-.29.19,6.093,6.093,0,0,1-.3.63c.26.05.51.09.77.12A4.263,4.263,0,0,0,63.362,96.257Z" fill="#3a3a3a"/>
        <path d="M63.012,95.857l.06-.4a35.912,35.912,0,0,1-21.8-11.83l-.07.06a.512.512,0,0,1,.06.67c-.16.22-.32.44-.47.64.15.19.31.37.48.55a35.005,35.005,0,0,0,4.77,4.26c.19-.12.4-.24.62-.35.25-.12.45.28.22.43-.13.08-.25.17-.37.26a36.366,36.366,0,0,0,5.19,3.11,2.7,2.7,0,0,1,.8-.38c.31-.09.59.34.28.53-.11.07-.22.14-.31.21.97.46,1.96.87,2.96,1.24.01-.04.03-.07.04-.11a.355.355,0,0,1,.67.21.5.5,0,0,1-.04.13,37.25,37.25,0,0,0,6.32,1.59,6.093,6.093,0,0,0,.3-.63A.3.3,0,0,1,63.012,95.857Z" fill="#3a3a3a"/>
        <path d="M60.892,118.647c1.92-2.27,1.86-5.14,3.18-7.61-.42-.71-.92-1.46-1.52-2.28-2-2.76-3.47-5.26-2.25-8.47a7.147,7.147,0,0,0-2.31,3.34c-.5,1.79-.23,3.53-.32,5.26.56,2.34,2.42,4.29,2.23,6.82-.2,2.69-3.49,4.72-1.88,7.42C58.032,121.047,59.552,120.217,60.892,118.647Z" fill="#efd05f"/>
        <path d="M63.192,96.8c-.26-.03-.51-.07-.77-.12-1.62,2.99-4.82,3.69-5.37,7.5a38.959,38.959,0,0,0-.14,4.07h.06a4.743,4.743,0,0,1,.23-1.44.183.183,0,0,1,.36.06,5.226,5.226,0,0,0,.11,2.02c.09-1.73-.18-3.47.32-5.26a7.147,7.147,0,0,1,2.31-3.34,6.374,6.374,0,0,1,.31-.73.261.261,0,0,1,.48.01A7.1,7.1,0,0,0,63.192,96.8Z" fill="#3a3a3a"/>
        <path d="M62.182,90.207c.27,0,.28-.45.02-.47-5.86-.42-12.08-3.02-15.52-7.97a.187.187,0,0,0-.31.21A19.859,19.859,0,0,0,62.182,90.207Z" fill="#3a3a3a"/>
        <path d="M60.3,100.287c.26-.24.53-.48.79-.72a.261.261,0,0,0-.48-.01A6.374,6.374,0,0,0,60.3,100.287Z" fill="#3a3a3a"/>
        <path d="M60.732,83.527a.214.214,0,0,0,.02-.42,7.947,7.947,0,0,1-4.51-2c-.24-.21-.54.15-.32.37A6.414,6.414,0,0,0,60.732,83.527Z" fill="#3a3a3a"/>
        <path d="M57.052,104.177c.55-3.81,3.75-4.51,5.37-7.5a37.25,37.25,0,0,1-6.32-1.59c-.86,2.86-4.84,3.62-4.6,6.95a.2.2,0,0,1-.22.22.182.182,0,0,1-.31-.16,3.533,3.533,0,0,0,.07-.59,2.944,2.944,0,0,1,0-.42v-.03c-.05-2.48-1.38-6.38.66-7.8a36.366,36.366,0,0,1-5.19-3.11c-5.8,4.26,1.56,10.5,1.69,15.57.05,1.97-.9,3.59-1.86,5.23-1.1,1.89-2.61,3.52-3.11,5.73-.6,2.71.27,5.08,1.54,7.31-.59-3.77,3.28-6.03,6.54-8.08,1.88-1.19,3.87-2.33,4.92-4.45a7.712,7.712,0,0,0,.68-3.21A38.959,38.959,0,0,1,57.052,104.177Z" fill="#efd05f"/>
        <path d="M59.9,115.707c.19-2.53-1.67-4.48-2.23-6.82a8.076,8.076,0,0,1-.21,1.61c.06.16.13.33.2.5,1.06,2.57,1.93,4.13.66,6.95-1.01,2.24-2.53,4.1-.19,5.96.15.12.39-.06.28-.22a.219.219,0,0,1-.37-.11c-.01-.16-.02-.3-.02-.45C56.412,120.427,59.7,118.4,59.9,115.707Z" fill="#3a3a3a"/>
        <path d="M58.412,123.687c0-.01,0-.01-.01-.02a4.446,4.446,0,0,1-.38-.54c0,.15.01.29.02.45A.219.219,0,0,0,58.412,123.687Z" fill="#3a3a3a"/>
        <path d="M57.562,106.867a.183.183,0,0,0-.36-.06,4.743,4.743,0,0,0-.23,1.44,6.381,6.381,0,0,0,.49,2.25,8.076,8.076,0,0,0,.21-1.61A5.226,5.226,0,0,1,57.562,106.867Z" fill="#3a3a3a"/>
        <path d="M56.942,111.917a6.264,6.264,0,0,0,.52-1.42,6.381,6.381,0,0,1-.49-2.25h-.06a7.712,7.712,0,0,1-.68,3.21c-1.05,2.12-3.04,3.26-4.92,4.45-3.26,2.05-7.13,4.31-6.54,8.08.35.61.73,1.21,1.11,1.8a.266.266,0,0,1-.02.33.233.233,0,0,0,.11-.32C42.932,118.307,54.232,117.157,56.942,111.917Z" fill="#3a3a3a"/>
        <path d="M56.332,92.207c.23.03.35-.3.13-.39a17.1,17.1,0,0,1-2.82-1.46c-.27-.18-.61.21-.33.39A7.262,7.262,0,0,0,56.332,92.207Z" fill="#3a3a3a"/>
        <path d="M56.142,94.957a.355.355,0,0,0-.67-.21c-.01.04-.03.07-.04.11.22.08.45.16.67.23A.5.5,0,0,0,56.142,94.957Z" fill="#3a3a3a"/>
        <path d="M56.1,95.087c-.22-.07-.45-.15-.67-.23-.84,2.07-3.04,3.07-3.98,4.81a7.319,7.319,0,0,1-.11,2.5.146.146,0,0,1-.06.09.2.2,0,0,0,.22-.22C51.262,98.707,55.242,97.947,56.1,95.087Z" fill="#3a3a3a"/>
        <path d="M52.782,93.407c.31-.19.03-.62-.28-.53a2.7,2.7,0,0,0-.8.38c.26.13.51.25.77.36C52.562,93.547,52.672,93.477,52.782,93.407Z" fill="#3a3a3a"/>
        <path d="M55.432,94.857c-1-.37-1.99-.78-2.96-1.24-1.69,1.31-1.18,3.79-1.02,6.05C52.392,97.927,54.592,96.927,55.432,94.857Z" fill="#883929"/>
        <path d="M52.472,93.617c-.26-.11-.51-.23-.77-.36-2.04,1.42-.71,5.32-.66,7.8a3.52,3.52,0,0,1,.41-1.39C51.292,97.407,50.782,94.927,52.472,93.617Z" fill="#3a3a3a"/>
        <path d="M51.342,102.167a7.319,7.319,0,0,0,.11-2.5,3.52,3.52,0,0,0-.41,1.39v.03a2.94,2.94,0,0,1,0,.42,3.88,3.88,0,0,0,.05.57.211.211,0,0,0,.19.18A.146.146,0,0,0,51.342,102.167Z" fill="#3a3a3a"/>
        <path d="M50.972,102.1a.182.182,0,0,0,.31.16.211.211,0,0,1-.19-.18,3.88,3.88,0,0,1-.05-.57A3.533,3.533,0,0,1,50.972,102.1Z" fill="#3a3a3a"/>
        <path d="M51.042,101.507a2.94,2.94,0,0,0,0-.42A2.944,2.944,0,0,0,51.042,101.507Z" fill="#3a3a3a"/>
        <path d="M48.692,88.127a.234.234,0,0,0,.3-.36c-6.47-6.36-11.2-11.68-12.69-20.97a.2.2,0,0,0-.39.04A29.891,29.891,0,0,0,48.692,88.127Z" fill="#3a3a3a"/>
        <path d="M46.342,110.947c.96-1.64,1.91-3.26,1.86-5.23-.13-5.07-7.49-11.31-1.69-15.57-.16-.11-.31-.22-.47-.34-4.42,2.72-1.6,7.7.14,11.72a.351.351,0,0,1,.46.38,3.257,3.257,0,0,1-.1.49q.12.27.21.54c2.08,5.68-3.23,8.57-4.31,13.6-.75,3.5.71,6.99,3,9.56a.272.272,0,0,0,.38.04.309.309,0,0,1-.37-.15,6.865,6.865,0,0,1-.68-2c-1.27-2.23-2.14-4.6-1.54-7.31C43.732,114.467,45.242,112.837,46.342,110.947Z" fill="#3a3a3a"/>
        <path d="M46.882,89.887c.23-.15.03-.55-.22-.43-.22.11-.43.23-.62.35.16.12.31.23.47.34C46.632,90.057,46.752,89.967,46.882,89.887Z" fill="#3a3a3a"/>
        <path d="M46.642,101.907a.351.351,0,0,0-.46-.38q.195.45.36.87A3.257,3.257,0,0,0,46.642,101.907Z" fill="#3a3a3a"/>
        <path d="M46.542,102.4q-.165-.42-.36-.87a.3.3,0,0,0-.18.17c-1.03,2.35-3.95.67-5.67,1.18-2,.58-2.89,2.79-4.59,3.82a5.767,5.767,0,0,1-3.21.62,2.394,2.394,0,0,1,.26.21.238.238,0,0,1-.2.41c-1.32-.12-2.26-.3-3.39.6a3.328,3.328,0,0,0-.39.36c1.77-1.52,4.61-.02,6.63-.94,2.64-1.19,3.05-4.09,6.56-4.26C43.912,103.607,45.972,104.527,46.542,102.4Z" fill="#3a3a3a"/>
        <path d="M46,101.7a.3.3,0,0,1,.18-.17c-1.74-4.02-4.56-9-.14-11.72a35.005,35.005,0,0,1-4.77-4.26c-.17-.18-.33-.36-.48-.55a5.64,5.64,0,0,1-3.66,2.41,11.925,11.925,0,0,1-2.07,0,15.607,15.607,0,0,0-1.61.08c.01.01-.01.02-.02.03-4.33,3.01.38,8.13-1.09,12.02a10.549,10.549,0,0,1-2.46,3.25,9.143,9.143,0,0,0-2.76,7.65c.02-.04.03-.08.05-.12.03-.08.06-.16.09-.23.84-2.02,3.33-4.16,5.27-2.77a5.767,5.767,0,0,0,3.21-.62c1.7-1.03,2.59-3.24,4.59-3.82C42.052,102.367,44.972,104.047,46,101.7Z" fill="#d57c6a"/>
        <path d="M45.862,126.117a.266.266,0,0,0,.02-.33c-.38-.59-.76-1.19-1.11-1.8a6.865,6.865,0,0,0,.68,2,.309.309,0,0,0,.37.15C45.842,126.127,45.852,126.127,45.862,126.117Z" fill="#3a3a3a"/>
        <path d="M44.382,79.8c.27.16.53-.26.3-.45a4.514,4.514,0,0,1-1.06-1.12c-.28-.44-.39-.97-.66-1.42-.14-.22-.43-.05-.43.16A3.7,3.7,0,0,0,44.382,79.8Z" fill="#3a3a3a"/>
        <path d="M41.262,84.357a.512.512,0,0,0-.06-.67.442.442,0,0,0-.7.03c-.13.18-.26.34-.38.49.21.27.43.53.67.79C40.942,84.8,41.1,84.577,41.262,84.357Z" fill="#3a3a3a"/>
        <path d="M41.2,83.687l.07-.06a28.276,28.276,0,0,1-2.01-2.61c-.44-.64-.85-1.3-1.24-1.98l-.21.13a.278.278,0,0,1-.1.33,4.4,4.4,0,0,1-.52.3,27.912,27.912,0,0,0,2.93,4.41c.12-.15.25-.31.38-.49A.442.442,0,0,1,41.2,83.687Z" fill="#3a3a3a"/>
        <path d="M40.792,85c-.24-.26-.46-.52-.67-.79-2.79,3.31-5.35,1.31-8.92,2.5-2.86.95-4.07,4.02-7.26,4.46-4.36.6-7.84-2.64-10.22,1.42v.02a8.5,8.5,0,0,0-.16,1.33c-.01.26-.36.29-.49.11a.245.245,0,0,0,.46.09c3.13-5.65,6.41-1.67,10.49-2.08a6.286,6.286,0,0,0,3.06-1.18,5.434,5.434,0,0,1,3.09-2.7.235.235,0,0,1,.29.26,8.38,8.38,0,0,1,1.47-.64,5,5,0,0,1,1.26-.75.26.26,0,0,1,.26.44,15.607,15.607,0,0,1,1.61-.08,11.925,11.925,0,0,0,2.07,0A5.64,5.64,0,0,0,40.792,85Z" fill="#3a3a3a"/>
        <path d="M37.812,79.167l.21-.13a31.029,31.029,0,0,1-3.13-8.29.4.4,0,0,1-.26.08,5.153,5.153,0,0,0-.8.03A35.582,35.582,0,0,0,35,74.867a.336.336,0,0,1,.2.54v.01a33.9,33.9,0,0,0,1.69,3.83,3.989,3.989,0,0,1,.56-.25A.3.3,0,0,1,37.812,79.167Z" fill="#3a3a3a"/>
        <path d="M37.712,79.5a.278.278,0,0,0,.1-.33.3.3,0,0,0-.36-.17,3.989,3.989,0,0,0-.56.25c.1.19.2.37.3.55A4.4,4.4,0,0,0,37.712,79.5Z" fill="#3a3a3a"/>
        <path d="M40.122,84.207a27.912,27.912,0,0,1-2.93-4.41c-.42.21-.86.37-1.29.55a.09.09,0,0,1-.05.01c-.89.68-1.92.46-3.1.56-2.31.2-3.83,2.11-5.52,3.49a1.061,1.061,0,0,1-.15.15.133.133,0,0,1-.07.03c-.02.02-.04.03-.06.05-.2.16-.4-.16-.22-.32a1.848,1.848,0,0,0,.14-.14c1.95-2.08,2.75-5.3,4.61-7.38l-2.74-1.01c-1.7,1.77-3.92,2.22-5.4,4.25a7.419,7.419,0,0,0-.87,1.64c-.64,1.63-.89,3.33-2.33,4.59-2.51,2.21-5.64,2.43-6.42,6.32,2.38-4.06,5.86-.82,10.22-1.42,3.19-.44,4.4-3.51,7.26-4.46C34.772,85.517,37.332,87.517,40.122,84.207Z" fill="#d57c6a"/>
        <path d="M37.192,79.8c-.1-.18-.2-.36-.3-.55-.25.13-.5.27-.74.41a.194.194,0,0,1,.11.32,2.4,2.4,0,0,1-.41.38.09.09,0,0,0,.05-.01C36.332,80.167,36.772,80.007,37.192,79.8Z" fill="#3a3a3a"/>
        <path d="M36.152,79.657c.24-.14.49-.28.74-.41a33.9,33.9,0,0,1-1.69-3.83.33.33,0,0,1-.22.13c-3.44.57-4.5,4.01-6.15,6.77a8.77,8.77,0,0,1,2.23-1.55c1.64-.73,3.32-.13,4.93-1.09A.184.184,0,0,1,36.152,79.657Z" fill="#883929"/>
        <path d="M36.262,79.977a.194.194,0,0,0-.11-.32c-.16.1-.31.2-.47.29-.21.12-.05.46.17.41A2.4,2.4,0,0,0,36.262,79.977Z" fill="#3a3a3a"/>
        <path d="M36.152,79.657a.184.184,0,0,0-.16.02c-1.61.96-3.29.36-4.93,1.09a8.77,8.77,0,0,0-2.23,1.55,9.047,9.047,0,0,1-1.6,2.09c1.69-1.38,3.21-3.29,5.52-3.49,1.18-.1,2.21.12,3.1-.56-.22.05-.38-.29-.17-.41C35.842,79.857,35.992,79.757,36.152,79.657Z" fill="#3a3a3a"/>
        <path d="M35.2,75.407a.336.336,0,0,0-.2-.54C35.062,75.047,35.132,75.227,35.2,75.407Z" fill="#3a3a3a"/>
        <path d="M35.2,75.417v-.01c-.07-.18-.14-.36-.2-.54a.138.138,0,0,0-.09,0,5.7,5.7,0,0,0-3.43,1.93c-1.86,2.08-2.66,5.3-4.61,7.38.64-.58,1.28-1.25,1.96-1.86,1.65-2.76,2.71-6.2,6.15-6.77A.33.33,0,0,0,35.2,75.417Z" fill="#3a3a3a"/>
        <path d="M34.912,74.867a.138.138,0,0,1,.09,0,35.582,35.582,0,0,1-1.17-4.01c-2.99.29-3.17,2.93-5.09,4.93l2.74,1.01A5.7,5.7,0,0,1,34.912,74.867Z" fill="#d57c6a"/>
        <path d="M34.892,70.747a.49.49,0,0,0-.18-.8C34.772,70.217,34.832,70.477,34.892,70.747Z" fill="#3a3a3a"/>
        <path d="M34.892,70.747c-.06-.27-.12-.53-.18-.8a.337.337,0,0,0-.17-.05c-.34-.01-.64-.01-.92,0q.09.48.21.96a5.153,5.153,0,0,1,.8-.03A.4.4,0,0,0,34.892,70.747Z" fill="#3a3a3a"/>
        <path d="M34.542,69.9a.337.337,0,0,1,.17.05,38.955,38.955,0,0,1-.71-9.6,11.706,11.706,0,0,0-1.19.06,35.623,35.623,0,0,0,.09,4.38c.11,0,.23,0,.35-.01a.377.377,0,0,1,.07.75c-.12.02-.24.05-.36.06a38.982,38.982,0,0,0,.66,4.31C33.9,69.887,34.2,69.887,34.542,69.9Z" fill="#3a3a3a"/>
        <path d="M33.832,70.857q-.12-.48-.21-.96c-1.76.07-2.52.65-3.64,2.3a16.045,16.045,0,0,1-3.32,3.95l.22.19a.4.4,0,0,1-.51.61c-.14-.11-.27-.21-.4-.3-.14.09-.29.19-.45.28a9.029,9.029,0,0,0-2.94,2.28,6.974,6.974,0,0,0-.96,1.98,2.443,2.443,0,0,0,.24-.1c.33-.15.61.26.47.53l.14.06a7.419,7.419,0,0,1,.87-1.64c1.48-2.03,3.7-2.48,5.4-4.25C30.662,73.787,30.842,71.147,33.832,70.857Z" fill="#3a3a3a"/>
        <path d="M33.452,87.487a.26.26,0,0,0-.26-.44,5,5,0,0,0-1.26.75A9.058,9.058,0,0,1,33.452,87.487Z" fill="#3a3a3a"/>
        <path d="M33.322,65.527a.377.377,0,0,0-.07-.75c-.12.01-.24.01-.35.01.01.26.03.53.06.8C33.082,65.577,33.2,65.547,33.322,65.527Z" fill="#3a3a3a"/>
        <path d="M33.432,87.517c.01-.01.03-.02.02-.03a9.058,9.058,0,0,0-1.52.31c-1.8,1.47-1.26,3.68-.72,5.95a.307.307,0,0,1,.42.33,1.433,1.433,0,0,1-.22.54,9.712,9.712,0,0,1,.33,2.79c-.24,3.82-3.78,4.87-5.18,7.99a8.277,8.277,0,0,0,.18,6.09.254.254,0,0,0,.3.16.275.275,0,0,1-.14-.3,4.679,4.679,0,0,1,.18-.76,1.026,1.026,0,0,0,.04-.14c.01-.01,0-.01,0-.01a9.143,9.143,0,0,1,2.76-7.65,10.549,10.549,0,0,0,2.46-3.25C33.812,95.647,29.1,90.527,33.432,87.517Z" fill="#3a3a3a"/>
        <path d="M33.622,69.9a38.982,38.982,0,0,1-.66-4.31c-2.51.4-5.12-.24-7.6.37-1.97.48-3.7,2.06-5.58,2.84-4.17,1.73-8.61.98-12.74,2.76a6.866,6.866,0,0,1,2.69.16c3.22.84,5.09,3.37,8.78,2.84,3.82-.55,5.22-.89,8.15,1.59a16.045,16.045,0,0,0,3.32-3.95C31.1,70.547,31.862,69.967,33.622,69.9Z" fill="#d57c6a"/>
        <path d="M32.962,65.587c-.03-.27-.05-.54-.06-.8-2.43.12-4.8-.51-7.18.14a29.967,29.967,0,0,0-5.22,2.54,1.093,1.093,0,0,1,.15.08c.22.15.05.44-.15.48a1.962,1.962,0,0,1-1.04-.09c-4.64,1.85-9.75.82-13.97,3.89a13.291,13.291,0,0,1,1.55-.27c4.13-1.78,8.57-1.03,12.74-2.76,1.88-.78,3.61-2.36,5.58-2.84C27.842,65.347,30.452,65.987,32.962,65.587Z" fill="#3a3a3a"/>
        <path d="M25.722,64.927c2.38-.65,4.75-.02,7.18-.14a35.623,35.623,0,0,1-.09-4.38c-3.97.36-7.83,2.24-11.9,1.12l-.23.76a.265.265,0,0,1,.21.43c-1.41,1.99-4.22.92-6.34,1.49a4.182,4.182,0,0,1,2.06.8c.61.42,1.15.93,1.75,1.36.68.49,1.45.68,2.14,1.1A29.967,29.967,0,0,1,25.722,64.927Z" fill="#883929"/>
        <path d="M32.592,107.937a.238.238,0,0,0,.2-.41,2.394,2.394,0,0,0-.26-.21,5.905,5.905,0,0,0-3.21.54,4.709,4.709,0,0,0-2.06,2.23c-.03.07-.06.15-.09.23a.5.5,0,0,0-.04.13c-.01,0-.01,0,0,.01a7.585,7.585,0,0,0,.12.91v.03a.165.165,0,0,0,.15-.12,10.446,10.446,0,0,1,.54-1.18.251.251,0,0,1,.04-.07,3.386,3.386,0,0,1,.83-1.13,3.328,3.328,0,0,1,.39-.36C30.332,107.637,31.272,107.817,32.592,107.937Z" fill="#3a3a3a"/>
        <path d="M29.322,107.857a5.905,5.905,0,0,1,3.21-.54c-1.94-1.39-4.43.75-5.27,2.77A4.709,4.709,0,0,1,29.322,107.857Z" fill="#3a3a3a"/>
        <path d="M31.632,94.077a.307.307,0,0,0-.42-.33c.07.29.14.58.2.87A1.433,1.433,0,0,0,31.632,94.077Z" fill="#3a3a3a"/>
        <path d="M31.932,87.8a8.38,8.38,0,0,0-1.47.64.178.178,0,0,1-.09.12c-3.17,1.86-3.54,5.66-5.43,8.47,1.96-1.16,4.58-1.37,6.16-3.2a.284.284,0,0,1,.11-.08C30.672,91.477,30.132,89.267,31.932,87.8Z" fill="#efd05f"/>
        <path d="M31.412,94.617c-.06-.29-.13-.58-.2-.87a.284.284,0,0,0-.11.08c-1.58,1.83-4.2,2.04-6.16,3.2a7.181,7.181,0,0,1-1.3,1.52c-.01.01-.03.02-.04.03a.19.19,0,0,0,.27,0c1.43-1.21,3.26-1.62,4.97-2.29A5.049,5.049,0,0,0,31.412,94.617Z" fill="#3a3a3a"/>
        <path d="M30.462,88.437a.235.235,0,0,0-.29-.26,5.434,5.434,0,0,0-3.09,2.7c.29-.2.58-.42.88-.66A18.894,18.894,0,0,1,30.462,88.437Z" fill="#3a3a3a"/>
        <path d="M30.372,88.557a.178.178,0,0,0,.09-.12,18.894,18.894,0,0,0-2.5,1.78c-.3.24-.59.46-.88.66-1.35,2.34-1.88,5.51-3.73,7.35a.224.224,0,0,0,.25.35.25.25,0,0,1-.06-.37,5.238,5.238,0,0,1,1.4-1.18C26.832,94.217,27.2,90.417,30.372,88.557Z" fill="#3a3a3a"/>
        <path d="M27.982,110.027a5.392,5.392,0,0,1,.83-1.13A3.386,3.386,0,0,0,27.982,110.027Z" fill="#3a3a3a"/>
        <path d="M27.5,111.447a7.133,7.133,0,0,1,.44-1.35,10.446,10.446,0,0,0-.54,1.18.165.165,0,0,1-.15.12v.01a.232.232,0,0,1-.21.24A.307.307,0,0,0,27.5,111.447Z" fill="#3a3a3a"/>
        <path d="M27.232,84.407a9.047,9.047,0,0,0,1.6-2.09c-.68.61-1.32,1.28-1.96,1.86-.01.03-.04.05-.06.08a.2.2,0,0,0,.2.33C27.082,84.527,27.162,84.477,27.232,84.407Z" fill="#3a3a3a"/>
        <path d="M27.252,111.4v-.03a7.585,7.585,0,0,1-.12-.91.5.5,0,0,0-.05.13,3.76,3.76,0,0,0-.1.55.263.263,0,0,0,.27.27Z" fill="#3a3a3a"/>
        <path d="M27.252,111.407a.263.263,0,0,1-.27-.27,3.76,3.76,0,0,1,.1-.55,4.679,4.679,0,0,0-.18.76.275.275,0,0,0,.14.3A.232.232,0,0,0,27.252,111.407Z" fill="#3a3a3a"/>
        <path d="M27.232,84.407c-.07.07-.15.12-.22.18a.133.133,0,0,0,.07-.03A1.061,1.061,0,0,0,27.232,84.407Z" fill="#3a3a3a"/>
        <path d="M27.132,110.447a.5.5,0,0,1,.04-.13c-.02.04-.03.08-.05.12,0,0,.01,0,0,.01Z" fill="#3a3a3a"/>
        <path d="M27.132,110.457c-.01-.01-.01-.01,0-.01h-.01a1.026,1.026,0,0,1-.04.14A.5.5,0,0,1,27.132,110.457Z" fill="#3a3a3a"/>
        <path d="M27.012,84.587a.2.2,0,0,1-.2-.33c.02-.03.05-.05.06-.08a1.848,1.848,0,0,1-.14.14c-.18.16.02.48.22.32C26.972,84.617,26.992,84.607,27.012,84.587Z" fill="#3a3a3a"/>
        <path d="M26.372,76.947a.4.4,0,0,0,.51-.61l-.22-.19c-.22.17-.44.34-.69.5C26.1,76.737,26.232,76.837,26.372,76.947Z" fill="#3a3a3a"/>
        <path d="M25.972,76.647c.25-.16.47-.33.69-.5-2.93-2.48-4.33-2.14-8.15-1.59-3.69.53-5.56-2-8.78-2.84a6.866,6.866,0,0,0-2.69-.16,12.727,12.727,0,0,0-1.42.73c-.01.01-.02.01-.03.02a10.276,10.276,0,0,1,6.42,1.24,13.963,13.963,0,0,0,4.11,1.99,8.692,8.692,0,0,0,3.08-.3,14.6,14.6,0,0,1,2.42-.25h.01a2.536,2.536,0,0,1,2.05-.4.315.315,0,0,1-.11.62c-.11-.01-.22-.02-.33-.02A8.057,8.057,0,0,1,25.972,76.647Z" fill="#3a3a3a"/>
        <path d="M25.522,76.927c.16-.09.31-.19.45-.28a8.057,8.057,0,0,0-2.73-1.46c-1.99.03-3.11,2.57-4.64,3.59-1.62,1.08-3.49.79-4.89,2.1a7.63,7.63,0,0,1,2.27-.45c2.02,0,3.63,1.52,5.64.76a6.974,6.974,0,0,1,.96-1.98A9.029,9.029,0,0,1,25.522,76.927Z" fill="#efd05f"/>
        <path d="M23.642,98.547a7.181,7.181,0,0,0,1.3-1.52,5.238,5.238,0,0,0-1.4,1.18.25.25,0,0,0,.06.37C23.612,98.567,23.632,98.557,23.642,98.547Z" fill="#3a3a3a"/>
        <path d="M23.572,75.207a.315.315,0,0,0,.11-.62,2.536,2.536,0,0,0-2.05.4,5.97,5.97,0,0,1,1.61.2C23.352,75.187,23.462,75.2,23.572,75.207Z" fill="#3a3a3a"/>
        <path d="M22.472,81.677l-.14-.06a.34.34,0,0,1-.12.12,3.224,3.224,0,0,1-.96.4c-.02.04-.03.07-.05.11-1.34,2.87-3.41,3.77-5.73,5.49a6.9,6.9,0,0,0-2.45,6.18.211.211,0,0,0,.05.13.318.318,0,0,1,.02-.13,9.455,9.455,0,0,1,.63-1.31v-.02c.78-3.89,3.91-4.11,6.42-6.32C21.582,85.007,21.832,83.307,22.472,81.677Z" fill="#3a3a3a"/>
        <path d="M22.332,81.617c.14-.27-.14-.68-.47-.53a2.443,2.443,0,0,1-.24.1c-.11.31-.23.63-.37.95a3.224,3.224,0,0,0,.96-.4A.34.34,0,0,0,22.332,81.617Z" fill="#3a3a3a"/>
        <path d="M23.242,75.187a5.97,5.97,0,0,0-1.61-.2h-.01a20.181,20.181,0,0,0-2.59,2.55c-1.84,1.79-4.87,1.16-6.12,3.57.27-.07.54-.15.8-.23,1.4-1.31,3.27-1.02,4.89-2.1C20.132,77.757,21.252,75.217,23.242,75.187Z" fill="#3a3a3a"/>
        <path d="M21.252,82.137c.14-.32.26-.64.37-.95-2.01.76-3.62-.76-5.64-.76a7.63,7.63,0,0,0-2.27.45,4.073,4.073,0,0,0-.5.57c-.15.21-.47-.01-.36-.23.02-.04.04-.07.06-.11l-.34.09c-.29.08-.15.49.11.49a17.231,17.231,0,0,0,2.36-.45,6.767,6.767,0,0,1,3.32.53A5.04,5.04,0,0,0,21.252,82.137Z" fill="#3a3a3a"/>
        <path d="M20.892,62.717a.265.265,0,0,0-.21-.43.273.273,0,0,0-.14.04,10.19,10.19,0,0,1-4.79.99,3.453,3.453,0,0,0-2.74,1.17,2.82,2.82,0,0,1,1.54-.28C16.672,63.637,19.482,64.707,20.892,62.717Z" fill="#3a3a3a"/>
        <path d="M20.5,68.027c.2-.04.37-.33.15-.48a1.093,1.093,0,0,0-.15-.08c-.15.08-.3.15-.45.22-.19.09-.39.17-.59.25A1.962,1.962,0,0,0,20.5,68.027Z" fill="#3a3a3a"/>
        <path d="M20.052,67.687c.15-.07.3-.14.45-.22-.69-.42-1.46-.61-2.14-1.1-.6-.43-1.14-.94-1.75-1.36a4.182,4.182,0,0,0-2.06-.8,3.038,3.038,0,0,0-1.33.69c-.17.15-.39-.07-.33-.26a.215.215,0,0,0,.22.32c1.9-.17,2.82.45,4.24,1.61a7.181,7.181,0,0,0,2.11,1.37C19.662,67.857,19.862,67.777,20.052,67.687Z" fill="#3a3a3a"/>
        <path d="M18.382,103.137c1.11,0,.94-1.72-.16-1.72S17.282,103.137,18.382,103.137Z" fill="#3a3a3a"/>
        <path d="M14.552,64.207a2.82,2.82,0,0,0-1.54.28.01.01,0,0,0-.01.01.5.5,0,0,0-.07.08.209.209,0,0,0-.04.06c-.06.19.16.41.33.26A3.038,3.038,0,0,1,14.552,64.207Z" fill="#3a3a3a"/>
        <path d="M13.562,93.937a8.5,8.5,0,0,1,.16-1.33,9.455,9.455,0,0,0-.63,1.31.318.318,0,0,0-.02.13C13.2,94.227,13.552,94.2,13.562,93.937Z" fill="#3a3a3a"/>
        <path d="M13.212,81.447a4.073,4.073,0,0,1,.5-.57c-.26.08-.53.16-.8.23-.02.04-.04.07-.06.11C12.742,81.437,13.062,81.657,13.212,81.447Z" fill="#3a3a3a"/>
        <path d="M12.932,64.577A.5.5,0,0,1,13,64.5a.193.193,0,0,0-.11.14A.209.209,0,0,1,12.932,64.577Z" fill="#3a3a3a"/>
        <path d="M8.112,86.057c1.68.42,1.85-2.75-.2-2.24-.03.01-.07.02-.1.03-1.19.3-.78,1.93.2,2.18C8.042,86.037,8.082,86.047,8.112,86.057Z" fill="#3a3a3a"/>
        <path d="M6.962,98.047A.675.675,0,0,0,7.012,97c-.06-.05-.12-.09-.18-.14a.842.842,0,1,0-.06,1.34C6.832,98.147,6.9,98.1,6.962,98.047Z" fill="#3a3a3a"/>
        <path d="M5.622,72.287a12.727,12.727,0,0,1,1.42-.73,13.291,13.291,0,0,0-1.55.27c-.04.03-.09.06-.13.09a.227.227,0,0,0,.08.4h.02a.615.615,0,0,1,.13-.01C5.6,72.3,5.612,72.3,5.622,72.287Z" fill="#3a3a3a"/>
        <path d="M5.592,72.307a.615.615,0,0,0-.13.01A.2.2,0,0,0,5.592,72.307Z" fill="#3a3a3a"/>
        <path d="M5.492,71.827a2.048,2.048,0,0,0-.24.05c-.27.06-.25.48.05.45.05,0,.1-.01.14-.01a.227.227,0,0,1-.08-.4C5.4,71.887,5.452,71.857,5.492,71.827Z" fill="#3a3a3a"/>
        <path d="M1.972,64.737a1.752,1.752,0,0,0,1.56-1.89,1.773,1.773,0,0,0-1.89-1.56,1.733,1.733,0,0,0,.33,3.45Z" fill="#3a3a3a"/>
      </g>
    </g>
  </g>
</svg>
