<svg width="307" height="61" viewBox="0 0 307 61" fill="none" xmlns="http://www.w3.org/2000/svg">
<g filter="url(#filter0_d)">
<rect x="6" y="2" width="299" height="53" rx="4" fill="#FFA088" fill-opacity="0.7" stroke="#CC7C68" stroke-width="3"/>
<path d="M128.747 36H138.584V34.1807H130.768V19.7944H128.747V36ZM144.908 36.2246C148.131 36.2246 150.31 33.8887 150.31 30.1602V30.1377C150.31 26.4092 148.12 24.0957 144.897 24.0957C141.674 24.0957 139.495 26.4204 139.495 30.1377V30.1602C139.495 33.8774 141.663 36.2246 144.908 36.2246ZM144.92 34.4951C142.853 34.4951 141.494 32.9116 141.494 30.1602V30.1377C141.494 27.4087 142.864 25.8252 144.897 25.8252C146.963 25.8252 148.311 27.3975 148.311 30.1377V30.1602C148.311 32.9004 146.975 34.4951 144.92 34.4951ZM157.128 40.1553C160.295 40.1553 162.283 38.3809 162.283 35.6743V24.3203H160.329V26.2969H160.284C159.565 24.9941 158.262 24.0957 156.612 24.0957C153.647 24.0957 151.614 26.4541 151.614 30.0815V30.0928C151.614 33.7427 153.624 36.1123 156.567 36.1123C158.24 36.1123 159.588 35.2812 160.284 33.9897H160.329V35.4834C160.329 37.2915 159.161 38.4258 157.106 38.4258C155.511 38.4258 154.399 37.9092 154.029 37.0669L153.984 36.9658H152.018L152.041 37.0669C152.423 38.7964 154.242 40.1553 157.128 40.1553ZM156.993 34.3828C154.916 34.3828 153.613 32.7432 153.613 30.0928V30.0815C153.613 27.4873 154.916 25.8252 156.993 25.8252C158.97 25.8252 160.329 27.5098 160.329 30.0815V30.0928C160.329 32.687 158.981 34.3828 156.993 34.3828ZM170.427 22.3438C171.112 22.3438 171.651 21.7935 171.651 21.1196C171.651 20.4346 171.112 19.8955 170.427 19.8955C169.753 19.8955 169.203 20.4346 169.203 21.1196C169.203 21.7935 169.753 22.3438 170.427 22.3438ZM169.45 36H171.404V24.3203H169.45V36ZM173.966 36H175.92V29.127C175.92 27.1392 177.122 25.8252 178.963 25.8252C180.76 25.8252 181.647 26.8696 181.647 28.7676V36H183.602V28.4194C183.602 25.7578 182.119 24.0957 179.559 24.0957C177.784 24.0957 176.594 24.8931 175.965 25.9824H175.92V24.3203H173.966V36Z" fill="white"/>
</g>
<defs>
<filter id="filter0_d" x="0.5" y="0.5" width="306" height="60" filterUnits="userSpaceOnUse" color-interpolation-filters="sRGB">
<feFlood flood-opacity="0" result="BackgroundImageFix"/>
<feColorMatrix in="SourceAlpha" type="matrix" values="0 0 0 0 0 0 0 0 0 0 0 0 0 0 0 0 0 0 127 0"/>
<feOffset dx="-2" dy="2"/>
<feGaussianBlur stdDeviation="1"/>
<feColorMatrix type="matrix" values="0 0 0 0 0.392157 0 0 0 0 0.407843 0 0 0 0 0.596078 0 0 0 0.35 0"/>
<feBlend mode="normal" in2="BackgroundImageFix" result="effect1_dropShadow"/>
<feBlend mode="normal" in="SourceGraphic" in2="effect1_dropShadow" result="shape"/>
</filter>
</defs>
</svg>
