<svg width="305" height="59" viewBox="0 0 305 59" fill="none" xmlns="http://www.w3.org/2000/svg">
<g filter="url(#filter0_d)">
<rect x="5" y="1" width="299" height="53" rx="4" fill="white" stroke="black"/>
<path d="M127.747 35H137.584V33.1807H129.768V18.7944H127.747V35ZM143.908 35.2246C147.131 35.2246 149.31 32.8887 149.31 29.1602V29.1377C149.31 25.4092 147.12 23.0957 143.897 23.0957C140.674 23.0957 138.495 25.4204 138.495 29.1377V29.1602C138.495 32.8774 140.663 35.2246 143.908 35.2246ZM143.92 33.4951C141.853 33.4951 140.494 31.9116 140.494 29.1602V29.1377C140.494 26.4087 141.864 24.8252 143.897 24.8252C145.963 24.8252 147.311 26.3975 147.311 29.1377V29.1602C147.311 31.9004 145.975 33.4951 143.92 33.4951ZM156.128 39.1553C159.295 39.1553 161.283 37.3809 161.283 34.6743V23.3203H159.329V25.2969H159.284C158.565 23.9941 157.262 23.0957 155.612 23.0957C152.647 23.0957 150.614 25.4541 150.614 29.0815V29.0928C150.614 32.7427 152.624 35.1123 155.567 35.1123C157.24 35.1123 158.588 34.2812 159.284 32.9897H159.329V34.4834C159.329 36.2915 158.161 37.4258 156.106 37.4258C154.511 37.4258 153.399 36.9092 153.029 36.0669L152.984 35.9658H151.018L151.041 36.0669C151.423 37.7964 153.242 39.1553 156.128 39.1553ZM155.993 33.3828C153.916 33.3828 152.613 31.7432 152.613 29.0928V29.0815C152.613 26.4873 153.916 24.8252 155.993 24.8252C157.97 24.8252 159.329 26.5098 159.329 29.0815V29.0928C159.329 31.687 157.981 33.3828 155.993 33.3828ZM169.427 21.3438C170.112 21.3438 170.651 20.7935 170.651 20.1196C170.651 19.4346 170.112 18.8955 169.427 18.8955C168.753 18.8955 168.203 19.4346 168.203 20.1196C168.203 20.7935 168.753 21.3438 169.427 21.3438ZM168.45 35H170.404V23.3203H168.45V35ZM172.966 35H174.92V28.127C174.92 26.1392 176.122 24.8252 177.963 24.8252C179.76 24.8252 180.647 25.8696 180.647 27.7676V35H182.602V27.4194C182.602 24.7578 181.119 23.0957 178.559 23.0957C176.784 23.0957 175.594 23.8931 174.965 24.9824H174.92V23.3203H172.966V35Z" fill="#22292B"/>
</g>
<defs>
<filter id="filter0_d" x="0.5" y="0" width="304" height="58.5" filterUnits="userSpaceOnUse" color-interpolation-filters="sRGB">
<feFlood flood-opacity="0" result="BackgroundImageFix"/>
<feColorMatrix in="SourceAlpha" type="matrix" values="0 0 0 0 0 0 0 0 0 0 0 0 0 0 0 0 0 0 127 0"/>
<feOffset dx="-2" dy="2"/>
<feGaussianBlur stdDeviation="1"/>
<feColorMatrix type="matrix" values="0 0 0 0 0.392157 0 0 0 0 0.407843 0 0 0 0 0.596078 0 0 0 0.35 0"/>
<feBlend mode="normal" in2="BackgroundImageFix" result="effect1_dropShadow"/>
<feBlend mode="normal" in="SourceGraphic" in2="effect1_dropShadow" result="shape"/>
</filter>
</defs>
</svg>
