<svg width="255" height="170" viewBox="0 0 255 170" fill="none" xmlns="http://www.w3.org/2000/svg">
<path d="M236.816 51.394L214.985 60.8436L207.028 72.9406L239.523 56.1392C246.394 52.5864 243.952 48.3051 236.816 51.394Z" fill="black"/>
<path d="M153.919 51.2136L156.74 56.5951L143.997 68.4372L142.343 56.1459C141.878 52.687 152.352 48.2241 153.919 51.2136Z" fill="black"/>
<path d="M167.912 47.788L170.328 46.4182C200.808 29.1384 233.442 30.6242 227.642 49.0278C226.567 52.4381 224.174 56.1599 220.633 59.9281L176.348 107.058C174.472 109.054 174.467 110.835 176.334 111.506C181.293 113.288 172.65 120.677 165.606 120.677H159.215C155.276 120.677 154.218 118.35 156.809 115.389L158.094 113.922L169.086 101.763L174.988 94.5571C179.422 89.5186 177.634 85.5502 170.932 85.5502H156.476C150.492 85.5502 142.673 88.0111 136.093 91.9657C133.259 93.6691 130.793 95.568 128.899 97.5073L124.741 101.763L112.583 113.922L111.712 114.848C108.688 118.067 102.767 120.677 98.4896 120.677H93.2054C86.6671 120.677 90.5262 114.143 98.4926 111.725C101.227 110.895 103.906 109.352 105.542 107.663L112.872 100.096L121.807 91.2246L149.494 61.7591C154.132 56.8222 160.512 51.9834 167.912 47.788Z" fill="black"/>
<path fill-rule="evenodd" clip-rule="evenodd" d="M95.5058 19.0261L96.7042 17.0941C111.821 -7.27646 147.938 -5.18087 160.135 20.7745C162.098 24.9518 163.24 29.4603 163.507 34.0552L173.503 24.3635C177.996 20.0071 184.857 26.0452 181.108 31.0559L163.567 54.4953V102.617C163.567 105.433 164.067 107.944 166.718 108.891C173.759 111.404 171.954 121.825 164.479 121.825H158.966C154.785 121.825 151.341 118.543 151.139 114.368L151.039 112.298L150.579 95.1491L149.658 84.9868C149.338 77.8807 143.484 72.284 136.37 72.284H121.028C114.676 72.284 108.832 75.7547 105.792 81.332C104.483 83.7345 103.76 86.4126 103.683 89.1476L103.515 95.1491L102.737 112.298V113.604C102.737 118.145 99.056 121.825 94.5157 121.825H88.9075C81.9682 121.825 79.5479 112.61 85.5917 109.2C87.6663 108.03 88.9701 105.852 89.0222 103.471L89.2557 92.7991L89.8908 80.2868V53.6147L89.6497 54.7517L71.9174 31.0559C68.1677 26.0452 75.0293 20.0071 79.5225 24.3635L90.1159 34.6344C90.7246 29.112 92.5591 23.7766 95.5058 19.0261ZM120.087 53.4607C124.676 55.7181 130.053 55.7181 134.641 53.4607C141.82 49.9293 145.427 41.7534 143.196 34.0705C138.593 18.2195 116.136 18.2195 111.533 34.0705C109.302 41.7534 112.909 49.9293 120.087 53.4607Z" fill="#818181"/>
<path d="M34.5288 165.677L21.0841 131.837H14.2703L0.688428 165.677H9.97167L11.7552 160.784H23.5078L25.1541 165.677H34.5288ZM21.2213 153.924H14.1331L17.6086 142.355L17.7458 142.4L21.2213 153.924ZM73.8025 137.553V131.837H66.2113V137.553H73.8025ZM73.8025 165.677V140.297H59.6719C59.6719 138.605 60.0835 137.553 62.3242 137.553H62.9187V131.837H61.9584C54.7787 131.837 52.0807 134.535 52.0807 139.794V140.297H45.5412C45.5412 138.605 45.9528 137.553 48.1936 137.553H48.7424V131.837H47.7363C40.6024 131.837 37.95 134.626 37.95 139.702V140.297H35.1147V146.059H37.95V165.677H45.5412V146.059H52.0807V165.677H59.6719V146.059H66.2113V165.677H73.8025ZM86.8428 165.677V151.684C86.8428 148.803 88.3062 147.111 92.8335 147.065V139.428C89.9067 139.428 87.8031 140.297 86.477 142.995H86.3855V140.297H79.2516V165.677H86.8428ZM135.855 165.677V149.992C135.855 142.903 132.105 139.428 126.434 139.428C122.959 139.428 120.215 141.074 118.386 143.955C116.785 141.074 114.362 139.428 111.069 139.428C107.822 139.428 105.399 140.617 104.072 142.995H103.981V140.297H96.8927V165.677H104.484V152.004C104.484 148.482 105.81 146.562 108.783 146.562C111.389 146.562 112.578 148.391 112.578 151.684V165.677H120.169V151.638C120.169 148.3 121.496 146.562 124.377 146.562C126.983 146.562 128.264 148.025 128.264 152.004V165.677H135.855ZM167.855 165.677V140.297H160.263V142.995H160.172C158.709 140.663 155.828 139.428 152.718 139.428C145.447 139.428 140.005 145.464 140.005 152.964C140.005 160.647 145.218 166.546 152.718 166.546C156.056 166.546 159.074 165.174 160.172 162.933H160.263V165.677H167.855ZM153.907 159.458C150.386 159.458 147.596 156.577 147.596 153.056C147.596 149.397 150.34 146.516 153.815 146.516C157.382 146.516 160.263 149.397 160.263 152.964C160.263 156.622 157.474 159.458 153.907 159.458ZM182.716 165.677V146.059H186.375V140.297H182.716V131.837H175.125V140.297H171.375V146.059H175.125V165.677H182.716ZM197.24 137.599V131.837H189.648V137.599H197.24ZM197.24 165.677V140.297H189.648V165.677H197.24ZM217.138 165.677L226.284 140.297H218.419L213.571 156.119H213.48L208.632 140.297H200.767L209.867 165.677H217.138ZM254.055 155.296C254.192 154.61 254.238 154.016 254.238 153.284C254.238 145.419 248.43 139.428 240.839 139.428C233.385 139.428 227.531 145.739 227.531 153.056C227.531 160.601 233.659 166.5 240.976 166.5C246.326 166.5 250.945 163.253 253.369 157.72H245.595C244.36 159.321 243.034 160.098 240.976 160.098C237.866 160.098 235.443 158.177 235.031 155.296H254.055ZM235.122 150.175C235.717 147.476 238.095 145.83 240.839 145.83C243.765 145.83 246.052 147.568 246.646 150.175H235.122Z" fill="#22292B"/>
</svg>
