<svg width="255" height="173" viewBox="0 0 255 173" fill="none" xmlns="http://www.w3.org/2000/svg">
<path d="M241.92 52.6043L220.114 62.043L212.166 74.1263L244.623 57.3441C251.487 53.7953 249.048 49.5189 241.92 52.6043Z" fill="#B1B1B1"/>
<path d="M159.117 52.4241L161.935 57.7994L149.206 69.628L147.555 57.3508C147.09 53.8958 157.552 49.438 159.117 52.4241Z" fill="#B1B1B1"/>
<path d="M173.094 49.0024L175.508 47.6341C205.953 30.374 238.55 31.8582 232.756 50.2407C231.682 53.6472 229.292 57.3648 225.755 61.1286L181.521 108.205C179.647 110.199 179.642 111.977 181.507 112.648C186.46 114.428 177.827 121.808 170.792 121.808H164.408C160.473 121.808 159.416 119.484 162.005 116.527L163.288 115.061L174.267 102.915L180.163 95.7182C184.591 90.6854 182.806 86.7216 176.111 86.7216H161.672C155.694 86.7216 147.884 89.1796 141.312 93.1297C138.481 94.8312 136.018 96.7279 134.126 98.665L129.973 102.915L117.828 115.061L116.959 115.986C113.938 119.202 108.024 121.808 103.751 121.808H98.473C91.9422 121.808 95.7969 115.282 103.754 112.867C106.486 112.038 109.162 110.496 110.796 108.809L118.117 101.251L127.042 92.3894L154.697 62.9575C159.331 58.0262 165.702 53.1929 173.094 49.0024Z" fill="#B1B1B1"/>
<path fill-rule="evenodd" clip-rule="evenodd" d="M100.771 20.2732L101.968 18.3435C117.068 -5.99934 153.143 -3.90614 165.327 22.0197C167.287 26.1922 168.428 30.6955 168.694 35.2852L178.679 25.6046C183.167 21.2531 190.021 27.2843 186.275 32.2893L168.755 55.7021V103.769C168.755 106.581 169.254 109.09 171.902 110.035C178.935 112.546 177.132 122.955 169.665 122.955H164.158C159.983 122.955 156.542 119.677 156.341 115.506L156.241 113.439L155.781 96.3095L154.861 86.1588C154.542 79.0608 148.694 73.4704 141.589 73.4704H126.264C119.919 73.4704 114.082 76.9372 111.046 82.5081C109.738 84.9079 109.016 87.5829 108.939 90.3148L108.77 96.3095L107.993 113.439V114.744C107.993 119.279 104.317 122.955 99.7818 122.955H94.18C87.2485 122.955 84.831 113.751 90.8679 110.345C92.9401 109.175 94.2424 107 94.2945 104.622L94.5277 93.9622L95.1621 81.4641V54.8228L94.9214 55.9582L77.2092 32.2893C73.4638 27.2843 80.3176 21.2531 84.8057 25.6046L95.3869 35.8637C95.995 30.3476 97.8273 25.0183 100.771 20.2732ZM125.324 54.6686C129.908 56.9234 135.278 56.9234 139.862 54.6686C147.032 51.1412 150.635 42.9747 148.407 35.3005C143.809 19.4675 121.377 19.4675 116.779 35.3005C114.551 42.9747 118.154 51.1412 125.324 54.6686Z" fill="#22292B"/>
<path d="M27.3308 142.819C27.2128 142.505 27.0161 142.347 26.6621 142.347H21.942C21.588 142.347 21.3913 142.505 21.2733 142.819L12.7772 165.712C12.0298 167.796 11.5578 169.448 9.86648 169.448C9.47314 169.448 9.27647 169.684 9.27647 170.038V171.218C9.27647 171.612 9.47314 171.808 9.86648 171.808H19.6213C20.0146 171.808 20.2113 171.612 20.2113 171.218V170.038C20.2113 169.684 20.0146 169.448 19.6213 169.448C18.0086 169.448 16.5533 168.308 16.5533 166.695C16.5533 166.38 16.6319 166.066 16.7499 165.712L17.8906 162.408H28.6681L29.8875 165.712C30.0448 166.066 30.0841 166.42 30.0841 166.734C30.0841 168.347 28.6288 169.448 27.0554 169.448C26.6621 169.448 26.4654 169.684 26.4654 170.038V171.218C26.4654 171.612 26.6621 171.808 27.0554 171.808H39.0916C39.485 171.808 39.6816 171.612 39.6816 171.218V170.038C39.6816 169.684 39.485 169.448 39.0916 169.448C37.4789 169.448 37.0069 167.718 36.2202 165.712L27.3308 142.819ZM23.1614 147.461L27.4094 158.986H19.11L23.1614 147.461ZM44.2496 152.141H41.3389C40.9455 152.141 40.7489 152.377 40.7489 152.731V153.911C40.7489 154.305 40.9455 154.501 41.3389 154.501C44.1709 154.501 44.1709 156.901 44.1709 158.986V165.712C44.2102 167.875 43.2269 169.448 41.3389 169.448C40.9455 169.448 40.7489 169.684 40.7489 170.038V171.218C40.7489 171.612 40.9455 171.808 41.3389 171.808H52.3917C52.7851 171.808 52.9817 171.612 52.9817 171.218V170.038C52.9817 169.684 52.7851 169.448 52.3917 169.448C50.4643 169.448 49.5203 167.875 49.5203 165.712V155.013H54.7517C55.1451 155.013 55.3418 154.816 55.3418 154.423V152.731C55.3418 152.377 55.1451 152.141 54.7517 152.141H49.481V149.585C49.5203 146.595 49.7957 144.55 50.7397 143.37C51.2117 142.78 51.841 142.505 52.3917 142.505C53.3751 142.505 54.2404 143.331 54.2404 144.786C54.2404 145.494 54.0437 146.359 53.5324 147.382C53.3357 147.736 53.3751 148.169 53.6897 148.169H53.8077L57.8985 147.225C58.4885 147.107 58.7245 146.91 58.8818 146.477C59.1572 145.809 59.3145 145.14 59.3145 144.511C59.3145 142.151 57.3085 140.341 53.1391 140.341C46.2163 140.341 44.2496 147.185 44.2496 151.827V152.141ZM61.7283 152.141H58.8176C58.4243 152.141 58.2276 152.377 58.2276 152.731V153.911C58.2276 154.305 58.4243 154.501 58.8176 154.501C61.6496 154.501 61.6496 156.901 61.6496 158.986V165.712C61.689 167.875 60.7056 169.448 58.8176 169.448C58.4243 169.448 58.2276 169.684 58.2276 170.038V171.218C58.2276 171.612 58.4243 171.808 58.8176 171.808H69.8704C70.2638 171.808 70.4605 171.612 70.4605 171.218V170.038C70.4605 169.684 70.2638 169.448 69.8704 169.448C67.9431 169.448 66.9991 167.875 66.9991 165.712V155.013H72.2305C72.6238 155.013 72.8205 154.816 72.8205 154.423V152.731C72.8205 152.377 72.6238 152.141 72.2305 152.141H66.9597V149.585C66.9991 146.595 67.2744 144.55 68.2184 143.37C68.6904 142.78 69.3198 142.505 69.8704 142.505C70.8538 142.505 71.7191 143.331 71.7191 144.786C71.7191 145.494 71.5225 146.359 71.0111 147.382C70.8145 147.736 70.8538 148.169 71.1685 148.169H71.2865L75.3772 147.225C75.9672 147.107 76.2032 146.91 76.3605 146.477C76.6359 145.809 76.7932 145.14 76.7932 144.511C76.7932 142.151 74.7872 140.341 70.6178 140.341C63.695 140.341 61.7283 147.185 61.7283 151.827V152.141ZM81.3403 148.641C82.0483 148.641 82.6383 148.365 83.307 147.657C84.015 146.949 84.2903 146.399 84.2903 145.691C84.2903 144.983 84.015 144.393 83.307 143.724C82.6383 143.016 82.0483 142.741 81.3403 142.741C80.6323 142.741 80.0816 143.016 79.3736 143.724C78.6656 144.393 78.3903 144.983 78.3903 145.691C78.3903 146.399 78.6656 146.949 79.3736 147.657C80.0816 148.365 80.6323 148.641 81.3403 148.641ZM87.0044 169.448C85.077 169.448 84.0937 167.875 84.0937 165.712V151.001C84.0543 150.922 84.0543 150.922 84.015 150.922H83.9363C83.8577 150.922 83.779 150.961 83.7397 151.04C82.6777 152.141 80.6716 153.636 76.5022 155.013C76.1482 155.131 75.9515 155.209 75.9515 155.524V156.861C75.9515 157.137 76.0302 157.333 76.4236 157.373C78.5869 157.609 78.7443 159.812 78.7443 161.542V165.712C78.7836 167.875 77.8002 169.448 75.8729 169.448H75.8335C75.4402 169.448 75.2435 169.684 75.2435 170.038V171.218C75.2435 171.612 75.5189 171.808 75.9122 171.808H87.0044C87.3977 171.808 87.6731 171.612 87.6731 171.218V170.038C87.6731 169.684 87.4764 169.448 87.0831 169.448H87.0044ZM98.7388 151.001C98.7388 150.922 98.7388 150.922 98.6995 150.922H98.5815C98.5421 150.922 98.4635 150.961 98.4241 151.04C97.3621 151.787 94.3727 153.321 90.636 153.911C90.2427 153.951 90.0853 154.108 90.0853 154.423V155.76C90.046 156.035 90.164 156.232 90.518 156.271C92.7207 156.507 92.8387 158.671 92.8387 160.795V165.712C92.8387 167.875 91.934 169.448 90.0067 169.448H89.928C89.5347 169.448 89.338 169.684 89.338 170.038V171.218C89.338 171.612 89.5347 171.808 89.928 171.808H101.335C101.728 171.808 101.925 171.612 101.925 171.218V170.038C101.925 169.684 101.728 169.448 101.335 169.448H101.296C99.3682 169.448 98.3848 167.875 98.3848 165.712V158.474C98.9748 157.058 100.548 155.091 102.318 155.091C103.42 155.091 104.206 155.681 104.206 157.097C104.206 157.648 104.128 158.317 103.813 159.104C103.774 159.222 103.774 159.34 103.774 159.418C103.774 159.654 103.892 159.812 104.128 159.812C104.206 159.812 104.324 159.772 104.482 159.733L108.14 158.199C109.084 157.805 109.162 156.901 109.162 155.721C109.162 153.007 107.196 151.669 104.718 151.669C101.925 151.669 99.2502 153.243 97.7948 156.271L98.7388 151.001ZM148.628 169.448C146.7 169.448 145.717 167.875 145.717 165.712V159.222C145.717 155.485 144.655 151.63 139.03 151.63C135.923 151.63 133.563 153.203 131.832 155.485C131.124 153.243 129.433 151.63 125.578 151.63C121.959 151.63 119.875 154.383 118.773 156.153L119.481 151.001C119.481 150.922 119.481 150.922 119.403 150.922H119.324C119.245 150.922 119.206 150.961 119.127 151.04C118.105 151.787 115.115 153.321 111.379 153.911C110.985 153.951 110.789 154.108 110.789 154.423V155.76C110.789 156.035 110.867 156.232 111.261 156.271C113.424 156.507 113.581 158.671 113.581 160.795V165.712C113.581 167.875 112.637 169.448 110.749 169.448H110.671C110.277 169.448 110.081 169.684 110.081 170.038V171.218C110.081 171.612 110.277 171.808 110.671 171.808H121.723C122.117 171.808 122.313 171.612 122.313 171.218V170.038C122.313 169.684 122.117 169.448 121.723 169.448H121.605C120.071 169.448 119.127 167.875 119.127 165.712V158.474C119.796 156.822 121.959 155.131 123.887 155.131C126.915 155.131 126.719 157.255 126.719 159.812V165.712C126.758 168.662 125.775 169.448 124.673 169.448H124.398C124.005 169.448 123.808 169.684 123.808 170.038V171.218C123.808 171.612 124.005 171.808 124.398 171.808H135.058C135.451 171.808 135.648 171.612 135.648 171.218V170.038C135.648 169.684 135.451 169.448 135.058 169.448H134.743C133.248 169.448 132.265 168.662 132.265 165.712V158.828C133.366 156.704 135.097 155.131 137.378 155.131C140.368 155.131 140.21 157.648 140.21 159.812V165.712C140.21 168.268 139.778 169.448 138.165 169.448H137.968C137.575 169.448 137.378 169.684 137.378 170.038V171.218C137.378 171.612 137.575 171.808 137.968 171.808H149.021C149.414 171.808 149.611 171.612 149.611 171.218V170.038C149.611 169.684 149.414 169.448 149.021 169.448H148.628ZM169.443 151.709C169.443 151.669 169.443 151.669 169.403 151.669H169.325C169.246 151.669 169.207 151.709 169.128 151.748C168.341 152.338 167.437 153.046 165.234 153.951C163.582 152.456 161.419 151.669 158.862 151.669C154.103 151.669 149.697 154.659 149.697 161.975C149.697 169.566 154.85 172.32 158.39 172.32C162.441 172.32 163.975 169.763 164.408 168.701L163.936 172.202C163.936 172.28 163.936 172.32 164.015 172.32H164.093C164.211 172.32 164.369 172.28 164.408 172.241C166.178 171.494 167.791 170.746 171.646 170.746C172.039 170.746 172.236 170.55 172.236 170.235V168.898C172.236 168.622 172.157 168.426 171.764 168.386C169.836 168.19 169.522 166.42 169.443 164.532V151.709ZM163.975 166.262C163.975 166.262 163.11 168.858 160.16 168.858C156.935 168.858 154.732 165.712 154.732 160.677C154.732 157.451 155.755 154.265 159.57 154.265C162.677 154.265 163.661 156.783 163.975 158.395V166.262ZM187.049 167.993C186.931 167.796 186.774 167.678 186.577 167.678C186.498 167.678 186.38 167.718 186.223 167.796L186.184 167.836C185.397 168.347 184.296 168.937 183.391 168.937C182.486 168.937 181.778 168.308 181.778 166.262V155.013H187.01C187.403 155.013 187.6 154.816 187.6 154.423V152.731C187.6 152.377 187.403 152.141 187.01 152.141H181.739V145.533C181.739 145.494 181.7 145.494 181.66 145.494H181.582C181.542 145.494 181.464 145.533 181.424 145.573C179.812 146.949 177.727 148.208 176.586 148.798C176.311 148.955 176.232 149.231 176.232 149.545V152.141H173.4C173.007 152.141 172.81 152.377 172.81 152.731V153.911C172.81 154.305 173.007 154.501 173.4 154.501C176.232 154.501 176.232 156.901 176.232 158.986V166.262C176.232 170.904 178.356 172.32 180.795 172.32C182.762 172.32 184.925 171.415 186.302 170.55L187.482 169.802C187.678 169.684 187.796 169.527 187.796 169.33C187.796 169.212 187.757 169.094 187.678 168.976L187.049 167.993ZM195.463 148.641C196.171 148.641 196.761 148.365 197.429 147.657C198.137 146.949 198.413 146.399 198.413 145.691C198.413 144.983 198.137 144.393 197.429 143.724C196.761 143.016 196.171 142.741 195.463 142.741C194.755 142.741 194.204 143.016 193.496 143.724C192.788 144.393 192.513 144.983 192.513 145.691C192.513 146.399 192.788 146.949 193.496 147.657C194.204 148.365 194.755 148.641 195.463 148.641ZM201.127 169.448C199.199 169.448 198.216 167.875 198.216 165.712V151.001C198.177 150.922 198.177 150.922 198.137 150.922H198.059C197.98 150.922 197.901 150.961 197.862 151.04C196.8 152.141 194.794 153.636 190.624 155.013C190.27 155.131 190.074 155.209 190.074 155.524V156.861C190.074 157.137 190.152 157.333 190.546 157.373C192.709 157.609 192.867 159.812 192.867 161.542V165.712C192.906 167.875 191.922 169.448 189.995 169.448H189.956C189.562 169.448 189.366 169.684 189.366 170.038V171.218C189.366 171.612 189.641 171.808 190.034 171.808H201.127C201.52 171.808 201.795 171.612 201.795 171.218V170.038C201.795 169.684 201.599 169.448 201.205 169.448H201.127ZM216.755 152.141C216.362 152.141 216.165 152.338 216.165 152.731V153.911C216.165 154.305 216.362 154.501 216.755 154.501H217.542C218.171 154.501 218.407 154.816 218.407 155.327C218.407 156.035 217.935 157.097 217.463 158.238L214.12 165.908L210.501 158.238C210.069 157.294 209.715 156.35 209.715 155.681C209.715 154.973 210.069 154.501 211.052 154.501H211.131C211.485 154.501 211.681 154.305 211.681 153.911V152.731C211.681 152.338 211.485 152.141 211.091 152.141H202.045C201.651 152.141 201.455 152.338 201.455 152.731V153.911C201.455 154.305 201.651 154.501 202.045 154.501H202.123C203.107 154.501 203.5 155.052 204.405 156.979L211.013 171.376C211.131 171.69 211.367 171.808 211.681 171.808H213.766C214.12 171.808 214.317 171.69 214.474 171.376L221.082 156.979C221.987 155.013 222.577 154.501 223.403 154.501H223.954C224.347 154.501 224.544 154.305 224.544 153.911V152.731C224.544 152.338 224.347 152.141 223.954 152.141H216.755ZM241.941 159.812C242.177 159.694 242.256 159.536 242.256 159.3C242.256 156.35 239.385 151.709 234.153 151.709C229.551 151.709 224.831 154.501 224.831 161.818C224.831 167.521 228.843 172.28 235.373 172.28C239.345 172.28 241.784 170.471 243.239 167.718C243.357 167.482 243.515 167.246 243.515 167.01C243.515 166.892 243.436 166.774 243.318 166.734C242.059 165.987 242.02 165.948 241.784 165.948C241.666 165.948 241.509 165.987 241.43 166.105C240.053 168.111 238.087 169.016 236.435 169.016C233.367 169.016 231.4 166.97 230.535 164.807L241.941 159.812ZM230.063 162.329C229.709 161.424 229.669 160.126 229.669 159.34C229.669 156.783 231.046 154.816 233.209 154.816C235.019 154.816 236.356 156.665 236.356 159.143L230.063 162.329ZM247.404 167.246C246.893 167.718 246.657 168.229 246.657 168.78C246.657 169.291 246.893 169.802 247.404 170.274L248.938 171.808C249.45 172.32 249.961 172.556 250.472 172.556C250.984 172.556 251.495 172.32 252.006 171.808L253.54 170.274C254.052 169.802 254.288 169.291 254.288 168.78C254.288 168.229 254.052 167.718 253.54 167.246L252.006 165.712C251.495 165.2 250.984 164.964 250.472 164.964C249.961 164.964 249.45 165.2 248.938 165.672L247.404 167.246Z" fill="#22292B"/>
</svg>
