<svg width="285" height="48" viewBox="0 0 285 48" fill="none" xmlns="http://www.w3.org/2000/svg">
<g filter="url(#filter0_b)">
<rect width="285" height="48" rx="10" fill="white" fill-opacity="0.48"/>
<rect x="0.5" y="0.5" width="284" height="47" rx="9.5" stroke="url(#paint0_linear)"/>
<rect x="0.5" y="0.5" width="284" height="47" rx="9.5" stroke="url(#paint1_linear)"/>
</g>
<path d="M63.3386 21.52C63.8826 21.52 64.3732 21.5787 64.8106 21.696C65.2479 21.8133 65.5946 21.9733 65.8506 22.176C66.1066 22.3787 66.2346 22.608 66.2346 22.864C66.2346 23.0027 66.1866 23.136 66.0906 23.264C66.0052 23.392 65.8772 23.456 65.7066 23.456C65.5679 23.456 65.4506 23.4293 65.3546 23.376C65.2692 23.3227 65.1839 23.2533 65.0986 23.168C65.0239 23.0827 64.9172 23.008 64.7786 22.944C64.6506 22.8693 64.4639 22.8107 64.2186 22.768C63.9732 22.7253 63.7226 22.704 63.4666 22.704C62.8906 22.704 62.3786 22.8427 61.9306 23.12C61.4826 23.3973 61.1306 23.7707 60.8746 24.24C60.6292 24.7093 60.5066 25.2427 60.5066 25.84C60.5066 26.4373 60.6292 26.9707 60.8746 27.44C61.1199 27.9093 61.4612 28.2827 61.8986 28.56C62.3359 28.8373 62.8426 28.976 63.4186 28.976C63.7919 28.976 64.0852 28.944 64.2986 28.88C64.5226 28.816 64.7146 28.7413 64.8746 28.656C65.0559 28.5493 65.1946 28.4427 65.2906 28.336C65.3972 28.2293 65.5412 28.176 65.7226 28.176C65.9039 28.176 66.0426 28.2347 66.1386 28.352C66.2346 28.4693 66.2826 28.6133 66.2826 28.784C66.2826 28.976 66.1492 29.1787 65.8826 29.392C65.6159 29.6053 65.2532 29.7867 64.7946 29.936C64.3466 30.0853 63.8399 30.16 63.2746 30.16C62.4639 30.16 61.7546 29.9733 61.1466 29.6C60.5386 29.216 60.0639 28.6987 59.7226 28.048C59.3919 27.3867 59.2266 26.6507 59.2266 25.84C59.2266 25.0293 59.3972 24.2987 59.7386 23.648C60.0906 22.9973 60.5759 22.48 61.1946 22.096C61.8132 21.712 62.5279 21.52 63.3386 21.52ZM75.7333 25.84C75.7333 26.672 75.552 27.4133 75.1893 28.064C74.8267 28.7147 74.3307 29.2267 73.7013 29.6C73.0827 29.9733 72.3787 30.16 71.5893 30.16C70.8107 30.16 70.1067 29.9733 69.4773 29.6C68.8587 29.2267 68.3627 28.7147 67.9893 28.064C67.6267 27.4133 67.4453 26.672 67.4453 25.84C67.4453 25.008 67.6267 24.2667 67.9893 23.616C68.3627 22.9653 68.8587 22.4533 69.4773 22.08C70.1067 21.7067 70.8107 21.52 71.5893 21.52C72.3787 21.52 73.0827 21.7067 73.7013 22.08C74.3307 22.4533 74.8267 22.9653 75.1893 23.616C75.552 24.2667 75.7333 25.008 75.7333 25.84ZM74.4533 25.84C74.4533 25.2213 74.3253 24.6773 74.0693 24.208C73.824 23.7387 73.4827 23.3707 73.0453 23.104C72.6187 22.8373 72.1333 22.704 71.5893 22.704C71.056 22.704 70.5707 22.8373 70.1333 23.104C69.696 23.3707 69.3493 23.7387 69.0933 24.208C68.848 24.6773 68.7253 25.2213 68.7253 25.84C68.7253 26.448 68.848 26.9867 69.0933 27.456C69.3493 27.9253 69.696 28.2987 70.1333 28.576C70.5707 28.8427 71.056 28.976 71.5893 28.976C72.1333 28.976 72.6187 28.8427 73.0453 28.576C73.4827 28.2987 73.824 27.9253 74.0693 27.456C74.3253 26.9867 74.4533 26.448 74.4533 25.84ZM81.6943 21.52C82.4197 21.52 82.9903 21.6693 83.4063 21.968C83.8223 22.2667 84.1157 22.6667 84.2863 23.168C84.4677 23.6693 84.5583 24.2293 84.5583 24.848V29.344C84.5583 29.5253 84.4943 29.68 84.3663 29.808C84.249 29.936 84.0997 30 83.9183 30C83.737 30 83.5823 29.936 83.4543 29.808C83.337 29.68 83.2783 29.5253 83.2783 29.344V24.88C83.2783 24.4747 83.2143 24.112 83.0863 23.792C82.969 23.4613 82.7663 23.2 82.4783 23.008C82.201 22.8053 81.817 22.704 81.3263 22.704C80.8783 22.704 80.4677 22.8053 80.0943 23.008C79.721 23.2 79.4223 23.4613 79.1983 23.792C78.9743 24.112 78.8623 24.4747 78.8623 24.88V29.344C78.8623 29.5253 78.7983 29.68 78.6703 29.808C78.553 29.936 78.4037 30 78.2223 30C78.041 30 77.8863 29.936 77.7583 29.808C77.641 29.68 77.5823 29.5253 77.5823 29.344V22.368C77.5823 22.1867 77.641 22.0373 77.7583 21.92C77.8863 21.792 78.041 21.728 78.2223 21.728C78.4143 21.728 78.569 21.792 78.6863 21.92C78.8037 22.0373 78.8623 22.1867 78.8623 22.368V23.504L78.5423 23.856C78.5957 23.5787 78.7183 23.3013 78.9103 23.024C79.1023 22.736 79.3423 22.48 79.6303 22.256C79.9183 22.032 80.2383 21.856 80.5903 21.728C80.9423 21.5893 81.3103 21.52 81.6943 21.52ZM86.6061 21.776H90.3661C90.5367 21.776 90.6754 21.8347 90.7821 21.952C90.8994 22.0693 90.9581 22.208 90.9581 22.368C90.9581 22.5387 90.8994 22.6827 90.7821 22.8C90.6754 22.9067 90.5367 22.96 90.3661 22.96H86.6061C86.4461 22.96 86.3074 22.9013 86.1901 22.784C86.0727 22.6667 86.0141 22.5227 86.0141 22.352C86.0141 22.192 86.0727 22.0587 86.1901 21.952C86.3074 21.8347 86.4461 21.776 86.6061 21.776ZM88.2861 19.6C88.4674 19.6 88.6167 19.664 88.7341 19.792C88.8514 19.9093 88.9101 20.0587 88.9101 20.24V27.968C88.9101 28.224 88.9474 28.416 89.0221 28.544C89.0967 28.672 89.1927 28.7627 89.3101 28.816C89.4381 28.8587 89.5607 28.88 89.6781 28.88C89.7847 28.88 89.8754 28.864 89.9501 28.832C90.0354 28.7893 90.1314 28.768 90.2381 28.768C90.3447 28.768 90.4407 28.8213 90.5261 28.928C90.6221 29.024 90.6701 29.152 90.6701 29.312C90.6701 29.504 90.5581 29.6693 90.3341 29.808C90.1101 29.936 89.8594 30 89.5821 30C89.4327 30 89.2461 29.9893 89.0221 29.968C88.8087 29.9467 88.5954 29.8773 88.3821 29.76C88.1687 29.6427 87.9874 29.4507 87.8381 29.184C87.6994 28.9067 87.6301 28.5227 87.6301 28.032V20.24C87.6301 20.0587 87.6941 19.9093 87.8221 19.792C87.9501 19.664 88.1047 19.6 88.2861 19.6ZM93.9706 29.344C93.9706 29.5253 93.9066 29.68 93.7786 29.808C93.6612 29.936 93.5119 30 93.3306 30C93.1386 30 92.9839 29.936 92.8666 29.808C92.7492 29.68 92.6906 29.5253 92.6906 29.344V22.24C92.6906 22.0587 92.7492 21.9093 92.8666 21.792C92.9946 21.664 93.1492 21.6 93.3306 21.6C93.5119 21.6 93.6612 21.664 93.7786 21.792C93.9066 21.9093 93.9706 22.0587 93.9706 22.24V29.344ZM93.3306 20.528C93.0639 20.528 92.8666 20.4747 92.7386 20.368C92.6106 20.2613 92.5466 20.096 92.5466 19.872V19.648C92.5466 19.424 92.6159 19.2587 92.7546 19.152C92.8932 19.0453 93.0906 18.992 93.3466 18.992C93.6026 18.992 93.7946 19.0453 93.9226 19.152C94.0506 19.2587 94.1146 19.424 94.1146 19.648V19.872C94.1146 20.096 94.0452 20.2613 93.9066 20.368C93.7786 20.4747 93.5866 20.528 93.3306 20.528ZM100.382 21.52C101.107 21.52 101.678 21.6693 102.094 21.968C102.51 22.2667 102.803 22.6667 102.974 23.168C103.155 23.6693 103.246 24.2293 103.246 24.848V29.344C103.246 29.5253 103.182 29.68 103.054 29.808C102.936 29.936 102.787 30 102.606 30C102.424 30 102.27 29.936 102.142 29.808C102.024 29.68 101.966 29.5253 101.966 29.344V24.88C101.966 24.4747 101.902 24.112 101.774 23.792C101.656 23.4613 101.454 23.2 101.166 23.008C100.888 22.8053 100.504 22.704 100.014 22.704C99.5658 22.704 99.1552 22.8053 98.7818 23.008C98.4085 23.2 98.1098 23.4613 97.8858 23.792C97.6618 24.112 97.5498 24.4747 97.5498 24.88V29.344C97.5498 29.5253 97.4858 29.68 97.3578 29.808C97.2405 29.936 97.0912 30 96.9098 30C96.7285 30 96.5738 29.936 96.4458 29.808C96.3285 29.68 96.2698 29.5253 96.2698 29.344V22.368C96.2698 22.1867 96.3285 22.0373 96.4458 21.92C96.5738 21.792 96.7285 21.728 96.9098 21.728C97.1018 21.728 97.2565 21.792 97.3738 21.92C97.4912 22.0373 97.5498 22.1867 97.5498 22.368V23.504L97.2298 23.856C97.2832 23.5787 97.4058 23.3013 97.5978 23.024C97.7898 22.736 98.0298 22.48 98.3178 22.256C98.6058 22.032 98.9258 21.856 99.2778 21.728C99.6298 21.5893 99.9978 21.52 100.382 21.52ZM111.806 21.728C111.998 21.728 112.152 21.792 112.27 21.92C112.387 22.0373 112.446 22.1867 112.446 22.368V26.736C112.446 27.8133 112.142 28.6507 111.534 29.248C110.936 29.8347 110.099 30.128 109.022 30.128C107.955 30.128 107.118 29.8347 106.51 29.248C105.912 28.6507 105.614 27.8133 105.614 26.736V22.368C105.614 22.1867 105.672 22.0373 105.79 21.92C105.918 21.792 106.072 21.728 106.254 21.728C106.446 21.728 106.6 21.792 106.718 21.92C106.835 22.0373 106.894 22.1867 106.894 22.368V26.736C106.894 27.4613 107.08 28.0107 107.454 28.384C107.827 28.7573 108.35 28.944 109.022 28.944C109.715 28.944 110.243 28.7573 110.606 28.384C110.979 28.0107 111.166 27.4613 111.166 26.736V22.368C111.166 22.1867 111.224 22.0373 111.342 21.92C111.47 21.792 111.624 21.728 111.806 21.728ZM118.561 30.16C117.707 30.16 116.961 29.9787 116.321 29.616C115.681 29.2533 115.185 28.7573 114.833 28.128C114.481 27.488 114.305 26.752 114.305 25.92C114.305 24.992 114.486 24.2027 114.849 23.552C115.222 22.8907 115.702 22.3893 116.289 22.048C116.875 21.696 117.499 21.52 118.161 21.52C118.662 21.52 119.137 21.6107 119.585 21.792C120.043 21.9733 120.449 22.24 120.801 22.592C121.163 22.9333 121.451 23.3493 121.665 23.84C121.878 24.32 121.99 24.8587 122.001 25.456C121.99 25.6267 121.921 25.7707 121.793 25.888C121.665 26.0053 121.515 26.064 121.345 26.064H115.025L114.737 24.96H120.897L120.641 25.184V24.832C120.609 24.3947 120.465 24.0213 120.209 23.712C119.963 23.392 119.659 23.1467 119.297 22.976C118.934 22.8053 118.555 22.72 118.161 22.72C117.841 22.72 117.521 22.7787 117.201 22.896C116.891 23.0027 116.609 23.184 116.353 23.44C116.107 23.6853 115.91 24.0053 115.761 24.4C115.611 24.7947 115.537 25.2693 115.537 25.824C115.537 26.4427 115.659 26.9867 115.905 27.456C116.161 27.9253 116.513 28.2987 116.961 28.576C117.409 28.8427 117.926 28.976 118.513 28.976C118.897 28.976 119.227 28.928 119.505 28.832C119.782 28.736 120.017 28.6187 120.209 28.48C120.411 28.3307 120.582 28.1813 120.721 28.032C120.859 27.936 120.998 27.888 121.137 27.888C121.286 27.888 121.414 27.9413 121.521 28.048C121.627 28.1547 121.681 28.2827 121.681 28.432C121.681 28.6133 121.595 28.7733 121.425 28.912C121.115 29.2427 120.705 29.536 120.193 29.792C119.691 30.0373 119.147 30.16 118.561 30.16ZM138.014 21.584C138.185 21.584 138.329 21.6427 138.446 21.76C138.574 21.8773 138.638 22.032 138.638 22.224C138.638 22.2667 138.633 22.3147 138.622 22.368C138.622 22.4107 138.612 22.4533 138.59 22.496L136.126 29.584C136.073 29.7227 135.982 29.8293 135.854 29.904C135.737 29.9787 135.609 30.0107 135.47 30C135.225 29.9893 135.038 29.8507 134.91 29.584L132.894 24.528L133.214 24.576L131.39 29.584C131.273 29.8507 131.086 29.9893 130.83 30C130.692 30.0107 130.558 29.9787 130.43 29.904C130.302 29.8293 130.217 29.7227 130.174 29.584L127.662 22.496C127.63 22.4 127.614 22.3093 127.614 22.224C127.614 22.0533 127.673 21.904 127.79 21.776C127.908 21.648 128.068 21.584 128.27 21.584C128.398 21.584 128.516 21.616 128.622 21.68C128.729 21.744 128.804 21.8453 128.846 21.984L131.006 28.288L130.67 28.272L132.542 23.472C132.649 23.2053 132.846 23.072 133.134 23.072C133.284 23.072 133.401 23.1093 133.486 23.184C133.582 23.248 133.652 23.344 133.694 23.472L135.646 28.272L135.246 28.304L137.406 21.984C137.502 21.7173 137.705 21.584 138.014 21.584ZM141.596 29.344C141.596 29.5253 141.532 29.68 141.404 29.808C141.286 29.936 141.137 30 140.956 30C140.764 30 140.609 29.936 140.492 29.808C140.374 29.68 140.316 29.5253 140.316 29.344V22.24C140.316 22.0587 140.374 21.9093 140.492 21.792C140.62 21.664 140.774 21.6 140.956 21.6C141.137 21.6 141.286 21.664 141.404 21.792C141.532 21.9093 141.596 22.0587 141.596 22.24V29.344ZM140.956 20.528C140.689 20.528 140.492 20.4747 140.364 20.368C140.236 20.2613 140.172 20.096 140.172 19.872V19.648C140.172 19.424 140.241 19.2587 140.38 19.152C140.518 19.0453 140.716 18.992 140.972 18.992C141.228 18.992 141.42 19.0453 141.548 19.152C141.676 19.2587 141.74 19.424 141.74 19.648V19.872C141.74 20.096 141.67 20.2613 141.532 20.368C141.404 20.4747 141.212 20.528 140.956 20.528ZM143.575 21.776H147.335C147.505 21.776 147.644 21.8347 147.751 21.952C147.868 22.0693 147.927 22.208 147.927 22.368C147.927 22.5387 147.868 22.6827 147.751 22.8C147.644 22.9067 147.505 22.96 147.335 22.96H143.575C143.415 22.96 143.276 22.9013 143.159 22.784C143.041 22.6667 142.983 22.5227 142.983 22.352C142.983 22.192 143.041 22.0587 143.159 21.952C143.276 21.8347 143.415 21.776 143.575 21.776ZM145.255 19.6C145.436 19.6 145.585 19.664 145.703 19.792C145.82 19.9093 145.879 20.0587 145.879 20.24V27.968C145.879 28.224 145.916 28.416 145.991 28.544C146.065 28.672 146.161 28.7627 146.279 28.816C146.407 28.8587 146.529 28.88 146.647 28.88C146.753 28.88 146.844 28.864 146.919 28.832C147.004 28.7893 147.1 28.768 147.207 28.768C147.313 28.768 147.409 28.8213 147.495 28.928C147.591 29.024 147.639 29.152 147.639 29.312C147.639 29.504 147.527 29.6693 147.303 29.808C147.079 29.936 146.828 30 146.551 30C146.401 30 146.215 29.9893 145.991 29.968C145.777 29.9467 145.564 29.8773 145.351 29.76C145.137 29.6427 144.956 29.4507 144.807 29.184C144.668 28.9067 144.599 28.5227 144.599 28.032V20.24C144.599 20.0587 144.663 19.9093 144.791 19.792C144.919 19.664 145.073 19.6 145.255 19.6ZM153.707 21.6C154.411 21.6 154.966 21.7547 155.371 22.064C155.787 22.3627 156.081 22.768 156.251 23.28C156.433 23.7813 156.523 24.3413 156.523 24.96V29.344C156.523 29.5253 156.459 29.68 156.331 29.808C156.214 29.936 156.065 30 155.883 30C155.702 30 155.547 29.936 155.419 29.808C155.302 29.68 155.243 29.5253 155.243 29.344V24.96C155.243 24.5547 155.185 24.192 155.067 23.872C154.95 23.5413 154.753 23.28 154.475 23.088C154.209 22.8853 153.841 22.784 153.371 22.784C152.934 22.784 152.534 22.8853 152.171 23.088C151.809 23.28 151.521 23.5413 151.307 23.872C151.094 24.192 150.987 24.5547 150.987 24.96V29.344C150.987 29.5253 150.923 29.68 150.795 29.808C150.678 29.936 150.529 30 150.347 30C150.166 30 150.011 29.936 149.883 29.808C149.766 29.68 149.707 29.5253 149.707 29.344V18.8C149.707 18.6187 149.766 18.4693 149.883 18.352C150.011 18.224 150.166 18.16 150.347 18.16C150.539 18.16 150.694 18.224 150.811 18.352C150.929 18.4693 150.987 18.6187 150.987 18.8V23.584L150.667 23.936C150.721 23.6587 150.838 23.3813 151.019 23.104C151.201 22.816 151.43 22.56 151.707 22.336C151.985 22.112 152.294 21.936 152.635 21.808C152.977 21.6693 153.334 21.6 153.707 21.6ZM166.671 25.84C166.671 26.672 166.489 27.4133 166.127 28.064C165.764 28.7147 165.268 29.2267 164.639 29.6C164.02 29.9733 163.316 30.16 162.527 30.16C161.748 30.16 161.044 29.9733 160.415 29.6C159.796 29.2267 159.3 28.7147 158.927 28.064C158.564 27.4133 158.383 26.672 158.383 25.84C158.383 25.008 158.564 24.2667 158.927 23.616C159.3 22.9653 159.796 22.4533 160.415 22.08C161.044 21.7067 161.748 21.52 162.527 21.52C163.316 21.52 164.02 21.7067 164.639 22.08C165.268 22.4533 165.764 22.9653 166.127 23.616C166.489 24.2667 166.671 25.008 166.671 25.84ZM165.391 25.84C165.391 25.2213 165.263 24.6773 165.007 24.208C164.761 23.7387 164.42 23.3707 163.983 23.104C163.556 22.8373 163.071 22.704 162.527 22.704C161.993 22.704 161.508 22.8373 161.071 23.104C160.633 23.3707 160.287 23.7387 160.031 24.208C159.785 24.6773 159.663 25.2213 159.663 25.84C159.663 26.448 159.785 26.9867 160.031 27.456C160.287 27.9253 160.633 28.2987 161.071 28.576C161.508 28.8427 161.993 28.976 162.527 28.976C163.071 28.976 163.556 28.8427 163.983 28.576C164.42 28.2987 164.761 27.9253 165.007 27.456C165.263 26.9867 165.391 26.448 165.391 25.84ZM174.712 21.728C174.904 21.728 175.058 21.792 175.176 21.92C175.293 22.0373 175.352 22.1867 175.352 22.368V26.736C175.352 27.8133 175.048 28.6507 174.44 29.248C173.842 29.8347 173.005 30.128 171.928 30.128C170.861 30.128 170.024 29.8347 169.416 29.248C168.818 28.6507 168.52 27.8133 168.52 26.736V22.368C168.52 22.1867 168.578 22.0373 168.696 21.92C168.824 21.792 168.978 21.728 169.16 21.728C169.352 21.728 169.506 21.792 169.624 21.92C169.741 22.0373 169.8 22.1867 169.8 22.368V26.736C169.8 27.4613 169.986 28.0107 170.36 28.384C170.733 28.7573 171.256 28.944 171.928 28.944C172.621 28.944 173.149 28.7573 173.512 28.384C173.885 28.0107 174.072 27.4613 174.072 26.736V22.368C174.072 22.1867 174.13 22.0373 174.248 21.92C174.376 21.792 174.53 21.728 174.712 21.728ZM177.403 21.776H181.163C181.334 21.776 181.472 21.8347 181.579 21.952C181.696 22.0693 181.755 22.208 181.755 22.368C181.755 22.5387 181.696 22.6827 181.579 22.8C181.472 22.9067 181.334 22.96 181.163 22.96H177.403C177.243 22.96 177.104 22.9013 176.987 22.784C176.87 22.6667 176.811 22.5227 176.811 22.352C176.811 22.192 176.87 22.0587 176.987 21.952C177.104 21.8347 177.243 21.776 177.403 21.776ZM179.083 19.6C179.264 19.6 179.414 19.664 179.531 19.792C179.648 19.9093 179.707 20.0587 179.707 20.24V27.968C179.707 28.224 179.744 28.416 179.819 28.544C179.894 28.672 179.99 28.7627 180.107 28.816C180.235 28.8587 180.358 28.88 180.475 28.88C180.582 28.88 180.672 28.864 180.747 28.832C180.832 28.7893 180.928 28.768 181.035 28.768C181.142 28.768 181.238 28.8213 181.323 28.928C181.419 29.024 181.467 29.152 181.467 29.312C181.467 29.504 181.355 29.6693 181.131 29.808C180.907 29.936 180.656 30 180.379 30C180.23 30 180.043 29.9893 179.819 29.968C179.606 29.9467 179.392 29.8773 179.179 29.76C178.966 29.6427 178.784 29.4507 178.635 29.184C178.496 28.9067 178.427 28.5227 178.427 28.032V20.24C178.427 20.0587 178.491 19.9093 178.619 19.792C178.747 19.664 178.902 19.6 179.083 19.6ZM189.35 29.344C189.35 29.5253 189.286 29.68 189.158 29.808C189.03 29.936 188.875 30 188.694 30C188.512 30 188.363 29.936 188.246 29.808C188.128 29.68 188.07 29.5253 188.07 29.344V18.8C188.07 18.6187 188.128 18.4693 188.246 18.352C188.374 18.224 188.528 18.16 188.71 18.16C188.902 18.16 189.056 18.224 189.174 18.352C189.291 18.4693 189.35 18.6187 189.35 18.8V29.344ZM199.452 25.84C199.452 26.672 199.271 27.4133 198.908 28.064C198.545 28.7147 198.049 29.2267 197.42 29.6C196.801 29.9733 196.097 30.16 195.308 30.16C194.529 30.16 193.825 29.9733 193.196 29.6C192.577 29.2267 192.081 28.7147 191.708 28.064C191.345 27.4133 191.164 26.672 191.164 25.84C191.164 25.008 191.345 24.2667 191.708 23.616C192.081 22.9653 192.577 22.4533 193.196 22.08C193.825 21.7067 194.529 21.52 195.308 21.52C196.097 21.52 196.801 21.7067 197.42 22.08C198.049 22.4533 198.545 22.9653 198.908 23.616C199.271 24.2667 199.452 25.008 199.452 25.84ZM198.172 25.84C198.172 25.2213 198.044 24.6773 197.788 24.208C197.543 23.7387 197.201 23.3707 196.764 23.104C196.337 22.8373 195.852 22.704 195.308 22.704C194.775 22.704 194.289 22.8373 193.852 23.104C193.415 23.3707 193.068 23.7387 192.812 24.208C192.567 24.6773 192.444 25.2213 192.444 25.84C192.444 26.448 192.567 26.9867 192.812 27.456C193.068 27.9253 193.415 28.2987 193.852 28.576C194.289 28.8427 194.775 28.976 195.308 28.976C195.852 28.976 196.337 28.8427 196.764 28.576C197.201 28.2987 197.543 27.9253 197.788 27.456C198.044 26.9867 198.172 26.448 198.172 25.84ZM204.693 21.52C205.162 21.52 205.594 21.6 205.989 21.76C206.384 21.9093 206.725 22.1067 207.013 22.352C207.312 22.5973 207.541 22.8533 207.701 23.12C207.872 23.3867 207.957 23.6373 207.957 23.872L207.637 23.68V22.288C207.637 22.1067 207.696 21.9573 207.813 21.84C207.941 21.712 208.096 21.648 208.277 21.648C208.469 21.648 208.624 21.712 208.741 21.84C208.858 21.9573 208.917 22.1067 208.917 22.288V29.296C208.917 30.1707 208.73 30.896 208.357 31.472C207.994 32.048 207.504 32.48 206.885 32.768C206.266 33.056 205.578 33.2 204.821 33.2C204.501 33.2 204.144 33.1573 203.749 33.072C203.365 32.9867 203.024 32.88 202.725 32.752C202.426 32.6347 202.24 32.512 202.165 32.384C202.005 32.2773 201.904 32.1547 201.861 32.016C201.829 31.888 201.85 31.7653 201.925 31.648C202.032 31.4987 202.16 31.424 202.309 31.424C202.458 31.424 202.65 31.472 202.885 31.568C202.992 31.6 203.146 31.6533 203.349 31.728C203.552 31.8027 203.786 31.8667 204.053 31.92C204.32 31.984 204.581 32.016 204.837 32.016C205.744 32.016 206.437 31.776 206.917 31.296C207.397 30.8267 207.637 30.2027 207.637 29.424V27.936L207.813 28.016C207.749 28.3147 207.621 28.592 207.429 28.848C207.237 29.104 206.997 29.3333 206.709 29.536C206.432 29.728 206.117 29.8827 205.765 30C205.424 30.1067 205.077 30.16 204.725 30.16C203.978 30.16 203.306 29.9733 202.709 29.6C202.122 29.2267 201.653 28.7147 201.301 28.064C200.96 27.4133 200.789 26.672 200.789 25.84C200.789 24.9973 200.96 24.2507 201.301 23.6C201.653 22.9493 202.122 22.4427 202.709 22.08C203.296 21.7067 203.957 21.52 204.693 21.52ZM204.869 22.704C204.314 22.704 203.824 22.8427 203.397 23.12C202.97 23.3867 202.634 23.7547 202.389 24.224C202.144 24.6933 202.021 25.232 202.021 25.84C202.021 26.4267 202.144 26.96 202.389 27.44C202.634 27.9093 202.97 28.2827 203.397 28.56C203.824 28.8373 204.314 28.976 204.869 28.976C205.424 28.976 205.914 28.8427 206.341 28.576C206.768 28.2987 207.104 27.9253 207.349 27.456C207.594 26.9867 207.717 26.448 207.717 25.84C207.717 25.2213 207.594 24.6773 207.349 24.208C207.104 23.7387 206.768 23.3707 206.341 23.104C205.914 22.8373 205.424 22.704 204.869 22.704ZM216.924 29.344C216.924 29.5253 216.86 29.68 216.732 29.808C216.614 29.936 216.465 30 216.284 30C216.092 30 215.937 29.936 215.82 29.808C215.702 29.68 215.644 29.5253 215.644 29.344V22.24C215.644 22.0587 215.702 21.9093 215.82 21.792C215.948 21.664 216.102 21.6 216.284 21.6C216.465 21.6 216.614 21.664 216.732 21.792C216.86 21.9093 216.924 22.0587 216.924 22.24V29.344ZM216.284 20.528C216.017 20.528 215.82 20.4747 215.692 20.368C215.564 20.2613 215.5 20.096 215.5 19.872V19.648C215.5 19.424 215.569 19.2587 215.708 19.152C215.846 19.0453 216.044 18.992 216.3 18.992C216.556 18.992 216.748 19.0453 216.876 19.152C217.004 19.2587 217.068 19.424 217.068 19.648V19.872C217.068 20.096 216.998 20.2613 216.86 20.368C216.732 20.4747 216.54 20.528 216.284 20.528ZM223.335 21.52C224.06 21.52 224.631 21.6693 225.047 21.968C225.463 22.2667 225.756 22.6667 225.927 23.168C226.108 23.6693 226.199 24.2293 226.199 24.848V29.344C226.199 29.5253 226.135 29.68 226.007 29.808C225.89 29.936 225.74 30 225.559 30C225.378 30 225.223 29.936 225.095 29.808C224.978 29.68 224.919 29.5253 224.919 29.344V24.88C224.919 24.4747 224.855 24.112 224.727 23.792C224.61 23.4613 224.407 23.2 224.119 23.008C223.842 22.8053 223.458 22.704 222.967 22.704C222.519 22.704 222.108 22.8053 221.735 23.008C221.362 23.2 221.063 23.4613 220.839 23.792C220.615 24.112 220.503 24.4747 220.503 24.88V29.344C220.503 29.5253 220.439 29.68 220.311 29.808C220.194 29.936 220.044 30 219.863 30C219.682 30 219.527 29.936 219.399 29.808C219.282 29.68 219.223 29.5253 219.223 29.344V22.368C219.223 22.1867 219.282 22.0373 219.399 21.92C219.527 21.792 219.682 21.728 219.863 21.728C220.055 21.728 220.21 21.792 220.327 21.92C220.444 22.0373 220.503 22.1867 220.503 22.368V23.504L220.183 23.856C220.236 23.5787 220.359 23.3013 220.551 23.024C220.743 22.736 220.983 22.48 221.271 22.256C221.559 22.032 221.879 21.856 222.231 21.728C222.583 21.5893 222.951 21.52 223.335 21.52Z" fill="#22292B"/>
<defs>
<filter id="filter0_b" x="-10" y="-10" width="305" height="68" filterUnits="userSpaceOnUse" color-interpolation-filters="sRGB">
<feFlood flood-opacity="0" result="BackgroundImageFix"/>
<feGaussianBlur in="BackgroundImage" stdDeviation="5"/>
<feComposite in2="SourceAlpha" operator="in" result="effect1_backgroundBlur"/>
<feBlend mode="normal" in="SourceGraphic" in2="effect1_backgroundBlur" result="shape"/>
</filter>
<linearGradient id="paint0_linear" x1="-2.44422e-06" y1="6.88275" x2="0.569396" y2="39.9559" gradientUnits="userSpaceOnUse">
<stop stop-color="white" stop-opacity="0.7"/>
<stop offset="1" stop-color="white" stop-opacity="0.5"/>
</linearGradient>
<linearGradient id="paint1_linear" x1="285" y1="9.49963" x2="284.457" y2="47.4805" gradientUnits="userSpaceOnUse">
<stop stop-color="white" stop-opacity="0.5"/>
<stop offset="1" stop-color="#053DB4" stop-opacity="0.12"/>
</linearGradient>
</defs>
</svg>
