<svg width="375" height="92" viewBox="0 0 375 92" fill="none" xmlns="http://www.w3.org/2000/svg">
<g opacity="0.9">
<g filter="url(#filter0_b)">
<path d="M0 10L22.9341 7.91509C132.087 -2.00795 241.915 -2.03429 351.073 7.83639L375 10V92H0V10Z" fill="#FAFAFA" fill-opacity="0.9"/>
</g>
<path d="M330.008 69.82C330.512 69.82 330.92 69.928 331.232 70.144C331.544 70.36 331.772 70.652 331.916 71.02C332.068 71.388 332.144 71.796 332.144 72.244V75.64C332.144 75.736 332.108 75.82 332.036 75.892C331.964 75.964 331.88 76 331.784 76C331.672 76 331.584 75.964 331.52 75.892C331.456 75.82 331.424 75.736 331.424 75.64V72.244C331.424 71.916 331.372 71.62 331.268 71.356C331.172 71.092 331.012 70.884 330.788 70.732C330.564 70.572 330.264 70.492 329.888 70.492C329.552 70.492 329.232 70.572 328.928 70.732C328.632 70.884 328.392 71.092 328.208 71.356C328.024 71.62 327.932 71.916 327.932 72.244V75.64C327.932 75.736 327.896 75.82 327.824 75.892C327.752 75.964 327.668 76 327.572 76C327.46 76 327.372 75.964 327.308 75.892C327.244 75.82 327.212 75.736 327.212 75.64V67.48C327.212 67.384 327.244 67.3 327.308 67.228C327.38 67.156 327.468 67.12 327.572 67.12C327.676 67.12 327.76 67.156 327.824 67.228C327.896 67.3 327.932 67.384 327.932 67.48V71.368L327.656 71.788C327.672 71.54 327.748 71.3 327.884 71.068C328.028 70.828 328.212 70.616 328.436 70.432C328.66 70.24 328.908 70.092 329.18 69.988C329.452 69.876 329.728 69.82 330.008 69.82ZM336.756 76.12C336.14 76.12 335.596 75.988 335.124 75.724C334.652 75.46 334.284 75.092 334.02 74.62C333.756 74.148 333.624 73.596 333.624 72.964C333.624 72.284 333.756 71.704 334.02 71.224C334.292 70.744 334.64 70.376 335.064 70.12C335.496 69.856 335.952 69.724 336.432 69.724C336.784 69.724 337.124 69.788 337.452 69.916C337.788 70.036 338.084 70.22 338.34 70.468C338.596 70.708 338.804 71.004 338.964 71.356C339.124 71.708 339.208 72.116 339.216 72.58C339.216 72.676 339.18 72.76 339.108 72.832C339.036 72.896 338.952 72.928 338.856 72.928H334.044L333.9 72.28H338.628L338.472 72.424V72.184C338.432 71.808 338.308 71.488 338.1 71.224C337.892 70.96 337.64 70.76 337.344 70.624C337.056 70.488 336.752 70.42 336.432 70.42C336.192 70.42 335.944 70.468 335.688 70.564C335.44 70.66 335.212 70.812 335.004 71.02C334.804 71.22 334.64 71.48 334.512 71.8C334.384 72.112 334.32 72.484 334.32 72.916C334.32 73.388 334.416 73.816 334.608 74.2C334.8 74.584 335.076 74.888 335.436 75.112C335.796 75.336 336.232 75.448 336.744 75.448C337.016 75.448 337.264 75.408 337.488 75.328C337.712 75.248 337.908 75.144 338.076 75.016C338.252 74.88 338.396 74.74 338.508 74.596C338.596 74.524 338.68 74.488 338.76 74.488C338.848 74.488 338.92 74.52 338.976 74.584C339.04 74.648 339.072 74.72 339.072 74.8C339.072 74.896 339.032 74.98 338.952 75.052C338.712 75.34 338.4 75.592 338.016 75.808C337.632 76.016 337.212 76.12 336.756 76.12ZM341.492 75.64C341.492 75.736 341.456 75.82 341.384 75.892C341.312 75.964 341.228 76 341.132 76C341.028 76 340.94 75.964 340.868 75.892C340.804 75.82 340.772 75.736 340.772 75.64V67.48C340.772 67.384 340.808 67.3 340.88 67.228C340.952 67.156 341.036 67.12 341.132 67.12C341.236 67.12 341.32 67.156 341.384 67.228C341.456 67.3 341.492 67.384 341.492 67.48V75.64ZM346.382 69.82C346.926 69.82 347.406 69.956 347.822 70.228C348.246 70.492 348.582 70.86 348.83 71.332C349.078 71.796 349.202 72.332 349.202 72.94C349.202 73.548 349.078 74.088 348.83 74.56C348.582 75.032 348.246 75.404 347.822 75.676C347.398 75.948 346.922 76.084 346.394 76.084C346.114 76.084 345.846 76.044 345.59 75.964C345.342 75.876 345.114 75.76 344.906 75.616C344.698 75.472 344.514 75.304 344.354 75.112C344.194 74.912 344.066 74.696 343.97 74.464L344.186 74.308V78.04C344.186 78.136 344.15 78.22 344.078 78.292C344.014 78.364 343.93 78.4 343.826 78.4C343.722 78.4 343.634 78.364 343.562 78.292C343.498 78.22 343.466 78.136 343.466 78.04V70.216C343.466 70.112 343.498 70.024 343.562 69.952C343.626 69.88 343.714 69.844 343.826 69.844C343.93 69.844 344.014 69.88 344.078 69.952C344.15 70.024 344.186 70.112 344.186 70.216V71.512L344.018 71.416C344.098 71.168 344.214 70.948 344.366 70.756C344.526 70.556 344.71 70.388 344.918 70.252C345.126 70.108 345.354 70 345.602 69.928C345.85 69.856 346.11 69.82 346.382 69.82ZM346.322 70.492C345.89 70.492 345.51 70.6 345.182 70.816C344.854 71.024 344.594 71.312 344.402 71.68C344.218 72.04 344.126 72.46 344.126 72.94C344.126 73.412 344.218 73.836 344.402 74.212C344.594 74.588 344.854 74.884 345.182 75.1C345.51 75.308 345.89 75.412 346.322 75.412C346.746 75.412 347.118 75.308 347.438 75.1C347.766 74.884 348.026 74.588 348.218 74.212C348.41 73.836 348.506 73.412 348.506 72.94C348.506 72.468 348.41 72.048 348.218 71.68C348.026 71.312 347.766 71.024 347.438 70.816C347.118 70.6 346.746 70.492 346.322 70.492Z" fill="#22292B"/>
<path d="M336 55H340V51H336V55ZM338 23C326.96 23 318 31.96 318 43C318 54.04 326.96 63 338 63C349.04 63 358 54.04 358 43C358 31.96 349.04 23 338 23ZM338 59C329.18 59 322 51.82 322 43C322 34.18 329.18 27 338 27C346.82 27 354 34.18 354 43C354 51.82 346.82 59 338 59ZM338 31C333.58 31 330 34.58 330 39H334C334 36.8 335.8 35 338 35C340.2 35 342 36.8 342 39C342 43 336 42.5 336 49H340C340 44.5 346 44 346 39C346 34.58 342.42 31 338 31Z" fill="#22292B"/>
<g filter="url(#filter1_d)">
<circle cx="186.5" cy="47.5" r="37.5" fill="url(#paint0_linear)"/>
</g>
<g clip-path="url(#clip0)">
<path d="M174.909 68.38C175.461 68.38 175.889 68.5 176.193 68.74C176.497 68.972 176.709 69.288 176.829 69.688C176.957 70.088 177.021 70.528 177.021 71.008V74.188C177.021 74.364 176.961 74.512 176.841 74.632C176.729 74.744 176.589 74.8 176.421 74.8C176.245 74.8 176.101 74.744 175.989 74.632C175.877 74.512 175.821 74.364 175.821 74.188V71.008C175.821 70.728 175.781 70.472 175.701 70.24C175.629 70.008 175.497 69.824 175.305 69.688C175.121 69.552 174.861 69.484 174.525 69.484C174.213 69.484 173.933 69.552 173.685 69.688C173.445 69.824 173.257 70.008 173.121 70.24C172.993 70.472 172.929 70.728 172.929 71.008V74.188C172.929 74.364 172.869 74.512 172.749 74.632C172.637 74.744 172.497 74.8 172.329 74.8C172.153 74.8 172.009 74.744 171.897 74.632C171.785 74.512 171.729 74.364 171.729 74.188V66.532C171.729 66.356 171.785 66.212 171.897 66.1C172.009 65.98 172.153 65.92 172.329 65.92C172.497 65.92 172.637 65.98 172.749 66.1C172.869 66.212 172.929 66.356 172.929 66.532V69.808L172.713 69.928C172.769 69.752 172.861 69.572 172.989 69.388C173.125 69.204 173.289 69.036 173.481 68.884C173.681 68.732 173.901 68.612 174.141 68.524C174.381 68.428 174.637 68.38 174.909 68.38ZM184.689 71.644C184.689 72.284 184.545 72.852 184.257 73.348C183.977 73.836 183.597 74.22 183.117 74.5C182.637 74.78 182.097 74.92 181.497 74.92C180.905 74.92 180.365 74.78 179.877 74.5C179.397 74.22 179.013 73.836 178.725 73.348C178.445 72.852 178.305 72.284 178.305 71.644C178.305 70.996 178.445 70.428 178.725 69.94C179.013 69.444 179.397 69.056 179.877 68.776C180.365 68.488 180.905 68.344 181.497 68.344C182.097 68.344 182.637 68.488 183.117 68.776C183.597 69.056 183.977 69.444 184.257 69.94C184.545 70.428 184.689 70.996 184.689 71.644ZM183.489 71.644C183.489 71.204 183.401 70.824 183.225 70.504C183.049 70.176 182.809 69.92 182.505 69.736C182.209 69.544 181.873 69.448 181.497 69.448C181.129 69.448 180.793 69.544 180.489 69.736C180.193 69.92 179.953 70.176 179.769 70.504C179.593 70.824 179.505 71.204 179.505 71.644C179.505 72.068 179.593 72.444 179.769 72.772C179.953 73.1 180.193 73.356 180.489 73.54C180.793 73.724 181.129 73.816 181.497 73.816C181.873 73.816 182.209 73.724 182.505 73.54C182.809 73.356 183.049 73.1 183.225 72.772C183.401 72.444 183.489 72.068 183.489 71.644ZM189.158 68.38C189.75 68.38 190.206 68.528 190.526 68.824C190.846 69.112 191.058 69.504 191.162 70L190.97 69.94L191.054 69.748C191.158 69.54 191.314 69.332 191.522 69.124C191.738 68.908 191.994 68.732 192.29 68.596C192.586 68.452 192.902 68.38 193.238 68.38C193.79 68.38 194.218 68.5 194.522 68.74C194.826 68.972 195.038 69.288 195.158 69.688C195.278 70.08 195.338 70.52 195.338 71.008V74.188C195.338 74.364 195.282 74.512 195.17 74.632C195.058 74.744 194.914 74.8 194.738 74.8C194.57 74.8 194.426 74.744 194.306 74.632C194.194 74.512 194.138 74.364 194.138 74.188V71.02C194.138 70.74 194.098 70.484 194.018 70.252C193.946 70.02 193.814 69.836 193.622 69.7C193.438 69.556 193.182 69.484 192.854 69.484C192.542 69.484 192.262 69.556 192.014 69.7C191.774 69.836 191.586 70.02 191.45 70.252C191.314 70.484 191.246 70.74 191.246 71.02V74.188C191.246 74.364 191.19 74.512 191.078 74.632C190.966 74.744 190.822 74.8 190.646 74.8C190.47 74.8 190.326 74.744 190.214 74.632C190.102 74.512 190.046 74.364 190.046 74.188V71.008C190.046 70.728 190.006 70.472 189.926 70.24C189.854 70.008 189.726 69.824 189.542 69.688C189.358 69.552 189.102 69.484 188.774 69.484C188.462 69.484 188.186 69.552 187.946 69.688C187.706 69.824 187.518 70.008 187.382 70.24C187.254 70.472 187.19 70.728 187.19 71.008V74.188C187.19 74.364 187.13 74.512 187.01 74.632C186.898 74.744 186.758 74.8 186.59 74.8C186.414 74.8 186.27 74.744 186.158 74.632C186.046 74.512 185.99 74.364 185.99 74.188V69.1C185.99 68.924 186.046 68.78 186.158 68.668C186.27 68.548 186.414 68.488 186.59 68.488C186.758 68.488 186.898 68.548 187.01 68.668C187.13 68.78 187.19 68.924 187.19 69.1V69.808L186.962 69.94C187.018 69.764 187.11 69.584 187.238 69.4C187.366 69.216 187.526 69.048 187.718 68.896C187.918 68.744 188.138 68.62 188.378 68.524C188.618 68.428 188.878 68.38 189.158 68.38ZM199.898 74.92C199.242 74.92 198.666 74.784 198.17 74.512C197.682 74.232 197.302 73.852 197.03 73.372C196.766 72.884 196.634 72.328 196.634 71.704C196.634 71 196.774 70.4 197.054 69.904C197.342 69.4 197.714 69.016 198.17 68.752C198.634 68.48 199.122 68.344 199.634 68.344C200.018 68.344 200.386 68.424 200.738 68.584C201.098 68.736 201.414 68.952 201.686 69.232C201.958 69.504 202.174 69.828 202.334 70.204C202.494 70.572 202.578 70.976 202.586 71.416C202.578 71.576 202.514 71.708 202.394 71.812C202.274 71.916 202.134 71.968 201.974 71.968H197.318L197.03 70.948H201.542L201.314 71.164V70.864C201.29 70.584 201.194 70.34 201.026 70.132C200.858 69.916 200.65 69.752 200.402 69.64C200.162 69.52 199.906 69.46 199.634 69.46C199.394 69.46 199.162 69.5 198.938 69.58C198.714 69.652 198.518 69.772 198.35 69.94C198.182 70.108 198.046 70.332 197.942 70.612C197.838 70.884 197.786 71.224 197.786 71.632C197.786 72.072 197.878 72.456 198.062 72.784C198.246 73.112 198.494 73.368 198.806 73.552C199.118 73.728 199.466 73.816 199.85 73.816C200.138 73.816 200.378 73.788 200.57 73.732C200.762 73.668 200.922 73.592 201.05 73.504C201.178 73.416 201.29 73.332 201.386 73.252C201.514 73.18 201.634 73.144 201.746 73.144C201.89 73.144 202.01 73.196 202.106 73.3C202.202 73.396 202.25 73.512 202.25 73.648C202.25 73.824 202.162 73.984 201.986 74.128C201.77 74.336 201.47 74.52 201.086 74.68C200.71 74.84 200.314 74.92 199.898 74.92Z" fill="#FAFAFA"/>
<path d="M207.627 39.196C207.627 39.1913 207.622 39.1913 207.622 39.1866L207.537 39.0877C207.533 39.083 207.528 39.0736 207.519 39.0689C207.486 39.0312 207.448 38.9936 207.415 38.9559L189.228 20.7832L188.009 19.5641C187.731 19.2882 187.356 19.1334 186.964 19.1334C186.573 19.1334 186.197 19.2882 185.919 19.5641L166.513 38.9606C166.163 39.3094 165.904 39.7395 165.76 40.2126L165.732 40.3115L165.718 40.3633L165.704 40.4197C165.695 40.4527 165.69 40.4856 165.685 40.5186C165.685 40.5233 165.685 40.5327 165.68 40.5374C165.652 40.6786 165.638 40.8198 165.633 40.9657V41.121C165.633 41.1446 165.633 41.1681 165.638 41.1916C165.638 41.2152 165.638 41.234 165.643 41.2575C165.643 41.2811 165.647 41.3046 165.647 41.3281C165.647 41.3564 165.652 41.3846 165.657 41.4129C165.657 41.427 165.662 41.4411 165.662 41.4552L165.676 41.5729V41.5776C165.916 43.0132 167.191 44.0957 168.688 44.0957H170.688V59.435H203.245V44.1051H205.288C205.692 44.1051 206.083 44.0251 206.441 43.8745C206.799 43.7239 207.133 43.5027 207.42 43.2202C207.7 42.9407 207.922 42.6083 208.074 42.2424C208.225 41.8764 208.302 41.484 208.3 41.0881C208.3 40.3962 208.065 39.7325 207.627 39.196V39.196ZM189.6 56.0461H184.329V46.4444H189.6V56.0461ZM199.856 40.7163V56.0461H192.612V45.3148C192.612 44.2746 191.77 43.4321 190.73 43.4321H183.199C182.159 43.4321 181.316 44.2746 181.316 45.3148V56.0461H174.073V40.7163H169.554L186.969 23.3154L188.056 24.4027L204.379 40.7163H199.856Z" fill="#FAFAFA"/>
</g>
<path d="M247.168 69.868C247.272 69.868 247.356 69.904 247.42 69.976C247.492 70.048 247.528 70.136 247.528 70.24V75.64C247.528 75.736 247.492 75.82 247.42 75.892C247.348 75.964 247.264 76 247.168 76C247.056 76 246.968 75.964 246.904 75.892C246.84 75.82 246.808 75.736 246.808 75.64V74.212L247.012 74.116C247.012 74.34 246.948 74.568 246.82 74.8C246.7 75.032 246.532 75.248 246.316 75.448C246.1 75.648 245.844 75.812 245.548 75.94C245.26 76.06 244.944 76.12 244.6 76.12C244.064 76.12 243.58 75.98 243.148 75.7C242.724 75.42 242.388 75.036 242.14 74.548C241.9 74.06 241.78 73.512 241.78 72.904C241.78 72.28 241.904 71.732 242.152 71.26C242.4 70.78 242.736 70.404 243.16 70.132C243.584 69.86 244.06 69.724 244.588 69.724C244.932 69.724 245.252 69.784 245.548 69.904C245.852 70.024 246.116 70.188 246.34 70.396C246.564 70.604 246.74 70.844 246.868 71.116C246.996 71.38 247.06 71.656 247.06 71.944L246.808 71.764V70.24C246.808 70.136 246.84 70.048 246.904 69.976C246.968 69.904 247.056 69.868 247.168 69.868ZM244.672 75.448C245.096 75.448 245.472 75.34 245.8 75.124C246.128 74.9 246.384 74.596 246.568 74.212C246.76 73.82 246.856 73.384 246.856 72.904C246.856 72.432 246.76 72.008 246.568 71.632C246.384 71.256 246.128 70.956 245.8 70.732C245.472 70.508 245.096 70.396 244.672 70.396C244.256 70.396 243.88 70.504 243.544 70.72C243.216 70.936 242.956 71.232 242.764 71.608C242.58 71.984 242.488 72.416 242.488 72.904C242.488 73.384 242.58 73.82 242.764 74.212C242.948 74.596 243.204 74.9 243.532 75.124C243.868 75.34 244.248 75.448 244.672 75.448ZM252.059 69.724C252.443 69.724 252.795 69.768 253.115 69.856C253.435 69.936 253.691 70.048 253.883 70.192C254.083 70.336 254.183 70.492 254.183 70.66C254.183 70.74 254.151 70.82 254.087 70.9C254.031 70.972 253.959 71.008 253.871 71.008C253.767 71.008 253.683 70.984 253.619 70.936C253.563 70.888 253.507 70.832 253.451 70.768C253.395 70.704 253.311 70.644 253.199 70.588C253.095 70.54 252.943 70.496 252.743 70.456C252.551 70.416 252.335 70.396 252.095 70.396C251.647 70.396 251.243 70.508 250.883 70.732C250.523 70.956 250.239 71.26 250.031 71.644C249.823 72.02 249.719 72.444 249.719 72.916C249.719 73.396 249.815 73.828 250.007 74.212C250.207 74.596 250.483 74.9 250.835 75.124C251.195 75.34 251.607 75.448 252.071 75.448C252.391 75.448 252.639 75.42 252.815 75.364C252.999 75.308 253.151 75.244 253.271 75.172C253.431 75.084 253.543 75 253.607 74.92C253.679 74.832 253.771 74.788 253.883 74.788C253.979 74.788 254.055 74.82 254.111 74.884C254.167 74.94 254.195 75.016 254.195 75.112C254.195 75.24 254.099 75.384 253.907 75.544C253.723 75.696 253.467 75.832 253.139 75.952C252.811 76.064 252.431 76.12 251.999 76.12C251.407 76.12 250.883 75.98 250.427 75.7C249.979 75.42 249.627 75.04 249.371 74.56C249.123 74.072 248.999 73.524 248.999 72.916C248.999 72.332 249.127 71.8 249.383 71.32C249.639 70.84 249.995 70.456 250.451 70.168C250.907 69.872 251.443 69.724 252.059 69.724ZM258.223 69.724C258.607 69.724 258.959 69.768 259.279 69.856C259.599 69.936 259.855 70.048 260.047 70.192C260.247 70.336 260.347 70.492 260.347 70.66C260.347 70.74 260.315 70.82 260.251 70.9C260.195 70.972 260.123 71.008 260.035 71.008C259.931 71.008 259.847 70.984 259.783 70.936C259.727 70.888 259.671 70.832 259.615 70.768C259.559 70.704 259.475 70.644 259.363 70.588C259.259 70.54 259.107 70.496 258.907 70.456C258.715 70.416 258.499 70.396 258.259 70.396C257.811 70.396 257.407 70.508 257.047 70.732C256.687 70.956 256.403 71.26 256.195 71.644C255.987 72.02 255.883 72.444 255.883 72.916C255.883 73.396 255.979 73.828 256.171 74.212C256.371 74.596 256.647 74.9 256.999 75.124C257.359 75.34 257.771 75.448 258.235 75.448C258.555 75.448 258.803 75.42 258.979 75.364C259.163 75.308 259.315 75.244 259.435 75.172C259.595 75.084 259.707 75 259.771 74.92C259.843 74.832 259.935 74.788 260.047 74.788C260.143 74.788 260.219 74.82 260.275 74.884C260.331 74.94 260.359 75.016 260.359 75.112C260.359 75.24 260.263 75.384 260.071 75.544C259.887 75.696 259.631 75.832 259.303 75.952C258.975 76.064 258.595 76.12 258.163 76.12C257.571 76.12 257.047 75.98 256.591 75.7C256.143 75.42 255.791 75.04 255.535 74.56C255.287 74.072 255.163 73.524 255.163 72.916C255.163 72.332 255.291 71.8 255.547 71.32C255.803 70.84 256.159 70.456 256.615 70.168C257.071 69.872 257.607 69.724 258.223 69.724ZM267.399 72.928C267.399 73.536 267.263 74.084 266.991 74.572C266.727 75.052 266.367 75.432 265.911 75.712C265.455 75.984 264.939 76.12 264.363 76.12C263.795 76.12 263.279 75.984 262.815 75.712C262.359 75.432 261.995 75.052 261.723 74.572C261.459 74.084 261.327 73.536 261.327 72.928C261.327 72.312 261.459 71.764 261.723 71.284C261.995 70.804 262.359 70.424 262.815 70.144C263.279 69.864 263.795 69.724 264.363 69.724C264.939 69.724 265.455 69.864 265.911 70.144C266.367 70.424 266.727 70.804 266.991 71.284C267.263 71.764 267.399 72.312 267.399 72.928ZM266.679 72.928C266.679 72.44 266.579 72.008 266.379 71.632C266.179 71.248 265.903 70.948 265.551 70.732C265.207 70.508 264.811 70.396 264.363 70.396C263.923 70.396 263.527 70.508 263.175 70.732C262.831 70.948 262.555 71.248 262.347 71.632C262.147 72.008 262.047 72.44 262.047 72.928C262.047 73.416 262.147 73.848 262.347 74.224C262.555 74.6 262.831 74.9 263.175 75.124C263.527 75.34 263.923 75.448 264.363 75.448C264.811 75.448 265.207 75.34 265.551 75.124C265.903 74.9 266.179 74.6 266.379 74.224C266.579 73.848 266.679 73.416 266.679 72.928ZM273.456 69.904C273.56 69.904 273.644 69.94 273.708 70.012C273.78 70.084 273.816 70.168 273.816 70.264V73.648C273.816 74.44 273.592 75.044 273.144 75.46C272.696 75.876 272.092 76.084 271.332 76.084C270.58 76.084 269.98 75.876 269.532 75.46C269.092 75.044 268.872 74.44 268.872 73.648V70.264C268.872 70.168 268.904 70.084 268.968 70.012C269.04 69.94 269.128 69.904 269.232 69.904C269.336 69.904 269.42 69.94 269.484 70.012C269.556 70.084 269.592 70.168 269.592 70.264V73.648C269.592 74.224 269.744 74.664 270.048 74.968C270.36 75.264 270.788 75.412 271.332 75.412C271.884 75.412 272.316 75.264 272.628 74.968C272.94 74.664 273.096 74.224 273.096 73.648V70.264C273.096 70.168 273.128 70.084 273.192 70.012C273.256 69.94 273.344 69.904 273.456 69.904ZM278.596 69.724C279.124 69.724 279.544 69.832 279.856 70.048C280.176 70.256 280.404 70.544 280.54 70.912C280.684 71.272 280.756 71.672 280.756 72.112V75.64C280.756 75.736 280.72 75.82 280.648 75.892C280.576 75.964 280.492 76 280.396 76C280.284 76 280.196 75.964 280.132 75.892C280.068 75.82 280.036 75.736 280.036 75.64V72.148C280.036 71.828 279.984 71.536 279.88 71.272C279.776 71.008 279.604 70.796 279.364 70.636C279.132 70.476 278.824 70.396 278.44 70.396C278.096 70.396 277.768 70.476 277.456 70.636C277.152 70.796 276.904 71.008 276.712 71.272C276.52 71.536 276.424 71.828 276.424 72.148V75.64C276.424 75.736 276.388 75.82 276.316 75.892C276.244 75.964 276.16 76 276.064 76C275.952 76 275.864 75.964 275.8 75.892C275.736 75.82 275.704 75.736 275.704 75.64V70.264C275.704 70.168 275.736 70.084 275.8 70.012C275.872 69.94 275.96 69.904 276.064 69.904C276.168 69.904 276.252 69.94 276.316 70.012C276.388 70.084 276.424 70.168 276.424 70.264V71.272L276.148 71.704C276.164 71.448 276.244 71.204 276.388 70.972C276.54 70.732 276.732 70.52 276.964 70.336C277.196 70.144 277.452 69.996 277.732 69.892C278.02 69.78 278.308 69.724 278.596 69.724ZM282.245 69.892H285.041C285.137 69.892 285.217 69.928 285.281 70C285.345 70.064 285.377 70.144 285.377 70.24C285.377 70.328 285.345 70.404 285.281 70.468C285.217 70.532 285.137 70.564 285.041 70.564H282.245C282.149 70.564 282.065 70.532 281.993 70.468C281.929 70.396 281.897 70.316 281.897 70.228C281.897 70.132 281.929 70.052 281.993 69.988C282.065 69.924 282.149 69.892 282.245 69.892ZM283.481 68.2C283.585 68.2 283.669 68.236 283.733 68.308C283.805 68.38 283.841 68.464 283.841 68.56V74.584C283.841 74.808 283.869 74.976 283.925 75.088C283.989 75.2 284.069 75.276 284.165 75.316C284.261 75.348 284.357 75.364 284.453 75.364C284.517 75.364 284.573 75.356 284.621 75.34C284.677 75.316 284.737 75.304 284.801 75.304C284.873 75.304 284.933 75.332 284.981 75.388C285.037 75.444 285.065 75.516 285.065 75.604C285.065 75.716 285.001 75.812 284.873 75.892C284.745 75.964 284.593 76 284.417 76C284.345 76 284.237 75.996 284.093 75.988C283.949 75.972 283.801 75.928 283.649 75.856C283.497 75.776 283.369 75.64 283.265 75.448C283.169 75.256 283.121 74.98 283.121 74.62V68.56C283.121 68.464 283.153 68.38 283.217 68.308C283.289 68.236 283.377 68.2 283.481 68.2Z" fill="#22292B"/>
<path d="M263 23C251.96 23 243 31.8028 243 42.6491C243 53.4954 251.96 62.2982 263 62.2982C274.04 62.2982 283 53.4954 283 42.6491C283 31.8028 274.04 23 263 23ZM253.14 54.9888C254 53.2204 259.24 51.4912 263 51.4912C266.76 51.4912 272.02 53.2204 272.86 54.9888C270.14 57.1109 266.72 58.3684 263 58.3684C259.28 58.3684 255.86 57.1109 253.14 54.9888ZM275.72 52.1396C272.86 48.7207 265.92 47.5614 263 47.5614C260.08 47.5614 253.14 48.7207 250.28 52.1396C248.155 49.416 247.003 46.0807 247 42.6491C247 33.9839 254.18 26.9298 263 26.9298C271.82 26.9298 279 33.9839 279 42.6491C279 46.2253 277.76 49.5067 275.72 52.1396V52.1396ZM263 30.8596C259.12 30.8596 256 33.9249 256 37.7368C256 41.5488 259.12 44.614 263 44.614C266.88 44.614 270 41.5488 270 37.7368C270 33.9249 266.88 30.8596 263 30.8596ZM263 40.6842C261.34 40.6842 260 39.3677 260 37.7368C260 36.106 261.34 34.7895 263 34.7895C264.66 34.7895 266 36.106 266 37.7368C266 39.3677 264.66 40.6842 263 40.6842Z" fill="#22292B"/>
<path d="M92.5567 68.168C92.6767 68.168 92.8047 68.18 92.9407 68.204C93.0847 68.228 93.2087 68.272 93.3127 68.336C93.4167 68.392 93.4687 68.48 93.4687 68.6C93.4687 68.688 93.4367 68.768 93.3727 68.84C93.3087 68.904 93.2367 68.936 93.1567 68.936C93.0767 68.936 92.9767 68.916 92.8567 68.876C92.7367 68.828 92.6087 68.804 92.4727 68.804C92.3047 68.804 92.1607 68.844 92.0407 68.924C91.9207 68.996 91.8287 69.104 91.7647 69.248C91.7007 69.384 91.6687 69.552 91.6687 69.752V76.64C91.6687 76.736 91.6327 76.82 91.5607 76.892C91.4967 76.964 91.4127 77 91.3087 77C91.2047 77 91.1167 76.964 91.0447 76.892C90.9807 76.82 90.9487 76.736 90.9487 76.64V69.752C90.9487 69.24 91.0967 68.848 91.3927 68.576C91.6967 68.304 92.0847 68.168 92.5567 68.168ZM93.0127 70.988C93.1087 70.988 93.1887 71.02 93.2527 71.084C93.3167 71.148 93.3487 71.228 93.3487 71.324C93.3487 71.42 93.3167 71.5 93.2527 71.564C93.1887 71.628 93.1087 71.66 93.0127 71.66H90.0727C89.9847 71.66 89.9047 71.628 89.8327 71.564C89.7687 71.492 89.7367 71.412 89.7367 71.324C89.7367 71.22 89.7687 71.14 89.8327 71.084C89.9047 71.02 89.9847 70.988 90.0727 70.988H93.0127ZM99.5471 70.868C99.6511 70.868 99.7351 70.904 99.7991 70.976C99.8711 71.048 99.9071 71.136 99.9071 71.24V76.64C99.9071 76.736 99.8711 76.82 99.7991 76.892C99.7271 76.964 99.6431 77 99.5471 77C99.4351 77 99.3471 76.964 99.2831 76.892C99.2191 76.82 99.1871 76.736 99.1871 76.64V75.212L99.3911 75.116C99.3911 75.34 99.3271 75.568 99.1991 75.8C99.0791 76.032 98.9111 76.248 98.6951 76.448C98.4791 76.648 98.2231 76.812 97.9271 76.94C97.6391 77.06 97.3231 77.12 96.9791 77.12C96.4431 77.12 95.9591 76.98 95.5271 76.7C95.1031 76.42 94.7671 76.036 94.5191 75.548C94.2791 75.06 94.1591 74.512 94.1591 73.904C94.1591 73.28 94.2831 72.732 94.5311 72.26C94.7791 71.78 95.1151 71.404 95.5391 71.132C95.9631 70.86 96.4391 70.724 96.9671 70.724C97.3111 70.724 97.6311 70.784 97.9271 70.904C98.2311 71.024 98.4951 71.188 98.7191 71.396C98.9431 71.604 99.1191 71.844 99.2471 72.116C99.3751 72.38 99.4391 72.656 99.4391 72.944L99.1871 72.764V71.24C99.1871 71.136 99.2191 71.048 99.2831 70.976C99.3471 70.904 99.4351 70.868 99.5471 70.868ZM97.0511 76.448C97.4751 76.448 97.8511 76.34 98.1791 76.124C98.5071 75.9 98.7631 75.596 98.9471 75.212C99.1391 74.82 99.2351 74.384 99.2351 73.904C99.2351 73.432 99.1391 73.008 98.9471 72.632C98.7631 72.256 98.5071 71.956 98.1791 71.732C97.8511 71.508 97.4751 71.396 97.0511 71.396C96.6351 71.396 96.2591 71.504 95.9231 71.72C95.5951 71.936 95.3351 72.232 95.1431 72.608C94.9591 72.984 94.8671 73.416 94.8671 73.904C94.8671 74.384 94.9591 74.82 95.1431 75.212C95.3271 75.596 95.5831 75.9 95.9111 76.124C96.2471 76.34 96.6271 76.448 97.0511 76.448ZM101.501 70.736C101.565 70.736 101.629 70.756 101.693 70.796C101.757 70.836 101.805 70.896 101.837 70.976L103.937 75.968L103.781 76.064L105.929 70.976C105.993 70.816 106.109 70.74 106.277 70.748C106.357 70.748 106.433 70.776 106.505 70.832C106.577 70.88 106.613 70.952 106.613 71.048C106.613 71.096 106.605 71.136 106.589 71.168C106.581 71.192 106.573 71.22 106.565 71.252L104.213 76.772C104.149 76.916 104.041 76.992 103.889 77C103.817 77.008 103.745 76.992 103.673 76.952C103.609 76.904 103.561 76.844 103.529 76.772L101.165 71.252C101.157 71.236 101.149 71.212 101.141 71.18C101.133 71.148 101.129 71.116 101.129 71.084C101.129 70.996 101.161 70.916 101.225 70.844C101.289 70.772 101.381 70.736 101.501 70.736ZM113.602 73.928C113.602 74.536 113.466 75.084 113.194 75.572C112.93 76.052 112.57 76.432 112.114 76.712C111.658 76.984 111.142 77.12 110.566 77.12C109.998 77.12 109.482 76.984 109.018 76.712C108.562 76.432 108.198 76.052 107.926 75.572C107.662 75.084 107.53 74.536 107.53 73.928C107.53 73.312 107.662 72.764 107.926 72.284C108.198 71.804 108.562 71.424 109.018 71.144C109.482 70.864 109.998 70.724 110.566 70.724C111.142 70.724 111.658 70.864 112.114 71.144C112.57 71.424 112.93 71.804 113.194 72.284C113.466 72.764 113.602 73.312 113.602 73.928ZM112.882 73.928C112.882 73.44 112.782 73.008 112.582 72.632C112.382 72.248 112.106 71.948 111.754 71.732C111.41 71.508 111.014 71.396 110.566 71.396C110.126 71.396 109.73 71.508 109.378 71.732C109.034 71.948 108.758 72.248 108.55 72.632C108.35 73.008 108.25 73.44 108.25 73.928C108.25 74.416 108.35 74.848 108.55 75.224C108.758 75.6 109.034 75.9 109.378 76.124C109.73 76.34 110.126 76.448 110.566 76.448C111.014 76.448 111.41 76.34 111.754 76.124C112.106 75.9 112.382 75.6 112.582 75.224C112.782 74.848 112.882 74.416 112.882 73.928ZM115.435 77C115.323 77 115.235 76.964 115.171 76.892C115.107 76.82 115.075 76.736 115.075 76.64V71.264C115.075 71.168 115.107 71.084 115.171 71.012C115.243 70.94 115.331 70.904 115.435 70.904C115.539 70.904 115.623 70.94 115.687 71.012C115.759 71.084 115.795 71.168 115.795 71.264V73.064L115.615 73.1C115.639 72.82 115.707 72.544 115.819 72.272C115.939 71.992 116.099 71.736 116.299 71.504C116.499 71.272 116.735 71.084 117.007 70.94C117.287 70.796 117.599 70.724 117.943 70.724C118.087 70.724 118.227 70.756 118.363 70.82C118.499 70.876 118.567 70.972 118.567 71.108C118.567 71.228 118.535 71.32 118.471 71.384C118.407 71.448 118.331 71.48 118.243 71.48C118.171 71.48 118.091 71.46 118.003 71.42C117.923 71.38 117.815 71.36 117.679 71.36C117.455 71.36 117.231 71.428 117.007 71.564C116.783 71.692 116.579 71.868 116.395 72.092C116.211 72.316 116.063 72.568 115.951 72.848C115.847 73.12 115.795 73.396 115.795 73.676V76.64C115.795 76.736 115.759 76.82 115.687 76.892C115.615 76.964 115.531 77 115.435 77ZM120.388 76.64C120.388 76.736 120.352 76.82 120.28 76.892C120.208 76.964 120.124 77 120.028 77C119.924 77 119.836 76.964 119.764 76.892C119.7 76.82 119.668 76.736 119.668 76.64V71.12C119.668 71.024 119.7 70.94 119.764 70.868C119.836 70.796 119.924 70.76 120.028 70.76C120.132 70.76 120.216 70.796 120.28 70.868C120.352 70.94 120.388 71.024 120.388 71.12V76.64ZM120.028 69.956C119.86 69.956 119.732 69.92 119.644 69.848C119.564 69.768 119.524 69.656 119.524 69.512V69.392C119.524 69.248 119.568 69.14 119.656 69.068C119.752 68.988 119.88 68.948 120.04 68.948C120.192 68.948 120.308 68.988 120.388 69.068C120.476 69.14 120.52 69.248 120.52 69.392V69.512C120.52 69.656 120.476 69.768 120.388 69.848C120.308 69.92 120.188 69.956 120.028 69.956ZM121.863 70.892H124.659C124.755 70.892 124.835 70.928 124.899 71C124.963 71.064 124.995 71.144 124.995 71.24C124.995 71.328 124.963 71.404 124.899 71.468C124.835 71.532 124.755 71.564 124.659 71.564H121.863C121.767 71.564 121.683 71.532 121.611 71.468C121.547 71.396 121.515 71.316 121.515 71.228C121.515 71.132 121.547 71.052 121.611 70.988C121.683 70.924 121.767 70.892 121.863 70.892ZM123.099 69.2C123.203 69.2 123.287 69.236 123.351 69.308C123.423 69.38 123.459 69.464 123.459 69.56V75.584C123.459 75.808 123.487 75.976 123.543 76.088C123.607 76.2 123.687 76.276 123.783 76.316C123.879 76.348 123.975 76.364 124.071 76.364C124.135 76.364 124.191 76.356 124.239 76.34C124.295 76.316 124.355 76.304 124.419 76.304C124.491 76.304 124.551 76.332 124.599 76.388C124.655 76.444 124.683 76.516 124.683 76.604C124.683 76.716 124.619 76.812 124.491 76.892C124.363 76.964 124.211 77 124.035 77C123.963 77 123.855 76.996 123.711 76.988C123.567 76.972 123.419 76.928 123.267 76.856C123.115 76.776 122.987 76.64 122.883 76.448C122.787 76.256 122.739 75.98 122.739 75.62V69.56C122.739 69.464 122.771 69.38 122.835 69.308C122.907 69.236 122.995 69.2 123.099 69.2ZM128.99 77.12C128.374 77.12 127.83 76.988 127.358 76.724C126.886 76.46 126.518 76.092 126.254 75.62C125.99 75.148 125.858 74.596 125.858 73.964C125.858 73.284 125.99 72.704 126.254 72.224C126.526 71.744 126.874 71.376 127.298 71.12C127.73 70.856 128.186 70.724 128.666 70.724C129.018 70.724 129.358 70.788 129.686 70.916C130.022 71.036 130.318 71.22 130.574 71.468C130.83 71.708 131.038 72.004 131.198 72.356C131.358 72.708 131.442 73.116 131.45 73.58C131.45 73.676 131.414 73.76 131.342 73.832C131.27 73.896 131.186 73.928 131.09 73.928H126.278L126.134 73.28H130.862L130.706 73.424V73.184C130.666 72.808 130.542 72.488 130.334 72.224C130.126 71.96 129.874 71.76 129.578 71.624C129.29 71.488 128.986 71.42 128.666 71.42C128.426 71.42 128.178 71.468 127.922 71.564C127.674 71.66 127.446 71.812 127.238 72.02C127.038 72.22 126.874 72.48 126.746 72.8C126.618 73.112 126.554 73.484 126.554 73.916C126.554 74.388 126.65 74.816 126.842 75.2C127.034 75.584 127.31 75.888 127.67 76.112C128.03 76.336 128.466 76.448 128.978 76.448C129.25 76.448 129.498 76.408 129.722 76.328C129.946 76.248 130.142 76.144 130.31 76.016C130.486 75.88 130.63 75.74 130.742 75.596C130.83 75.524 130.914 75.488 130.994 75.488C131.082 75.488 131.154 75.52 131.21 75.584C131.274 75.648 131.306 75.72 131.306 75.8C131.306 75.896 131.266 75.98 131.186 76.052C130.946 76.34 130.634 76.592 130.25 76.808C129.866 77.016 129.446 77.12 128.99 77.12ZM132.586 76.028C132.522 75.932 132.49 75.84 132.49 75.752C132.498 75.656 132.55 75.58 132.646 75.524C132.71 75.468 132.782 75.444 132.862 75.452C132.95 75.46 133.03 75.5 133.102 75.572C133.318 75.852 133.578 76.08 133.882 76.256C134.194 76.424 134.562 76.508 134.986 76.508C135.21 76.508 135.43 76.472 135.646 76.4C135.87 76.32 136.054 76.204 136.198 76.052C136.342 75.892 136.414 75.692 136.414 75.452C136.414 75.204 136.342 75.004 136.198 74.852C136.054 74.7 135.866 74.58 135.634 74.492C135.41 74.404 135.17 74.328 134.914 74.264C134.642 74.192 134.378 74.112 134.122 74.024C133.866 73.928 133.638 73.812 133.438 73.676C133.246 73.532 133.09 73.36 132.97 73.16C132.85 72.96 132.79 72.716 132.79 72.428C132.79 72.092 132.882 71.796 133.066 71.54C133.25 71.284 133.498 71.084 133.81 70.94C134.13 70.796 134.49 70.724 134.89 70.724C135.09 70.724 135.306 70.752 135.538 70.808C135.77 70.856 135.998 70.94 136.222 71.06C136.446 71.18 136.646 71.344 136.822 71.552C136.894 71.624 136.93 71.708 136.93 71.804C136.93 71.892 136.89 71.972 136.81 72.044C136.746 72.092 136.67 72.116 136.582 72.116C136.502 72.116 136.434 72.084 136.378 72.02C136.186 71.804 135.958 71.64 135.694 71.528C135.43 71.416 135.146 71.36 134.842 71.36C134.61 71.36 134.39 71.4 134.182 71.48C133.982 71.552 133.814 71.664 133.678 71.816C133.542 71.968 133.474 72.168 133.474 72.416C133.49 72.648 133.57 72.836 133.714 72.98C133.866 73.124 134.062 73.244 134.302 73.34C134.55 73.436 134.826 73.524 135.13 73.604C135.386 73.668 135.63 73.744 135.862 73.832C136.102 73.92 136.31 74.032 136.486 74.168C136.67 74.296 136.814 74.46 136.918 74.66C137.03 74.86 137.086 75.112 137.086 75.416C137.086 75.768 136.986 76.072 136.786 76.328C136.594 76.584 136.334 76.78 136.006 76.916C135.678 77.052 135.314 77.12 134.914 77.12C134.482 77.12 134.062 77.036 133.654 76.868C133.254 76.7 132.898 76.42 132.586 76.028Z" fill="#22292B"/>
<path d="M122 24C118.52 24 115.18 25.62 113 28.18C110.82 25.62 107.48 24 104 24C97.84 24 93 28.84 93 35C93 42.56 99.8 48.72 110.1 58.08L113 60.7L115.9 58.06C126.2 48.72 133 42.56 133 35C133 28.84 128.16 24 122 24ZM113.2 55.1L113 55.3L112.8 55.1C103.28 46.48 97 40.78 97 35C97 31 100 28 104 28C107.08 28 110.08 29.98 111.14 32.72H114.88C115.92 29.98 118.92 28 122 28C126 28 129 31 129 35C129 40.78 122.72 46.48 113.2 55.1Z" fill="#22292B"/>
<path d="M57.9386 53.84L56.0341 46.4884L50.0347 24.4145C49.9051 23.9276 49.5877 23.5119 49.1522 23.2585C48.7167 23.005 48.1985 22.9345 47.7111 23.0623L40.3405 24.9669C40.1646 24.7719 39.9503 24.6155 39.711 24.5073C39.4718 24.3991 39.2127 24.3416 38.9502 24.3384H19.9046C19.3994 24.3384 18.915 24.539 18.5578 24.8962C18.2007 25.2534 18 25.7378 18 26.2429V56.7159C18 57.221 18.2007 57.7054 18.5578 58.0626C18.915 58.4198 19.3994 58.6204 19.9046 58.6204H38.9502C39.4553 58.6204 39.9397 58.4198 40.2969 58.0626C40.6541 57.7054 40.8547 57.221 40.8547 56.7159V41.4794L45.0448 57.1349C45.1564 57.5504 45.4054 57.9159 45.7512 58.1718C46.097 58.4277 46.5193 58.559 46.9493 58.5443C47.1139 58.563 47.28 58.563 47.4445 58.5443L56.6435 56.0874C56.8867 56.0224 57.1146 55.9098 57.314 55.7561C57.5135 55.6025 57.6804 55.4108 57.8053 55.1922C58.0062 54.7709 58.0534 54.2925 57.9386 53.84ZM27.4657 54.8875H21.752V51.0784H27.4657V54.8875ZM27.4657 47.2693H21.752V35.8419H27.4657V47.2693ZM27.4657 32.0328H21.752V28.2237H27.4657V32.0328ZM36.9885 54.8875H31.2748V51.0784H36.9885V54.8875ZM36.9885 47.2693H31.2748V35.8419H36.9885V47.2693ZM36.9885 32.0328H31.2748V28.2237H36.9885V32.0328ZM41.2737 28.7188L46.797 27.2333L47.7873 30.9091L42.2641 32.3946L41.2737 28.7188ZM46.2065 47.1169L43.2545 36.0704L48.7777 34.5849L51.7298 45.6313L46.2065 47.1169ZM48.1111 54.4685L47.1207 50.7927L52.644 49.3071L53.6343 52.983L48.1111 54.4685Z" fill="#22292B"/>
<path d="M12.601 76C12.489 76 12.401 75.964 12.337 75.892C12.273 75.82 12.241 75.736 12.241 75.64V70.264C12.241 70.168 12.273 70.084 12.337 70.012C12.409 69.94 12.497 69.904 12.601 69.904C12.705 69.904 12.789 69.94 12.853 70.012C12.925 70.084 12.961 70.168 12.961 70.264V72.064L12.781 72.1C12.805 71.82 12.873 71.544 12.985 71.272C13.105 70.992 13.265 70.736 13.465 70.504C13.665 70.272 13.901 70.084 14.173 69.94C14.453 69.796 14.765 69.724 15.109 69.724C15.253 69.724 15.393 69.756 15.529 69.82C15.665 69.876 15.733 69.972 15.733 70.108C15.733 70.228 15.701 70.32 15.637 70.384C15.573 70.448 15.497 70.48 15.409 70.48C15.337 70.48 15.257 70.46 15.169 70.42C15.089 70.38 14.981 70.36 14.845 70.36C14.621 70.36 14.397 70.428 14.173 70.564C13.949 70.692 13.745 70.868 13.561 71.092C13.377 71.316 13.229 71.568 13.117 71.848C13.013 72.12 12.961 72.396 12.961 72.676V75.64C12.961 75.736 12.925 75.82 12.853 75.892C12.781 75.964 12.697 76 12.601 76ZM19.3126 76.12C18.6966 76.12 18.1526 75.988 17.6806 75.724C17.2086 75.46 16.8406 75.092 16.5766 74.62C16.3126 74.148 16.1806 73.596 16.1806 72.964C16.1806 72.284 16.3126 71.704 16.5766 71.224C16.8486 70.744 17.1966 70.376 17.6206 70.12C18.0526 69.856 18.5086 69.724 18.9886 69.724C19.3406 69.724 19.6806 69.788 20.0086 69.916C20.3446 70.036 20.6406 70.22 20.8966 70.468C21.1526 70.708 21.3606 71.004 21.5206 71.356C21.6806 71.708 21.7646 72.116 21.7726 72.58C21.7726 72.676 21.7366 72.76 21.6646 72.832C21.5926 72.896 21.5086 72.928 21.4126 72.928H16.6006L16.4566 72.28H21.1846L21.0286 72.424V72.184C20.9886 71.808 20.8646 71.488 20.6566 71.224C20.4486 70.96 20.1966 70.76 19.9006 70.624C19.6126 70.488 19.3086 70.42 18.9886 70.42C18.7486 70.42 18.5006 70.468 18.2446 70.564C17.9966 70.66 17.7686 70.812 17.5606 71.02C17.3606 71.22 17.1966 71.48 17.0686 71.8C16.9406 72.112 16.8766 72.484 16.8766 72.916C16.8766 73.388 16.9726 73.816 17.1646 74.2C17.3566 74.584 17.6326 74.888 17.9926 75.112C18.3526 75.336 18.7886 75.448 19.3006 75.448C19.5726 75.448 19.8206 75.408 20.0446 75.328C20.2686 75.248 20.4646 75.144 20.6326 75.016C20.8086 74.88 20.9526 74.74 21.0646 74.596C21.1526 74.524 21.2366 74.488 21.3166 74.488C21.4046 74.488 21.4766 74.52 21.5326 74.584C21.5966 74.648 21.6286 74.72 21.6286 74.8C21.6286 74.896 21.5886 74.98 21.5086 75.052C21.2686 75.34 20.9566 75.592 20.5726 75.808C20.1886 76.016 19.7686 76.12 19.3126 76.12ZM22.9086 75.028C22.8446 74.932 22.8126 74.84 22.8126 74.752C22.8206 74.656 22.8726 74.58 22.9686 74.524C23.0326 74.468 23.1046 74.444 23.1846 74.452C23.2726 74.46 23.3526 74.5 23.4246 74.572C23.6406 74.852 23.9006 75.08 24.2046 75.256C24.5166 75.424 24.8846 75.508 25.3086 75.508C25.5326 75.508 25.7526 75.472 25.9686 75.4C26.1926 75.32 26.3766 75.204 26.5206 75.052C26.6646 74.892 26.7366 74.692 26.7366 74.452C26.7366 74.204 26.6646 74.004 26.5206 73.852C26.3766 73.7 26.1886 73.58 25.9566 73.492C25.7326 73.404 25.4926 73.328 25.2366 73.264C24.9646 73.192 24.7006 73.112 24.4446 73.024C24.1886 72.928 23.9606 72.812 23.7606 72.676C23.5686 72.532 23.4126 72.36 23.2926 72.16C23.1726 71.96 23.1126 71.716 23.1126 71.428C23.1126 71.092 23.2046 70.796 23.3886 70.54C23.5726 70.284 23.8206 70.084 24.1326 69.94C24.4526 69.796 24.8126 69.724 25.2126 69.724C25.4126 69.724 25.6286 69.752 25.8606 69.808C26.0926 69.856 26.3206 69.94 26.5446 70.06C26.7686 70.18 26.9686 70.344 27.1446 70.552C27.2166 70.624 27.2526 70.708 27.2526 70.804C27.2526 70.892 27.2126 70.972 27.1326 71.044C27.0686 71.092 26.9926 71.116 26.9046 71.116C26.8246 71.116 26.7566 71.084 26.7006 71.02C26.5086 70.804 26.2806 70.64 26.0166 70.528C25.7526 70.416 25.4686 70.36 25.1646 70.36C24.9326 70.36 24.7126 70.4 24.5046 70.48C24.3046 70.552 24.1366 70.664 24.0006 70.816C23.8646 70.968 23.7966 71.168 23.7966 71.416C23.8126 71.648 23.8926 71.836 24.0366 71.98C24.1886 72.124 24.3846 72.244 24.6246 72.34C24.8726 72.436 25.1486 72.524 25.4526 72.604C25.7086 72.668 25.9526 72.744 26.1846 72.832C26.4246 72.92 26.6326 73.032 26.8086 73.168C26.9926 73.296 27.1366 73.46 27.2406 73.66C27.3526 73.86 27.4086 74.112 27.4086 74.416C27.4086 74.768 27.3086 75.072 27.1086 75.328C26.9166 75.584 26.6566 75.78 26.3286 75.916C26.0006 76.052 25.6366 76.12 25.2366 76.12C24.8046 76.12 24.3846 76.036 23.9766 75.868C23.5766 75.7 23.2206 75.42 22.9086 75.028ZM34.5456 72.928C34.5456 73.536 34.4096 74.084 34.1376 74.572C33.8736 75.052 33.5136 75.432 33.0576 75.712C32.6016 75.984 32.0856 76.12 31.5096 76.12C30.9416 76.12 30.4256 75.984 29.9616 75.712C29.5056 75.432 29.1416 75.052 28.8696 74.572C28.6056 74.084 28.4736 73.536 28.4736 72.928C28.4736 72.312 28.6056 71.764 28.8696 71.284C29.1416 70.804 29.5056 70.424 29.9616 70.144C30.4256 69.864 30.9416 69.724 31.5096 69.724C32.0856 69.724 32.6016 69.864 33.0576 70.144C33.5136 70.424 33.8736 70.804 34.1376 71.284C34.4096 71.764 34.5456 72.312 34.5456 72.928ZM33.8256 72.928C33.8256 72.44 33.7256 72.008 33.5256 71.632C33.3256 71.248 33.0496 70.948 32.6976 70.732C32.3536 70.508 31.9576 70.396 31.5096 70.396C31.0696 70.396 30.6736 70.508 30.3216 70.732C29.9776 70.948 29.7016 71.248 29.4936 71.632C29.2936 72.008 29.1936 72.44 29.1936 72.928C29.1936 73.416 29.2936 73.848 29.4936 74.224C29.7016 74.6 29.9776 74.9 30.3216 75.124C30.6736 75.34 31.0696 75.448 31.5096 75.448C31.9576 75.448 32.3536 75.34 32.6976 75.124C33.0496 74.9 33.3256 74.6 33.5256 74.224C33.7256 73.848 33.8256 73.416 33.8256 72.928ZM40.6023 69.904C40.7063 69.904 40.7903 69.94 40.8543 70.012C40.9263 70.084 40.9623 70.168 40.9623 70.264V73.648C40.9623 74.44 40.7383 75.044 40.2903 75.46C39.8423 75.876 39.2383 76.084 38.4783 76.084C37.7263 76.084 37.1263 75.876 36.6783 75.46C36.2383 75.044 36.0183 74.44 36.0183 73.648V70.264C36.0183 70.168 36.0503 70.084 36.1143 70.012C36.1863 69.94 36.2743 69.904 36.3783 69.904C36.4823 69.904 36.5663 69.94 36.6303 70.012C36.7023 70.084 36.7383 70.168 36.7383 70.264V73.648C36.7383 74.224 36.8903 74.664 37.1943 74.968C37.5063 75.264 37.9343 75.412 38.4783 75.412C39.0303 75.412 39.4623 75.264 39.7743 74.968C40.0863 74.664 40.2423 74.224 40.2423 73.648V70.264C40.2423 70.168 40.2743 70.084 40.3383 70.012C40.4023 69.94 40.4903 69.904 40.6023 69.904ZM43.2103 76C43.0983 76 43.0103 75.964 42.9463 75.892C42.8823 75.82 42.8503 75.736 42.8503 75.64V70.264C42.8503 70.168 42.8823 70.084 42.9463 70.012C43.0183 69.94 43.1063 69.904 43.2103 69.904C43.3143 69.904 43.3983 69.94 43.4623 70.012C43.5343 70.084 43.5703 70.168 43.5703 70.264V72.064L43.3903 72.1C43.4143 71.82 43.4823 71.544 43.5943 71.272C43.7143 70.992 43.8743 70.736 44.0743 70.504C44.2743 70.272 44.5103 70.084 44.7823 69.94C45.0623 69.796 45.3743 69.724 45.7183 69.724C45.8623 69.724 46.0023 69.756 46.1383 69.82C46.2743 69.876 46.3423 69.972 46.3423 70.108C46.3423 70.228 46.3103 70.32 46.2463 70.384C46.1823 70.448 46.1063 70.48 46.0183 70.48C45.9463 70.48 45.8663 70.46 45.7783 70.42C45.6983 70.38 45.5903 70.36 45.4543 70.36C45.2303 70.36 45.0063 70.428 44.7823 70.564C44.5583 70.692 44.3543 70.868 44.1703 71.092C43.9863 71.316 43.8383 71.568 43.7263 71.848C43.6223 72.12 43.5703 72.396 43.5703 72.676V75.64C43.5703 75.736 43.5343 75.82 43.4623 75.892C43.3903 75.964 43.3063 76 43.2103 76ZM49.85 69.724C50.234 69.724 50.586 69.768 50.906 69.856C51.226 69.936 51.482 70.048 51.674 70.192C51.874 70.336 51.974 70.492 51.974 70.66C51.974 70.74 51.942 70.82 51.878 70.9C51.822 70.972 51.75 71.008 51.662 71.008C51.558 71.008 51.474 70.984 51.41 70.936C51.354 70.888 51.298 70.832 51.242 70.768C51.186 70.704 51.102 70.644 50.99 70.588C50.886 70.54 50.734 70.496 50.534 70.456C50.342 70.416 50.126 70.396 49.886 70.396C49.438 70.396 49.034 70.508 48.674 70.732C48.314 70.956 48.03 71.26 47.822 71.644C47.614 72.02 47.51 72.444 47.51 72.916C47.51 73.396 47.606 73.828 47.798 74.212C47.998 74.596 48.274 74.9 48.626 75.124C48.986 75.34 49.398 75.448 49.862 75.448C50.182 75.448 50.43 75.42 50.606 75.364C50.79 75.308 50.942 75.244 51.062 75.172C51.222 75.084 51.334 75 51.398 74.92C51.47 74.832 51.562 74.788 51.674 74.788C51.77 74.788 51.846 74.82 51.902 74.884C51.958 74.94 51.986 75.016 51.986 75.112C51.986 75.24 51.89 75.384 51.698 75.544C51.514 75.696 51.258 75.832 50.93 75.952C50.602 76.064 50.222 76.12 49.79 76.12C49.198 76.12 48.674 75.98 48.218 75.7C47.77 75.42 47.418 75.04 47.162 74.56C46.914 74.072 46.79 73.524 46.79 72.916C46.79 72.332 46.918 71.8 47.174 71.32C47.43 70.84 47.786 70.456 48.242 70.168C48.698 69.872 49.234 69.724 49.85 69.724ZM56.0861 76.12C55.4701 76.12 54.9261 75.988 54.4541 75.724C53.9821 75.46 53.6141 75.092 53.3501 74.62C53.0861 74.148 52.9541 73.596 52.9541 72.964C52.9541 72.284 53.0861 71.704 53.3501 71.224C53.6221 70.744 53.9701 70.376 54.3941 70.12C54.8261 69.856 55.2821 69.724 55.7621 69.724C56.1141 69.724 56.4541 69.788 56.7821 69.916C57.1181 70.036 57.4141 70.22 57.6701 70.468C57.9261 70.708 58.1341 71.004 58.2941 71.356C58.4541 71.708 58.5381 72.116 58.5461 72.58C58.5461 72.676 58.5101 72.76 58.4381 72.832C58.3661 72.896 58.2821 72.928 58.1861 72.928H53.3741L53.2301 72.28H57.9581L57.8021 72.424V72.184C57.7621 71.808 57.6381 71.488 57.4301 71.224C57.2221 70.96 56.9701 70.76 56.6741 70.624C56.3861 70.488 56.0821 70.42 55.7621 70.42C55.5221 70.42 55.2741 70.468 55.0181 70.564C54.7701 70.66 54.5421 70.812 54.3341 71.02C54.1341 71.22 53.9701 71.48 53.8421 71.8C53.7141 72.112 53.6501 72.484 53.6501 72.916C53.6501 73.388 53.7461 73.816 53.9381 74.2C54.1301 74.584 54.4061 74.888 54.7661 75.112C55.1261 75.336 55.5621 75.448 56.0741 75.448C56.3461 75.448 56.5941 75.408 56.8181 75.328C57.0421 75.248 57.2381 75.144 57.4061 75.016C57.5821 74.88 57.7261 74.74 57.8381 74.596C57.9261 74.524 58.0101 74.488 58.0901 74.488C58.1781 74.488 58.2501 74.52 58.3061 74.584C58.3701 74.648 58.4021 74.72 58.4021 74.8C58.4021 74.896 58.3621 74.98 58.2821 75.052C58.0421 75.34 57.7301 75.592 57.3461 75.808C56.9621 76.016 56.5421 76.12 56.0861 76.12ZM59.682 75.028C59.618 74.932 59.586 74.84 59.586 74.752C59.594 74.656 59.646 74.58 59.742 74.524C59.806 74.468 59.878 74.444 59.958 74.452C60.046 74.46 60.126 74.5 60.198 74.572C60.414 74.852 60.674 75.08 60.978 75.256C61.29 75.424 61.658 75.508 62.082 75.508C62.306 75.508 62.526 75.472 62.742 75.4C62.966 75.32 63.15 75.204 63.294 75.052C63.438 74.892 63.51 74.692 63.51 74.452C63.51 74.204 63.438 74.004 63.294 73.852C63.15 73.7 62.962 73.58 62.73 73.492C62.506 73.404 62.266 73.328 62.01 73.264C61.738 73.192 61.474 73.112 61.218 73.024C60.962 72.928 60.734 72.812 60.534 72.676C60.342 72.532 60.186 72.36 60.066 72.16C59.946 71.96 59.886 71.716 59.886 71.428C59.886 71.092 59.978 70.796 60.162 70.54C60.346 70.284 60.594 70.084 60.906 69.94C61.226 69.796 61.586 69.724 61.986 69.724C62.186 69.724 62.402 69.752 62.634 69.808C62.866 69.856 63.094 69.94 63.318 70.06C63.542 70.18 63.742 70.344 63.918 70.552C63.99 70.624 64.026 70.708 64.026 70.804C64.026 70.892 63.986 70.972 63.906 71.044C63.842 71.092 63.766 71.116 63.678 71.116C63.598 71.116 63.53 71.084 63.474 71.02C63.282 70.804 63.054 70.64 62.79 70.528C62.526 70.416 62.242 70.36 61.938 70.36C61.706 70.36 61.486 70.4 61.278 70.48C61.078 70.552 60.91 70.664 60.774 70.816C60.638 70.968 60.57 71.168 60.57 71.416C60.586 71.648 60.666 71.836 60.81 71.98C60.962 72.124 61.158 72.244 61.398 72.34C61.646 72.436 61.922 72.524 62.226 72.604C62.482 72.668 62.726 72.744 62.958 72.832C63.198 72.92 63.406 73.032 63.582 73.168C63.766 73.296 63.91 73.46 64.014 73.66C64.126 73.86 64.182 74.112 64.182 74.416C64.182 74.768 64.082 75.072 63.882 75.328C63.69 75.584 63.43 75.78 63.102 75.916C62.774 76.052 62.41 76.12 62.01 76.12C61.578 76.12 61.158 76.036 60.75 75.868C60.35 75.7 59.994 75.42 59.682 75.028Z" fill="#22292B"/>
</g>
<defs>
<filter id="filter0_b" x="-75" y="-74.5469" width="525" height="241.547" filterUnits="userSpaceOnUse" color-interpolation-filters="sRGB">
<feFlood flood-opacity="0" result="BackgroundImageFix"/>
<feGaussianBlur in="BackgroundImage" stdDeviation="37.5"/>
<feComposite in2="SourceAlpha" operator="in" result="effect1_backgroundBlur"/>
<feBlend mode="normal" in="SourceGraphic" in2="effect1_backgroundBlur" result="shape"/>
</filter>
<filter id="filter1_d" x="148.159" y="10" width="76.6829" height="77.5244" filterUnits="userSpaceOnUse" color-interpolation-filters="sRGB">
<feFlood flood-opacity="0" result="BackgroundImageFix"/>
<feColorMatrix in="SourceAlpha" type="matrix" values="0 0 0 0 0 0 0 0 0 0 0 0 0 0 0 0 0 0 127 0"/>
<feMorphology radius="0.841463" operator="dilate" in="SourceAlpha" result="effect1_dropShadow"/>
<feOffset dy="1.68293"/>
<feColorMatrix type="matrix" values="0 0 0 0 0.360784 0 0 0 0 0.858824 0 0 0 0 0.584314 0 0 0 1 0"/>
<feBlend mode="normal" in2="BackgroundImageFix" result="effect1_dropShadow"/>
<feBlend mode="normal" in="SourceGraphic" in2="effect1_dropShadow" result="shape"/>
</filter>
<linearGradient id="paint0_linear" x1="186.5" y1="10" x2="186.5" y2="85" gradientUnits="userSpaceOnUse">
<stop stop-color="#4C6ABF"/>
<stop offset="1" stop-color="#4C6ABF" stop-opacity="0"/>
</linearGradient>
<clipPath id="clip0">
<rect width="80" height="59.7333" fill="white" transform="translate(147.5 19.1334)"/>
</clipPath>
</defs>
</svg>
