<svg width="226" height="226" viewBox="0 0 226 226" fill="none" xmlns="http://www.w3.org/2000/svg">
<g id="Affirmative Preview">
<g id="Group 71">
<g id="Vector">
<path d="M10.9369 72.9653L21.6128 82.6798L19.4229 104.057L1.52958 81.869C-3.50582 75.6251 5.00624 67.5688 10.9369 72.9653Z" fill="#22292B"/>
<path d="M123.515 73.291L105.963 90.349L110.583 112.186L133.227 81.8569C138.015 75.4434 129.253 67.7151 123.515 73.291Z" fill="#22292B"/>
</g>
<g id="Group 70">
<g id="Vector_2">
<path d="M216.612 109.601L187.025 121.663L176.241 137.104L220.28 115.658C229.593 111.123 226.283 105.659 216.612 109.601Z" fill="#475559"/>
<path d="M104.263 109.371L108.086 116.24L90.8154 131.356L88.5746 115.667C87.944 111.252 102.14 105.555 104.263 109.371Z" fill="#475559"/>
<path d="M123.227 104.998L126.502 103.25C167.812 81.1932 212.039 83.0898 204.178 106.581C202.721 110.934 199.478 115.685 194.68 120.495L134.661 180.653C132.119 183.201 132.111 185.474 134.642 186.331C141.363 188.606 129.649 198.037 120.103 198.037H111.441C106.103 198.037 104.668 195.067 108.18 191.288L109.922 189.415L124.818 173.894L132.818 164.697C138.826 158.265 136.404 153.2 127.321 153.2H107.729C99.6179 153.2 89.0213 156.341 80.1037 161.389C76.2624 163.563 72.9214 165.987 70.3536 168.462L64.7189 173.894L48.2408 189.415L47.0613 190.597C42.9617 194.706 34.9383 198.037 29.1405 198.037H21.979C13.1177 198.037 18.3479 189.697 29.1446 186.611C32.8506 185.552 36.4817 183.581 38.6986 181.426L48.6327 171.767L60.7418 160.443L98.2654 122.832C104.552 116.53 113.198 110.354 123.227 104.998Z" fill="#475559"/>
</g>
<path id="Vector 74" d="M25.5386 66.7815L27.0689 64.3087C46.3729 33.1158 92.4929 35.798 108.068 69.0194C110.954 75.1757 112.451 81.8941 112.451 88.6963V173.773C112.451 177.377 114.711 180.591 118.097 181.803C127.087 185.02 124.783 198.358 115.237 198.358H106.575C101.237 198.358 96.8383 194.158 96.5806 188.813L96.4528 186.164L95.8648 164.215L94.6888 151.207C94.2805 142.112 86.8048 134.948 77.7213 134.948H58.1296C50.0185 134.948 42.5557 139.391 38.6742 146.529C37.0022 149.604 36.0794 153.032 35.9812 156.533L35.7656 164.215L34.7721 186.164V187.836C34.7721 193.647 30.0721 198.358 24.2743 198.358H17.1128C8.25154 198.358 5.16095 186.563 12.8786 182.199C15.5278 180.701 17.1927 177.914 17.2592 174.866L17.5574 161.207L18.3685 145.192V92.0015C18.3685 83.0896 20.8518 74.3547 25.5386 66.7815Z" fill="#FF7C70"/>
</g>
<path id="Vector 73" d="M75.5134 110.856C69.6537 113.745 62.788 113.745 56.9283 110.856C47.7613 106.336 43.1552 95.8713 46.0043 86.0376C51.8823 65.7492 80.5594 65.7492 86.4374 86.0376C89.2865 95.8713 84.6804 106.336 75.5134 110.856Z" fill="#22292B"/>
</g>
</g>
</svg>
