<svg xmlns="http://www.w3.org/2000/svg" width="410.047" height="111.172" viewBox="0 0 410.047 111.172">
  <g opacity="0.34">
    <path d="M156.478,103.551a16.744,16.744,0,0,0-.74-2.309c-.255-.766-.52-1.523-.76-2.3-1.535-4.969-3.229-9.812-4.762-14.782-1.518-4.919-3.168-9.738-4.755-14.605-1.6-4.916-3.246-9.8-4.773-14.779a12.728,12.728,0,0,1-.753-4.906,11.069,11.069,0,0,0,0-1.3,12.606,12.606,0,0,1,.616-4.814,23.318,23.318,0,0,0,.327-2.386c.25-1.086.257-2.327.576-3.344.212-.673.048-1.3.21-1.914.168-.636.312-1.291.428-1.954.107-.618.147-1.265.249-1.887.228-1.4.413-2.826.734-4.175.314-1.313.424-2.693.707-4,.178-.821.3-1.672.441-2.5.267-1.565.541-3.138.752-4.728.136-1.022.4-1.98.547-3.008.174-1.217.367-2.463.615-3.674a15.981,15.981,0,0,0,.508-2.647,20.949,20.949,0,0,1,.426-2.89,10.983,10.983,0,0,1,.521-2.642A13.485,13.485,0,0,1,147.817,0H43.68q8.037,12.306,16.071,24.619c.143.218.26.556.429.636.615.288.69,1.458,1.182,1.784a5.868,5.868,0,0,1,1.316,1.78c.526.8.944,1.761,1.461,2.574a21.816,21.816,0,0,1,1.315,1.742,36.175,36.175,0,0,0,2.038,3.108c.7,1.1,1.411,2.192,2.118,3.287s1.412,2.191,2.119,3.285,1.4,2.21,2.125,3.276c.36.532.9.859,1.138,1.479a12.88,12.88,0,0,0,1.479,2.565c.468.71.821,1.638,1.5,2.012.136.074.173.506.3.711.293.482.6.938.921,1.38.168.233.411.363.544.629.665,1.325,1.548,2.3,2.287,3.51.8,1.3,1.633,2.546,2.453,3.818L89.3,69.684c.791,1.226,1.586,2.447,2.37,3.684a2.4,2.4,0,0,1,.488.976c.113,1.282.691,2.247.782,3.614.4,6.021.082,12.046.2,18.064.006.345.108.683.123,1.029a9.088,9.088,0,0,1,.01,2.1,6.1,6.1,0,0,0-.133,1.2c-.014,1.363-.006,2.725-.006,4.089,0,1.487.031,2.975-.009,4.459-.021.755-.064,1.511-.112,2.265H158.91a48.882,48.882,0,0,1-1.565-5.2C157.155,105.09,156.646,104.5,156.478,103.551Z" fill="#eecf5f"/>
    <path d="M320.9,108.5c0-9.11-.016-18.219.014-27.328a29.851,29.851,0,0,1,.352-3.858,23.313,23.313,0,0,1,1.35-4.334,1.987,1.987,0,0,1,.249-.4c1.443-2.357,2.89-4.708,4.323-7.079.805-1.331,1.569-2.722,2.381-4.042.827-1.345,1.788-2.52,2.516-3.977,1.1-2.2,2.529-3.893,3.652-6.02,1.258-2.386,2.813-4.33,4.059-6.694,1.058-2.008,2.349-3.64,3.408-5.611,1.553-2.887,3.416-5.314,4.984-8.152,1.112-2.009,2.409-3.723,3.494-5.74s2.372-3.775,3.46-5.783a26.314,26.314,0,0,0,1.835-3.034,19.625,19.625,0,0,1,1.909-3.062c1.561-2.524,3.2-4.954,4.638-7.634,1.1-2.046,2.4-3.777,3.527-5.757H268.831q-.021,53.322-.011,106.647c0,1.114-.04,2.234.011,3.342a4.285,4.285,0,0,1-.137,1.183h52.494a12.57,12.57,0,0,0-.222-1.595A5.185,5.185,0,0,1,320.9,108.5Z" fill="#36876e"/>
    <path d="M323.243,77.089c.217-.766.85-.783.888-1.625.527-.219.608-1.112.993-1.574a19.02,19.02,0,0,0,1.2-1.82,9.929,9.929,0,0,0,1.085-1.726,22.157,22.157,0,0,1,2.055-3.5c1.828-2.984,3.686-5.924,5.5-8.933.516-.855.844-1.99,1.605-2.46.453-1.662,1.68-2.348,2.12-4.028,1.084-.933,1.566-2.787,2.521-3.933.785-.944,1.33-2.276,2.1-3.27.375-.485.558-1.4.963-1.74.444-.374.507-1.1.885-1.506a4.833,4.833,0,0,0,1.09-1.7c.439-1.285,1.284-1.917,1.816-3.06a29.919,29.919,0,0,1,1.921-3.055c1.276-2.074,2.606-4.083,3.766-6.3.445-.849,1.072-1.312,1.455-2.174a33.484,33.484,0,0,1,2.035-3.527,9.87,9.87,0,0,0,1.618-2.86c.736-.156.76-1.4,1.245-1.971a13.906,13.906,0,0,0,1.363-2.086,72.624,72.624,0,0,0,3.889-6.76c.418-.116.639-.642.918-1.05a21.241,21.241,0,0,0,1.379-2.268c.413-.816.888-1.516,1.326-2.277.376-.654.8-1.24,1.193-1.876h-3.113c-1.125,1.98-2.425,3.711-3.527,5.757-1.441,2.68-3.077,5.11-4.638,7.634a19.625,19.625,0,0,0-1.909,3.062,26.314,26.314,0,0,1-1.835,3.034c-1.088,2.008-2.37,3.755-3.46,5.783S349.3,29,348.19,31.01c-1.568,2.838-3.431,5.265-4.984,8.152-1.059,1.971-2.35,3.6-3.408,5.611-1.246,2.364-2.8,4.308-4.059,6.694-1.123,2.127-2.553,3.818-3.652,6.02-.728,1.457-1.689,2.632-2.516,3.977-.812,1.32-1.576,2.711-2.381,4.042-1.433,2.371-2.88,4.722-4.323,7.079a1.987,1.987,0,0,0-.249.4,23.313,23.313,0,0,0-1.35,4.334,29.851,29.851,0,0,0-.352,3.858c-.03,9.109-.017,18.218-.014,27.328a5.185,5.185,0,0,0,.064,1.074,12.57,12.57,0,0,1,.222,1.595h1.874q0-15.8.012-31.6A8.583,8.583,0,0,1,323.243,77.089Z" fill="#317963"/>
    <path d="M93.14,104.448c0-1.364-.008-2.726.006-4.089a6.1,6.1,0,0,1,.133-1.2,9.088,9.088,0,0,0-.01-2.1c-.015-.346-.117-.684-.123-1.029-.123-6.018.2-12.043-.2-18.064-.091-1.367-.669-2.332-.782-3.614a2.4,2.4,0,0,0-.488-.976c-.784-1.237-1.579-2.458-2.37-3.684L84.47,62.2c-.82-1.272-1.657-2.516-2.453-3.818-.739-1.208-1.622-2.185-2.287-3.51-.133-.266-.376-.4-.544-.629-.318-.442-.628-.9-.921-1.38-.125-.2-.162-.637-.3-.711-.675-.374-1.028-1.3-1.5-2.012a12.88,12.88,0,0,1-1.479-2.565c-.239-.62-.778-.947-1.138-1.479-.725-1.066-1.418-2.181-2.125-3.276s-1.413-2.19-2.119-3.285-1.416-2.185-2.118-3.287a36.175,36.175,0,0,1-2.038-3.108,21.816,21.816,0,0,0-1.315-1.742c-.517-.813-.935-1.779-1.461-2.574a5.868,5.868,0,0,0-1.316-1.78c-.492-.326-.567-1.5-1.182-1.784-.169-.08-.286-.418-.429-.636Q51.719,12.307,43.68,0H41.938c.414.633.828,1.263,1.238,1.9l3.139,4.868c1.018,1.577,2.058,3.124,3.039,4.755.272.451.688.563.885,1.247.152.521.635.81.966,1.212a2.093,2.093,0,0,1,.255.393c.982,1.97,2.3,3.416,3.39,5.223,1.118,1.858,2.309,3.609,3.468,5.406s2.267,3.69,3.5,5.358c.758,1.027,1.358,2.253,2.083,3.307a20.476,20.476,0,0,0,1.5,2c.418.471.658,1.316,1.069,1.808A5.59,5.59,0,0,1,67.487,39.1c.225.568.712.866,1.034,1.361,2.13,3.275,4.242,6.578,6.373,9.851a11.044,11.044,0,0,0,1.4,1.9c.465.456.689,1.472,1.137,2.006.965,1.157,1.518,2.995,2.671,3.818.217,1.461,1.423,1.538,1.713,2.966.081.4.584.554.793.949.686,1.3,1.557,2.292,2.293,3.506.793,1.31,1.634,2.551,2.454,3.823.792,1.228,1.553,2.509,2.385,3.667.677.94,1,2.258,1.6,3.259-.036,1.384.608,2.5.6,3.9q-.031,6.974,0,13.949a4.612,4.612,0,0,0,.229,2.451,8.323,8.323,0,0,0-.254,1.891c.03,3.163-.019,6.325.032,9.486a11.058,11.058,0,0,1-.325,2.781,5.093,5.093,0,0,0-.09.514h1.475c.048-.754.091-1.51.112-2.265C93.171,107.423,93.14,105.935,93.14,104.448Z" fill="#dbc15b"/>
    <path d="M159.1,108.372c.016-.454-.531-.9-.613-1.429-.168-1.085-1-1.741-.787-3.034a6.781,6.781,0,0,1-.967-2.728,1.888,1.888,0,0,0-.309-.723,1.975,1.975,0,0,1-.414-1.423,1.2,1.2,0,0,0-.18-.614,2.219,2.219,0,0,1-.538-1.715l-.139-.453c-.431-.576-.418-1.494-.7-2.152s-.42-1.366-.64-2.006a13.752,13.752,0,0,0-1.121-3,1.677,1.677,0,0,1-.293-.941,2.621,2.621,0,0,0-.307-1.085,3.515,3.515,0,0,1-.635-1.832c0-.68-.679-.914-.487-1.741l-.14-.272c-.882-1.747-1.013-4.124-2.012-5.773.007-1.111-.632-1.8-.752-2.876a8.67,8.67,0,0,0-.71-1.95,8.016,8.016,0,0,1-.446-1.384,8.009,8.009,0,0,0-.741-2.5,13.92,13.92,0,0,1-.93-2.757,10.119,10.119,0,0,0-.849-2.43c-.4-.643-.239-1.747-.766-2.3-.022-1.48-1.048-2.3-1.046-3.791-.642-.752-.467-2.26-1.151-2.988a1.411,1.411,0,0,1-.172-.622c-.149-1.015-.346-2-.551-2.989a8.814,8.814,0,0,1,0-3.3c.227-1.112.367-2.24.548-3.359.127-.787.226-1.587.373-2.365a10.448,10.448,0,0,0,.492-3.23,3.011,3.011,0,0,1,.237-.948,3.145,3.145,0,0,0,.215-.784,24.435,24.435,0,0,1,.8-5.257,3.115,3.115,0,0,0,.159-.634,5.637,5.637,0,0,1,.415-2.537c.261-.556-.109-1.455.315-2.021-.019-1.625.637-2.959.807-4.5a5.876,5.876,0,0,0,.145-.645,33.512,33.512,0,0,1,.805-5.629c.218-1.383.539-2.741.868-4.084a4.222,4.222,0,0,0,.008-1.291,6.065,6.065,0,0,1,.283-2.055c.168-.7.3-1.421.443-2.131a9.668,9.668,0,0,0,.5-3.23,2.749,2.749,0,0,1,.251-.938c.064-.208.214-.42.2-.607A6.114,6.114,0,0,1,148.622,0h-.805a13.485,13.485,0,0,0-.222,2.007,10.983,10.983,0,0,0-.521,2.642,20.949,20.949,0,0,0-.426,2.89,15.981,15.981,0,0,1-.508,2.647c-.248,1.211-.441,2.457-.615,3.674-.147,1.028-.411,1.986-.547,3.008-.211,1.59-.485,3.163-.752,4.728-.141.825-.263,1.676-.441,2.5-.283,1.311-.393,2.691-.707,4-.321,1.349-.506,2.776-.734,4.175-.1.622-.142,1.269-.249,1.887-.116.663-.26,1.318-.428,1.954-.162.61,0,1.241-.21,1.914-.319,1.017-.326,2.258-.576,3.344a23.318,23.318,0,0,1-.327,2.386,12.606,12.606,0,0,0-.616,4.814,11.069,11.069,0,0,1,0,1.3,12.728,12.728,0,0,0,.753,4.906c1.527,4.975,3.169,9.863,4.773,14.779,1.587,4.867,3.237,9.686,4.755,14.605,1.533,4.97,3.227,9.813,4.762,14.782.24.775.5,1.532.76,2.3a16.744,16.744,0,0,1,.74,2.309c.168.944.677,1.539.867,2.42a48.882,48.882,0,0,0,1.565,5.2h1.1a4.943,4.943,0,0,1-.252-.772C159.594,109.679,159.063,109.322,159.1,108.372Z" fill="#e3c65b"/>
    <path d="M268.82,106.647q0-53.325.011-106.647H267.14V111.172h1.554a4.285,4.285,0,0,0,.137-1.183C268.78,108.881,268.82,107.761,268.82,106.647Z" fill="#2f7560"/>
    <path d="M90.98,108.936c-.047-1.448-.208-2.88-.254-4.33-.016-.483-.019-.969,0-1.458s.012-.958.017-1.437c.014-1.438,0-2.878,0-4.316V85.7c0-.99.064-1.992-.017-2.966-.084-1,.319-1.851.257-2.819a18.531,18.531,0,0,0-.267-2.617,5.941,5.941,0,0,0-.964-1.844c-.251-.38-.537-.706-.785-1.09-1.982-3.061-3.951-6.139-5.942-9.185-.324-.5-.558-1.175-1.077-1.354-.134-.047-.2-.472-.328-.69a7.089,7.089,0,0,0-.888-1.419,1.466,1.466,0,0,1-.58-.959,1.468,1.468,0,0,0-.574-.9,1.77,1.77,0,0,1-.848-1.308,1.63,1.63,0,0,0-.4-.665c-2.388-2.893-4.315-6.526-6.5-9.737-.335-.491-.5-1.261-1.058-1.375-.109-.023-.152-.5-.28-.662-.418-.525-.659-1.351-1.243-1.629-.191-.089-.253-.708-.439-.976-.423-.609-1.035-1.025-1.294-1.755A4.654,4.654,0,0,0,66.421,39.9c-.369-.336-.419-.913-.718-1.238-.408-.444-.77-.991-1.182-1.425-.369-.392-.452-1.113-.892-1.491a4.009,4.009,0,0,1-1-1.723c-.193-.574-.712-.862-1.034-1.358-2.41-3.709-4.8-7.447-7.215-11.153-.381-.586-.675-1.363-1.252-1.585-.111-.953-.663-1.213-1.081-1.7a6.535,6.535,0,0,1-.429-.828c-.227-.385-.473-.745-.714-1.111s-.485-.725-.722-1.1-.464-.758-.7-1.131l-.114-.009a10.519,10.519,0,0,1-1.05-1.892c-.311-.648-.917-.974-1.2-1.638A2.1,2.1,0,0,0,46.429,9.5a3.972,3.972,0,0,1-.688-1.019Q43.005,4.236,40.265,0H0V111.172H90.732c0-.244,0-.488.017-.727C90.787,109.935,90.9,109.438,90.98,108.936Z" fill="#97fede"/>
    <path d="M91.959,107.877c-.051-3.161,0-6.323-.032-9.486a8.323,8.323,0,0,1,.254-1.891,4.612,4.612,0,0,1-.229-2.451q-.036-6.974,0-13.949c.006-1.394-.638-2.513-.6-3.9-.605-1-.926-2.319-1.6-3.259-.832-1.158-1.593-2.439-2.385-3.667-.82-1.272-1.661-2.513-2.454-3.823-.736-1.214-1.607-2.208-2.293-3.506-.209-.4-.712-.546-.793-.949-.29-1.428-1.5-1.505-1.713-2.966-1.153-.823-1.706-2.661-2.671-3.818-.448-.534-.672-1.55-1.137-2.006a11.044,11.044,0,0,1-1.4-1.9c-2.131-3.273-4.243-6.576-6.373-9.851-.322-.495-.809-.793-1.034-1.361a5.59,5.59,0,0,0-1.016-1.629c-.411-.492-.651-1.337-1.069-1.808a20.476,20.476,0,0,1-1.5-2c-.725-1.054-1.325-2.28-2.083-3.307-1.232-1.668-2.338-3.561-3.5-5.358s-2.35-3.548-3.468-5.406c-1.089-1.807-2.408-3.253-3.39-5.223a2.093,2.093,0,0,0-.255-.393c-.331-.4-.814-.691-.966-1.212-.2-.684-.613-.8-.885-1.247-.981-1.631-2.021-3.178-3.039-4.755L43.176,1.9c-.41-.635-.824-1.265-1.238-1.9H40.265Q43,4.242,45.741,8.481A3.972,3.972,0,0,0,46.429,9.5a2.1,2.1,0,0,1,.688,1.025c.282.664.888.99,1.2,1.638a10.519,10.519,0,0,0,1.05,1.892l.114.009c.237.373.464.759.7,1.131s.483.73.722,1.1.487.726.714,1.111a6.535,6.535,0,0,0,.429.828c.418.486.97.746,1.081,1.7.577.222.871,1,1.252,1.585,2.412,3.706,4.805,7.444,7.215,11.153.322.5.841.784,1.034,1.358a4.009,4.009,0,0,0,1,1.723c.44.378.523,1.1.892,1.491.412.434.774.981,1.182,1.425.3.325.349.9.718,1.238A4.654,4.654,0,0,1,67.5,41.749c.259.73.871,1.146,1.294,1.755.186.268.248.887.439.976.584.278.825,1.1,1.243,1.629.128.161.171.639.28.662.561.114.723.884,1.058,1.375,2.19,3.211,4.117,6.844,6.5,9.737a1.63,1.63,0,0,1,.4.665,1.77,1.77,0,0,0,.848,1.308,1.468,1.468,0,0,1,.574.9,1.466,1.466,0,0,0,.58.959,7.089,7.089,0,0,1,.888,1.419c.124.218.194.643.328.69.519.179.753.857,1.077,1.354,1.991,3.046,3.96,6.124,5.942,9.185.248.384.534.71.785,1.09a5.941,5.941,0,0,1,.964,1.844,18.531,18.531,0,0,1,.267,2.617l.14,0,.145-.012c.091.007.168.066.19.3l.007.231c0,.231,0,.464,0,.7v26.575c0,.232.007.467,0,.7l-.007.231c-.022.238-.1.3-.19.3l-.145-.012-.14,0c-.08.5-.193,1-.231,1.509-.018.239-.019.483-.017.727h.812a5.093,5.093,0,0,1,.09-.514A11.058,11.058,0,0,0,91.959,107.877Z" fill="#c4b156"/>
    <path d="M370.166,0c-.389.636-.817,1.222-1.193,1.876-.438.761-.913,1.461-1.326,2.277a21.241,21.241,0,0,1-1.379,2.268c-.279.408-.5.934-.918,1.05a72.624,72.624,0,0,1-3.889,6.76,13.906,13.906,0,0,1-1.363,2.086c-.485.574-.509,1.815-1.245,1.971a9.87,9.87,0,0,1-1.618,2.86,33.484,33.484,0,0,0-2.035,3.527c-.383.862-1.01,1.325-1.455,2.174-1.16,2.221-2.49,4.23-3.766,6.3a29.919,29.919,0,0,0-1.921,3.055c-.532,1.143-1.377,1.775-1.816,3.06a4.833,4.833,0,0,1-1.09,1.7c-.378.4-.441,1.132-.885,1.506-.4.339-.588,1.255-.963,1.74-.771.994-1.316,2.326-2.1,3.27-.955,1.146-1.437,3-2.521,3.933-.44,1.68-1.667,2.366-2.12,4.028-.761.47-1.089,1.6-1.605,2.46-1.811,3.009-3.669,5.949-5.5,8.933a22.157,22.157,0,0,0-2.055,3.5,9.929,9.929,0,0,1-1.085,1.726,19.02,19.02,0,0,1-1.2,1.82c-.385.462-.466,1.355-.993,1.574-.038.842-.671.859-.888,1.625a8.583,8.583,0,0,0-.169,2.487q-.029,15.8-.012,31.6h86.985V0Z" fill="#97fede"/>
    <path d="M159.62,107.447l-.143,0-.151.014-.121-.067-.056-.239a3.882,3.882,0,0,0-.295-1.344l-.17-.413c-.193-.455-.36-.935-.518-1.422s-.308-.987-.461-1.478c-.129-.41-.169-.893-.316-1.282-.814-2.132-1.341-4.49-2.139-6.617-.328-.874-.634-1.767-.934-2.663s-.591-1.8-.892-2.687c-.511-1.514-1.065-3.018-1.522-4.592-.1-.356-.238-.678-.336-1.018a2.761,2.761,0,0,1-.106-1.117v-.372c-.48-.068-.48-.068-.48-1.116v-.745c-.739.124-.715-.913-.95-1.535a2.423,2.423,0,0,1-.009-.7v-.373l-.442-.127A2.143,2.143,0,0,0,149.3,76.2c-.117-.221-.244-.425-.346-.609a2.644,2.644,0,0,1-.213-.492,5.156,5.156,0,0,1-.161-1.506v-.372c-.479-.07-.479-.07-.479-1.116v-.745l-.191.018c-.184-.012-.348-.124-.413-.416-.127-.577-.429-.99-.6-1.544a2.7,2.7,0,0,1-.109-.612,4.622,4.622,0,0,0-.176-.995,8.154,8.154,0,0,0-.325-.9c-.062-.146-.125-.289-.188-.435a9.288,9.288,0,0,1-.5-1.353,3.449,3.449,0,0,1-.1-.612c-.018-.2-.025-.393-.043-.595-.359-.032-.2-.462-.24-.745l-.2-.177-.164-.215c-.132-.307-.27-.613-.4-.928a9.133,9.133,0,0,1-.341-.972c-.141-.5-.217-1.043-.374-1.541a3.308,3.308,0,0,0-.191-.478l-.042-.179c-.018-.207.027-.489.027-.718v-.372l-.065-.005-.066,0-.131.005-.123-.065-.1-.22c-.252-.891-.518-1.774-.781-2.657s-.525-1.768-.77-2.664c-.143-.525-.032-1.237-.205-1.72a2.7,2.7,0,0,1-.116-.407,1.353,1.353,0,0,1,.191-1.028.833.833,0,0,0,.019-.394l-.011-.151a9.672,9.672,0,0,1,.078-1.935,15.152,15.152,0,0,1,.388-1.854,9.7,9.7,0,0,0,.236-1.081,5.143,5.143,0,0,0,.052-.574,3.905,3.905,0,0,0-.026-.6,2.526,2.526,0,0,1,0-.706l.1-.321.184-.281.138-.28.04-.326a5.976,5.976,0,0,1,.2-2.413c.076-.3.16-.6.238-.9.039-.147.076-.3.11-.442.119-.51.236-1.005.318-1.508.041-.251.073-.5.093-.764a6.929,6.929,0,0,0,.02-.793l-.007-.2,0-.209.055-.289a1.31,1.31,0,0,0,.3-.457,2.418,2.418,0,0,0,.137-.816c.009-.289,0-.589,0-.881l-.012-.2.016-.167a6.129,6.129,0,0,0,.467-1.668c.049-.293.091-.588.138-.88s.1-.581.17-.86a9.35,9.35,0,0,0,.183-1.368c.051-.474.306-.238.477-.294v-.745a.7.7,0,0,1-.311-.659l.055-.376.086-.331c.123-.469.232-.944.333-1.423.2-.958.366-1.931.534-2.9.085-.486.17-.972.26-1.455.043-.232.121-.291.21-.3l.138.011.135,0v-.743l-.071-.076-.157-.2c.24-1.488.4-3.005.645-4.494.082-.5.173-.988.281-1.476.059-.272.133-.377.217-.416A.987.987,0,0,1,148.1,9.6V8.85c.026-1.179-.165-2.417.412-3.447a1.1,1.1,0,0,0,.063-.507c-.095-1.59.485-2.907.731-4.356.026-.157.222-.3.209-.41L149.509,0h-.887a6.114,6.114,0,0,0-.053,1.319c.014.187-.136.4-.2.607a2.749,2.749,0,0,0-.251.938,9.668,9.668,0,0,1-.5,3.23c-.148.71-.275,1.432-.443,2.131a6.065,6.065,0,0,0-.283,2.055,4.222,4.222,0,0,1-.008,1.291c-.329,1.343-.65,2.7-.868,4.084a33.512,33.512,0,0,0-.805,5.629,5.876,5.876,0,0,1-.145.645c-.17,1.544-.826,2.878-.807,4.5-.424.566-.054,1.465-.315,2.021a5.637,5.637,0,0,0-.415,2.537,3.115,3.115,0,0,1-.159.634,24.435,24.435,0,0,0-.8,5.257,3.145,3.145,0,0,1-.215.784,3.011,3.011,0,0,0-.237.948,10.448,10.448,0,0,1-.492,3.23c-.147.778-.246,1.578-.373,2.365-.181,1.119-.321,2.247-.548,3.359a8.814,8.814,0,0,0,0,3.3c.205.989.4,1.974.551,2.989a1.411,1.411,0,0,0,.172.622c.684.728.509,2.236,1.151,2.988,0,1.5,1.024,2.311,1.046,3.791.527.548.366,1.652.766,2.3a10.119,10.119,0,0,1,.849,2.43,13.92,13.92,0,0,0,.93,2.757,8.009,8.009,0,0,1,.741,2.5,8.016,8.016,0,0,0,.446,1.384,8.67,8.67,0,0,1,.71,1.95c.12,1.073.759,1.765.752,2.876,1,1.649,1.13,4.026,2.012,5.773l.14.272c-.192.827.485,1.061.487,1.741a3.515,3.515,0,0,0,.635,1.832,2.621,2.621,0,0,1,.307,1.085,1.677,1.677,0,0,0,.293.941,13.752,13.752,0,0,1,1.121,3c.22.64.366,1.355.64,2.006s.265,1.576.7,2.152l.139.453a2.219,2.219,0,0,0,.538,1.715,1.2,1.2,0,0,1,.18.614,1.975,1.975,0,0,0,.414,1.423,1.888,1.888,0,0,1,.309.723,6.781,6.781,0,0,0,.967,2.728c-.208,1.293.619,1.949.787,3.034.082.529.629.975.613,1.429-.035.95.5,1.307.656,2.028a4.943,4.943,0,0,0,.252.772h.973c-.124-.3-.249-.6-.373-.9A20.72,20.72,0,0,1,159.62,107.447Z" fill="#d9bd57"/>
    <path d="M150.592,0a10.018,10.018,0,0,0-.322,1.1c-.193,1.06-.329,2.144-.49,3.217-.239,1.581-.421,3.188-.739,4.731-.248,1.205-.564,2.372-.706,3.632-.135,1.205-.3,2.4-.481,3.593a19.159,19.159,0,0,1-.414,1.962c-.171.654-.229,1.352-.359,2-.276,1.39-.342,2.846-.653,4.219-.222.974-.286,2.02-.575,2.977a7.757,7.757,0,0,0-.376,1.977,44.047,44.047,0,0,1-1.015,6.423c-.156.891-.313,1.779-.451,2.68-.269,1.749-.484,3.531-.83,5.231-.248,1.217-.509,2.41-.644,3.669l-.2.134v.744c-.091.367.222.942-.239,1.116.08.621.16,1.24.239,1.861.391.436.24,1.3.553,1.756a6.233,6.233,0,0,1,.645,1.64,11.482,11.482,0,0,1,.516,1.907,24.824,24.824,0,0,0,.967,2.715c.419,1.589,1.03,3.059,1.478,4.625.557,1.948,1.326,3.719,1.846,5.689.254.96.722,1.809.91,2.752a14.562,14.562,0,0,1,.767,2.862l.059.145c.791,1.185.969,2.838,1.417,4.29a28.272,28.272,0,0,0,.976,2.713c.519,1.219.814,2.585,1.245,3.855.362,1.069.787,2.084,1.1,3.193a25.581,25.581,0,0,0,.98,3.264c.728,1.629,1.031,3.577,1.78,5.2.316.686.442,1.682.716,2.5s.577,1.61.839,2.435.417,1.739.738,2.493c.7,1.649,1.07,3.541,1.694,5.228.083.224.164.436.24.648H267.14V0Z" fill="#d47c6a"/>
    <path d="M90.74,85.7V97.4c0,1.438.016,2.878,0,4.316-.005.479,0,.958-.017,1.437s-.015.975,0,1.458c.046,1.45.207,2.882.254,4.33l.14,0,.145.012c.091-.006.168-.067.19-.3l.007-.231c0-.23,0-.465,0-.7V81.137c0-.232.007-.465,0-.7l-.007-.231c-.022-.239-.1-.3-.19-.3l-.145.012-.14,0c.062.968-.341,1.815-.257,2.819C90.8,83.708,90.74,84.71,90.74,85.7Z" fill="#c0a74c"/>
    <path d="M159.874,105.3c-.321-.754-.478-1.671-.738-2.493s-.566-1.619-.839-2.435-.4-1.81-.716-2.5c-.749-1.623-1.052-3.571-1.78-5.2a25.581,25.581,0,0,1-.98-3.264c-.315-1.109-.74-2.124-1.1-3.193-.431-1.27-.726-2.636-1.245-3.855a28.272,28.272,0,0,1-.976-2.713c-.448-1.452-.626-3.105-1.417-4.29l-.059-.145a14.562,14.562,0,0,0-.767-2.862c-.188-.943-.656-1.792-.91-2.752-.52-1.97-1.289-3.741-1.846-5.689-.448-1.566-1.059-3.036-1.478-4.625a24.824,24.824,0,0,1-.967-2.715,11.482,11.482,0,0,0-.516-1.907,6.233,6.233,0,0,0-.645-1.64c-.313-.454-.162-1.32-.553-1.756a1.044,1.044,0,0,0-.2.34,1.751,1.751,0,0,0,.085,1.15c.093.277.174.564.252.853q.087.327.175.653a8.387,8.387,0,0,0,.428,1.238,3.727,3.727,0,0,0,.3.544,1.81,1.81,0,0,1,.15,1.152l.008.4v.372l.126.025c.136.019.285.034.3.112a11.455,11.455,0,0,0,.3,1.161c.232.748.515,1.455.778,2.177.131.362.257.727.367,1.1l.05.219c.031.212-.012.385-.24.41.037.283-.119.713.24.745.171.055.395-.168.484.291a8.645,8.645,0,0,0,.234.913c.181.589.4,1.153.571,1.762a7.67,7.67,0,0,1,.2.955,3.488,3.488,0,0,0,.138.586,7.852,7.852,0,0,0,.773,1.588,2.514,2.514,0,0,1,.237,1.346V72.1c.479.068.479.068.479,1.116v.372c.175.085.447.089.511.27a17.5,17.5,0,0,1,.81,2.8,8.738,8.738,0,0,1,.12,1.022v.373l.125-.019.1.026a3.2,3.2,0,0,1,.738,2.224v.745c.48.068.48.068.48,1.116v.372c.148.044.419.061.426.135a1.888,1.888,0,0,0,.265.746,4.267,4.267,0,0,1,.229.465l.073.256a1.423,1.423,0,0,1-.026.619l.074.31a1.482,1.482,0,0,1,.333.453,3.351,3.351,0,0,1,.211.568c.114.4.194.834.332,1.213.346.952.67,1.921.983,2.9s.618,1.964.919,2.948a13.088,13.088,0,0,0,.6,1.668,9.343,9.343,0,0,0,.585,1.688l.129.33c.059.262.079.591.133.874a1.491,1.491,0,0,0,.115.38,11.538,11.538,0,0,1,.762,2.169,13.859,13.859,0,0,0,1.258,3.608,5.533,5.533,0,0,0,.338,1.324,8.066,8.066,0,0,1,.392,1.3,3.377,3.377,0,0,1,.033.981,20.72,20.72,0,0,0,.986,2.821c.124.3.249.6.373.9h.829c-.076-.212-.157-.424-.24-.648C160.944,108.837,160.575,106.945,159.874,105.3Z" fill="#c2a44f"/>
    <path d="M149.313,3.47c-.324,1.028-.344,2.219-.664,3.282a9.57,9.57,0,0,0-.076,1.806c-.033.474-.3.238-.472.292V9.6a8.966,8.966,0,0,1-.377,3.093,11.525,11.525,0,0,0-.467,2.459c-.037.287-.076.574-.125.851l-.094.156-.138.139v.743a21.223,21.223,0,0,0-.222,2.241,3.031,3.031,0,0,1-.05.536c-.091.5-.282.932-.358,1.417-.08.5-.156,1-.247,1.5s-.194.981-.329,1.455l-.1.159-.134.135v.745a12.812,12.812,0,0,1-.151,2.184c-.1.712-.247,1.411-.379,2.1s-.229,1.373-.354,2.06a11.907,11.907,0,0,1-.508,2,4.823,4.823,0,0,0-.045,1.443,1.892,1.892,0,0,1-.294,1.3,1.384,1.384,0,0,0-.177.786,7,7,0,0,1-.3,2.445c-.072.247-.152.486-.236.716a6.559,6.559,0,0,0-.162,1.293l-.125.38a1.469,1.469,0,0,0-.163.6c-.027.316.009.655.007.988l-.016.332a1.576,1.576,0,0,1-.2.629,1.851,1.851,0,0,0-.174.426,4.929,4.929,0,0,0-.094,1.487c.01.23.02.458.023.679,0,.161.15.318.229.476l.2-.134c.135-1.259.4-2.452.644-3.669.346-1.7.561-3.482.83-5.231.138-.9.3-1.789.451-2.68a44.047,44.047,0,0,0,1.015-6.423,7.757,7.757,0,0,1,.376-1.977c.289-.957.353-2,.575-2.977.311-1.373.377-2.829.653-4.219.13-.652.188-1.35.359-2a19.159,19.159,0,0,0,.414-1.962c.182-1.19.346-2.388.481-3.593.142-1.26.458-2.427.706-3.632.318-1.543.5-3.15.739-4.731.161-1.073.3-2.157.49-3.217a10.018,10.018,0,0,1,.322-1.1h-.662a5.371,5.371,0,0,1-.277,1.1C149.394,1.788,149.561,2.693,149.313,3.47Z" fill="#c2a34f"/>
    <path d="M142.088,46.39a4.929,4.929,0,0,1,.094-1.487,1.851,1.851,0,0,1,.174-.426,1.576,1.576,0,0,0,.2-.629l.016-.332c0-.333-.034-.672-.007-.988a1.469,1.469,0,0,1,.163-.6l.125-.38a6.559,6.559,0,0,1,.162-1.293c.084-.23.164-.469.236-.716a7,7,0,0,0,.3-2.445,1.384,1.384,0,0,1,.177-.786,1.892,1.892,0,0,0,.294-1.3,4.823,4.823,0,0,1,.045-1.443,11.907,11.907,0,0,0,.508-2c.125-.687.224-1.385.354-2.06s.274-1.387.379-2.1a12.812,12.812,0,0,0,.151-2.184c-.171.056-.426-.18-.477.294a9.35,9.35,0,0,1-.183,1.368c-.071.279-.123.568-.17.86s-.089.587-.138.88a6.129,6.129,0,0,1-.467,1.668l-.016.167.012.2c0,.292.01.592,0,.881a2.418,2.418,0,0,1-.137.816,1.31,1.31,0,0,1-.3.457l-.055.289,0,.209.007.2a6.929,6.929,0,0,1-.02.793c-.02.259-.052.513-.093.764-.082.5-.2,1-.318,1.508-.034.147-.071.3-.11.442-.078.3-.162.595-.238.9a5.976,5.976,0,0,0-.2,2.413l-.04.326-.138.28-.184.281-.1.321a2.526,2.526,0,0,0,0,.706,3.905,3.905,0,0,1,.026.6,5.143,5.143,0,0,1-.052.574,9.7,9.7,0,0,1-.236,1.081,15.152,15.152,0,0,0-.388,1.854,9.672,9.672,0,0,0-.078,1.935l.011.151a.833.833,0,0,1-.019.394,1.353,1.353,0,0,0-.191,1.028,2.7,2.7,0,0,0,.116.407c.173.483.062,1.2.205,1.72.245.9.507,1.78.77,2.664s.529,1.766.781,2.657l.1.22.123.065.131-.005.066,0,.065.005-.008-.4a1.81,1.81,0,0,0-.15-1.152,3.727,3.727,0,0,1-.3-.544,8.387,8.387,0,0,1-.428-1.238q-.088-.325-.175-.653c-.078-.289-.159-.576-.252-.853a1.751,1.751,0,0,1-.085-1.15,1.044,1.044,0,0,1,.2-.34c-.079-.621-.159-1.24-.239-1.861-.4-.06-.243-.548-.227-.834.023-.453.3-.23.466-.282v-.744c-.079-.158-.227-.315-.229-.476C142.108,46.848,142.1,46.62,142.088,46.39Z" fill="#cdb252"/>
    <path d="M151.566,83.636c.1.34.234.662.336,1.018.457,1.574,1.011,3.078,1.522,4.592.3.89.593,1.791.892,2.687s.606,1.789.934,2.663c.8,2.127,1.325,4.485,2.139,6.617.147.389.187.872.316,1.282.153.491.3.989.461,1.478s.325.967.518,1.422l.17.413a3.882,3.882,0,0,1,.295,1.344l.056.239.121.067.151-.014.143,0a3.377,3.377,0,0,0-.033-.981,8.066,8.066,0,0,0-.392-1.3,5.533,5.533,0,0,1-.338-1.324,13.859,13.859,0,0,1-1.258-3.608,11.538,11.538,0,0,0-.762-2.169,1.491,1.491,0,0,1-.115-.38c-.054-.283-.074-.612-.133-.874l-.129-.33a9.343,9.343,0,0,1-.585-1.688,13.088,13.088,0,0,1-.6-1.668c-.3-.984-.6-1.97-.919-2.948s-.637-1.945-.983-2.9c-.138-.379-.218-.812-.332-1.213a3.351,3.351,0,0,0-.211-.568,1.482,1.482,0,0,0-.333-.453l-.074-.31a1.423,1.423,0,0,0,.026-.619l-.073-.256a4.267,4.267,0,0,0-.229-.465,1.888,1.888,0,0,1-.265-.746c-.007-.074-.278-.091-.426-.135A2.761,2.761,0,0,0,151.566,83.636Z" fill="#cdb252"/>
    <path d="M149.307.54c-.246,1.449-.826,2.766-.731,4.356a1.1,1.1,0,0,1-.063.507c-.577,1.03-.386,2.268-.412,3.447.17-.054.439.182.472-.292a9.57,9.57,0,0,1,.076-1.806c.32-1.063.34-2.254.664-3.282.248-.777.081-1.682.34-2.374A5.371,5.371,0,0,0,149.93,0h-.421l.007.13C149.529.241,149.333.383,149.307.54Z" fill="#cdb252"/>
    <path d="M145.694,24.183c.135-.474.239-.959.329-1.455s.167-1,.247-1.5c.076-.485.267-.913.358-1.417a3.031,3.031,0,0,0,.05-.536,21.223,21.223,0,0,1,.222-2.241l-.135,0-.138-.011c-.089.009-.167.068-.21.3-.09.483-.175.969-.26,1.455-.168.972-.333,1.945-.534,2.9-.1.479-.21.954-.333,1.423l-.086.331-.055.376a.7.7,0,0,0,.311.659l.134-.135Z" fill="#cdb252"/>
    <path d="M145.6,65.123a9.288,9.288,0,0,0,.5,1.353c.063.146.126.289.188.435a8.154,8.154,0,0,1,.325.9,4.622,4.622,0,0,1,.176.995,2.7,2.7,0,0,0,.109.612c.166.554.468.967.6,1.544.065.292.229.4.413.416l.191-.018a2.514,2.514,0,0,0-.237-1.346,7.852,7.852,0,0,1-.773-1.588,3.488,3.488,0,0,1-.138-.586,7.67,7.67,0,0,0-.2-.955c-.17-.609-.39-1.173-.571-1.762a8.645,8.645,0,0,1-.234-.913c-.089-.459-.313-.236-.484-.291.018.2.025.4.043.595A3.449,3.449,0,0,0,145.6,65.123Z" fill="#cdb252"/>
    <path d="M147.132,16c.049-.277.088-.564.125-.851a11.525,11.525,0,0,1,.467-2.459A8.966,8.966,0,0,0,148.1,9.6a.987.987,0,0,0-.286.032c-.084.039-.158.144-.217.416-.108.488-.2.98-.281,1.476-.246,1.489-.405,3.006-.645,4.494l.157.2.071.076.138-.139Z" fill="#cdb252"/>
    <path d="M143.555,58.86a3.308,3.308,0,0,1,.191.478c.157.5.233,1.039.374,1.541a9.133,9.133,0,0,0,.341.972c.127.315.265.621.4.928l.164.215.2.177c.228-.025.271-.2.24-.41l-.05-.219c-.11-.377-.236-.742-.367-1.1-.263-.722-.546-1.429-.778-2.177a11.455,11.455,0,0,1-.3-1.161c-.016-.078-.165-.093-.3-.112l-.126-.025c0,.229-.045.511-.027.718Z" fill="#cdb252"/>
    <path d="M148.954,75.588c.1.184.229.388.346.609a2.143,2.143,0,0,1,.279,1.358l.442.127a8.738,8.738,0,0,0-.12-1.022,17.5,17.5,0,0,0-.81-2.8c-.064-.181-.336-.185-.511-.27a5.156,5.156,0,0,0,.161,1.506A2.644,2.644,0,0,0,148.954,75.588Z" fill="#cdb252"/>
    <path d="M150.03,78.751c.235.622.211,1.659.95,1.535a3.2,3.2,0,0,0-.738-2.224l-.1-.026-.125.019A2.423,2.423,0,0,0,150.03,78.751Z" fill="#cdb252"/>
    <path d="M148.58,73.218c0-1.048,0-1.048-.479-1.116C148.1,73.148,148.1,73.148,148.58,73.218Z" fill="#cdb252"/>
    <path d="M151.46,82.147c0-1.048,0-1.048-.48-1.116C150.98,82.079,150.98,82.079,151.46,82.147Z" fill="#cdb252"/>
    <path d="M141.874,48.571c-.016.286-.169.774.227.834.461-.174.148-.749.239-1.116C142.17,48.341,141.9,48.118,141.874,48.571Z" fill="#c2a34f"/>
  </g>
</svg>
