<?xml version="1.0" encoding="utf-8"?>
<!-- Generator: Adobe Illustrator 25.0.0, SVG Export Plug-In . SVG Version: 6.00 Build 0)  -->
<svg version="1.1" xmlns="http://www.w3.org/2000/svg" xmlns:xlink="http://www.w3.org/1999/xlink" x="0px" y="0px" width="795.9px"
	 height="454.8px" viewBox="0 0 795.9 454.8" style="enable-background:new 0 0 795.9 454.8;" xml:space="preserve">
<style type="text/css">
	.st0{fill:#FFFFFF;}
	.st1{fill:#0C1F19;}
	.st2{fill:#3E3E3E;}
	.st3{fill:#848484;}
	.st4{fill:#BFBFBF;}
	.st5{fill:#255D4C;}
	.st6{fill:#51A289;}
	.st7{fill:#9A9A9A;}
	.st8{fill:#0C1E19;}
	.st9{fill:#3D3D3D;}
	.st10{fill:#818181;}
	.st11{fill:#BCBCBC;}
	.st12{fill:#245B4A;}
	.st13{fill:#4F9F87;}
	.st14{fill:#979797;}
	.st15{fill:#FFF5E0;}
	.st16{fill:#FFEBC2;}
	.st17{fill:#FFCC66;}
	.st18{fill:#0E221C;}
	.st19{fill:#1B4438;}
	.st20{fill:#666666;}
	.st21{fill:#B3B3B3;}
	.st22{fill:#F2F2F2;}
	.st23{fill:#36886F;}
	.st24{fill:#6AD5B4;}
	.st25{fill:#CCCCCC;}
</style>
<g id="Back_of_the_back">
	<rect y="364.7" class="st0" width="795.9" height="90.1"/>
	<g>
		<g id="Layer_2_2_">
			<g id="Layer_7_1_">
				<polygon points="512.9,369.7 523.2,349.9 526.4,345.4 530,335.5 540.9,318.3 534.3,378.8 				"/>
				<polygon points="540.9,318.3 548.6,339.1 552.8,353.4 567.9,375.9 534.3,378.8 				"/>
				<polygon points="532.7,358.7 539.7,329.8 542.6,329.8 547.8,322.6 554.4,308.3 554.4,381.2 532.7,358.7 				"/>
				<polygon points="554.1,306.2 577,341 578,346.9 554.1,383 				"/>
				<polygon points="557.2,384.4 591.2,322.8 593.6,313 595.1,356.5 589.9,392.3 				"/>
				<polygon points="589.9,392.3 625.8,371.4 615.4,347.7 607.8,341 593.6,313 595.1,356.5 				"/>
				<polygon points="627.7,365 615.5,346.3 620.7,336.5 623.7,337.9 627.7,329 630,369.1 				"/>
				<polygon points="630,369.1 634.2,366.9 640.3,368 631.2,333.9 627.7,329 				"/>
				<polygon class="st1" points="592.3,377.4 606.1,350.8 610.4,344.7 615.2,331.4 629.9,308.3 621.1,389.5 				"/>
				<polygon class="st1" points="629.9,308.3 640.2,336.3 645.8,355.5 666.1,385.7 621.1,389.5 				"/>
				<polygon class="st1" points="645.8,355.5 652.7,327.3 655.5,327.3 660.5,320.2 666.9,306.3 666.9,377.4 645.8,355.5 				"/>
				<polygon class="st1" points="666.9,306.3 688.1,338.6 689,344 666.9,377.4 				"/>
				<polygon class="st1" points="669,380.3 700.5,323.3 702.8,314.2 704.2,354.5 699.3,387.7 				"/>
				<polygon class="st1" points="699.3,388.5 732.5,369.1 723,347.2 715.9,341 702.8,315 704.2,355.4 				"/>
				<polygon class="st1" points="596.7,365.5 608,348.1 603.2,339 600.3,340.3 596.7,332.1 594.6,369.3 				"/>
				<polygon class="st1" points="594.6,369.3 590.6,367.2 585,368.2 593.4,336.6 596.7,332.1 				"/>
				<polygon class="st1" points="734.3,362.4 723.1,345 727.9,335.9 730.7,337.2 734.3,329 736.5,366.2 				"/>
				<polygon class="st1" points="736.5,366.2 740.4,364.1 746,365.2 737.6,333.5 734.3,329 				"/>
				<path class="st2" d="M540.7,317.7l-3.6,5.6l-1.6,2.5l0,0l-0.3,0.5c-0.1,0.2,0,0.4,0.2,0.5c0.1,0,0.2,0,0.3,0l0.7-0.3
					c0.2-0.1,0.4,0,0.5,0.2c0,0.1,0,0.1,0,0.2l-0.2,0.7c0,0.2,0.1,0.4,0.3,0.4c0.1,0,0.3,0,0.3-0.1l0,0c0.1-0.2,0.3-0.2,0.5,0
					c0.1,0.1,0.1,0.1,0.1,0.2l0.4,3c0,0.1,0,0.1,0.1,0.2l0.4,0.5c0.1,0.1,0.3,0.2,0.5,0c0.1-0.1,0.1-0.1,0.1-0.2L540.7,317.7z"/>
				<path class="st3" d="M540.7,317.7l3.5,7.3c0,0,0,0.1,0,0.1v2.4c0,0.1-0.1,0.2-0.2,0.2c-0.1,0-0.1,0-0.2-0.1l-0.6-0.9l-0.1,0
					l-0.6-0.6c-0.1-0.1-0.2-0.1-0.3,0c0,0-0.1,0.1,0,0.2l0.2,2.2c0,0.2-0.1,0.3-0.3,0.3c-0.1,0-0.2,0-0.2-0.1l0,0
					c-0.1-0.1-0.3-0.1-0.4,0c-0.1,0.1-0.1,0.1-0.1,0.2l0.1,2.2l0,0l0.3,2.4c0,0.1-0.1,0.2-0.2,0.2c-0.1,0-0.1,0-0.2-0.1l-0.8-1.1
					c-0.1-0.1-0.2-0.1-0.3-0.1c0,0-0.1,0-0.1,0.1l-0.7,1.7c0,0.1-0.2,0.2-0.3,0.1c-0.1,0-0.1-0.1-0.1-0.2L540.7,317.7z"/>
				<path class="st2" d="M708.8,326.9l-0.3,1.4c0,0.1-0.1,0.3-0.3,0.3s-0.3-0.1-0.3-0.3l-0.5-1.4c-0.1-0.3-0.5-0.2-0.5,0.1l0,0
					c0,0.3-0.4,0.4-0.5,0.1l-0.8-1.8c-0.1-0.1-0.2-0.2-0.3-0.1c-0.1,0-0.1,0.1-0.1,0.1l-0.3,0.5c0,0.1,0,0.1,0,0.2v4.5l-2-17.6
					l4.1,5.8c0,0,0,0.1,0,0.1l1.7,6"/>
				<path class="st3" d="M702.9,313l-1.1,3.3v0.1l-0.5,2c0,0.1-0.1,0.3-0.3,0.3l-1.8,0.9c-0.1,0-0.2,0.1-0.2,0.2l-1.1,2.3
					c-0.2,0.4,0.2,0.9,0.5,0.7l0.6-0.3c0.3-0.1,0.5,0.1,0.6,0.4l0.2,1.8c0,0.2,0.2,0.4,0.5,0.4c0,0,0.1,0,0.1,0l0.4-0.1
					c0.2-0.1,0.4,0.1,0.5,0.3c0,0,0,0,0,0l0.6,1.6c0,0.2,0.3,0.4,0.5,0.3c0.1,0,0.2-0.1,0.3-0.2l0,0c0.1-0.2,0.4-0.2,0.5-0.1
					c0.1,0.1,0.2,0.2,0.2,0.3l0.3,0.9c0,0.2,0.3,0.4,0.5,0.3c0.2,0,0.3-0.2,0.3-0.4l0.1-0.6c0-0.1,0-0.1,0-0.2L702.9,313z"/>
				<path class="st2" d="M666.7,305.1l6.5,10.8l0,0l1,0.9l0,0l1.6,1.1c0,0,0.1,0.1,0.1,0.1l1.6,5.3c0,0.1-0.1,0.3-0.2,0.2l-1.1-0.9
					c-0.1,0-0.2,0-0.2,0c0,0,0,0.1,0,0.1l0.3,2.5c0,0.2-0.2,0.3-0.3,0.1l-2.3-5c0-0.1-0.1-0.1-0.2-0.1c0,0,0,0-0.1,0.1l-0.6,0.9
					c-0.1,0.1-0.2,0.1-0.2,0l-1.7-4.2c-0.1-0.2-0.3-0.1-0.3,0.1l0.5,4.8c0,0.1,0,0.2-0.1,0.2s-0.2,0-0.2-0.1l-0.5-1.5
					c0,0,0-0.1-0.1-0.1l-1.1-0.4c-0.1,0-0.2,0-0.2,0.1c0,0,0,0,0,0v4.7c0,0.1,0,0.2-0.1,0.2c-0.1,0-0.2,0-0.2-0.1c0,0,0,0,0-0.1
					L666.7,305.1z"/>
				<path class="st4" d="M666.7,305.1L661,317c0,0.1,0,0.1,0,0.2l0.2,1.1c0,0.2,0.2,0.2,0.3,0.1l1.7-1.6c0.2-0.1,0.4,0,0.3,0.3
					l-0.9,3.3c-0.1,0.2,0.2,0.4,0.3,0.3l1.6-1.3c0,0,0.1-0.1,0.1-0.1l0.9-3.1c0.1-0.2,0.4-0.2,0.4,0.1l0.3,2.7
					c0,0.2,0.2,0.3,0.3,0.1l0,0c0.1-0.1,0.3,0,0.3,0.2l-0.2,5.2c0,0.2,0.3,0.4,0.4,0.2l0.5-0.8c0.1-0.1,0.2-0.1,0.3-0.1
					c0.1,0,0.1,0.1,0.1,0.2l0.1,0.5c0,0.3,0.4,0.3,0.4,0l0.1-1.1c0,0,0,0,0-0.1L666.7,305.1z"/>
				<path class="st3" d="M554,305l4.2,6.7l1.5,2.4l2.3,4.2c0,0,0,0.1,0,0.1l-0.2,0.9c-0.1,0.1-0.2,0.2-0.4,0.1c0,0-0.1,0-0.1-0.1
					l-1.3-1.2c-0.1-0.1-0.3-0.1-0.4,0c0,0,0,0,0,0.1l-0.5,1.9c-0.1,0.1-0.2,0.2-0.3,0.2c-0.1,0-0.1-0.1-0.1-0.1l-1.7-2.9
					c-0.1-0.1-0.3-0.2-0.4-0.1c0,0-0.1,0.1-0.1,0.1l-0.4,1.8c-0.1,0.1-0.2,0.2-0.4,0.2c0,0-0.1,0-0.1-0.1l-1.2-1.2
					c0,0-0.1-0.1-0.1-0.1L554,305z"/>
				<path class="st2" d="M554.1,305l-2.1,6.2c-0.1,0.2,0.1,0.4,0.3,0.3l0,0c0.2-0.1,0.4,0.1,0.3,0.3l-3,5.2
					c-0.1,0.2,0.1,0.4,0.3,0.3l1.5-0.9c0.1-0.1,0.2,0,0.3,0.1c0,0,0,0.1,0,0.1l-0.4,5.6c0,0.1,0,0.2,0.1,0.2c0.1,0,0.2,0,0.2-0.1
					l0,0l1.1-3.9c0-0.1,0.1-0.2,0.2-0.2c0.1,0,0.2,0.1,0.2,0.2l0.1,0.6c0,0.1,0.1,0.2,0.2,0.2c0.1,0,0.2-0.1,0.2-0.2l0.9-2.8
					c0,0,0-0.1,0-0.1L554.1,305z"/>
				<path class="st2" d="M593.7,312.1l-2,7.2l0,0l-0.3,0.6l0,0l-0.5,0.8c0,0,0,0,0,0.1l-0.4,3.5c0,0.1,0,0.2,0.1,0.1l0.3-0.6
					c0-0.1,0.1,0,0.1,0.1l-0.1,1.6c0,0.1,0.1,0.2,0.1,0l0.7-3.3c0-0.1,0.1-0.1,0.1,0l0.2,0.5c0,0.1,0.1,0,0.1,0l0.5-2.7
					c0-0.1,0.1-0.1,0.1,0l-0.1,3.1c0,0.1,0.1,0.2,0.1,0l0.1-1c0,0,0,0,0-0.1l0.4-0.3c0,0,0.1,0,0.1,0.1l0.1,3c0,0.1,0.1,0.1,0.1,0
					L593.7,312.1z"/>
				<path class="st3" d="M593.7,312.1l3.5,6.6c0,0,0,0.1,0,0.1l-0.1,0.6c0,0.1-0.1,0.1-0.2,0.1l-0.9-0.9c-0.1-0.1-0.2,0-0.2,0.2
					l0.6,1.9c0,0.1-0.1,0.2-0.1,0.2l-0.9-0.7c0,0,0,0,0-0.1l-0.6-1.7c0-0.1-0.2-0.1-0.2,0.1l-0.1,1.6c0,0.1-0.1,0.2-0.2,0.1l0,0
					c-0.1-0.1-0.2,0-0.2,0.1l0.3,3c0,0.1-0.1,0.2-0.2,0.1l-0.3-0.4c-0.1-0.1-0.2,0-0.2,0.1v0.3c0,0.2-0.2,0.2-0.2,0l-0.1-0.6l0,0
					L593.7,312.1z"/>
				<g id="Range__1_">
					<polygon class="st5" points="523,394.5 543.5,354.9 549.9,345.8 557.1,326.1 578.9,291.6 565.8,412.5 					"/>
					<polygon class="st6" points="578.9,291.6 594.3,333.3 600.3,340.3 632.9,406.8 565.8,412.5 					"/>
					<polygon class="st5" points="603.2,360.4 612.8,319.9 617,319.9 624.6,309.4 634,288.6 634,394.5 603.2,360.4 					"/>
					<polygon class="st6" points="634,288.6 665.6,336.7 667,344.8 634,394.5 					"/>
					<polygon class="st6" points="637.2,398.8 684,314 687.4,300.4 689.5,360.4 697.9,412.5 					"/>
					<polygon class="st5" points="697.9,412.5 731.7,380.9 717.5,348.3 707,339.1 687.4,300.4 689.5,360.4 					"/>
					<polygon class="st6" points="529.5,376.7 546.3,350.9 539.1,337.4 535,339.3 529.5,327.1 526.4,382.4 					"/>
					<polygon class="st5" points="526.4,382.4 520.5,379.3 512.2,380.9 524.7,333.8 529.5,327.1 					"/>
					<polygon class="st6" points="734.4,372.1 717.6,346.3 724.7,332.8 728.9,334.7 734.4,322.5 737.5,377.8 					"/>
					<polygon class="st5" points="737.5,377.8 743.4,374.7 751.7,376.2 739.2,329.2 734.4,322.5 					"/>
				</g>
			</g>
			<g id="Layer_10_1_">
				<g id="main_tops_1_">
					<path class="st7" d="M578.9,288.6l-8.8,13.6l-4.1,6c0,0,0,0,0,0.1l-0.6,1.1c-0.2,0.4,0,0.9,0.4,1.2c0.2,0.1,0.4,0.1,0.7,0
						l1.7-0.6c0.4-0.2,0.9,0.1,1.1,0.5c0.1,0.2,0.1,0.3,0,0.5l-0.4,1.6c-0.1,0.5,0.2,0.9,0.6,1c0.3,0.1,0.6,0,0.8-0.3l0,0
						c0.3-0.4,0.9-0.4,1.2-0.1c0.2,0.1,0.3,0.3,0.3,0.5l0.9,7.2c0,0.2,0.1,0.3,0.2,0.4l1,1.3c0.3,0.4,0.9,0.4,1.2,0.1
						c0.2-0.1,0.3-0.3,0.3-0.6L578.9,288.6z"/>
					<path class="st4" d="M578.9,288.6l8.5,17.7c0,0.1,0.1,0.1,0.1,0.2v5.9c0,0.3-0.2,0.5-0.5,0.5c-0.2,0-0.3-0.1-0.4-0.2l-1.5-2.2
						c0,0-0.1-0.1-0.1-0.1l-1.7-1.4c-0.2-0.2-0.5-0.1-0.7,0.1c-0.1,0.1-0.1,0.2-0.1,0.4l0.6,5.5c0,0.4-0.2,0.7-0.6,0.8
						c-0.2,0-0.5-0.1-0.6-0.2l0,0c-0.3-0.3-0.7-0.3-1,0c-0.1,0.1-0.2,0.3-0.2,0.5l0.2,5.4l0,0l0.6,5.8c0,0.3-0.2,0.5-0.5,0.5
						c-0.1,0-0.3-0.1-0.4-0.2l-1.9-2.6c-0.2-0.2-0.5-0.3-0.7-0.1c-0.1,0.1-0.1,0.1-0.2,0.2l-1.8,4.1c-0.1,0.3-0.4,0.4-0.7,0.3
						c-0.2-0.1-0.3-0.3-0.3-0.5L578.9,288.6z"/>
					<path class="st7" d="M529.5,324.2l-8.6,11.8c0,0.1-0.1,0.1-0.1,0.2l-3,11.8c0,0.1,0,0.1,0,0.2l0.4,3.8c0,0,0,0.1,0,0.1l1,2.7
						c0.1,0.3,0.5,0.5,0.8,0.4c0.2-0.1,0.3-0.2,0.4-0.4l0.9-2.9c0.1-0.3,0.5-0.5,0.8-0.4c0.2,0.1,0.4,0.3,0.4,0.5l0,0
						c0,0.3,0.3,0.6,0.7,0.6c0.2,0,0.4-0.2,0.5-0.4l1.5-3.7c0.1-0.3,0.5-0.4,0.8-0.3c0.1,0,0.2,0.1,0.3,0.2l0.7,1
						c0.1,0.1,0.1,0.2,0.1,0.3l0.8,8.8L529.5,324.2z"/>
					<path class="st4" d="M529.5,324.2l3.1,6.2c0,0,0,0.1,0,0.1l1.5,3.7c0.1,0.3,0.3,0.5,0.6,0.6l4.4,1.4c0.2,0.1,0.4,0.2,0.5,0.4
						l2.8,4.4c0.3,0.5,0.2,1.1-0.3,1.3c-0.2,0.2-0.6,0.2-0.8,0.1l-1.4-0.5c-0.5-0.2-1.1,0.1-1.2,0.6c0,0.1,0,0.2,0,0.3l-0.2,3.6
						c0,0.5-0.5,1-1,0.9c0,0-0.1,0-0.1,0l-0.9-0.2c-0.5-0.1-1,0.2-1.1,0.6l-1.1,3.3c-0.2,0.5-0.7,0.8-1.2,0.6
						c-0.2-0.1-0.3-0.1-0.4-0.3l0,0c-0.4-0.4-1-0.4-1.4-0.1c-0.1,0.1-0.2,0.3-0.3,0.4l-0.5,1.7c-0.2,0.5-0.7,0.8-1.2,0.7
						c-0.3-0.1-0.6-0.3-0.7-0.7l-0.4-1.2c0-0.1,0-0.2,0-0.3L529.5,324.2z"/>
					<path class="st7" d="M634,286.4l-15.7,27.7l-0.1,0.1l-2.7,2.5l0,0l-4.3,3.1c-0.1,0.1-0.1,0.1-0.2,0.2l-3,13.1
						c-0.1,0.2,0.1,0.4,0.3,0.5c0.1,0,0.3,0,0.4-0.1l2.8-2.3c0.2-0.1,0.4-0.1,0.6,0.1c0.1,0.1,0.1,0.2,0.1,0.3l-0.1,6.1
						c0,0.2,0.2,0.4,0.4,0.4c0.2,0,0.3-0.1,0.4-0.2l5.2-12.7c0.1-0.2,0.3-0.3,0.5-0.2c0.1,0,0.1,0.1,0.1,0.1l1.8,1.9
						c0.2,0.2,0.4,0.2,0.6,0c0,0,0.1-0.1,0.1-0.2l3.7-10.5c0.1-0.2,0.3-0.3,0.5-0.3c0.2,0.1,0.3,0.2,0.3,0.4v11.7
						c0,0.2,0.2,0.4,0.4,0.4c0.2,0,0.3-0.1,0.4-0.3l1.1-3.7c0-0.1,0.1-0.2,0.3-0.3l3.4-1.3c0.2-0.1,0.4,0,0.5,0.2c0,0,0,0.1,0,0.1
						l1.3,11.3c0,0.2,0.3,0.4,0.5,0.3c0.2,0,0.3-0.2,0.3-0.4L634,286.4z"/>
					<path class="st4" d="M634,286.4l19.8,27.6c0.1,0.1,0.1,0.3,0.1,0.4l-0.4,2.7c-0.1,0.3-0.3,0.5-0.7,0.5c-0.1,0-0.1,0-0.2-0.1
						l-5.2-3.5c-0.3-0.2-0.6-0.1-0.8,0.1c-0.1,0.2-0.1,0.4-0.1,0.6l3.3,7.8c0.1,0.3,0,0.6-0.3,0.8c-0.2,0.1-0.4,0.1-0.5,0l-4.9-2.8
						c-0.1-0.1-0.2-0.2-0.2-0.3l-3.4-7.2c-0.1-0.3-0.5-0.4-0.8-0.3c-0.2,0.1-0.3,0.3-0.3,0.5l-0.1,6.6c0,0.3-0.3,0.6-0.6,0.6
						c-0.1,0-0.2,0-0.3-0.1l0,0c-0.3-0.2-0.6-0.1-0.8,0.1c-0.1,0.1-0.1,0.3-0.1,0.4l2.1,12.6c0,0.3-0.2,0.6-0.5,0.7
						c-0.2,0-0.4,0-0.5-0.2L637,332c-0.2-0.2-0.6-0.3-0.8-0.1c-0.1,0.1-0.2,0.3-0.2,0.4l-0.1,1.3c0,0.3-0.3,0.6-0.6,0.5
						c-0.2,0-0.4-0.2-0.5-0.4l-0.7-2.5c0-0.1,0-0.1,0-0.2V286.4z"/>
					<path class="st7" d="M687.5,297.4l8.6,16.8l3.2,6l4.8,10.4c0,0.1,0,0.2,0,0.3l-0.5,2.3c-0.1,0.3-0.4,0.4-0.7,0.4
						c-0.1,0-0.2-0.1-0.2-0.1l-2.8-3c-0.2-0.2-0.5-0.2-0.7,0c-0.1,0.1-0.1,0.1-0.1,0.2l-1,4.7c-0.1,0.3-0.3,0.5-0.6,0.4
						c-0.2,0-0.3-0.1-0.4-0.3l-3.6-7.2c-0.1-0.3-0.4-0.4-0.7-0.3c-0.2,0.1-0.3,0.2-0.3,0.4l-0.8,4.6c-0.1,0.3-0.3,0.5-0.6,0.4
						c-0.1,0-0.2-0.1-0.3-0.2l-2.4-2.9c-0.1-0.1-0.1-0.2-0.1-0.3L687.5,297.4z"/>
					<path class="st4" d="M687.5,297.4l-5.7,15.4c-0.1,0.3,0,0.6,0.3,0.7c0.1,0.1,0.3,0,0.4,0l0,0c0.3-0.1,0.6,0,0.7,0.2
						c0.1,0.2,0.1,0.4,0,0.5l-8.3,13c-0.2,0.3-0.1,0.6,0.2,0.7c0.2,0.1,0.4,0.1,0.5,0l4.1-2.2c0.3-0.1,0.6,0,0.7,0.2
						c0.1,0.1,0.1,0.2,0.1,0.3l-1.3,14c0,0.3,0.2,0.6,0.5,0.6c0.3,0,0.5-0.1,0.6-0.4l3.1-9.7c0.1-0.3,0.4-0.4,0.7-0.3
						c0.2,0.1,0.3,0.2,0.4,0.4l0.3,1.4c0.1,0.3,0.4,0.5,0.7,0.4c0.2,0,0.3-0.2,0.4-0.4l2.4-7c0-0.1,0-0.1,0-0.2L687.5,297.4z"/>
					<path class="st4" d="M733.9,321.4l-5.1,12c-0.1,0.2-0.3,0.3-0.5,0.2c0,0,0,0-0.1,0l-3.5-2.1c-0.2-0.1-0.4-0.1-0.5,0.1
						c0,0,0,0,0,0l-2.9,5.6c-0.1,0.2,0,0.4,0.2,0.5c0.1,0.1,0.3,0.1,0.4,0l1.6-1.2c0.2-0.1,0.4-0.1,0.6,0.1c0.1,0.1,0.1,0.3,0,0.4
						l-1.4,3.5c-0.1,0.2,0,0.4,0.2,0.5c0.1,0.1,0.3,0,0.4-0.1l5.1-5.2c0.2-0.2,0.4-0.1,0.6,0c0,0,0.1,0.1,0.1,0.2l1.8,5.6
						c0.1,0.2,0.3,0.3,0.5,0.3c0.1,0,0.2-0.1,0.2-0.2l1.3-2c0.1-0.2,0.4-0.2,0.6-0.1c0.1,0.1,0.1,0.1,0.2,0.2l1.3,4.9
						c0,0.2,0.2,0.4,0.5,0.3s0.4-0.2,0.3-0.5l-1.3-24.5L733.9,321.4z"/>
					<path class="st7" d="M734.4,320.1l5.2,7.9c0,0,0,0.1,0.1,0.1l2.9,8.8c0,0,0,0.1,0,0.1l0.8,5.9c0,0.3-0.2,0.6-0.5,0.6
						c-0.2,0-0.4-0.1-0.5-0.3l0,0c-0.1-0.3-0.4-0.4-0.7-0.3c-0.2,0.1-0.4,0.3-0.3,0.6l0.3,3.3c0,0.3-0.2,0.5-0.5,0.6
						c-0.2,0-0.4-0.1-0.5-0.3l-0.9-1.6c-0.1-0.3-0.5-0.4-0.7-0.2c-0.1,0.1-0.2,0.2-0.3,0.3l-0.7,2.2c-0.1,0.3-0.4,0.4-0.7,0.4
						c-0.2-0.1-0.3-0.2-0.4-0.4l-1.4-4.3v-0.1L734.4,320.1z"/>
				</g>
			</g>
			<g id="base_snow_1_">
				<path class="st0" d="M517.3,360.1l-7.2,12.4c-0.1,0-0.1,0-0.2,0h-3.3c-0.4,0-0.7,0.3-0.7,0.7V399c0,0.4,0.3,0.7,0.7,0.7h4.7
					c0.1,0,0.1,0,0.2,0l19.5,6.5l24.5,8.6c0.1,0,0.1,0.1,0.2,0.1l10.6,8.7c0.2,0.1,0.4,0.2,0.6,0.1l20.5-4.7h0.1l30.4-1.2h0.2
					l13.9,2.5c0.2,0,0.4,0,0.6-0.1l7.5-6c0.1-0.1,0.3-0.2,0.5-0.1l50.5,5.8c0.1,0,0.3,0,0.4-0.1l5-2.3c0.2-0.1,0.4-0.1,0.6,0
					l4.3,2.2c0.3,0.1,0.7,0.1,0.9-0.2l10.1-12.3l0.1-0.1l22.2-19.5l0.1-0.1l9.5-5.5c0.1-0.1,0.2-0.1,0.3-0.1h12.2
					c0.4,0,0.7-0.3,0.7-0.7c0,0,0,0,0,0v-5.8c0-0.2-0.1-0.4-0.2-0.5l-5.1-5.2c-0.1-0.1-0.3-0.2-0.5-0.2l-3.5-7.3
					c-0.4,0-0.7,0.3-0.7,0.7c0,0.1,0,0.1,0,0.2l1.2,11.3c0.1,0.4-0.1,0.7-0.5,0.9c-0.1,0-0.2,0-0.3,0l-4.1-0.7c-0.2,0-0.3,0-0.4,0.1
					l-5.3,2.2c-0.3,0.2-1.1-1-1.3-1.3L718,345.9c-0.2-0.3-3.9-2.2-4.2-2.1l0,0c-0.4,0.2-0.5,0.6-0.4,0.9c0,0.1,0.1,0.2,0.2,0.3
					l3.4,2.9c0.1,0.1,0.1,0.2,0.2,0.3l11.5,31.8c0.1,0.3,0,0.7-0.3,0.9l-30.4,31.6c-0.2,0.1-15.7-2.7-15.9-2.7l-43.1-10.9
					c-0.4-0.1-0.6-0.5-0.5-0.8c0-0.1,0-0.1,0.1-0.2l30.6-55c0.2-0.4,0.3-1.6,0-1.7c-0.3-0.1-2.2,1.3-2.4,1.6l-32,50.2
					c-0.2,0.3-0.6,0.4-1,0.2c0,0-0.1-0.1-0.1-0.1l-28.8-32c-0.3-0.3,1-10.6,0.8-10.3c-0.2,0.2-2.9,10-2.8,10.2l26.2,40.1
					c0.2,0.3,0.1,0.8-0.2,1c-0.1,0.1-0.2,0.1-0.3,0.1l-61.6,10.2c-0.1,0-0.2,0-0.3-0.1l-41.1-17.3c-0.4-0.1-0.5-0.6-0.4-0.9
					c0,0,0,0,0-0.1l18.3-37.5c0.2-0.4,3.4-5.5,3.1-5.6c-0.3-0.1-4.1,4.7-4.3,5l-15.2,24.7c-0.2,0.3-0.6,0.4-0.9,0.2l-5-1.6
					c-0.1-0.1-0.3-0.1-0.4-0.1l-4.9,1c-0.4,0.1-0.7-0.2-0.8-0.5c0-0.1,0-0.2,0-0.3l3.5-18.4c0.1-0.4-0.1-0.8-0.5-0.9
					C517.6,360,517.5,360,517.3,360.1z"/>
			</g>
		</g>
	</g>
	<g>
		<g id="Layer_2_3_">
			<g id="Layer_7_2_">
				<polygon points="37.2,374.4 47.5,354.5 50.7,350 54.3,340.1 65.2,322.9 58.6,383.4 				"/>
				<polygon points="65.2,322.9 72.9,343.7 77,358 92.2,380.5 58.6,383.4 				"/>
				<polygon points="57,363.4 64,334.4 66.9,334.4 72.1,327.2 78.7,312.9 78.7,385.8 57,363.4 				"/>
				<polygon points="78.4,310.8 101.3,345.6 102.3,351.6 78.4,387.6 				"/>
				<polygon points="81.5,389 115.5,327.4 117.9,317.6 119.4,361.1 114.2,396.9 				"/>
				<polygon points="114.2,396.9 150.1,376 139.7,352.3 132.1,345.6 117.9,317.6 119.4,361.1 				"/>
				<polygon points="152,369.6 139.8,350.9 145,341.1 148,342.5 152,333.6 154.3,373.7 				"/>
				<polygon points="154.3,373.7 158.5,371.5 164.6,372.6 155.5,338.5 152,333.6 				"/>
				<polygon class="st8" points="116.6,382 130.4,355.4 134.7,349.3 139.5,336 154.2,312.9 145.4,394.1 				"/>
				<polygon class="st8" points="154.2,312.9 164.5,340.9 170.1,360.1 190.4,390.3 145.4,394.1 				"/>
				<polygon class="st8" points="170.1,360.1 177,331.9 179.7,331.9 184.8,324.8 191.2,310.9 191.2,382 170.1,360.1 				"/>
				<polygon class="st8" points="191.2,310.9 212.4,343.2 213.3,348.6 191.2,382 				"/>
				<polygon class="st8" points="193.3,384.9 224.8,327.9 227,318.8 228.5,359.1 223.6,392.3 				"/>
				<polygon class="st8" points="223.6,393.2 256.8,373.7 247.3,351.8 240.2,345.6 227,319.6 228.5,360 				"/>
				<polygon class="st8" points="121,370.1 132.3,352.7 127.4,343.7 124.6,345 121,336.7 118.9,373.9 				"/>
				<polygon class="st8" points="118.9,373.9 114.9,371.8 109.3,372.9 117.7,341.2 121,336.7 				"/>
				<polygon class="st8" points="258.6,367 247.4,349.6 252.2,340.6 255,341.9 258.6,333.6 260.8,370.8 				"/>
				<polygon class="st8" points="260.8,370.8 264.7,368.7 270.3,369.8 261.9,338.1 258.6,333.6 				"/>
				<path class="st9" d="M65,322.3l-3.6,5.6l-1.6,2.5l0,0l-0.3,0.5c-0.1,0.2,0,0.4,0.2,0.5c0.1,0,0.2,0,0.3,0l0.7-0.3
					c0.2-0.1,0.4,0,0.5,0.2c0,0.1,0,0.1,0,0.2l-0.2,0.7c0,0.2,0.1,0.4,0.3,0.4c0.1,0,0.3,0,0.3-0.1l0,0c0.1-0.2,0.3-0.2,0.5,0
					c0.1,0.1,0.1,0.1,0.1,0.2l0.4,3c0,0.1,0,0.1,0.1,0.2l0.4,0.5c0.1,0.1,0.3,0.2,0.5,0c0.1-0.1,0.1-0.1,0.1-0.2L65,322.3z"/>
				<path class="st10" d="M65,322.3l3.5,7.3c0,0,0,0.1,0,0.1v2.4c0,0.1-0.1,0.2-0.2,0.2c-0.1,0-0.1,0-0.2-0.1l-0.6-0.9l-0.1,0
					l-0.6-0.6c-0.1-0.1-0.2-0.1-0.3,0c0,0-0.1,0.1,0,0.2l0.2,2.2c0,0.2-0.1,0.3-0.3,0.3c-0.1,0-0.2,0-0.2-0.1l0,0
					c-0.1-0.1-0.3-0.1-0.4,0c-0.1,0.1-0.1,0.1-0.1,0.2l0.1,2.2l0,0l0.3,2.4c0,0.1-0.1,0.2-0.2,0.2c-0.1,0-0.1,0-0.2-0.1l-0.8-1.1
					c-0.1-0.1-0.2-0.1-0.3-0.1c0,0-0.1,0-0.1,0.1l-0.7,1.7c0,0.1-0.2,0.2-0.3,0.1c-0.1,0-0.1-0.1-0.1-0.2L65,322.3z"/>
				<path class="st9" d="M233.1,331.6l-0.3,1.4c0,0.1-0.1,0.3-0.3,0.3s-0.3-0.1-0.3-0.3l-0.5-1.4c-0.1-0.3-0.5-0.2-0.5,0.1l0,0
					c0,0.3-0.4,0.4-0.5,0.1l-0.8-1.8c-0.1-0.1-0.2-0.2-0.3-0.1c-0.1,0-0.1,0.1-0.1,0.1l-0.3,0.5c0,0.1,0,0.1,0,0.2v4.5l-2-17.6
					l4.1,5.8c0,0,0,0.1,0,0.1l1.7,6"/>
				<path class="st10" d="M227.2,317.6l-1.1,3.3v0.1l-0.5,2c0,0.1-0.1,0.3-0.3,0.3l-1.8,0.9c-0.1,0-0.2,0.1-0.2,0.2l-1.1,2.3
					c-0.2,0.4,0.2,0.9,0.5,0.7l0.6-0.3c0.3-0.1,0.5,0.1,0.6,0.4l0.2,1.8c0,0.2,0.2,0.4,0.5,0.4c0,0,0.1,0,0.1,0l0.4-0.1
					c0.2-0.1,0.4,0.1,0.5,0.3c0,0,0,0,0,0l0.6,1.6c0,0.2,0.3,0.4,0.5,0.3c0.1,0,0.2-0.1,0.3-0.2l0,0c0.1-0.2,0.4-0.2,0.5-0.1
					c0.1,0.1,0.2,0.2,0.2,0.3l0.3,0.9c0,0.2,0.3,0.4,0.5,0.3c0.2,0,0.3-0.2,0.3-0.4l0.1-0.6c0-0.1,0-0.1,0-0.2L227.2,317.6z"/>
				<path class="st9" d="M191,309.7l6.5,10.8l0,0l1,0.9l0,0l1.6,1.1c0,0,0.1,0.1,0.1,0.1l1.6,5.3c0,0.1-0.1,0.3-0.2,0.2l-1.1-0.9
					c-0.1,0-0.2,0-0.2,0c0,0,0,0.1,0,0.1l0.3,2.5c0,0.2-0.2,0.3-0.3,0.1l-2.3-5c0-0.1-0.1-0.1-0.2-0.1c0,0,0,0-0.1,0.1l-0.6,0.9
					c-0.1,0.1-0.2,0.1-0.2,0l-1.7-4.2c-0.1-0.2-0.3-0.1-0.3,0.1l0.5,4.8c0,0.1,0,0.2-0.1,0.2c-0.1,0-0.2,0-0.2-0.1l-0.5-1.5
					c0,0,0-0.1-0.1-0.1l-1.1-0.4c-0.1,0-0.2,0-0.2,0.1c0,0,0,0,0,0v4.7c0,0.1,0,0.2-0.1,0.2c-0.1,0-0.2,0-0.2-0.1c0,0,0,0,0-0.1
					L191,309.7z"/>
				<path class="st11" d="M191,309.7l-5.8,11.9c0,0.1,0,0.1,0,0.2l0.2,1.1c0,0.2,0.2,0.2,0.3,0.1l1.7-1.6c0.2-0.1,0.4,0,0.3,0.3
					L187,325c-0.1,0.2,0.2,0.4,0.3,0.3l1.6-1.3c0,0,0.1-0.1,0.1-0.1l0.9-3.1c0.1-0.2,0.4-0.2,0.4,0.1l0.3,2.7c0,0.2,0.2,0.3,0.3,0.1
					l0,0c0.1-0.1,0.3,0,0.3,0.2l-0.2,5.2c0,0.2,0.3,0.4,0.4,0.2l0.5-0.8c0.1-0.1,0.2-0.1,0.3-0.1c0.1,0,0.1,0.1,0.1,0.2l0.1,0.5
					c0,0.3,0.4,0.3,0.4,0l0.1-1.1c0,0,0,0,0-0.1L191,309.7z"/>
				<path class="st10" d="M78.3,309.6l4.2,6.7l1.5,2.4l2.3,4.2c0,0,0,0.1,0,0.1l-0.2,0.9c-0.1,0.1-0.2,0.2-0.4,0.1
					c0,0-0.1,0-0.1-0.1l-1.3-1.2c-0.1-0.1-0.3-0.1-0.4,0c0,0,0,0-0.1,0.1l-0.5,1.9c-0.1,0.1-0.2,0.2-0.3,0.2c-0.1,0-0.1-0.1-0.1-0.1
					l-1.7-2.9c-0.1-0.1-0.3-0.2-0.4-0.1c0,0-0.1,0.1-0.1,0.1l-0.4,1.8c-0.1,0.1-0.2,0.2-0.4,0.2c0,0-0.1,0-0.1-0.1l-1.2-1.2
					c0,0-0.1-0.1-0.1-0.1L78.3,309.6z"/>
				<path class="st9" d="M78.4,309.6l-2.1,6.2c-0.1,0.2,0.1,0.4,0.3,0.3l0,0c0.2-0.1,0.4,0.1,0.3,0.3l-3,5.2
					c-0.1,0.2,0.1,0.4,0.3,0.3l1.5-0.9c0.1-0.1,0.2,0,0.3,0.1c0,0,0,0.1,0,0.1l-0.4,5.6c0,0.1,0,0.2,0.1,0.2c0.1,0,0.2,0,0.2-0.1
					l0,0l1.1-3.9c0-0.1,0.1-0.2,0.2-0.2c0.1,0,0.2,0.1,0.2,0.2l0.1,0.6c0,0.1,0.1,0.2,0.2,0.2c0.1,0,0.2-0.1,0.2-0.2l0.9-2.8
					c0,0,0-0.1,0-0.1L78.4,309.6z"/>
				<path class="st9" d="M118,316.7l-2,7.2l0,0l-0.3,0.6l0,0l-0.5,0.8c0,0,0,0,0,0.1l-0.4,3.5c0,0.1,0,0.2,0.1,0.1l0.3-0.6
					c0-0.1,0.1,0,0.1,0.1l-0.1,1.6c0,0.1,0.1,0.2,0.1,0l0.7-3.3c0-0.1,0.1-0.1,0.1,0l0.2,0.5c0,0.1,0.1,0,0.1,0l0.5-2.7
					c0-0.1,0.1-0.1,0.1,0l-0.1,3.1c0,0.1,0.1,0.2,0.1,0l0.1-1c0,0,0,0,0-0.1l0.4-0.3c0,0,0.1,0,0.1,0.1l0.1,3c0,0.1,0.1,0.1,0.1,0
					L118,316.7z"/>
				<path class="st10" d="M118,316.7l3.5,6.6c0,0,0,0.1,0,0.1l-0.1,0.6c0,0.1-0.1,0.1-0.2,0.1l-0.9-0.9c-0.1-0.1-0.2,0-0.2,0.2
					l0.6,1.9c0,0.1-0.1,0.2-0.1,0.2l-0.9-0.7c0,0,0,0,0-0.1l-0.6-1.7c0-0.1-0.2-0.1-0.2,0.1l-0.1,1.6c0,0.1-0.1,0.2-0.2,0.1l0,0
					c-0.1-0.1-0.2,0-0.2,0.1l0.3,3c0,0.1-0.1,0.2-0.2,0.1l-0.3-0.4c-0.1-0.1-0.2,0-0.2,0.1v0.3c0,0.2-0.2,0.2-0.2,0l-0.1-0.6l0,0
					L118,316.7z"/>
				<g id="Range__2_">
					<polygon class="st12" points="47.3,399.1 67.8,359.5 74.2,350.4 81.4,330.7 103.2,296.2 90.1,417.1 					"/>
					<polygon class="st13" points="103.2,296.2 118.6,337.9 124.6,345 157.2,411.4 90.1,417.1 					"/>
					<polygon class="st12" points="127.5,365 137.1,324.5 141.3,324.5 148.9,314 158.3,293.2 158.3,399.1 127.5,365 					"/>
					<polygon class="st13" points="158.3,293.2 189.9,341.3 191.3,349.4 158.3,399.1 					"/>
					<polygon class="st13" points="161.5,403.4 208.3,318.6 211.7,305 213.8,365 222.2,417.1 					"/>
					<polygon class="st12" points="222.2,417.1 256,385.5 241.8,352.9 231.3,343.7 211.7,305 213.8,365 					"/>
					<polygon class="st13" points="53.8,381.3 70.6,355.5 63.4,342 59.3,343.9 53.8,331.7 50.7,387 					"/>
					<polygon class="st12" points="50.7,387 44.8,383.9 36.5,385.5 49,338.4 53.8,331.7 					"/>
					<polygon class="st13" points="258.7,376.7 241.9,350.9 249,337.4 253.2,339.3 258.7,327.1 261.8,382.4 					"/>
					<polygon class="st12" points="261.8,382.4 267.7,379.3 276,380.9 263.5,333.8 258.7,327.1 					"/>
				</g>
			</g>
			<g id="Layer_10_2_">
				<g id="main_tops_2_">
					<path class="st14" d="M103.2,293.2l-8.8,13.6l-4.1,6c0,0,0,0,0,0.1l-0.6,1.1c-0.2,0.4,0,0.9,0.4,1.2c0.2,0.1,0.4,0.1,0.7,0
						l1.7-0.6c0.4-0.2,0.9,0.1,1.1,0.5c0.1,0.2,0.1,0.3,0,0.5l-0.4,1.6c-0.1,0.5,0.2,0.9,0.6,1c0.3,0.1,0.6,0,0.8-0.3l0,0
						c0.3-0.4,0.9-0.4,1.2-0.1c0.2,0.1,0.3,0.3,0.3,0.5l0.9,7.2c0,0.2,0.1,0.3,0.2,0.4l1,1.3c0.3,0.4,0.9,0.4,1.2,0.1
						c0.2-0.1,0.3-0.3,0.3-0.6L103.2,293.2z"/>
					<path class="st11" d="M103.2,293.2l8.5,17.7c0,0.1,0.1,0.1,0.1,0.2v5.9c0,0.3-0.2,0.5-0.5,0.5c-0.2,0-0.3-0.1-0.4-0.2l-1.5-2.2
						c0,0-0.1-0.1-0.1-0.1l-1.7-1.4c-0.2-0.2-0.5-0.1-0.7,0.1c-0.1,0.1-0.1,0.2-0.1,0.4l0.6,5.5c0,0.4-0.2,0.7-0.6,0.8
						c-0.2,0-0.5-0.1-0.6-0.2l0,0c-0.3-0.3-0.7-0.3-1,0c-0.1,0.1-0.2,0.3-0.2,0.5l0.2,5.4l0,0l0.6,5.8c0,0.3-0.2,0.5-0.5,0.5
						c-0.1,0-0.3-0.1-0.4-0.2l-1.9-2.6c-0.2-0.2-0.5-0.3-0.7-0.1c-0.1,0.1-0.1,0.1-0.2,0.2l-1.8,4.1c-0.1,0.3-0.4,0.4-0.7,0.3
						c-0.2-0.1-0.3-0.3-0.3-0.5L103.2,293.2z"/>
					<path class="st14" d="M53.8,328.8l-8.6,11.8c0,0.1-0.1,0.1-0.1,0.2l-3,11.8c0,0.1,0,0.1,0,0.2l0.4,3.8c0,0,0,0.1,0,0.1l1,2.7
						c0.1,0.3,0.5,0.5,0.8,0.4c0.2-0.1,0.3-0.2,0.4-0.4l0.9-2.9c0.1-0.3,0.5-0.5,0.8-0.4c0.2,0.1,0.4,0.3,0.4,0.5l0,0
						c0,0.3,0.3,0.6,0.7,0.6c0.2,0,0.4-0.2,0.5-0.4l1.5-3.7c0.1-0.3,0.5-0.4,0.8-0.3c0.1,0,0.2,0.1,0.3,0.2l0.7,1
						c0.1,0.1,0.1,0.2,0.1,0.3l0.8,8.8L53.8,328.8z"/>
					<path class="st11" d="M53.8,328.8L57,335c0,0,0,0.1,0,0.1l1.5,3.7c0.1,0.3,0.3,0.5,0.6,0.6l4.4,1.4c0.2,0.1,0.4,0.2,0.5,0.4
						l2.8,4.4c0.3,0.5,0.2,1.1-0.3,1.3c-0.2,0.2-0.6,0.2-0.8,0.1l-1.4-0.5c-0.5-0.2-1.1,0.1-1.2,0.6c0,0.1,0,0.2,0,0.3l-0.2,3.6
						c0,0.5-0.5,1-1,0.9c0,0-0.1,0-0.1,0l-0.9-0.2c-0.5-0.1-1,0.2-1.1,0.6l-1.1,3.3c-0.2,0.5-0.7,0.8-1.2,0.6
						c-0.2-0.1-0.3-0.1-0.4-0.3l0,0c-0.4-0.4-1-0.4-1.4-0.1c-0.1,0.1-0.2,0.3-0.3,0.4l-0.5,1.7c-0.2,0.5-0.7,0.8-1.2,0.7
						c-0.3-0.1-0.6-0.3-0.7-0.7l-0.4-1.2c0-0.1,0-0.2,0-0.3L53.8,328.8z"/>
					<path class="st14" d="M158.3,291l-15.7,27.7l-0.1,0.1l-2.7,2.5l0,0l-4.3,3.1c-0.1,0.1-0.1,0.1-0.2,0.2l-3,13.1
						c-0.1,0.2,0.1,0.4,0.3,0.5c0.1,0,0.3,0,0.4-0.1l2.8-2.3c0.2-0.1,0.4-0.1,0.6,0.1c0.1,0.1,0.1,0.2,0.1,0.3l-0.1,6.1
						c0,0.2,0.2,0.4,0.4,0.4c0.2,0,0.3-0.1,0.4-0.2l5.2-12.7c0.1-0.2,0.3-0.3,0.5-0.2c0.1,0,0.1,0.1,0.1,0.1l1.8,1.9
						c0.2,0.2,0.4,0.2,0.6,0c0,0,0.1-0.1,0.1-0.2l3.7-10.5c0.1-0.2,0.3-0.3,0.5-0.3c0.2,0.1,0.3,0.2,0.3,0.4v11.7
						c0,0.2,0.2,0.4,0.4,0.4c0.2,0,0.3-0.1,0.4-0.3l1.1-3.7c0-0.1,0.1-0.2,0.3-0.3l3.4-1.3c0.2-0.1,0.4,0,0.5,0.2c0,0,0,0.1,0,0.1
						l1.3,11.3c0,0.2,0.3,0.4,0.5,0.3c0.2,0,0.3-0.2,0.3-0.4L158.3,291z"/>
					<path class="st11" d="M158.3,291l19.8,27.6c0.1,0.1,0.1,0.3,0.1,0.4l-0.4,2.7c-0.1,0.3-0.3,0.5-0.7,0.5c-0.1,0-0.1,0-0.2-0.1
						l-5.2-3.5c-0.3-0.2-0.6-0.1-0.8,0.1c-0.1,0.2-0.1,0.4-0.1,0.6l3.3,7.8c0.1,0.3,0,0.6-0.3,0.8c-0.2,0.1-0.4,0.1-0.5,0l-4.9-2.8
						c-0.1-0.1-0.2-0.2-0.2-0.3l-3.4-7.2c-0.1-0.3-0.5-0.4-0.8-0.3c-0.2,0.1-0.3,0.3-0.3,0.5l-0.1,6.6c0,0.3-0.3,0.6-0.6,0.6
						c-0.1,0-0.2,0-0.3-0.1l0,0c-0.3-0.2-0.6-0.1-0.8,0.1c-0.1,0.1-0.1,0.3-0.1,0.4l2.1,12.6c0,0.3-0.2,0.6-0.5,0.7
						c-0.2,0-0.4,0-0.5-0.2l-1.7-1.9c-0.2-0.2-0.6-0.3-0.8-0.1c-0.1,0.1-0.2,0.3-0.2,0.4l-0.1,1.3c0,0.3-0.3,0.6-0.6,0.5
						c-0.2,0-0.4-0.2-0.5-0.4l-0.7-2.5c0-0.1,0-0.1,0-0.2V291z"/>
					<path class="st14" d="M211.8,302l8.6,16.8l3.2,6l4.8,10.4c0,0.1,0,0.2,0,0.3l-0.5,2.3c-0.1,0.3-0.4,0.4-0.7,0.4
						c-0.1,0-0.2-0.1-0.2-0.1l-2.8-3c-0.2-0.2-0.5-0.2-0.7,0c-0.1,0.1-0.1,0.1-0.1,0.2l-1,4.7c-0.1,0.3-0.3,0.5-0.6,0.4
						c-0.2,0-0.3-0.1-0.4-0.3l-3.6-7.2c-0.1-0.3-0.4-0.4-0.7-0.3c-0.2,0.1-0.3,0.2-0.3,0.4l-0.8,4.6c-0.1,0.3-0.3,0.5-0.6,0.4
						c-0.1,0-0.2-0.1-0.3-0.2l-2.4-2.9c-0.1-0.1-0.1-0.2-0.1-0.3L211.8,302z"/>
					<path class="st11" d="M211.8,302l-5.7,15.4c-0.1,0.3,0,0.6,0.3,0.7c0.1,0.1,0.3,0,0.4,0l0,0c0.3-0.1,0.6,0,0.7,0.2
						c0.1,0.2,0.1,0.4,0,0.5l-8.3,13c-0.2,0.3-0.1,0.6,0.2,0.7c0.2,0.1,0.4,0.1,0.5,0l4.1-2.2c0.3-0.1,0.6,0,0.7,0.2
						c0.1,0.1,0.1,0.2,0.1,0.3l-1.3,14c0,0.3,0.2,0.6,0.5,0.6c0.3,0,0.5-0.1,0.6-0.4l3.1-9.7c0.1-0.3,0.4-0.4,0.7-0.3
						c0.2,0.1,0.3,0.2,0.4,0.4l0.3,1.4c0.1,0.3,0.4,0.5,0.7,0.4c0.2,0,0.3-0.2,0.4-0.4l2.4-7c0-0.1,0-0.1,0-0.2L211.8,302z"/>
					<path class="st11" d="M258.2,326l-5.1,12c-0.1,0.2-0.3,0.3-0.5,0.2c0,0,0,0-0.1,0l-3.5-2.1c-0.2-0.1-0.4-0.1-0.5,0.1
						c0,0,0,0,0,0l-2.9,5.6c-0.1,0.2,0,0.4,0.2,0.5c0.1,0.1,0.3,0.1,0.4,0l1.6-1.2c0.2-0.1,0.4-0.1,0.6,0.1c0.1,0.1,0.1,0.3,0,0.4
						l-1.4,3.5c-0.1,0.2,0,0.4,0.2,0.5c0.1,0.1,0.3,0,0.4-0.1l5.1-5.2c0.2-0.2,0.4-0.1,0.6,0c0,0,0.1,0.1,0.1,0.2l1.8,5.6
						c0.1,0.2,0.3,0.3,0.5,0.3c0.1,0,0.2-0.1,0.2-0.2l1.3-2c0.1-0.2,0.4-0.2,0.6-0.1c0.1,0.1,0.1,0.1,0.2,0.2l1.3,4.9
						c0,0.2,0.2,0.4,0.5,0.3c0.2,0,0.4-0.2,0.3-0.5l-1.3-24.5L258.2,326z"/>
					<path class="st14" d="M258.7,324.8l5.2,7.9c0,0,0,0.1,0.1,0.1l2.9,8.8c0,0,0,0.1,0,0.1l0.8,5.9c0,0.3-0.2,0.6-0.5,0.6
						c-0.2,0-0.4-0.1-0.5-0.3l0,0c-0.1-0.3-0.4-0.4-0.7-0.3c-0.2,0.1-0.4,0.3-0.3,0.6l0.3,3.3c0,0.3-0.2,0.5-0.5,0.6
						c-0.2,0-0.4-0.1-0.5-0.3l-0.9-1.6c-0.1-0.3-0.5-0.4-0.7-0.2c-0.1,0.1-0.2,0.2-0.3,0.3l-0.7,2.2c-0.1,0.3-0.4,0.4-0.7,0.4
						c-0.2-0.1-0.3-0.2-0.4-0.4l-1.4-4.3v-0.1L258.7,324.8z"/>
				</g>
			</g>
			<g id="base_snow_2_">
				<path class="st0" d="M41.6,364.7l-7.2,12.4c-0.1,0-0.1,0-0.2,0h-3.3c-0.4,0-0.7,0.3-0.7,0.7v25.8c0,0.4,0.3,0.7,0.7,0.7h4.7
					c0.1,0,0.1,0,0.2,0l19.5,6.5l24.5,8.6c0.1,0,0.1,0.1,0.2,0.1l10.6,8.7c0.2,0.1,0.4,0.2,0.6,0.1l20.5-4.7h0.1l30.4-1.2h0.2
					l13.9,2.5c0.2,0,0.4,0,0.6-0.1l7.5-6c0.1-0.1,0.3-0.2,0.5-0.1l50.5,5.8c0.1,0,0.3,0,0.4-0.1l5-2.3c0.2-0.1,0.4-0.1,0.6,0
					l4.3,2.2c0.3,0.1,0.7,0.1,0.9-0.2l10.1-12.3l0.1-0.1l22.2-19.5l0.1-0.1l9.5-5.5c0.1-0.1,0.2-0.1,0.3-0.1h12.2
					c0.4,0,0.7-0.3,0.7-0.7c0,0,0,0,0,0v-5.8c0-0.2-0.1-0.4-0.2-0.5l-5.1-5.2c-0.1-0.1-0.3-0.2-0.5-0.2l-3.5-7.3
					c-0.4,0-0.7,0.3-0.7,0.7c0,0.1,0,0.1,0,0.2l1.2,11.3c0.1,0.4-0.1,0.7-0.5,0.9c-0.1,0-0.2,0-0.3,0l-4.1-0.7c-0.2,0-0.3,0-0.4,0.1
					l-5.3,2.2c-0.3,0.2-1.1-1-1.3-1.3l-18.8-29.7c-0.2-0.3-3.9-2.2-4.2-2.1l0,0c-0.4,0.2-0.5,0.6-0.4,0.9c0,0.1,0.1,0.2,0.2,0.3
					l3.4,2.9c0.1,0.1,0.1,0.2,0.2,0.3l11.5,31.8c0.1,0.3,0,0.7-0.3,0.9l-30.4,31.6c-0.2,0.1-15.7-2.7-15.9-2.7l-43.1-10.9
					c-0.4-0.1-0.6-0.5-0.5-0.8c0-0.1,0-0.1,0.1-0.2l30.6-55c0.2-0.4,0.3-1.6,0-1.7c-0.3-0.1-2.2,1.3-2.4,1.6l-32,50.2
					c-0.2,0.3-0.6,0.4-1,0.2c0,0-0.1-0.1-0.1-0.1l-28.8-32c-0.3-0.3,1-10.6,0.8-10.3c-0.2,0.2-2.9,10-2.8,10.2l26.2,40.1
					c0.2,0.3,0.1,0.8-0.2,1c-0.1,0.1-0.2,0.1-0.3,0.1L91,416.9c-0.1,0-0.2,0-0.3-0.1l-41.1-17.3c-0.4-0.1-0.5-0.6-0.4-0.9
					c0,0,0,0,0-0.1l18.3-37.5c0.2-0.4,3.4-5.5,3.1-5.6c-0.3-0.1-4.1,4.7-4.3,5l-15.2,24.7c-0.2,0.3-0.6,0.4-0.9,0.2l-5-1.6
					c-0.1-0.1-0.3-0.1-0.4-0.1l-4.9,1c-0.4,0.1-0.7-0.2-0.8-0.5c0-0.1,0-0.2,0-0.3l3.5-18.4c0.1-0.4-0.1-0.8-0.5-0.9
					C41.9,364.6,41.8,364.6,41.6,364.7z"/>
			</g>
		</g>
	</g>
</g>
<g id="Layer_1">
	<g>
		<g id="Layer_2_1_">
			<g id="Layer_12">
				<circle class="st15" cx="361.7" cy="361.7" r="59.2"/>
				<circle class="st16" cx="361.2" cy="364.3" r="56.6"/>
				<circle class="st17" cx="361.2" cy="364.7" r="50.8"/>
			</g>
			<g id="Layer_7">
				<polygon class="st18" points="249.5,384.3 261.3,361.4 265,356.1 269.2,344.7 281.8,324.7 274.2,394.7 				"/>
				<polygon class="st18" points="281.8,324.7 290.7,348.8 295.5,365.4 313.1,391.4 274.2,394.7 				"/>
				<polygon class="st18" points="272.3,371.6 280.5,338.1 283.8,338.1 289.8,329.7 297.4,313.1 297.4,397.6 272.3,371.6 				"/>
				<polygon class="st18" points="297.1,310.7 323.6,351.1 324.7,357.9 297.1,399.6 				"/>
				<polygon class="st18" points="300.7,401.2 340,330 342.9,318.5 344.6,369 338.5,410.4 				"/>
				<polygon class="st18" points="338.5,410.4 380.1,386.2 368.1,358.8 359.3,351 342.9,318.5 344.6,369 				"/>
				<polygon class="st18" points="382.3,378.8 368.2,357.1 374.2,345.8 377.8,347.4 382.3,337.1 385,383.6 				"/>
				<polygon class="st18" points="385,383.6 389.9,381 396.9,382.3 386.4,342.7 382.3,337.1 				"/>
				<polygon class="st19" points="341.4,393.2 357.3,362.3 362.3,355.2 367.9,339.9 384.9,313.1 374.6,407.2 				"/>
				<polygon class="st19" points="384.9,313.1 396.8,345.5 403.3,367.8 426.8,402.7 374.6,407.2 				"/>
				<polygon class="st19" points="403.3,367.8 411.2,335.1 414.5,335.1 420.4,326.9 427.7,310.8 427.7,393.2 403.3,367.8 				"/>
				<polygon class="st19" points="427.7,310.8 452.3,348.2 453.4,354.5 427.7,393.2 				"/>
				<polygon class="st19" points="430.2,396.5 466.6,330.5 469.2,319.9 470.9,366.6 465.2,405.1 				"/>
				<polygon class="st19" points="465.2,406.1 503.7,383.6 492.7,358.2 484.5,351 469.2,320.9 470.9,367.6 				"/>
				<polygon class="st19" points="346.4,379.3 359.5,359.2 353.9,348.7 350.7,350.3 346.4,340.7 344,383.7 				"/>
				<polygon class="st19" points="344,383.7 339.4,381.4 332.9,382.6 342.7,345.9 346.4,340.7 				"/>
				<polygon class="st19" points="505.8,375.7 492.7,355.6 498.3,345.2 501.6,346.7 505.8,337.2 508.3,380.2 				"/>
				<polygon class="st19" points="508.3,380.2 512.8,377.8 519.3,379 509.6,342.3 505.8,337.2 				"/>
				<path class="st20" d="M281.6,324.1l-4.2,6.5l-1.9,2.9l0,0l-0.3,0.5c-0.1,0.2,0,0.4,0.2,0.5c0.1,0,0.2,0.1,0.3,0l0.8-0.3
					c0.2-0.1,0.4,0,0.5,0.2c0,0.1,0,0.2,0,0.3l-0.2,0.8c0,0.2,0.1,0.4,0.3,0.5c0.1,0,0.3,0,0.4-0.1l0,0c0.1-0.2,0.4-0.2,0.6-0.1
					c0.1,0.1,0.1,0.2,0.1,0.3l0.5,3.4c0,0.1,0,0.1,0.1,0.2l0.5,0.6c0.1,0.2,0.4,0.2,0.6,0c0.1-0.1,0.1-0.2,0.1-0.3L281.6,324.1z"/>
				<path class="st21" d="M281.6,324.1l4,8.4c0,0,0,0.1,0,0.1v2.8c0,0.1-0.1,0.2-0.2,0.2c-0.1,0-0.2,0-0.2-0.1l-0.7-1.1l-0.1,0
					l-0.7-0.7c-0.1-0.1-0.3-0.1-0.3,0c0,0-0.1,0.1-0.1,0.2l0.3,2.6c0,0.2-0.1,0.4-0.3,0.4c-0.1,0-0.2,0-0.3-0.1l0,0
					c-0.1-0.1-0.3-0.2-0.5,0c-0.1,0.1-0.1,0.2-0.1,0.3l0.1,2.5l0,0l0.3,2.7c0,0.1-0.1,0.2-0.2,0.3c-0.1,0-0.2,0-0.2-0.1l-0.9-1.2
					c-0.1-0.1-0.2-0.1-0.3-0.1c0,0-0.1,0-0.1,0.1l-0.9,2c-0.1,0.1-0.2,0.2-0.3,0.1c-0.1,0-0.2-0.1-0.1-0.2L281.6,324.1z"/>
				<path class="st20" d="M476.2,334.7l-0.4,1.6c0,0.2-0.1,0.3-0.3,0.3s-0.3-0.1-0.3-0.3l-0.6-1.6c-0.1-0.4-0.6-0.3-0.6,0.1l0,0
					c0,0.4-0.4,0.5-0.6,0.1l-0.9-2.1c-0.1-0.1-0.2-0.2-0.4-0.2c-0.1,0-0.1,0.1-0.2,0.2l-0.3,0.6c0,0.1,0,0.1,0,0.2v5.3l-2.3-20.4
					l4.8,6.7c0,0,0,0.1,0,0.1l2,6.9"/>
				<path class="st21" d="M469.4,318.5l-1.3,3.8v0.1l-0.6,2.3c0,0.2-0.1,0.3-0.3,0.4l-2.1,1c-0.1,0.1-0.2,0.1-0.2,0.3l-1.2,2.7
					c-0.2,0.5,0.2,1,0.6,0.8l0.7-0.3c0.3-0.1,0.6,0.1,0.7,0.5l0.2,2.1c0,0.3,0.2,0.5,0.5,0.5c0,0,0.1,0,0.1,0l0.4-0.1
					c0.3-0.1,0.5,0.1,0.6,0.3c0,0,0,0,0,0l0.7,1.9c0.1,0.2,0.3,0.4,0.5,0.4c0.1,0,0.2-0.1,0.3-0.2l0,0c0.1-0.2,0.4-0.3,0.6-0.1
					c0.1,0.1,0.2,0.2,0.2,0.3l0.3,1c0.1,0.3,0.3,0.4,0.6,0.4c0.2,0,0.4-0.2,0.4-0.4l0.1-0.7c0-0.1,0-0.1,0-0.2L469.4,318.5z"/>
				<path class="st20" d="M427.5,309.4l7.6,12.5l0,0l1.2,1.1l0,0l1.9,1.3c0,0,0.1,0.1,0.1,0.1l1.8,6.1c0,0.2-0.1,0.3-0.2,0.2l-1.2-1
					c-0.1-0.1-0.2,0-0.2,0c0,0,0,0.1,0,0.1l0.3,2.9c0,0.2-0.2,0.3-0.3,0.1l-2.6-5.8c0-0.1-0.1-0.1-0.2-0.1c0,0,0,0-0.1,0.1l-0.7,1
					c-0.1,0.1-0.2,0.1-0.3,0l-2-4.8c-0.1-0.2-0.3-0.1-0.3,0.1l0.5,5.5c0,0.1,0,0.2-0.1,0.2s-0.2,0-0.2-0.1l-0.6-1.7
					c0-0.1-0.1-0.1-0.1-0.1l-1.3-0.5c-0.1,0-0.2,0-0.2,0.1c0,0,0,0,0,0.1v5.4c0,0.1,0,0.2-0.1,0.2c-0.1,0-0.2,0-0.2-0.1
					c0,0,0-0.1,0-0.1L427.5,309.4z"/>
				<path class="st22" d="M427.5,309.4l-6.7,13.8c0,0.1,0,0.1,0,0.2l0.3,1.3c0,0.2,0.2,0.3,0.4,0.1l1.9-1.8c0.2-0.2,0.4,0,0.4,0.3
					l-1,3.8c-0.1,0.2,0.2,0.5,0.4,0.3l1.9-1.5c0,0,0.1-0.1,0.1-0.1l1-3.5c0.1-0.3,0.4-0.2,0.4,0.1l0.4,3.1c0,0.2,0.3,0.3,0.4,0.2
					l0,0c0.1-0.2,0.4,0,0.4,0.2l-0.3,6c0,0.3,0.3,0.4,0.4,0.2l0.6-0.9c0.1-0.1,0.2-0.1,0.3-0.1c0.1,0,0.1,0.1,0.1,0.2l0.1,0.6
					c0.1,0.3,0.4,0.3,0.5,0l0.2-1.2c0,0,0-0.1,0-0.1L427.5,309.4z"/>
				<path class="st21" d="M297,309.4l4.9,7.8l1.8,2.8l2.7,4.8c0,0,0,0.1,0,0.1l-0.3,1.1c-0.1,0.2-0.3,0.2-0.4,0.2c0,0-0.1,0-0.1-0.1
					l-1.5-1.4c-0.1-0.1-0.3-0.1-0.5,0c0,0,0,0.1-0.1,0.1l-0.6,2.2c-0.1,0.2-0.2,0.2-0.4,0.2c-0.1,0-0.1-0.1-0.2-0.1l-2-3.4
					c-0.1-0.1-0.3-0.2-0.4-0.1c-0.1,0-0.1,0.1-0.1,0.1l-0.4,2.1c-0.1,0.2-0.2,0.2-0.4,0.2c0,0-0.1,0-0.1-0.1l-1.3-1.4
					c0,0-0.1-0.1-0.1-0.1L297,309.4z"/>
				<path class="st20" d="M297.1,309.4l-2.5,7.2c-0.1,0.2,0.1,0.4,0.3,0.3l0,0c0.2-0.1,0.4,0.1,0.3,0.4l-3.5,6.1
					c-0.1,0.2,0.1,0.5,0.3,0.4l1.7-1c0.1-0.1,0.3,0,0.3,0.1c0,0,0,0.1,0,0.2l-0.5,6.5c0,0.1,0,0.2,0.2,0.3c0.1,0,0.2,0,0.3-0.2l0,0
					l1.3-4.5c0-0.1,0.1-0.2,0.2-0.2c0.1,0,0.2,0.1,0.2,0.2l0.1,0.6c0,0.1,0.1,0.2,0.2,0.2c0.1,0,0.2-0.1,0.2-0.2l1-3.2
					c0,0,0-0.1,0-0.1L297.1,309.4z"/>
				<path class="st20" d="M343,317.5l-2.3,8.4l0,0l-0.4,0.8l0,0l-0.6,0.9c0,0,0,0,0,0.1l-0.5,4c0,0.1,0,0.2,0.1,0.1l0.4-0.7
					c0-0.1,0.1,0,0.1,0.1l-0.1,1.9c0,0.1,0.1,0.2,0.1,0l0.8-3.8c0-0.1,0.1-0.1,0.1,0l0.2,0.6c0,0.1,0.1,0,0.1,0l0.6-3.2
					c0-0.1,0.1-0.1,0.1,0l-0.1,3.6c0,0.1,0.1,0.2,0.1,0l0.2-1.1c0,0,0-0.1,0-0.1l0.5-0.4c0,0,0.1,0,0.1,0.1l0.1,3.4
					c0,0.1,0.1,0.1,0.1,0L343,317.5z"/>
				<path class="st21" d="M343,317.5l4,7.6c0,0,0,0.1,0,0.1l-0.1,0.8c0,0.1-0.1,0.2-0.2,0.1l-1.1-1c-0.1-0.1-0.2,0-0.2,0.2l0.6,2.2
					c0,0.1-0.1,0.3-0.2,0.2l-1-0.8c0,0,0,0,0-0.1l-0.7-2c0-0.1-0.2-0.1-0.2,0.1l-0.1,1.9c0,0.1-0.1,0.2-0.2,0.1l0,0
					c-0.1-0.1-0.2,0-0.2,0.1l0.4,3.5c0,0.2-0.1,0.2-0.2,0.1l-0.3-0.5c-0.1-0.1-0.2,0-0.2,0.1v0.3c0,0.2-0.2,0.2-0.2,0l-0.1-0.7l0,0
					L343,317.5z"/>
				<g id="Range_">
					<polygon class="st23" points="261.1,412.9 284.8,367.1 292.3,356.5 300.6,333.7 325.9,293.8 310.7,433.8 					"/>
					<polygon class="st24" points="325.9,293.8 343.6,342.1 350.7,350.3 388.3,427.2 310.7,433.8 					"/>
					<polygon class="st23" points="353.9,373.5 365.1,326.5 369.9,326.5 378.7,314.4 389.7,290.3 389.7,412.9 353.9,373.5 					"/>
					<polygon class="st24" points="389.7,290.3 426.2,346 427.8,355.4 389.7,412.9 					"/>
					<polygon class="st24" points="393.3,417.9 447.5,319.7 451.4,304 453.8,373.5 463.6,433.8 					"/>
					<polygon class="st23" points="463.6,433.8 502.8,397.2 486.3,359.4 474.1,348.8 451.4,304 453.8,373.5 					"/>
					<polygon class="st24" points="268.6,392.4 288.1,362.4 279.8,346.8 275,349.1 268.6,334.9 265,398.9 					"/>
					<polygon class="st23" points="265,398.9 258.2,395.4 248.6,397.2 263.1,342.7 268.6,334.9 					"/>
					<polygon class="st24" points="505.9,387 486.4,357.1 494.7,341.5 499.5,343.8 505.9,329.6 509.5,393.6 					"/>
					<polygon class="st23" points="509.5,393.6 516.3,390.1 525.9,391.8 511.4,337.3 505.9,329.6 					"/>
				</g>
			</g>
			<g id="Layer_10">
				<g id="main_tops">
					<path class="st25" d="M325.9,290.3l-10.2,15.8l-4.7,7c0,0,0,0.1,0,0.1l-0.7,1.3c-0.2,0.5-0.1,1.1,0.4,1.3
						c0.2,0.1,0.5,0.1,0.8,0.1l2-0.8c0.5-0.2,1.1,0.1,1.3,0.6c0.1,0.2,0.1,0.4,0,0.6l-0.5,1.9c-0.1,0.5,0.2,1.1,0.7,1.2
						c0.4,0.1,0.7,0,1-0.3l0,0c0.4-0.4,1-0.5,1.4-0.1c0.2,0.2,0.3,0.4,0.3,0.6l1.1,8.3c0,0.2,0.1,0.4,0.2,0.5l1.2,1.4
						c0.4,0.4,1,0.5,1.4,0.1c0.2-0.2,0.3-0.4,0.4-0.7L325.9,290.3z"/>
					<path class="st22" d="M325.9,290.3l9.9,20.5c0,0.1,0.1,0.2,0.1,0.2v6.9c0,0.3-0.3,0.6-0.6,0.6c-0.2,0-0.4-0.1-0.5-0.3l-1.7-2.6
						c0-0.1-0.1-0.1-0.1-0.1l-2-1.6c-0.2-0.2-0.6-0.2-0.8,0.1c-0.1,0.1-0.1,0.3-0.1,0.4l0.7,6.4c0.1,0.4-0.3,0.9-0.7,0.9
						c-0.3,0-0.5-0.1-0.7-0.3l0,0c-0.3-0.3-0.8-0.3-1.2,0c-0.2,0.2-0.2,0.4-0.2,0.6l0.2,6.2l0,0l0.7,6.7c0,0.3-0.2,0.6-0.6,0.6
						c-0.2,0-0.3-0.1-0.4-0.2l-2.2-3c-0.2-0.3-0.6-0.3-0.8-0.1c-0.1,0.1-0.1,0.1-0.2,0.2l-2.1,4.8c-0.1,0.3-0.5,0.4-0.8,0.3
						c-0.2-0.1-0.4-0.3-0.3-0.6L325.9,290.3z"/>
					<path class="st25" d="M268.6,331.5l-10,13.6c-0.1,0.1-0.1,0.2-0.1,0.2l-3.5,13.7c0,0.1,0,0.2,0,0.2l0.4,4.4c0,0.1,0,0.1,0,0.2
						l1.1,3.1c0.1,0.4,0.5,0.6,0.9,0.4c0.2-0.1,0.4-0.2,0.4-0.4l1-3.3c0.1-0.4,0.5-0.6,0.9-0.4c0.3,0.1,0.5,0.3,0.5,0.6l0,0
						c0,0.4,0.4,0.7,0.8,0.6c0.3,0,0.5-0.2,0.6-0.4l1.8-4.3c0.2-0.4,0.6-0.5,0.9-0.4c0.1,0.1,0.2,0.1,0.3,0.3l0.8,1.1
						c0.1,0.1,0.1,0.2,0.1,0.3l0.9,10.2L268.6,331.5z"/>
					<path class="st22" d="M268.6,331.5l3.6,7.2c0,0,0,0.1,0,0.1l1.7,4.3c0.1,0.3,0.4,0.6,0.7,0.7l5.1,1.6c0.3,0.1,0.5,0.2,0.6,0.5
						l3.3,5.1c0.3,0.5,0.2,1.2-0.3,1.6c-0.3,0.2-0.6,0.2-1,0.1l-1.6-0.6c-0.6-0.2-1.2,0.1-1.4,0.7c0,0.1-0.1,0.2-0.1,0.3l-0.2,4.1
						c0,0.6-0.6,1.1-1.2,1.1c-0.1,0-0.1,0-0.2,0l-1-0.2c-0.6-0.1-1.1,0.2-1.3,0.8l-1.3,3.8c-0.2,0.6-0.8,0.9-1.4,0.7
						c-0.2-0.1-0.3-0.2-0.5-0.3l0,0c-0.4-0.5-1.1-0.5-1.6-0.1c-0.1,0.1-0.3,0.3-0.3,0.5l-0.6,1.9c-0.2,0.6-0.8,0.9-1.4,0.8
						c-0.4-0.1-0.7-0.4-0.8-0.8L267,364c0-0.1,0-0.3,0-0.4L268.6,331.5z"/>
					<path class="st25" d="M389.6,287.7l-18.1,32.1l-0.1,0.1l-3.1,2.9l0,0l-5,3.6c-0.1,0.1-0.2,0.2-0.2,0.3l-3.4,15.2
						c-0.1,0.3,0.1,0.5,0.4,0.6c0.1,0,0.3,0,0.4-0.1l3.2-2.7c0.2-0.2,0.5-0.1,0.7,0.1c0.1,0.1,0.1,0.2,0.1,0.3l-0.2,7.1
						c0,0.3,0.2,0.5,0.5,0.5c0.2,0,0.4-0.1,0.4-0.3l6-14.7c0.1-0.2,0.4-0.4,0.6-0.3c0.1,0,0.1,0.1,0.2,0.1l2.1,2.2
						c0.2,0.2,0.5,0.2,0.7,0c0.1-0.1,0.1-0.1,0.1-0.2l4.3-12.1c0.1-0.2,0.3-0.4,0.6-0.3c0.2,0.1,0.3,0.3,0.3,0.5v13.6
						c0,0.3,0.2,0.5,0.5,0.5c0.2,0,0.4-0.1,0.5-0.3l1.3-4.3c0-0.1,0.1-0.3,0.3-0.3l3.9-1.5c0.2-0.1,0.5,0,0.6,0.3c0,0,0,0.1,0,0.1
						l1.5,13.1c0.1,0.3,0.3,0.4,0.6,0.4c0.2,0,0.4-0.2,0.4-0.4L389.6,287.7z"/>
					<path class="st22" d="M389.6,287.7l22.9,32c0.1,0.1,0.1,0.3,0.1,0.5l-0.4,3.2c-0.1,0.4-0.4,0.6-0.8,0.6c-0.1,0-0.2,0-0.2-0.1
						l-6-4c-0.3-0.2-0.7-0.1-0.9,0.2c-0.1,0.2-0.2,0.4-0.1,0.7l3.8,9c0.1,0.3,0,0.7-0.4,0.9c-0.2,0.1-0.4,0.1-0.6,0l-5.7-3.3
						c-0.1-0.1-0.2-0.2-0.3-0.3l-3.9-8.4c-0.2-0.3-0.6-0.5-0.9-0.3c-0.2,0.1-0.4,0.3-0.4,0.6l-0.1,7.7c0,0.4-0.3,0.7-0.7,0.7
						c-0.1,0-0.3,0-0.4-0.1l0,0c-0.3-0.2-0.7-0.2-0.9,0.1c-0.1,0.1-0.2,0.3-0.1,0.5l2.4,14.6c0.1,0.4-0.2,0.7-0.6,0.8
						c-0.2,0-0.4,0-0.6-0.2l-1.9-2.1c-0.2-0.3-0.7-0.3-0.9-0.1c-0.1,0.1-0.2,0.3-0.2,0.5l-0.1,1.5c0,0.4-0.4,0.6-0.7,0.6
						c-0.3,0-0.5-0.2-0.6-0.5l-0.8-2.9c0-0.1,0-0.1,0-0.2V287.7z"/>
					<path class="st25" d="M451.5,300.5l10,19.4l3.7,7l5.6,12c0,0.1,0,0.3,0,0.4l-0.6,2.7c-0.1,0.3-0.4,0.5-0.8,0.4
						c-0.1,0-0.2-0.1-0.2-0.1l-3.2-3.5c-0.2-0.2-0.6-0.2-0.8,0c-0.1,0.1-0.1,0.2-0.2,0.3l-1.1,5.5c-0.1,0.3-0.4,0.5-0.7,0.5
						c-0.2,0-0.3-0.2-0.4-0.3l-4.1-8.3c-0.1-0.3-0.5-0.4-0.8-0.3c-0.2,0.1-0.3,0.3-0.3,0.5l-0.9,5.3c-0.1,0.3-0.4,0.6-0.7,0.5
						c-0.1,0-0.3-0.1-0.4-0.2l-2.8-3.4c-0.1-0.1-0.1-0.2-0.1-0.4L451.5,300.5z"/>
					<path class="st22" d="M451.5,300.5l-6.6,17.9c-0.1,0.3,0.1,0.7,0.4,0.8c0.2,0.1,0.4,0,0.5,0l0,0c0.3-0.2,0.7,0,0.9,0.3
						c0.1,0.2,0.1,0.4,0,0.6l-9.6,15.1c-0.2,0.3-0.1,0.7,0.2,0.9c0.2,0.1,0.4,0.1,0.6,0l4.7-2.6c0.3-0.2,0.7-0.1,0.9,0.2
						c0.1,0.1,0.1,0.2,0.1,0.4l-1.5,16.2c0,0.3,0.2,0.7,0.5,0.7c0.3,0,0.6-0.1,0.7-0.5l3.6-11.2c0.1-0.3,0.5-0.5,0.8-0.4
						c0.2,0.1,0.4,0.2,0.4,0.5l0.4,1.6c0.1,0.3,0.4,0.5,0.8,0.5c0.2,0,0.4-0.2,0.5-0.4l2.7-8.1c0-0.1,0-0.1,0-0.2L451.5,300.5z"/>
					<path class="st22" d="M505.3,328.3l-5.9,13.9c-0.1,0.2-0.4,0.3-0.6,0.2c0,0,0,0-0.1,0l-4.1-2.4c-0.2-0.1-0.5-0.1-0.6,0.2
						c0,0,0,0,0,0l-3.4,6.5c-0.1,0.2,0,0.5,0.2,0.6c0.2,0.1,0.3,0.1,0.5,0l1.9-1.4c0.2-0.2,0.5-0.1,0.6,0.1c0.1,0.1,0.1,0.3,0.1,0.5
						l-1.6,4c-0.1,0.2,0,0.5,0.3,0.6c0.2,0.1,0.4,0,0.5-0.1l5.9-6c0.2-0.2,0.5-0.2,0.7,0c0,0,0.1,0.1,0.1,0.2l2,6.5
						c0.1,0.2,0.3,0.4,0.6,0.3c0.1,0,0.2-0.1,0.2-0.2l1.5-2.3c0.1-0.2,0.4-0.3,0.6-0.1c0.1,0.1,0.2,0.2,0.2,0.3l1.5,5.7
						c0,0.3,0.3,0.4,0.5,0.4c0.3,0,0.4-0.3,0.4-0.5l-1.5-28.4L505.3,328.3z"/>
					<path class="st25" d="M505.9,326.9l6,9.1c0,0,0.1,0.1,0.1,0.2l3.3,10.2c0,0,0,0.1,0,0.1l0.9,6.8c0,0.3-0.2,0.6-0.5,0.7
						c-0.3,0-0.5-0.1-0.6-0.4l0,0c-0.1-0.3-0.5-0.5-0.8-0.3c-0.3,0.1-0.4,0.4-0.4,0.6l0.3,3.8c0,0.3-0.2,0.6-0.6,0.6
						c-0.2,0-0.4-0.1-0.6-0.3l-1-1.9c-0.2-0.3-0.5-0.4-0.8-0.3c-0.1,0.1-0.2,0.2-0.3,0.4l-0.8,2.5c-0.1,0.3-0.4,0.5-0.8,0.4
						c-0.2-0.1-0.4-0.2-0.4-0.4l-1.6-5v-0.2L505.9,326.9z"/>
				</g>
			</g>
			<g id="base_snow">
				<path class="st0" d="M254.5,373.1l-8.4,14.4c-0.1,0-0.2,0-0.2,0h-3.8c-0.4,0-0.8,0.4-0.8,0.8v29.9c0,0.4,0.4,0.8,0.8,0.8h5.4
					c0.1,0,0.2,0,0.3,0l22.5,7.6l28.3,10c0.1,0,0.2,0.1,0.2,0.1l12.3,10.1c0.2,0.2,0.5,0.2,0.7,0.2l23.7-5.5h0.2l35.2-1.3h0.2
					l16.1,2.9c0.2,0,0.5,0,0.6-0.2l8.7-7c0.2-0.1,0.4-0.2,0.6-0.2l58.5,6.7c0.1,0,0.3,0,0.4-0.1l5.8-2.7c0.2-0.1,0.5-0.1,0.7,0
					l5,2.5c0.3,0.2,0.8,0.1,1-0.2l11.6-14.2l0.1-0.1L506,405l0.1-0.1l11-6.3c0.1-0.1,0.3-0.1,0.4-0.1h14.2c0.4,0,0.8-0.3,0.8-0.8
					c0,0,0,0,0,0V391c0-0.2-0.1-0.4-0.2-0.6l-5.8-6c-0.1-0.2-0.4-0.2-0.6-0.2l-4-8.5c-0.4,0-0.8,0.4-0.8,0.8c0,0.1,0,0.1,0,0.2
					l1.4,13.1c0.1,0.4-0.1,0.9-0.6,1c-0.1,0-0.2,0-0.4,0l-4.7-0.9c-0.2,0-0.4,0-0.5,0.1l-6.2,2.6c-0.4,0.2-1.2-1.1-1.5-1.5
					l-21.8-34.4c-0.2-0.3-4.6-2.5-4.9-2.4l0,0c-0.4,0.2-0.6,0.6-0.4,1.1c0.1,0.1,0.1,0.2,0.2,0.3l3.9,3.4c0.1,0.1,0.2,0.2,0.2,0.3
					l13.3,36.8c0.2,0.4,0,0.8-0.3,1l-35.2,36.6c-0.2,0.1-18.2-3.1-18.4-3.1L395.3,418c-0.4-0.1-0.7-0.5-0.6-1c0-0.1,0-0.1,0.1-0.2
					l35.4-63.7c0.2-0.4,0.4-1.8-0.1-2c-0.3-0.2-2.6,1.5-2.8,1.8l-37.1,58.2c-0.2,0.4-0.8,0.5-1.1,0.2c0,0-0.1-0.1-0.1-0.1
					l-33.4-37.1c-0.3-0.3,1.2-12.2,0.9-11.9c-0.2,0.3-3.4,11.5-3.2,11.8l30.4,46.4c0.2,0.4,0.2,0.9-0.2,1.1
					c-0.1,0.1-0.3,0.1-0.4,0.1l-71.4,11.8c-0.1,0-0.3,0-0.4-0.1l-47.6-20c-0.4-0.2-0.6-0.6-0.4-1c0,0,0,0,0-0.1l21.2-43.4
					c0.2-0.4,4-6.4,3.6-6.5c-0.4-0.2-4.7,5.4-5,5.7l-17.6,28.6c-0.2,0.4-0.7,0.5-1.1,0.3l-5.8-1.9c-0.2-0.1-0.3-0.1-0.5-0.1
					l-5.7,1.2c-0.4,0.1-0.9-0.2-0.9-0.6c0-0.1,0-0.2,0-0.4l4.1-21.2c0.1-0.4-0.1-0.9-0.6-1C254.9,373,254.7,373,254.5,373.1z"/>
			</g>
		</g>
	</g>
</g>
</svg>
