<svg xmlns="http://www.w3.org/2000/svg" xmlns:xlink="http://www.w3.org/1999/xlink" width="546.737" height="619.515" viewBox="0 0 546.737 619.515">
  <defs>
    <linearGradient id="a" y1="309.758" x2="546.737" y2="309.758" gradientUnits="userSpaceOnUse">
      <stop offset="0" stop-color="#6ad5b4"/>
      <stop offset="1" stop-color="#d57c6a"/>
    </linearGradient>
  </defs>
  <path d="M275.086,15c-54.443,0-110.174,20.316-151.707,49.231h0a11.862,11.862,0,0,0-11.862-11.862H49.567A34.567,34.567,0,0,0,15,86.936v482.4a35.184,35.184,0,0,0,35.184,35.184h43.69a29.5,29.5,0,0,0,29.505-29.5V478.677A255.472,255.472,0,0,0,275.086,528.3c141.745,0,256.651-114.907,256.651-256.652S416.831,15,275.086,15ZM241.921,442.149c-1.878-.407-7.752-.847-9.606-1.314q-2.47-.622-4.909-1.314-6.454-1.83-12.693-4.133-2.47-.912-4.909-1.9-6.482-2.618-12.693-5.728-2.474-1.239-4.909-2.555-6.517-3.526-12.692-7.578-2.484-1.63-4.909-3.342-6.577-4.641-12.693-9.86-2.494-2.13-4.909-4.35a175.628,175.628,0,0,1-12.692-12.949q-2.518-2.85-4.909-5.8a175.079,175.079,0,0,1-12.693-17.863c-1.146-1.848-2.249-3.724-3.326-5.616v-.616a173.237,173.237,0,0,1-22.751-86.082c0-2.823.069-6.4.2-10.228a22.556,22.556,0,0,1,22.546-21.74H241.921ZM131.537,172.47q4.509-6.514,9.58-12.584,2.082-2.493,4.256-4.909a175.79,175.79,0,0,1,12.655-12.692c1.855-1.68,3.735-3.31,5.661-4.91a174.958,174.958,0,0,1,27.342-18.641q2.431-1.34,4.909-2.6,6.207-3.165,12.692-5.841,2.434-1,4.909-1.937,6.236-2.35,12.693-4.234c1.629-.474,3.261-.923,4.909-1.35q7.449-1.934,15.147-3.216c.472-.079.939-.154,1.412-.229q2.121-.335,4.257-.617c5.727-.759,11.552-1.24,17.44-1.428.484-.016.967-.029,1.452-.041,1.409-.034,2.817-.05,4.235-.05h.022q8.83,0,17.44.863c1.427.141,2.84.3,4.257.475.62.077,1.241.158,1.859.241q6.465.874,12.771,2.212c1.643.349,3.284.721,4.909,1.116q6.444,1.561,12.7,3.6c1.651.536,3.281,1.093,4.909,1.677q6.472,2.319,12.7,5.128,2.476,1.114,4.909,2.3,6.505,3.177,12.7,6.873,2.628,1.566,5.194,3.22a174.976,174.976,0,0,1,17.285,12.7q2.871,2.4,5.638,4.909a175.661,175.661,0,0,1,12.62,12.7q2.168,2.418,4.241,4.91,4.957,5.955,9.385,12.35M449.2,282.76q-.154,2.466-.378,4.909-.585,6.429-1.627,12.705c-.272,1.64-.569,3.284-.886,4.909q-1.257,6.441-2.981,12.7c-.452,1.644-.929,3.285-1.427,4.909q-1.981,6.461-4.445,12.7-.977,2.477-2.022,4.909-2.791,6.493-6.084,12.7-1.314,2.478-2.7,4.909-2.546,4.452-5.345,8.743-2.368,3.63-4.909,7.131a175.074,175.074,0,0,1-12.7,15.55c-1.6,1.744-3.241,3.463-4.909,5.14q-6.066,6.1-12.7,11.578-2.416,1.995-4.909,3.907-6.14,4.71-12.7,8.879-2.427,1.54-4.909,3-6.194,3.651-12.7,6.8-2.434,1.176-4.909,2.277-6.231,2.774-12.7,5.063c-1.621.573-3.266,1.127-4.909,1.653q-6.26,2-12.7,3.539c-1.623.387-3.269.753-4.909,1.094-1.069.222-8.14.433-9.216.636V239.181H438.9a9.263,9.263,0,0,1,9.152,8.343l0,.015c.225,1.627.276,3.266.456,4.906q.688,6.291.926,12.7.09,2.448.112,4.909c0,.528.007,1.065.007,1.594C449.551,275.38,449.433,279.09,449.2,282.76Z" fill="none" stroke-miterlimit="10" stroke-width="30" stroke="url(#a)"/>
</svg>
