<svg xmlns="http://www.w3.org/2000/svg" width="249.883" height="210.213" viewBox="0 0 249.883 210.213">
  <g opacity="0.45">
    <g>
      <g>
        <polygon points="180.704 59.537 249.456 108.21 184.346 43.48 180.704 59.537" fill="#231f20"/>
        <polygon points="249.456 108.21 180.704 59.537 146.309 210.088 249.456 108.21" fill="#231f20"/>
        <polygon points="118.593 154.798 168.587 50.88 151.172 30 151.177 29.933 0.021 134.576 118.593 154.798" fill="#231f20"/>
        <polygon points="176.119 35.273 168.587 50.88 168.811 51.126 172.93 54.004 176.119 35.273" fill="#231f20"/>
        <polygon points="184.346 43.48 191.88 10.411 194.249 0.125 176.119 35.273 184.346 43.48" fill="#231f20"/>
        <polygon points="168.811 51.126 168.587 50.88 118.593 154.798 146.309 210.088 172.93 54.004 168.811 51.126" fill="#231f20"/>
        <polygon points="180.704 59.537 172.93 54.004 146.309 210.088 180.704 59.537" fill="#231f20"/>
        <polygon points="194.249 0.125 151.177 29.933 151.172 30 168.587 50.88 176.119 35.273 194.249 0.125" fill="#231f20"/>
        <polygon points="172.93 54.004 180.704 59.537 184.346 43.48 176.119 35.273 172.93 54.004" fill="#231f20"/>
      </g>
      <g>
        <polyline points="118.593 154.798 146.309 210.088 180.704 59.537 184.346 43.48 191.88 10.411 194.249 0.125" fill="none" stroke="#fff" stroke-linecap="round" stroke-linejoin="bevel" stroke-width="0.25"/>
        <polyline points="118.593 154.798 168.587 50.88 176.119 35.273 194.249 0.125 151.177 29.933 0.021 134.576 118.593 154.798 3.016 133.315" fill="none" stroke="#fff" stroke-linecap="round" stroke-linejoin="bevel" stroke-width="0.25"/>
        <polyline points="146.309 210.088 249.456 108.21 184.346 43.48 176.119 35.273" fill="none" stroke="#fff" stroke-linecap="round" stroke-linejoin="bevel" stroke-width="0.25"/>
        <polyline points="146.309 210.088 172.93 54.004 176.119 35.273" fill="none" stroke="#fff" stroke-linecap="round" stroke-linejoin="bevel" stroke-width="0.25"/>
        <polyline points="151.172 30 168.587 50.88 168.811 51.126 172.93 54.004 180.704 59.537 249.456 108.21" fill="none" stroke="#fff" stroke-linecap="round" stroke-linejoin="bevel" stroke-width="0.25"/>
        <line x1="197.817" y1="10.222" x2="249.456" y2="108.21" fill="none" stroke="#fff" stroke-linecap="round" stroke-linejoin="bevel" stroke-width="0.25"/>
      </g>
    </g>
    <g>
      <g>
        <polygon points="109.901 164.29 0.684 134.365 194.072 0.407 146.634 209.651 109.901 164.29" fill="#231f20"/>
        <path d="M193.879.693,146.57,209.373,110,164.212l-.128-.084L.976,134.316,193.879.693m.386-.572L.393,134.415,109.8,164.369l36.9,45.561L194.265.121Z" fill="#fff"/>
      </g>
      <g>
        <polygon points="109.952 164.354 184.736 18.861 249.719 108.099 146.71 209.744 109.952 164.354" fill="#231f20"/>
        <path d="M184.755,19.1l64.8,88.988L146.72,209.559,110.1,164.338,184.755,19.1m-.037-.475L109.8,164.369l36.9,45.561L249.883,108.113l-65.165-89.49Z" fill="#fff"/>
      </g>
      <g>
        <polygon points="0.736 134.347 197.168 10.753 176.442 35.004 118.913 154.549 0.736 134.347" fill="#231f20"/>
        <path d="M196.539,11.3,176.347,34.923l-.035.054-57.47,119.432L1.079,134.279,196.539,11.3M197.8,10.21h0Zm0,0L.393,134.415l118.592,20.273,57.552-119.6L197.8,10.21Z" fill="#fff"/>
      </g>
      <g>
        <polygon points="176.5 35.352 197.772 10.432 249.18 107.717 176.5 35.352" fill="#231f20"/>
        <path d="M197.748,10.653l50.938,96.394-72.016-71.7,21.078-24.692m.049-.443L176.33,35.359l73.346,73.027L197.8,10.21Z" fill="#fff"/>
      </g>
      <g>
        <polygon points="176.292 35.225 194.265 0.395 249.195 107.757 176.292 35.225" fill="#231f20"/>
        <path d="M194.264.668l54.461,106.445L176.445,35.2,194.264.668m0-.547L176.139,35.249,249.665,108.4,194.265.121Z" fill="#fff"/>
      </g>
    </g>
  </g>
</svg>
