<svg xmlns="http://www.w3.org/2000/svg" width="98.715" height="163.092" viewBox="0 0 98.715 163.092">
  <g opacity="0.45">
    <g>
      <g>
        <polygon points="98.59 99.63 80.905 130.153 64.773 97.969 96.597 0.125 98.59 99.63" fill="#231f20"/>
        <polygon points="80.905 130.153 14.242 162.874 10.072 102.911 80.905 130.153" fill="#231f20"/>
        <polygon points="80.905 130.153 10.072 102.911 64.773 97.969 80.905 130.153" fill="#231f20"/>
        <polygon points="64.773 97.969 10.072 102.911 0.129 52.913 96.597 0.125 64.773 97.969" fill="#231f20"/>
        <polygon points="14.242 162.874 0.129 52.913 10.072 102.911 14.242 162.874" fill="#231f20"/>
        <polygon points="2.374 103.564 0.129 52.913 14.242 162.874 2.374 103.564" fill="#231f20"/>
      </g>
      <g>
        <polyline points="64.773 97.969 80.905 130.153 98.59 99.63 96.597 0.125" fill="none" stroke="#fff" stroke-linecap="round" stroke-linejoin="bevel" stroke-width="0.25"/>
        <polyline points="64.773 97.969 10.072 102.911 0.129 52.913 96.597 0.125 64.773 97.969 95.644 1.709" fill="none" stroke="#fff" stroke-linecap="round" stroke-linejoin="bevel" stroke-width="0.25"/>
        <polyline points="80.905 130.153 14.242 162.874 10.072 102.911" fill="none" stroke="#fff" stroke-linecap="round" stroke-linejoin="bevel" stroke-width="0.25"/>
        <line x1="80.905" y1="130.153" x2="10.072" y2="102.911" fill="none" stroke="#fff" stroke-linecap="round" stroke-linejoin="bevel" stroke-width="0.25"/>
        <polyline points="0.129 52.913 2.374 103.564 14.242 162.874" fill="none" stroke="#fff" stroke-linecap="round" stroke-linejoin="bevel" stroke-width="0.25"/>
        <line x1="0.129" y1="52.913" x2="14.242" y2="162.874" fill="none" stroke="#fff" stroke-linecap="round" stroke-linejoin="bevel" stroke-width="0.25"/>
      </g>
    </g>
    <g>
      <g>
        <polygon points="64.763 98.112 96.378 1.06 98.335 99.852 80.786 130.116 64.763 98.112" fill="#231f20"/>
        <path d="M96.267,1.8l1.941,97.98L80.794,129.853,64.921,98.147,96.267,1.8M96.488.317,64.652,98.168l16.126,32.211,17.681-30.53L96.488.317Z" fill="#fff"/>
      </g>
      <g>
        <polygon points="10.077 103.234 64.579 98.3 80.61 130.322 14.238 162.897 10.077 103.234" fill="#231f20"/>
        <path d="M64.505,98.432l15.936,31.834L14.35,162.7l-4.14-59.356,54.295-4.916m.147-.264L9.944,103.121l4.182,59.971,66.652-32.713L64.652,98.168Z" fill="#fff"/>
      </g>
      <g>
        <polygon points="0.14 53.225 96.271 0.579 64.558 98.051 10.045 102.986 0.14 53.225" fill="#231f20"/>
        <path d="M96.055.84,64.465,97.933l-54.32,4.919L.281,53.29,96.055.84m.433-.523L0,53.159l9.944,49.962,54.708-4.953L96.488.317Z" fill="#fff"/>
      </g>
      <g>
        <polygon points="0.587 56.753 9.821 103.145 13.703 158.815 0.587 56.753" fill="#231f20"/>
        <path d="M1.175,60.343l8.519,42.8,3.585,51.4L1.175,60.343M0,53.159,14.126,163.092,9.944,103.121,0,53.159Z" fill="#fff"/>
      </g>
      <g>
        <polygon points="2.393 103.767 0.259 56.16 13.545 159.543 2.393 103.767" fill="#231f20"/>
        <path d="M.52,59.163,12.963,156,2.52,103.78l-2-44.617m-.52-6,2.27,50.632,11.856,59.3L0,53.159Z" fill="#fff"/>
      </g>
    </g>
  </g>
</svg>
