<svg xmlns="http://www.w3.org/2000/svg" xmlns:xlink="http://www.w3.org/1999/xlink" width="231.572" height="162.346" viewBox="0 0 231.572 162.346">
  <defs>
    <radialGradient id="a" cx="-72.444" cy="-129.185" r="58.154" gradientTransform="matrix(1.576, -1.261, -1.33, -0.711, 105.652, -82.899)" gradientUnits="userSpaceOnUse">
      <stop offset="0" stop-color="#c5c6c8" stop-opacity="0.4"/>
      <stop offset="0.246" stop-color="#bcbdbf" stop-opacity="0.395"/>
      <stop offset="0.48" stop-color="#a2a2a3" stop-opacity="0.378"/>
      <stop offset="0.71" stop-color="#757476" stop-opacity="0.351"/>
      <stop offset="0.936" stop-color="#383436" stop-opacity="0.313"/>
      <stop offset="1" stop-color="#231f20" stop-opacity="0.3"/>
    </radialGradient>
    <radialGradient id="b" cx="-66.719" cy="-63.736" r="46.8" xlink:href="#a"/>
    <radialGradient id="c" cx="-83.78" cy="-127.898" r="52.335" xlink:href="#a"/>
    <radialGradient id="d" cx="-85.701" cy="-45.876" r="28.937" xlink:href="#a"/>
    <radialGradient id="e" cx="-88.565" cy="-45.965" r="30.474" xlink:href="#a"/>
  </defs>
  <g>
    <g>
      <g>
        <polygon points="184.919 4.435 40.004 0.272 52.414 83.619 184.919 4.435" fill="#646464"/>
        <polygon points="184.919 4.435 52.414 83.619 53.743 93.04 184.919 4.435" fill="#979797"/>
        <polygon points="184.919 4.435 53.743 93.04 54.512 98.005 53.54 98.638 164.136 62.618 184.919 4.435" fill="#979797"/>
        <polygon points="52.414 83.619 40.004 0.272 38.247 92.067 52.414 83.619" fill="#646464"/>
        <polygon points="164.136 62.618 53.54 98.638 21.478 119.235 231.497 162.271 164.136 62.618" fill="#979797"/>
        <polygon points="52.414 83.619 38.247 92.067 38.005 103.685 53.743 93.04 52.414 83.619" fill="#979797"/>
        <polygon points="54.512 98.005 53.743 93.04 38.005 103.685 53.54 98.638 54.512 98.005" fill="#979797"/>
        <polygon points="53.54 98.638 38.005 103.685 0.075 114.884 21.478 119.235 53.54 98.638" fill="#979797"/>
        <polygon points="38.247 92.067 9.145 109.485 0.075 114.884 38.005 103.685 38.247 92.067" fill="#979797"/>
      </g>
      <g>
        <polyline points="164.136 62.618 184.919 4.435 52.414 83.619 38.247 92.067 9.145 109.485 0.075 114.884" fill="none" stroke="#fff" stroke-linejoin="round" stroke-width="0.15"/>
        <polyline points="164.136 62.618 53.54 98.638 38.005 103.685 0.075 114.884 21.478 119.235 231.497 162.271 164.136 62.618 228.515 160.98" fill="none" stroke="#fff" stroke-linejoin="round" stroke-width="0.15"/>
        <polyline points="184.919 4.435 40.004 0.272 38.247 92.067 38.005 103.685" fill="none" stroke="#fff" stroke-linejoin="round" stroke-width="0.15"/>
        <polyline points="184.919 4.435 53.743 93.04 38.005 103.685" fill="none" stroke="#fff" stroke-linejoin="round" stroke-width="0.15"/>
        <polyline points="6.953 128.609 21.478 119.235 53.54 98.638 54.512 98.005 53.743 93.04 52.414 83.619 40.004 0.272" fill="none" stroke="#fff" stroke-linejoin="round" stroke-width="0.15"/>
        <line x1="4.951" y1="105.348" x2="40.004" y2="0.272" fill="none" stroke="#fff" stroke-linejoin="round" stroke-width="0.15"/>
      </g>
    </g>
    <g>
      <g>
        <polygon points="0.278 114.851 184.458 4.35 177.066 62.353 230.993 162.019 0.278 114.851" fill="url(#a)"/>
        <path d="M184.365,4.494l-7.374,57.849a.151.151,0,0,0,.017.091l53.843,99.479L.481,114.816,184.365,4.494m.187-.288L.073,114.885l231.063,47.239-54-99.762,7.412-58.156Z" fill="#fff"/>
      </g>
      <g>
        <polygon points="39.725 0.054 184.467 4.279 177.066 62.353 20.137 108.886 39.725 0.054" fill="url(#b)"/>
        <path d="M39.776.2,184.383,4.351,177,62.246,20.233,108.779,39.776.2M39.651.041,20.042,108.992l157.1-46.63,7.412-58.156L39.651.041Z" fill="#fff"/>
      </g>
      <g>
        <polygon points="5.418 105.405 37.597 103.598 163.821 62.493 230.964 162.004 5.418 105.405" fill="url(#c)"/>
        <path d="M163.736,62.6l67.056,99.284L5.914,105.453,37.6,103.672a.159.159,0,0,0,.038-.007L163.736,62.6m.061-.178-126.2,41.1-32.67,1.837,226.214,56.765L163.8,62.421Z" fill="#fff"/>
      </g>
      <g>
        <polygon points="39.907 0.494 37.86 103.412 5.028 105.277 39.907 0.494" fill="url(#d)"/>
        <path d="M39.822.987,37.786,103.341,5.134,105.2,39.822.987M39.992,0,4.922,105.359l33.012-1.876L39.992,0Z" fill="#fff"/>
      </g>
      <g>
        <polygon points="39.927 0.471 37.911 103.696 0.192 114.772 39.927 0.471" fill="url(#e)"/>
        <path d="M39.842.941l-2,102.643L.311,114.659,39.842.941M40.01,0,.073,114.885,37.986,103.7,40.01,0Z" fill="#fff"/>
      </g>
    </g>
  </g>
</svg>
