<svg xmlns="http://www.w3.org/2000/svg" width="226" height="226" viewBox="0 0 226 226">
  <g>
    <path d="M0,0H226V226H0Z" fill="none"/>
    <g>
      <path d="M27.4,102.509V0h175.2V226H166.141l-1.816-1.823.016.018-.278-.278.02.016-1.577-1.51-.77-.577.018.016q-.66-.646-1.318-1.295l-1.547-1.309.016.018-.278-.279.021.017c-1.283-1.247-2.551-2.509-3.851-3.738-2.076-1.963-4.173-3.9-6.261-5.855l.015.017-.277-.278.019.016-1.57-1.309.017.014-2.355-1.478a16.58,16.58,0,0,0-2.119-.395c-1.958-.118-3.92-.164-5.88-.238l-8.3-3.34.018.015-.8-.534.019.015-3.9-3.121.017.019-.278-.278.018.019-.278-.279.02.017-1.052-1.052.017.02-.278-.278.017.016-.75-.93-1.856-1.93.018.019-4.932-7.017.016.024-.071-.264c-3.788-6.345-7.444-12.757-10.015-19.721l-.289-1.252-.459-1.827-.1-.749-.131-.5-.392-2.359-.476-2.064-1.062-4.4-.694-1.868-.468-1.082-1.107-2.006L98.1,148.04l-1.552-1.814-.254-.265-.253-.265-.258-.259-.253-.266-.259-.258-.263-.255-.259-.258-.261-.258-.27-.248-.528-.506-1.352-1.235-.971-.844L88,138.464l-1-.805-.287-.233-1.295-1.037-1.009-.8-.287-.233-1.3-1.029-1.02-.79-2.037-1.594-1.123-.914-.466-.337-1.3-1.033-1.292-1.037-1.806-1.558-.266-.253-1.3-1.288-.5-.53-.251-.269-1.3-1.547-1.579-2.3-.457-.828a.219.219,0,0,0-.071-.188l-.691-1.95a.789.789,0,0,0,.183-.142l1.165.538a.673.673,0,0,0,.107.113l1.056.924-.02-.018,1.832,1.571-.02-.017c1.065,2.589,3.469,2.953,5.2.786l-.019.017.537-.538-.019.02.8-.794-.018.018.538-.493,1.545-2.119-.019.02,1.078-1.224a6.436,6.436,0,0,0,.807-1.373,3.815,3.815,0,0,0-.074-1.309l.021.023-1.056-1.056.021.02-1.314-1.056,0,0q-.26-.542-.518-1.084l.533.029a.247.247,0,0,0,.2.058l2.912,1.324L81.728,110.8v-2.727l-.151-.023-.111.923c-.692-.192-1.385-.391-1.741.527l-.07-.012-.388.071c-.6-.883-1.241-.939-1.923-.088h-.885l.213-.252-.742-.678-.039.424H73.74l-2.866.095-.6-.294-.924.59c-.7-.686-1.143-.276-1.707.449l.856.5a9.174,9.174,0,0,0-1.978,6.445l-1.576.209-.82.011-.187,0-5.233-.066-.317-.133a3.1,3.1,0,0,1-2.538-2.992l-.122-1.672-.022-.812c.023-.025.07-.056.066-.073a.926.926,0,0,0-.078-.166l.244-6.469-.029.047.244-.337c1.461-1.871,3.483-1.748,5.525-1.552l5.055-.174,8.922-.084,4.02-.177.791-.01.25-.006,3.362.217a4.333,4.333,0,0,1,2.126,4.189c-.064,1.654.1,3.316.159,4.975l-.1,1.8-1.671-.8-.141.294,3.769,1.989,1.782,1.049,1.3.77,2.07,1.3.76.5.478.327.308.211.571.407a.232.232,0,0,0,.213.1l.459.317.307.211.759.533.3.216.763.533.761.534,1.052.758,1.012.766,1.516,1.084.308.233,1.044.768,1.039.772,2.077,1.549.286.212,2.337,1.82.9.863,1.958,1.435.511.3,2.052,1.217.864.4a36.758,36.758,0,0,0,5.126,1.98,26.355,26.355,0,0,1,9.141,4.262c2.364,1.639,4.63,3.418,6.943,5.131.246.182.513.336.77.5a32.5,32.5,0,0,0-4.571-3.912c-3.24-2.326-6.486-4.649-10.363-5.865-2.2-.69-4.376-1.455-6.563-2.186l-1.36-.7-1.793-1.079.692-3.351.719-1.759-.362-.125-.592,1.717c-.075.1-.148.21-.23.309-.013.016-.069,0,.039.006v-8.445l.6-2.041-.353-.086-.446,2.13-.363,9.5.009.9,0,.4c-.242.08-.562.3-.713.216a15.577,15.577,0,0,1-1.515-1.062l-.68-.67c-.318-2.151-.79-4.293-.922-6.455a66.428,66.428,0,0,1,1.317-15.209L112,102.5c.692-1.955,1.385-3.909,2.035-5.744-1.341-1.387-1.264-3.517-2.185-5.172-.03-.155-.061-.311-.091-.466l-.152-.335-.827-2.664-.513-1.711,0-5.071q1.963-2.964,3.926-5.93l.21-.273.89-1.412-.29-.149-.66,1.149-.319.526q-1.787,2.6-3.572,5.2l-.467-.082V67.8l-.037-2.821V60.365c1.056.517,1.941,1.013,2.873,1.394,2.909,1.192,5.835,2.342,8.755,3.507l.568.206,1.235.585.262.256.521.513,1.814,2.843,3.085,8.268,1.154,4.375,1.057,4.127.406,1.385a8,8,0,0,0,.4,1.347c2.056,4.149,4.044,8.335,6.224,12.418,5.581,10.453,10.886,21.03,14.289,32.429,3.223,10.8,8.136,20.826,13.6,30.62l2.272,3.906,1.264,2.088,1.645,2.805q.6.934,1.19,1.868l2.324,3.628.518.779q1.841,2.69,3.68,5.381l.99,1.339.87,1.24c2.965,3.982,5.9,8,10,10.934l4.14,3.626,3.391,3.324.28-.3-3.441-3.233L191.18,198.4c-1.73-1.656-3.55-3.23-5.166-4.991-1.675-1.826-3.153-3.833-4.717-5.76l-1-1.408-1.182-1.574-3.489-5.21-.472-.715-2.372-3.687-1.029-1.64q-.908-1.494-1.814-2.987L168.5,168.1l-1.926-3.5c-.221-.419-.437-.84-.664-1.256-5.087-9.33-9.765-18.835-12.807-29.074-3.384-11.389-8.66-21.957-14.173-32.427-2.477-4.706-4.68-9.558-7.008-14.343l-.415-1.416q-.47-1.905-.94-3.812-.6-2.18-1.211-4.359l-3.165-8.459-1.826-2.823-.552-.579-.207-.182-1.16-.686-.577-.193a15.143,15.143,0,0,1-1.712-.525c-3.321-1.445-6.63-2.917-9.943-4.38a3.536,3.536,0,0,1-.5-1.174q-.412-24.84-.768-49.682A8.949,8.949,0,0,0,99.874.262C97.287.267,94.7.335,92.113.371q-26.649.369-53.3.742c-6.04.088-9.662,3.859-9.586,9.916q.121,9.574.264,19.149.5,33.834.99,67.667a10.657,10.657,0,0,1-.215,1.605l-.422.287-1.35,1.355-.19.235Zm37.171,8.3-.976.248-.5-.565,1.516-.23.17-.211.608.217c.077.567.034,1.256.675,1.062l-.3-1.579.2-.223-.34-.882-.589.8-.425.073L63,109.5l-.493.727-.677-.991-1.821.3c-.035,1.79.448,2.1,1.8,1.459l-.006,0-.494.893-1.118-.1-.01.331H61.3a8.751,8.751,0,0,0,.8-.894,5.267,5.267,0,0,0,.405-.922l.86.984,1.292-.383Zm51.245-15.6.749-.894-.239-.189-.708.831-.37.369-.982,1.12.266.211.92-1.1Zm.546,28.459-1.078,1.753.318.156.9-1.781.211-.316,2.486-3.471.409-.631-.162-.114-.441.56q-1.279,1.827-2.56,3.652A.234.234,0,0,0,116.365,123.67Zm-29.443-1.781-1.025,1.58L84.129,126l.277.21,1.695-2.479.865-1.474.436-.466-.161-.155Zm-4.932,1.768-.606.777.209.156.436-.561,3.269-4.366-.333-.24Zm34.8-30.16.253.264,2.981-2.785-.231-.249Zm5.233,23.909-.242-.285-1.011.806.184.233Zm80.14,91.968.291-.279c-.186-.2-.368-.4-.564-.582-.018-.018-.118.05-.225.1Z" fill="#fefefe"/>
      <path d="M165.883,226H27.4V106.392l1.654,2.5,1,1.031.46.339a2.368,2.368,0,0,1,.118.5q.091,6.315.156,12.631a1.92,1.92,0,0,1-.272.661L29.016,125.4l-.518.808q-.105.244-.212.489a7.519,7.519,0,0,0,.245,6.8l.642.76.637.517,1.189.663c.085,5.087.131,10.175.267,15.261a8.744,8.744,0,0,0,8.668,8.509c4.87,0,9.74-.148,14.61-.232-.131.224-.208.546-.4.656-.932.524-1.9.991-2.849,1.478l-3.075,1.824-1.808,1.257c-1.58,1.241-3.156,2.485-3.642,4.594l.018,1.05.5,1.193.4.512c1.118,1.67,2.848,2.251,4.687,2.64l2.329.277h4.644l3.105-.26,4.946-.935c1.759-.538,3.577-.936,5.267-1.64,5.095-2.122,10.141-4.362,15.206-6.557l1.135-.736a10.094,10.094,0,0,1,2.026-.946,54.674,54.674,0,0,0,12.851-4.658l2.087-.042.321,1.832.483,2.571.193.551.047.486.44,1.833.342,1.533a99.988,99.988,0,0,0,9.9,19.463l.208.309.219-.081-.016-.024a4.67,4.67,0,0,0,.454,1.163c1.471,1.968,2.981,3.906,4.478,5.854l-.018-.019,1.817,2.345.789.515-.018-.016-.012.293.291-.015-.017-.02,1.052,1.052-.02-.017-.015.294.293-.015-.018-.019-.016.289.294-.011-.017-.019,3.9,3.121-.019-.015.8.534-.018-.015c.071.149.107.389.22.434,2.687,1.066,5.381,2.112,8.075,3.162,1.315.107,2.631.2,3.945.325,1.351.124,2.7.272,4.05.409l2.364,1.121-.017-.014,1.57,1.309-.019-.016-.016.293.293-.015-.015-.017c.073.193.092.442.226.571q4.584,4.4,9.2,8.76a1.991,1.991,0,0,0,.687.262l-.021-.017-.015.293.293-.014-.016-.018,1.157,1.342,1.708,1.262-.018-.016.731.964,1.616,1.123-.02-.016-.016.293.294-.015-.016-.018Z" fill="#fefefe"/>
      <path d="M29.057,108.887l-1.654-2.5v-3.883l.9-1.182.2.208a4.811,4.811,0,0,0-.652,4.282,23.644,23.644,0,0,0,1.419,2.851Z" fill="#53415d"/>
      <path d="M165.883,226l-1.558-1.823L166.141,226Z" fill="#5a4863"/>
      <path d="M101.974,158.678l-2.087.042c-.142-.177-.287-.508-.425-.5-1.16.027-2.318.115-3.477.184q-19.237.278-38.475.568a12.717,12.717,0,0,0-1.877.3l-1.089-.3c-4.87.084-9.74.234-14.61.232a8.744,8.744,0,0,1-8.668-8.509c-.136-5.086-.182-10.174-.267-15.261l.01-.6c-.042-3.189-.073-6.377-.139-9.565a3.242,3.242,0,0,0-.345-.957l0-.267a1.92,1.92,0,0,0,.272-.661q-.057-6.316-.156-12.631a2.368,2.368,0,0,0-.118-.5,11.086,11.086,0,0,0,.277-1.869c-.049-2.4-.162-4.791-.251-7.186l-.029-1.3-.249-.456a10.657,10.657,0,0,0,.215-1.605Q30,64.011,29.493,30.178q-.141-9.574-.264-19.149c-.076-6.057,3.546-9.828,9.586-9.916q26.648-.39,53.3-.742C94.7.335,97.287.267,99.874.262a8.949,8.949,0,0,1,9.071,8.971q.354,24.842.768,49.682a3.536,3.536,0,0,0,.5,1.174c-.171.171-.494.347-.489.514.042,1.459.142,2.916.224,4.373q.018,1.41.037,2.821c0,3.63-.023,7.261.007,10.891.007.884.179,1.767.275,2.65q0,2.535,0,5.071l-.235,1.671q.131,9.12.259,18.24l.247,1.942a66.428,66.428,0,0,0-1.317,15.209c.132,2.162.6,4.3.922,6.455l-.415.012-2.337-1.82c0-.085,0-.169-.008-.254a6.576,6.576,0,0,0,.243-1.3q-.2-14.946-.438-29.892-.419-29.311-.824-58.622-.169-12.033-.353-24.065l-.016-.524c0-1.465.025-2.931,0-4.395-.057-3.068-1.756-4.646-4.83-4.586-7.028.138-14.056.274-21.084.372q-21.8.306-43.6.572a3.987,3.987,0,0,0-4.232,4.322c0,.475.01.949.018,1.424q.113,6.85.226,13.7.2,15.9.4,31.8c-.012.474-.04.947-.032,1.421.139,8.535.3,17.069.419,25.6q.339,24.444.644,48.889c.01.769.1,1.537.154,2.306q.046,6.073.094,12.148c0,1.207-.03,2.415,0,3.621a4.13,4.13,0,0,0,4.525,4.358c2.156-.032,4.311-.111,6.466-.141q22.316-.3,44.631-.594c1.2-.017,2.41-.074,3.614-.112l6.729-.05.256-.01.3-.079.44.014,1.062,4.4Z" fill="#2b1338"/>
      <path d="M68.811,118.417a.673.673,0,0,1-.107-.113c-.629-.947-2.055-1.363-1.806-2.9.409-2.516,1.23-4.737,3.751-5.894l.12,0,.113-.041,2.864-.276,3.869,1.455,2.067,1.17,0,0,1.314,1.056-.021-.02,1.056,1.056-.021-.023-.785,2.3L80.2,117.794l.019-.02-1.588,1.746-.495.866.018-.018-.8.794.019-.02-.537.538.019-.017-2.284,1.354-2.912-2.14.02.017-1.832-1.571.02.018Z" fill="#fcfcfc"/>
      <path d="M131.923,87.5c2.328,4.785,4.531,9.637,7.008,14.343,5.513,10.47,10.789,21.038,14.173,32.427,3.042,10.239,7.72,19.744,12.807,29.074.227.416.443.837.664,1.256l-.384.035c-5.462-9.794-10.375-19.821-13.6-30.62-3.4-11.4-8.708-21.976-14.289-32.429-2.18-4.083-4.168-8.269-6.224-12.418a8,8,0,0,1-.4-1.347Z" fill="#5a4863"/>
      <path d="M75.659,102.492l-8.922.084-5.055.174c-2.042-.2-4.064-.319-5.526,1.553l-.243-.042v.378l.029-.046a5.837,5.837,0,0,0-.814,1.882c-.1,2.41-.052,4.826-.035,7.239a3.706,3.706,0,0,0,3.827,3.819c2.628.02,5.256.03,7.884.044.074.247.147.5.221.742-2.5-.008-5,0-7.505-.029-2.664-.03-4.759-1.469-5.043-4.026a38.967,38.967,0,0,1,0-8.251,3.859,3.859,0,0,1,3.793-3.736c3.554-.256,7.116-.441,10.678-.514,4.139-.086,8.281-.06,12.421.011a12.766,12.766,0,0,1,2.737.649l-.024.093L80.72,102.3a.253.253,0,0,0-.25.006l-.791.01Z" fill="#bb2728"/>
      <path d="M66.8,117.577c-2.628-.014-5.256-.024-7.884-.044a3.706,3.706,0,0,1-3.827-3.819c-.017-2.413-.062-4.829.035-7.239a5.837,5.837,0,0,1,.814-1.882q-.122,3.234-.244,6.468a.2.2,0,0,0,.012.239l.022.812.122,1.672a3.1,3.1,0,0,0,2.538,2.992l.317.133,5.232.066.094.032.094-.037.819-.011Z" fill="#7a1a1a"/>
      <path d="M116.49,134.061c2.187.731,4.363,1.5,6.563,2.186,3.877,1.216,7.123,3.539,10.363,5.865a32.5,32.5,0,0,1,4.571,3.912c-.257-.167-.524-.321-.77-.5-2.313-1.713-4.579-3.492-6.943-5.131a26.355,26.355,0,0,0-9.141-4.262,36.758,36.758,0,0,1-5.126-1.98Z" fill="#5d4a68"/>
      <path d="M113.7,186.947a99.988,99.988,0,0,1-9.9-19.463l.241-.294c2.571,6.964,6.227,13.376,10.015,19.721Z" fill="#5a4863"/>
      <path d="M190.944,198.606c-4.1-2.938-7.035-6.952-10-10.934l.353-.026c1.564,1.927,3.042,3.934,4.717,5.76,1.616,1.761,3.436,3.335,5.166,4.991Z" fill="#5a4863"/>
      <path d="M109.95,64.976c-.082-1.457-.182-2.914-.224-4.373,0-.167.318-.343.489-.514,3.313,1.463,6.622,2.935,9.943,4.38a15.143,15.143,0,0,0,1.712.525l-.292.272c-2.92-1.165-5.846-2.315-8.755-3.507-.932-.381-1.817-.877-2.873-1.394Z" fill="#53415d"/>
      <path d="M158.648,219.014a1.991,1.991,0,0,1-.687-.262q-4.617-4.362-9.2-8.76c-.134-.129-.153-.378-.226-.571,2.088,1.951,4.185,3.892,6.261,5.855C156.1,216.505,157.365,217.767,158.648,219.014Z" fill="#5a4863"/>
      <path d="M66.8,117.577l-1.856-.618,1.577-.209a9.174,9.174,0,0,1,1.978-6.445l.316-.241.91-.58.92.025c-2.521,1.157-3.342,3.378-3.751,5.894-.249,1.538,1.177,1.954,1.806,2.9l-1.165-.538-.255-.318.072.46.691,1.95-.272-.05-.75-1.489Z" fill="#5a4863"/>
      <path d="M110.269,81.338c-.1-.883-.268-1.766-.275-2.65-.03-3.63-.009-7.261-.007-10.891V80.365l.467.082q1.787-2.6,3.572-5.2a2.318,2.318,0,0,1,.169.16Z" fill="#5d4a68"/>
      <path d="M111.848,91.585c.921,1.655.844,3.785,2.185,5.172-.65,1.835-1.343,3.789-2.035,5.744l-.358-.023c.618-1.762,1.731-3.528,1.718-5.285-.014-1.81-1.124-3.612-1.754-5.418Z" fill="#53415d"/>
      <path d="M86.367,111.68c-.062-1.659-.223-3.321-.159-4.975a4.333,4.333,0,0,0-2.126-4.189l.024-.093a3.672,3.672,0,0,1,2.549,3.489c.034,2.579-.014,5.159-.028,7.739Z" fill="#c33c38"/>
      <path d="M113.049,131.442l0-.4-.009-.9.363-9.5.1.008.1-.011v8.445c-.108-.01-.052.01-.039-.006.082-.1.155-.205.23-.309l.235.167-.692,3.351-.246.252-.511-.3Z" fill="#443050"/>
      <path d="M136.381,206.026c-2.694-1.05-5.388-2.1-8.075-3.162-.113-.045-.149-.285-.22-.434l8.3,3.34C136.388,205.855,136.386,205.941,136.381,206.026Z" fill="#5a4863"/>
      <path d="M126.192,69.457l3.165,8.459-.294.021-3.085-8.268Z" fill="#5a4863"/>
      <path d="M119.043,194.168c-1.5-1.948-3.007-3.886-4.478-5.854a4.67,4.67,0,0,1-.454-1.163Z" fill="#53415d"/>
      <path d="M136.381,206.026c0-.085.007-.171,0-.256,1.96.074,3.922.12,5.88.238a16.58,16.58,0,0,1,2.119.395l-.009.357c-1.35-.137-2.7-.285-4.05-.409C139.012,206.23,137.7,206.133,136.381,206.026Z" fill="#443050"/>
      <path d="M61.8,110.99c-1.347.641-1.83.331-1.8-1.459l1.821-.3.678.991a.089.089,0,0,0,0,.075,5.267,5.267,0,0,1-.405.922,8.751,8.751,0,0,1-.8.894.281.281,0,0,0,0-.229l.493-.892c-.01-1.527-.2-1.688-1.536-1.142l.2,1.138Z" fill="#363133"/>
      <path d="M179.084,185.093q-1.839-2.691-3.68-5.381l.221-.258q1.745,2.606,3.489,5.211Z" fill="#62526b"/>
      <path d="M111.64,102.478l.358.023-1.462,5.761q-.123-.971-.247-1.942c.146-.144.373-.264.424-.436C111.043,104.755,111.335,103.615,111.64,102.478Z" fill="#62526b"/>
      <path d="M77.615,110.652,73.746,109.2a1.253,1.253,0,0,0-.006-.229h2.151l.039-.424.742.678-.213.252h.885l.306.27a.889.889,0,0,1,.207.059l-.418.358Z" fill="#443050"/>
      <path d="M195.084,202.232l-4.14-3.626.236-.209,4.134,3.626Z" fill="#5a4863"/>
      <path d="M71.659,120.877l2.912,2.14,2.284-1.354C75.128,123.83,72.724,123.466,71.659,120.877Z" fill="#5d4a68"/>
      <path d="M81.99,123.657l2.975-4.234.333.24-3.269,4.366Z" fill="#5d4a68"/>
      <path d="M127.328,201.926l-3.9-3.121Z" fill="#5a4863"/>
      <path d="M86.367,111.68l.261,1.971,1.573,1.035.023.278-3.769-1.989.141-.294,1.671.8Z" fill="#53415d"/>
      <path d="M195.314,202.023l3.441,3.233-.28.3-3.391-3.324Z" fill="#5a4863"/>
      <path d="M61.8,110.99H60.458l-.2-1.138c1.336-.546,1.526-.385,1.536,1.142Z" fill="#f5f4f3"/>
      <path d="M166.191,164.638l.384-.035,1.926,3.5c-.013.148-.025.3-.038.445Z" fill="#62526b"/>
      <path d="M174.886,178.933l-2.324-3.628.219-.253,2.372,3.687Z" fill="#62526b"/>
      <path d="M131.274,86.439q-.528-2.064-1.057-4.127l.351-.037q.471,1.906.94,3.813Z" fill="#5a4863"/>
      <path d="M130.568,82.275l-.351.037q-.578-2.187-1.154-4.375l.294-.021Z" fill="#53415d"/>
      <path d="M88,138.464l3.369,2.845-.184.19-3.371-2.838Z" fill="#562843"/>
      <path d="M62.508,110.3a.089.089,0,0,1,0-.075q.246-.365.493-.727l.361.018-.182.558,1.2-.072.235.264-1.516.23c.211.238.356.4.5.565l-.23.223Z" fill="#62526b"/>
      <path d="M116.785,93.5l3-2.77.231.249-2.981,2.785Z" fill="#5d4a68"/>
      <path d="M77.615,110.652l-.176-.491.418-.358.3.03.76.7-.394.038.042.3.619-.1-.016-.033.518,1.084Z" fill="#7b6b83"/>
      <path d="M116.446,123.478q1.28-1.825,2.56-3.652l.195.186-2.487,3.47Z" fill="#62526b"/>
      <path d="M78.913,110.532l-.76-.7.706-.145-.137-.412-1.072.468-.306-.27c.682-.851,1.322-.8,1.923.088l-.047.678.456.041.021.486-.533-.029.016.033Z" fill="#53415d"/>
      <path d="M124.366,66.634l1.826,2.823-.214.212-1.814-2.843Z" fill="#5a4863"/>
      <path d="M169.938,170.425q.908,1.492,1.814,2.987l-.38.025-1.645-2.805Z" fill="#53415d"/>
      <path d="M81.728,110.8l1.084,1.346L79.9,110.825l.465-.083.877-.125Z" fill="#5a4863"/>
      <path d="M73.74,108.968a1.261,1.261,0,0,1,.006.23l-2.864.275-.008-.41Z" fill="#62526b"/>
      <path d="M65.039,109.451l.589-.8.34.882-.2.223.3,1.579c-.641.194-.6-.5-.675-1.062Z" fill="#363133"/>
      <path d="M86.1,123.728l-1.695,2.479-.277-.21,1.768-2.528Z" fill="#5d4a68"/>
      <path d="M120.842,196.494l-1.817-2.345,1.856,1.93Z" fill="#62526b"/>
      <path d="M61.682,102.75l5.055-.174Z" fill="#fbf9f9"/>
      <path d="M113.049,131.442l-.469.794-1.958-1.435.2-.2a15.577,15.577,0,0,0,1.515,1.062C112.487,131.742,112.807,131.522,113.049,131.442Z" fill="#5d4a68"/>
      <path d="M144.376,206.76l.009-.357,2.355,1.478Z" fill="#5a4863"/>
      <path d="M68.575,120.874l1.579,2.3-.18.178-1.582-2.306Z" fill="#562843"/>
      <path d="M68.819,110.064l-.316.241-.856-.5c.564-.725,1.01-1.135,1.707-.449l-.011.007-1.345.2Z" fill="#62526b"/>
      <path d="M102.778,163.081l-.483-2.571.378,0,.392,2.359Z" fill="#53415d"/>
      <path d="M107.1,127.906l-2.077-1.549.185-.194.388.175.75.537.427.343.5.5Z" fill="#562843"/>
      <path d="M78.627,119.52l1.588-1.746-1.545,2.119Z" fill="#62526b"/>
      <path d="M81.222,116.183l.785-2.3a3.815,3.815,0,0,1,.074,1.309,6.436,6.436,0,0,1-.807,1.373Z" fill="#53415d"/>
      <path d="M168.463,168.544c.013-.148.025-.3.038-.445l1.437,2.326-.211.207Z" fill="#53415d"/>
      <path d="M102.673,160.508l-.378,0-.321-1.832.223-.234Z" fill="#62526b"/>
      <path d="M113.6,120.635l-.1.011-.1-.008.446-2.13.353.086Z" fill="#53415d"/>
      <path d="M73.774,127.065l1.806,1.558-.185.191-1.812-1.573Z" fill="#562843"/>
      <path d="M93.374,118.079l-2.07-1.3.167-.181,2.081,1.285Z" fill="#562843"/>
      <path d="M79.759,131.945l2.037,1.593-.17.177-2-1.614Z" fill="#562843"/>
      <path d="M75.659,102.492l4.02-.177Z" fill="#fbf9f9"/>
      <path d="M110.03,88.08q.118-.836.235-1.671l.513,1.712-.1.521-.327-.674Z" fill="#62526b"/>
      <path d="M110.682,88.642l.1-.521q.414,1.331.827,2.664L111.37,91Z" fill="#5a4863"/>
      <path d="M164.083,223.933l-1.616-1.123.039-.387Z" fill="#5a4863"/>
      <path d="M160.046,220.6l-1.157-1.342,1.547,1.309Z" fill="#5a4863"/>
      <path d="M69.343,109.366l.011-.007.924-.59.6.294.008.41-.113.041-.12,0-.92-.025Z" fill="#443050"/>
      <path d="M96.55,146.226,98.1,148.04l-.183.18L96.353,146.4Z" fill="#562843"/>
      <path d="M98.866,149.087l1.107,2.006c-.057.051-.114.1-.173.15l-1.124-1.972Z" fill="#562843"/>
      <path d="M113.091,132.535l.246-.252,1.793,1.079.013.39Z" fill="#53415d"/>
      <path d="M103.458,165.951l-.44-1.833.275-.007.459,1.827Z" fill="#62526b"/>
      <path d="M171.372,173.437l.38-.025,1.029,1.64-.219.253Q171.968,174.371,171.372,173.437Z" fill="#62526b"/>
      <path d="M88.224,114.964c-.008-.093-.016-.185-.023-.278l1.972,1.123-.167.2Z" fill="#562843"/>
      <path d="M148.293,209.176l-1.57-1.309Z" fill="#5a4863"/>
      <path d="M69.847,119.323l1.832,1.571Z" fill="#5d4a68"/>
      <path d="M79.725,109.5c.356-.918,1.049-.719,1.741-.527,0,.178-.008.357-.011.536l-1.412-.006Z" fill="#62526b"/>
      <path d="M160.046,220.6l.39-.033q.658.648,1.318,1.295Q160.9,221.232,160.046,220.6Z" fill="#53415d"/>
      <path d="M86.1,123.728l-.2-.259,1.025-1.58.044.365Z" fill="#53415d"/>
      <path d="M70.154,123.178l1.3,1.547c-.056.06-.111.12-.165.181l-1.314-1.55Z" fill="#562843"/>
      <path d="M81.454,109.512l.012-.536.111-.923.151.023V110.8l-.486-.187Q81.349,110.064,81.454,109.512Z" fill="#1c1415"/>
      <path d="M113.794,128.765l.592-1.717.362.125-.719,1.759Z" fill="#7b6b83"/>
      <path d="M114.345,74.723l.66-1.149.29.149q-.445.707-.89,1.412Z" fill="#62526b"/>
      <path d="M179.084,185.093l.03-.428,1.182,1.573-.222.194Z" fill="#53415d"/>
      <path d="M116.5,123.8l-.9,1.781-.318-.156,1.079-1.753A1.837,1.837,0,0,1,116.5,123.8Z" fill="#5d4a68"/>
      <path d="M101.135,154.043l-.441-.014q-.112-.379-.227-.761c-.067-.29-.133-.58-.2-.869l.174-.224Z" fill="#5a4863"/>
      <path d="M81.222,116.183l.052.387L80.2,117.794Z" fill="#5d4a68"/>
      <path d="M122.018,117.406l-1.069.754-.184-.233,1.011-.806Z" fill="#62526b"/>
      <path d="M64.614,110.265,64.379,110l-1.017-.486L63,109.5l1.613.027.17.53Z" fill="#363133"/>
      <path d="M75.58,128.623l1.292,1.037-.183.191L75.4,128.814Z" fill="#562843"/>
      <path d="M76.872,129.66l1.3,1.033-.181.189-1.3-1.031Z" fill="#562843"/>
      <path d="M131.274,86.439l.234-.351q.208.707.415,1.415l-.243.321Z" fill="#62526b"/>
      <path d="M82.816,134.328l1.3,1.029-.173.2-1.313-1.032Z" fill="#562843"/>
      <path d="M102.635,124.584l-1.516-1.084.371-.022,1.308.964A1.691,1.691,0,0,1,102.635,124.584Z" fill="#53415d"/>
      <path d="M85.415,136.389l1.295,1.037c-.056.061-.11.123-.163.186l-1.3-1.048Z" fill="#562843"/>
      <path d="M181.3,187.646l-.353.026-.87-1.24.222-.194Q180.8,186.942,181.3,187.646Z" fill="#53415d"/>
      <path d="M103.458,165.951l.294-.013.289,1.252-.241.294Z" fill="#53415d"/>
      <path d="M91.3,116.783l-1.3-.77.167-.2,1.3.793Z" fill="#562843"/>
      <path d="M82.028,113.911l-1.056-1.056Z" fill="#5d4a68"/>
      <path d="M72.207,125.524l1.3,1.288c-.057.062-.112.124-.167.187l-1.317-1.289Z" fill="#562843"/>
      <path d="M61.3,111.886a.281.281,0,0,1,0,.229H60.176l.01-.331Z" fill="#62526b"/>
      <path d="M28.5,101.092l1.35-1.355.2.239-1.294,1.288Z" fill="#53415d"/>
      <path d="M101.49,123.478l-.371.022-1.012-.766.176-.187Z" fill="#562843"/>
      <path d="M92.34,142.153l1.352,1.235-.183.188-1.335-1.244C92.23,142.273,92.285,142.213,92.34,142.153Z" fill="#562843"/>
      <path d="M115.455,95.561l-.92,1.1-.266-.211.982-1.119Z" fill="#62526b"/>
      <path d="M81.8,133.538l1.02.79-.183.195-1.008-.808Z" fill="#562843"/>
      <path d="M115.143,133.752l-.013-.39,1.36.7-.483.087Z" fill="#7b6b83"/>
      <path d="M80.993,112.875l-1.314-1.056Z" fill="#5d4a68"/>
      <path d="M78.636,131.03l1.123.914c-.045.053-.09.105-.136.157l-.987-.776Z" fill="#53415d"/>
      <path d="M109.726,129.938l.415-.012.68.67-.2.2Z" fill="#7b6b83"/>
      <path d="M105.026,126.357l-1.039-.772.182-.195,1.042.773Z" fill="#562843"/>
      <path d="M122.447,65.187l1.16.686-.226.184-1.235-.585Z" fill="#5a4863"/>
      <path d="M91.369,141.309l.971.844c-.055.06-.11.12-.166.179l-.989-.833Z" fill="#562843"/>
      <path d="M103.987,125.585l-1.044-.768q.084-.093.165-.189l1.061.762Z" fill="#562843"/>
      <path d="M64.784,110.054l-.17-.53.425-.073.353.82Z" fill="#fbf9f9"/>
      <path d="M120.842,196.494l.039-.415.75.93Z" fill="#5a4863"/>
      <path d="M122.927,198.3l-1.052-1.052Z" fill="#5a4863"/>
      <path d="M68.811,118.417l1.056.924Z" fill="#5d4a68"/>
      <path d="M87,137.659l1,.805-.186.2-1-.824C86.872,137.777,86.935,137.719,87,137.659Z" fill="#562843"/>
      <path d="M98.1,148.04l.764,1.047-.19.184q-.378-.526-.757-1.051Z" fill="#562843"/>
      <path d="M100.107,122.734l-1.052-.758.177-.188,1.051.759Z" fill="#562843"/>
      <path d="M84.406,135.59l1.009.8-.166.174-1.021-.8C84.288,135.7,84.347,135.647,84.406,135.59Z" fill="#562843"/>
      <path d="M162.506,222.423l-.039.387-.731-.964Z" fill="#53415d"/>
      <path d="M115.621,94.959l.708-.831.239.189-.749.894Z" fill="#62526b"/>
      <path d="M94.134,118.583l-.76-.5.178-.192.942.672Z" fill="#562843"/>
      <path d="M55.854,113.784l-.122-1.672Z" fill="#fbf9f9"/>
      <path d="M79.725,109.5l.317,0q.162.618.323,1.236l-.465.083a.247.247,0,0,1-.2-.058l-.021-.486-.021-.79Z" fill="#2b1338"/>
      <path d="M98.294,121.442l-.763-.533.166-.2.774.542Z" fill="#562843"/>
      <path d="M99.055,121.976l-.761-.534.176-.189.762.535Z" fill="#562843"/>
      <path d="M77.354,121.162l.8-.794Z" fill="#5d4a68"/>
      <path d="M68.118,120.046l.457.828-.183.175q-.225-.426-.451-.852Z" fill="#562843"/>
      <path d="M99.973,151.093l.468,1.082q-.087.112-.174.222a1.209,1.209,0,0,0-.171-.141l-.3-1.013C99.859,151.194,99.916,151.144,99.973,151.093Z" fill="#562843"/>
      <path d="M128.1,202.445l-.8-.534Z" fill="#5a4863"/>
      <path d="M175.4,179.712l-.518-.779.267-.194.472.715Z" fill="#62526b"/>
      <path d="M202.158,209.374l-.5-.761c.107-.05.207-.118.225-.1.2.186.378.386.564.582Z" fill="#7b6b83"/>
      <path d="M79.655,109.491l.021.79-.456-.041.047-.678Z" fill="#fbf9f9"/>
      <path d="M81.99,123.657l.039.372-.436.561-.209-.156Z" fill="#53415d"/>
      <path d="M78.627,119.52l.043.373-.538.493Z" fill="#5d4a68"/>
      <path d="M122.447,65.187l-.3.285-.568-.206.292-.272Z" fill="#7b6b83"/>
      <path d="M78.636,131.03c0,.1,0,.2,0,.295l-.646-.443.181-.189Z" fill="#562843"/>
      <path d="M97.229,120.693l-.759-.533q.084-.095.165-.192l.761.549C97.341,120.576,97.285,120.635,97.229,120.693Z" fill="#562843"/>
      <path d="M63.368,111.283l.23-.223.976-.248.012.074.074.014Z" fill="#363133"/>
      <path d="M102.778,163.081l.287-.214.131.5-.225.27Z" fill="#5a4863"/>
      <path d="M71.7,124.994l.5.53-.183.186q-.255-.271-.512-.541Z" fill="#562843"/>
      <path d="M95.491,119.528l-.571-.407c.055-.063.109-.126.162-.19l.424.3Z" fill="#53415d"/>
      <path d="M119.006,119.826l.441-.56.162.114-.408.632Z" fill="#62526b"/>
      <path d="M93.692,143.388l.528.506c-.055.06-.109.12-.162.181l-.549-.5Z" fill="#562843"/>
      <path d="M113.042,130.134l.009.9Z" fill="#5d4a68"/>
      <path d="M86.966,122.254l-.044-.365.319-.256.161.155Z" fill="#5d4a68"/>
      <path d="M102.971,163.632l.225-.27.1.749-.275.007Z" fill="#443050"/>
      <path d="M123.814,66.055l.552.579-.2.192-.521-.513Z" fill="#5a4863"/>
      <path d="M30.268,99.45l.249.456-.475.07-.2-.239Z" fill="#53415d"/>
      <path d="M76.836,121.68l.537-.538Z" fill="#5d4a68"/>
      <path d="M115.819,95.211l-.364.35-.2-.232.37-.37Z" fill="#62526b"/>
      <path d="M111.757,91.119c.03.155.061.311.091.466l-.244.19-.153-.663Z" fill="#53415d"/>
      <path d="M55.913,104.639v-.378l.243.042Z" fill="#7a1a1a"/>
      <path d="M114.345,74.723l.06.412-.21.273c-.054-.055-.11-.109-.169-.159Z" fill="#5d4a68"/>
      <path d="M94.134,118.583l.36-.024.262.2-.144.148Z" fill="#53415d"/>
      <path d="M96.163,119.949l-.459-.317.167-.2.439.359Z" fill="#562843"/>
      <path d="M95.01,144.658l.263.255-.17.171-.258-.26Z" fill="#562843"/>
      <path d="M94.751,144.4l.259.258-.165.166-.267-.25Z" fill="#562843"/>
      <path d="M95.273,144.913l.259.258-.169.171-.26-.257Z" fill="#562843"/>
      <path d="M94.49,144.142l.261.258-.173.174-.268-.249Z" fill="#562843"/>
      <path d="M94.22,143.894l.27.248-.18.183-.252-.25C94.111,144.014,94.165,143.954,94.22,143.894Z" fill="#562843"/>
      <path d="M86.71,137.426l.287.233c-.062.06-.125.118-.187.176l-.264-.223C86.6,137.549,86.654,137.487,86.71,137.426Z" fill="#562843"/>
      <path d="M84.119,135.357l.287.233c-.059.057-.118.114-.178.17l-.282-.2Z" fill="#562843"/>
      <path d="M95.532,145.171l.253.266-.163.163-.259-.258Z" fill="#562843"/>
      <path d="M107.381,127.864c.006.085.009.169.008.254l-.286-.212.172-.189A.248.248,0,0,1,107.381,127.864Z" fill="#562843"/>
      <path d="M95.785,145.437l.258.259-.179.181c-.081-.093-.162-.184-.243-.276Z" fill="#562843"/>
      <path d="M71.453,124.725l.251.269-.192.175c-.074-.088-.149-.175-.224-.263C71.342,124.845,71.4,124.785,71.453,124.725Z" fill="#562843"/>
      <path d="M102.943,124.817l-.308-.233a1.691,1.691,0,0,0,.163-.142l.31.186Q103.027,124.724,102.943,124.817Z" fill="#562843"/>
      <path d="M116.446,123.478l.268,0-.211.316a1.837,1.837,0,0,0-.137-.128A.23.23,0,0,1,116.446,123.478Z" fill="#5d4a68"/>
      <path d="M97.531,120.909l-.3-.216c.056-.058.112-.117.166-.176l.3.193Z" fill="#562843"/>
      <path d="M113.7,186.947l.356-.036.071.264-.219.081Z" fill="#53415d"/>
      <path d="M96.47,120.16l-.307-.211.147-.155.326.174C96.581,120.033,96.526,120.1,96.47,120.16Z" fill="#562843"/>
      <path d="M67.775,119.807l.272.051a.219.219,0,0,1,.071.188l-.177.151Z" fill="#562843"/>
      <path d="M96.043,145.7l.253.265-.177.178c-.085-.088-.17-.175-.256-.262Z" fill="#562843"/>
      <path d="M95.491,119.528l.015-.3.365.207-.167.2A.232.232,0,0,1,95.491,119.528Z" fill="#562843"/>
      <path d="M121.892,197.271l-.291.015.012-.293Z" fill="#5a4863"/>
      <path d="M94.92,119.121l-.308-.211.144-.148.326.169C95.029,119,94.975,119.058,94.92,119.121Z" fill="#53415d"/>
      <path d="M123.185,198.565l-.293.015.015-.294Z" fill="#5a4863"/>
      <path d="M123.445,198.824l-.294.011.016-.289Z" fill="#5a4863"/>
      <path d="M96.3,145.961l.254.265-.2.178-.234-.265Z" fill="#562843"/>
      <path d="M123.607,65.873l.207.182-.171.258-.262-.256Z" fill="#5a4863"/>
      <path d="M64.129,116.97l-.094.037-.094-.032Z" fill="#5a4863"/>
      <path d="M58.709,116.909l-.317-.133Z" fill="#fbf9f9"/>
      <path d="M55.71,111.3a.2.2,0,0,1-.012-.239.926.926,0,0,1,.078.166C55.78,111.244,55.733,111.275,55.71,111.3Z" fill="#fbf9f9"/>
      <polygon points="64.574 110.812 64.66 110.9 64.586 110.886 64.574 110.812" fill="#fbf9f9"/>
      <path d="M65.77,109.754l.2-.223Z" fill="#fbf9f9"/>
      <path d="M148.551,209.438l-.293.015.016-.293Z" fill="#5a4863"/>
      <path d="M158.905,219.276l-.293.014.015-.293Z" fill="#5a4863"/>
      <path d="M111.757,91.119l-.306-.007A.1.1,0,0,1,111.37,91l.235-.212C111.656,90.9,111.706,91.007,111.757,91.119Z" fill="#5a4863"/>
      <path d="M80.47,102.305a.253.253,0,0,1,.25-.006Z" fill="#fbf9f9"/>
      <path d="M28.306,101.327l.19-.235.252.172-.24.271Z" fill="#53415d"/>
      <path d="M164.341,224.2l-.294.015.016-.293Z" fill="#5a4863"/>
      <path d="M73.508,126.812l.266.253-.19.176L73.341,127C73.4,126.936,73.451,126.874,73.508,126.812Z" fill="#562843"/>
      <path d="M83.875,165.06c-5.065,2.195-10.111,4.435-15.206,6.557-1.69.7-3.508,1.1-5.267,1.64l-.02-.324a120.691,120.691,0,0,0,20.452-8.223Z" fill="#5a4863"/>
      <path d="M95.985,158.4c1.159-.069,2.317-.157,3.477-.184.138,0,.283.328.425.5a54.674,54.674,0,0,1-12.851,4.658,10.128,10.128,0,0,0-2.027.946l-.18-.242.808-.887A45.334,45.334,0,0,0,99.2,158.4Z" fill="#53415d"/>
      <path d="M48.378,174.175c-1.839-.389-3.569-.97-4.687-2.64l.019-.418c1.329,1.7,3.247,2.318,5.224,2.824Z" fill="#5a4863"/>
      <path d="M42.767,168.78c.486-2.109,2.062-3.353,3.642-4.594l.194.25c-1.356,1.279-2.945,2.374-3.431,4.341Z" fill="#5a4863"/>
      <path d="M28.531,133.493a7.519,7.519,0,0,1-.245-6.8l.235.218a8.672,8.672,0,0,0,.228,6.358Z" fill="#53415d"/>
      <path d="M63.382,172.933l.02.324-4.946.935-.559-.253Z" fill="#62526b"/>
      <path d="M30.546,101.2c.089,2.395.2,4.79.251,7.186a11.086,11.086,0,0,1-.277,1.869l-.46-.339.221-.2a5.812,5.812,0,0,0,.322-1.326C30.612,106,30.57,103.6,30.546,101.2Z" fill="#53415d"/>
      <path d="M54.544,158.971l1.089.3-4.126,2.045-.215-.212c.952-.487,1.917-.954,2.849-1.478C54.336,159.517,54.413,159.2,54.544,158.971Z" fill="#5a4863"/>
      <path d="M48.217,162.929l3.075-1.824.215.212-3.092,1.825Z" fill="#5a4863"/>
      <path d="M57.9,173.939l.559.253-3.105.26a1.654,1.654,0,0,0,.008-.244l.353-.211Z" fill="#5a4863"/>
      <path d="M55.359,174.208a1.654,1.654,0,0,1-.008.244H50.707l.254-.231,4.153-.094Z" fill="#2b1338"/>
      <path d="M50.961,174.221l-.254.231-2.329-.277.556-.234Z" fill="#53415d"/>
      <path d="M46.409,164.186l1.808-1.257.2.213L46.6,164.436Z" fill="#5a4863"/>
      <path d="M30.522,124.047l0,.267-1.266,1.276-.243-.19Z" fill="#53415d"/>
      <path d="M31.009,134.836l-.01.6-1.189-.663.244-.231Z" fill="#5a4863"/>
      <path d="M42.767,168.78l.4,0-.008,1.058-.379,0Z" fill="#7b6b83"/>
      <path d="M30.06,109.918l-1-1.031.218-.219,1.006,1.051Z" fill="#53415d"/>
      <path d="M83.875,165.06l-.041-.35.995-.628.18.242Z" fill="#53415d"/>
      <path d="M42.785,169.83l.379,0,.326.987-.2.2Z" fill="#443050"/>
      <path d="M29.81,134.77l-.637-.517.036-.4.845.684Z" fill="#5a4863"/>
      <path d="M29.209,133.855l-.036.4-.642-.76.218-.22Z" fill="#53415d"/>
      <path d="M28.5,126.208l.518-.808.243.19-.481.8Z" fill="#53415d"/>
      <path d="M28.286,126.7q.106-.244.212-.489l.28.187-.257.52Z" fill="#53415d"/>
      <path d="M43.71,171.117l-.019.418-.4-.512.2-.2Z" fill="#443050"/>
      <path d="M30.281,109.719l-1.006-1.051a23.644,23.644,0,0,1-1.419-2.851,4.811,4.811,0,0,1,.652-4.282l.24-.271,1.294-1.288.475-.07.029,1.3c.024,2.4.066,4.794.057,7.191A5.812,5.812,0,0,1,30.281,109.719Z" fill="#f5f4f3"/>
      <path d="M43.71,171.117l-.22-.295-.326-.987.008-1.058c.486-1.967,2.075-3.062,3.431-4.341l1.812-1.294,3.092-1.825,4.126-2.045a12.717,12.717,0,0,1,1.877-.3q19.237-.3,38.475-.568H99.2a45.334,45.334,0,0,1-13.563,4.8l-.808.887-.995.628a120.691,120.691,0,0,1-20.452,8.223L57.9,173.939,55.711,174l-.6.13-4.153.094-2.027-.28C46.957,173.435,45.039,172.82,43.71,171.117Z" fill="#fcfcfc"/>
      <path d="M107.381,127.864a.248.248,0,0,0-.106-.147l-.5-.5a4.974,4.974,0,0,0,.325-1.174c.037-1.277,0-2.556,0-3.835.007-1.229.049-2.46,0-3.686a3.042,3.042,0,0,0-.467-1.011l-.045-15.767-.04-1.334-.025-.452.042-21.232-.272-.839-.044-2q.034-9.2.07-18.4l-.459-1.083-.015-1.014a5.265,5.265,0,0,0,.234-1.085q.023-8.892,0-17.783a4.7,4.7,0,0,0-.258-1.072l-.029-2.035q.021-9.03.049-18.059a11.356,11.356,0,0,1,.171-1.377q.177,12.033.353,24.065.414,29.312.824,58.622.213,14.946.438,29.892A6.576,6.576,0,0,1,107.381,127.864Z" fill="#e26d73"/>
      <path d="M32.492,24.869q-.114-6.85-.226-13.7c-.008-.475-.018-.949-.018-1.424A3.987,3.987,0,0,1,36.48,5.421q21.8-.285,43.6-.572c7.028-.1,14.056-.234,21.084-.372,3.074-.06,4.773,1.518,4.83,4.586.026,1.464,0,2.93,0,4.395l-.669-.014-.029.017.027-1.046L105.3,11.1l-.016-2.024-.738-2.107-1.035-1.033-1.042-.524-.5-.019-.828-.452-2.523,0-.557.231L77.65,5.2l-1.332.24-19.926.225-1.573.241-1.27.023a4.125,4.125,0,0,0-.955-.235q-6.819-.024-13.638,0a3.708,3.708,0,0,0-.94.259l-1.532.008a3.025,3.025,0,0,0-3.138,2.292l0,0L33.082,9.31l.043.79V24.049l-.075.8Z" fill="#e26d73"/>
      <path d="M34.08,134.888c-.054-.769-.144-1.537-.154-2.306q-.329-24.444-.644-48.889c-.118-8.536-.28-17.07-.419-25.6-.008-.474.02-.947.032-1.421l.458-1.014q.012,1.283.022,2.567.122,7.294.252,14.589a2.506,2.506,0,0,0,.232.7,14.6,14.6,0,0,0-.213,1.768c-.013,4.407,0,8.813.006,13.219l.449,2.121.032,19.652.013,1.041.027,1.52.442.831.009,21.205Z" fill="#e26d73"/>
      <path d="M93.41,154.168c-1.2.038-2.409.095-3.614.112q-22.316.3-44.631.594c-2.155.03-4.31.109-6.466.141a4.13,4.13,0,0,1-4.525-4.358c-.03-1.206,0-2.414,0-3.621l.656,0c.024,1.12.054,2.239.069,3.358a3.672,3.672,0,0,0,3.2,3.849,17.646,17.646,0,0,0,3.327.271c3.215-.11,6.424-.423,9.638-.463,10.893-.137,21.787-.194,32.681-.273,2.456-.018,4.913.012,7.369-.017.766-.009,1.531-.141,2.3-.216Z" fill="#e26d73"/>
      <path d="M111.37,91a.1.1,0,0,0,.081.115l.153.663c.63,1.806,1.74,3.608,1.754,5.418.013,1.757-1.1,3.523-1.718,5.285-.305,1.137-.6,2.277-.927,3.406-.051.172-.278.292-.424.436q-.129-9.12-.259-18.24l.325-.112.327.674Z" fill="#f5f4f3"/>
      <path d="M28.521,126.915l.257-.52.481-.8,1.266-1.276a3.242,3.242,0,0,1,.345.957c.066,3.188.1,6.376.139,9.565l-.955-.3-.845-.684-.46-.582A8.672,8.672,0,0,1,28.521,126.915Z" fill="#f5f4f3"/>
      <path d="M33.353,55.653,32.9,56.667q-.2-15.9-.4-31.8l.559-.025.278.264.039,1.28c-.01,1.014-.018,2.027-.031,3.04-.07,5.461-.149,10.922-.2,16.383a5.678,5.678,0,0,0,.3,1.3l.005.736Z" fill="#ed7578"/>
      <path d="M105.324,13.444l.669.014.016.524a11.356,11.356,0,0,0-.171,1.377q-.037,9.029-.049,18.058l-.49-.029Z" fill="#ee5f62"/>
      <path d="M34.829,147.034l-.655,0q-.047-6.074-.094-12.148l.544-.018Q34.727,140.953,34.829,147.034Z" fill="#ed7578"/>
      <path d="M93.41,154.168l0-.625c.905-.015,1.811-.011,2.715-.049,1.448-.061,2.9-.149,4.344-.226q.114.381.227.761l-.3.079-.256.01Z" fill="#ed7578"/>
      <path d="M100.139,154.118l.256-.01Z" fill="#5a4863"/>
      <path d="M73.341,127l.243.242,1.811,1.573,1.294,1.037,1.3,1.031.646.443.988.776,2,1.614q.5.405,1.007.808l1.313,1.033.282.2,1.021.8,1.3,1.049.263.223q.5.414,1,.825l3.371,2.839.989.833,1.335,1.244.549.5.252.25.268.249.267.25.258.26.26.258.259.258c.08.093.161.184.242.277l.255.262.234.265,1.566,1.816q.378.525.757,1.051l1.124,1.972q.148.506.3,1.012c-.517-.009-1.036-.049-1.551-.02-4.411.245-8.819.612-13.234.727-4.954.129-9.915-.02-14.872.048-9.638.131-19.274.351-28.912.475a9.551,9.551,0,0,1-3.635-.549c-1.971-.8-2.169-2.7-2.206-4.554-.1-4.992-.177-9.984-.26-14.976-.172-10.242-.389-20.485-.5-30.728C34.844,95,34.9,87.327,34.892,79.652c8.063-.053,16.127-.017,24.187-.19,6.075-.131,12.143-.541,18.215-.807q13.889-.606,27.778-1.186a18.429,18.429,0,0,1,.228,1.907c.185,9.681.387,19.362.513,29.044.072,5.561.02,11.125.006,16.687a6.965,6.965,0,0,1-.22,1.231l-.388-.175-1.042-.773-1.061-.762-.31-.186-1.308-.964-1.207-.931-1.051-.759-.762-.535-.773-.542-.3-.194-.76-.549-.325-.174-.439-.359-.365-.207-.424-.3-.326-.169-.262-.2-.942-.672L91.471,116.6l-1.3-.793L88.2,114.686l-1.573-1.035c.013-2.58.061-5.16.027-7.739a3.672,3.672,0,0,0-2.549-3.489,12.766,12.766,0,0,0-2.737-.649c-4.14-.071-8.282-.1-12.421-.011-3.562.073-7.124.258-10.678.514a3.859,3.859,0,0,0-3.793,3.736,38.967,38.967,0,0,0,0,8.251c.284,2.557,2.379,4,5.043,4.026,2.5.028,5,.021,7.505.029l.75,1.489c.055.129.111.259.166.389q.226.426.451.852l1.582,2.307,1.314,1.55c.075.088.15.175.224.263q.257.27.512.541ZM98.06,90.08c-.739-.59-1.483-1-2.282-.056v1.481h1.9l.006-.307-1.107-.124.007-.167,1.274-.113c.065-.269.121-.5.178-.737l.715,1.534h1.181c-.984-.672-1.206-1.3-.345-1.986l-1.083-.753ZM44.765,92.874c.163-.137.418-.247.47-.418a5.3,5.3,0,0,0,.1-1.074l.857.081.264,1.559.406-.067-.158-2.03-1.16-.092-.779-.708-2.877.121-.007.353.812.342.307,2.2.385-.019.121-2.346,1.014-.189ZM72.686,91.16v1.258c.977-.19,1.989.271,2.494-.684l-.3-2.259-2.173.109h-2.91l-.042.236.832.428.3,2.179.431-.016.12-2.273,1.1-.335Zm10.55-.645.185.23-.668.749.134.408,2.051.149-.19-2.109H82.285l-.568,1.208-.822-1.5-.777,1.486-.775-1.208-.315.168,1.045,2.474.813-1.6.924,1.443.979-2.305ZM61.517,85.059c.376-1.441.017-2.173-1.427-2.269-.931-.061-1.869-.011-2.772-.011v4.967a19.639,19.639,0,0,0,2.807-.034A2.315,2.315,0,0,0,61.72,86.9C61.95,86.433,61.609,85.685,61.517,85.059Zm13.936-2.521a14.363,14.363,0,0,0-2.028-.21c-.919.036-1.7.359-1.8,1.455s.717,1.331,1.52,1.579c.482.15.953.333,1.429.5l-.083.435h-2.6l-.353.934a8.3,8.3,0,0,0,2.616.179,2.511,2.511,0,0,0,1.531-1.43c.246-.808-.514-1.233-1.3-1.435-.572-.148-1.118-.4-1.676-.6l.084-.429h2.326Zm4.695,3.142a1.855,1.855,0,0,0-1.536-2.272,1.945,1.945,0,0,0-2.286,1.042,1.773,1.773,0,0,0,.5,2.422c1,.751,2.047.721,3.358-.362l-2.765-.4.058-.433ZM66.809,88.473c1.6.815,2.334.631,2.854-.552.586-1.331,1.079-2.7,1.605-4.058.019-.047-.043-.124-.094-.256l-.9.105-1.014,2.415-1.142-2.473-1.087.119,1.677,3.984Zm-.275-4.781-1.016.107c-.289,3.1-.289,3.1-1.609,2.581l-.187-2.543-1.044.071c-.219,3.747.442,4.329,3.856,3.536Zm14.384-1.768v5.235h1.044V81.924ZM68.737,90.988l.274,1.472.482-.051-.14-2.825-.349-.1-1.113,1.785-1.468-1.846v3.059h.309l.235-1.135.257-.185.6,1.214Zm15.382-9.15-1.026.054v5.316l1.026-.132ZM92.254,91.85l.29-.048V89.054l-.257-.125L91.032,90.68l-1.423-1.931v3.116l.321.026.193-1.475.965,1.2.9-1.265Zm-6.9-2.015.206,2.988.411-.018.294-.857c.636-.033,1.242-.212,1.428-.595s-.039-.977-.087-1.518ZM52.614,89.9c-.911.07-1.594.469-1.63,1.449a1.4,1.4,0,0,0,1.491,1.558,1.382,1.382,0,0,0,1.61-1.418C54.134,90.478,53.533,90.039,52.614,89.9Zm25.694,1.485-.05.291h-1.5l-.012.411a6.6,6.6,0,0,0,1.787-.051c.233-.068.3-.705.436-1.059l-1.684-.826.08-.242,1.33-.17c-.929-.6-1.688-.643-2.176.685Zm-28.8.619.232-.409c-.432-.29-.851-.776-1.3-.807a1.421,1.421,0,0,0-1.061.825,1.26,1.26,0,0,0,.467,1.152,3.594,3.594,0,0,0,1.488.051l-.02-.362-1.156-.1,0-.155Zm45.871-1.2.2-.413c-.447-.282-.884-.757-1.346-.782a1.425,1.425,0,0,0-1.035.857,1.268,1.268,0,0,0,.486,1.146,3.649,3.649,0,0,0,1.492.05l-.018-.434H93.989l-.025-.269Zm-30.746.769.2-.36a4.391,4.391,0,0,0-1.41-.819c-.3-.046-.971.478-.98.762a1.8,1.8,0,0,0,.639,1.339c.284.2.883-.03,1.342-.069l-.05-.351-1.175-.055,0-.271Zm-8.314,1.165.542-.06L56.6,90.639H54.528l.177,2.333c.832-.565-.139-2.007,1.359-1.825Zm5.132-.1.369-.007V90.563H59.677l.183,2.115.266-.029.529-1.8.49.065Zm-2.778.036.5-.034-.247-3.052-.253.041Zm-.889-2.968-.235.015v2.957l.235-.016Z" fill="#e12227"/>
      <path d="M69.343,109.366l.386.118-.91.58L68,109.57Z" fill="#c6c1ca"/>
      <path d="M67.356,117.908l-.072-.46.255.318A.789.789,0,0,1,67.356,117.908Z" fill="#fefefe"/>
      <path d="M77.65,109.744l1.072-.468.137.412-.706.145-.3-.03A.889.889,0,0,0,77.65,109.744Z" fill="#fcfcfc"/>
      <path d="M63.362,109.515l1.017.486-1.2.072Z" fill="#fcfcfc"/>
      <path d="M78.913,110.532l.267.239-.619.1-.042-.3Z" fill="#fefefe"/>
      <path d="M80.365,110.742q-.162-.618-.323-1.236l1.413.006-.213,1.1Z" fill="#f5f4f3"/>
      <path d="M105.6,126.338a6.965,6.965,0,0,0,.22-1.231c.014-5.562.066-11.126-.006-16.687-.126-9.682-.328-19.363-.513-29.044a18.429,18.429,0,0,0-.228-1.907,9.513,9.513,0,0,0,.233-1.635q-.264-9.776-.582-19.552a2.416,2.416,0,0,0-.187-.606c-.387-15.365.848-30.757-.758-46.1a3.344,3.344,0,0,0-3.276-3.11q-10.594.108-21.189.253-18.8.254-37.589.517c-1.881.025-3.763,0-5.2,0-2.3,1.828-2.418,2-2.385,4.374.065,4.778.181,9.555.25,14.333q.147,10.208.252,20.416c.036,3.882,0,7.765,0,11.647l-.523.033c0-3.03.029-6.061-.022-9.09-.006-.371-.427-.735-.656-1.1q0-.369-.005-.736c.145-.313.417-.625.418-.938q.036-9.384-.006-18.767c0-.34-.313-.679-.481-1.018l-.039-1.28c-.067-.353-.136-.706-.2-1.059V10.1l.741-1.835L34.9,7.226c1.4-.171,2.787-.453,4.185-.488,2.969-.076,5.942-.006,8.913-.045a3.633,3.633,0,0,0,1.168-.463l4.358.2,1.595-.462,1.273-.011a4.167,4.167,0,0,0,.958.232q9.081.019,18.163,0a4.582,4.582,0,0,0,1.068-.264l1.019,0c6.479.007,12.958.021,19.437,0,.345,0,.689-.3,1.033-.455l.513-.019h2.591l.5,0L104.765,8.3q.006.376.011.753.112,1.039.226,2.078c.012.429.022.858.033,1.287l.26,1.048.029-.017q-.012,9.972-.025,19.944a2.4,2.4,0,0,0-.231.7q-.018,9.173.013,18.344c0,.3.3.6.464.907l-.206,2.03.47,1.592,0,.5a1.718,1.718,0,0,0-.227.571c-.01,5.661-.015,11.321.025,16.982,0,.292.414.582.636.873q.022,1,.044,2l-.433.783c-.008,6.723-.027,13.446,0,20.169,0,.374.429.746.658,1.119.009.151.017.3.026.452-.7.466-.75.912.039,1.334l.045,15.767-.033,4.672-.249,4.691Z" fill="#e6363b"/>
      <path d="M106.349,126.875l.249-4.691.5.025c0,1.279.038,2.558,0,3.835a4.974,4.974,0,0,1-.325,1.174Z" fill="#eb4b4f"/>
      <path d="M34.892,79.652c.006,7.675-.048,15.351.035,23.026.11,10.243.327,20.486.5,30.728.083,4.992.16,9.984.26,14.976.037,1.851.235,3.752,2.206,4.554a9.551,9.551,0,0,0,3.635.549c9.638-.124,19.274-.344,28.912-.475,4.957-.068,9.918.081,14.872-.048,4.415-.115,8.823-.482,13.234-.727.515-.029,1.034.011,1.551.02a1.289,1.289,0,0,1,.171.142c.067.291.133.581.2.871-1.448.077-2.9.165-4.344.226-.9.038-1.81.034-2.715.049-.766.075-1.531.207-2.3.216-2.456.029-4.913,0-7.369.017-10.894.079-21.788.136-32.681.273-3.214.04-6.423.353-9.638.463a17.646,17.646,0,0,1-3.327-.271,3.672,3.672,0,0,1-3.2-3.849c-.015-1.119-.045-2.238-.069-3.358q-.1-6.081-.206-12.164l-.009-21.2q-.22-.415-.442-.831l-.027-1.52c0-.347-.009-.694-.013-1.041q-.015-9.827-.031-19.652l-.45-2.121c-.005-4.406-.019-8.812-.006-13.219a14.6,14.6,0,0,1,.213-1.768c.019-.095.039-.189.058-.283l.094.013h.095Z" fill="#eb4b4f"/>
      <path d="M55.114,174.127l.6-.13-.352.211Z" fill="#f5f4f3"/>
      <path d="M106.521,99.959c-.229-.373-.656-.745-.658-1.119-.032-6.723-.013-13.446-.006-20.169l.706.056Z" fill="#eb4b4f"/>
      <path d="M106.247,75.887c-.222-.291-.634-.581-.636-.873-.04-5.661-.035-11.321-.025-16.982a1.718,1.718,0,0,1,.227-.571l.5.029Z" fill="#eb4b4f"/>
      <path d="M105.545,53.34c-.162-.3-.463-.6-.464-.907q-.043-9.173-.013-18.344a2.4,2.4,0,0,1,.231-.7l.49.029q.015,1.018.029,2.036a9.71,9.71,0,0,0-.234,1.477C105.558,42.4,105.555,47.87,105.545,53.34Z" fill="#eb4b4f"/>
      <path d="M105.545,53.34c.01-5.47.013-10.94.039-16.41a9.71,9.71,0,0,1,.234-1.477,4.7,4.7,0,0,1,.258,1.072q.024,8.892,0,17.783a5.2,5.2,0,0,1-.235,1.085l-.5-.023Z" fill="#ee5f62"/>
      <path d="M107.1,122.209l-.5-.025.033-4.672a3.042,3.042,0,0,1,.467,1.011C107.148,119.749,107.106,120.98,107.1,122.209Z" fill="#ee5f62"/>
      <path d="M105.339,55.37l.5.023q.009.507.016,1.014-.026.278-.049.555Z" fill="#eb4b4f"/>
      <path d="M106.586,101.745c-.789-.422-.744-.868-.039-1.334C106.559,100.856,106.573,101.3,106.586,101.745Z" fill="#eb4b4f"/>
      <path d="M106.563,78.727l-.706-.056q.218-.392.434-.783Z" fill="#ee5f62"/>
      <path d="M105.809,56.962q.024-.278.049-.555l.459,1.083-.5-.029C105.812,57.294,105.81,57.128,105.809,56.962Z" fill="#ee5f62"/>
      <path d="M98.07,5.466c-.344.158-.688.453-1.033.454-6.479.02-12.958.006-19.437,0l.051-.714,20.41-.027Z" fill="#eb4b4f"/>
      <path d="M76.581,5.923a4.582,4.582,0,0,1-1.068.264q-9.083.025-18.163,0a4.167,4.167,0,0,1-.958-.232v-.29l19.927-.225Z" fill="#eb4b4f"/>
      <path d="M53.524,6.432l-4.358-.2c-3.268-.01-6.536-.011-9.8-.04a8.2,8.2,0,0,1-1.347-.231,3.708,3.708,0,0,1,.94-.259q6.819-.026,13.638,0a4.105,4.105,0,0,1,.954.235Z" fill="#ee5f62"/>
      <path d="M38.016,5.959a8.2,8.2,0,0,0,1.347.231c3.267.029,6.535.03,9.8.04A3.633,3.633,0,0,1,48,6.693c-2.971.039-5.944-.031-8.913.045-1.4.035-2.79.317-4.185.488l1.584-1.259Z" fill="#eb4b4f"/>
      <path d="M36.484,5.967,34.9,7.226,33.866,8.265l-.52-.006A3.025,3.025,0,0,1,36.484,5.967Z" fill="#ee5f62"/>
      <path d="M104.764,8.3l-3.093-2.845.3-.055.5.019,1.042.524,1.035,1.033Z" fill="#eb4b4f"/>
      <path d="M101.174,5.446H98.583l.035-.5,2.524,0C101.153,5.111,101.163,5.279,101.174,5.446Z" fill="#eb4b4f"/>
      <path d="M105,11.126q-.113-1.039-.224-2.078l.5.031q.007,1.011.017,2.024Z" fill="#eb4b4f"/>
      <path d="M105.28,9.079l-.5-.031-.012-.753q-.112-.66-.223-1.323Z" fill="#ee5f62"/>
      <path d="M76.581,5.923l-.262-.479L77.65,5.2q-.024.359-.05.715Z" fill="#ee5f62"/>
      <path d="M33.346,8.259l.52.006L33.125,10.1c-.014-.264-.029-.527-.043-.79q.13-.524.262-1.046Z" fill="#eb4b4f"/>
      <path d="M53.524,6.432l.024-.5,1.271-.023.3.06Z" fill="#eb4b4f"/>
      <path d="M55.119,5.97l-.3-.06,1.573-.241v.29Z" fill="#ee5f62"/>
      <path d="M103.507,5.939l-1.042-.524Z" fill="#ee5f62"/>
      <path d="M33.344,8.264q-.132.522-.262,1.046Q33.212,8.787,33.344,8.264Z" fill="#ee5f62"/>
      <path d="M33.125,24.049c.068.353.137.706.2,1.059l-.278-.264Q33.087,24.447,33.125,24.049Z" fill="#eb4b4f"/>
      <path d="M105.3,13.461q-.13-.524-.259-1.048l.286,0Z" fill="#eb4b4f"/>
      <path d="M105.322,12.415l-.286,0c-.012-.429-.022-.858-.034-1.287l.3-.023Q105.309,11.758,105.322,12.415Z" fill="#ee5f62"/>
      <path d="M101.174,5.446c-.011-.167-.021-.335-.032-.5.275.152.551.3.827.453l-.3.055Z" fill="#ee5f62"/>
      <path d="M98.618,4.947l-.035.5-.513.02-.009-.287Z" fill="#ee5f62"/>
      <path d="M33.442,47.847c.229.366.65.73.656,1.1.051,3.029.025,6.06.022,9.09l-.273.194a1.276,1.276,0,0,0-.223,0c-.083,0-.166-.009-.249-.016q-.01-1.284-.022-2.567Q33.4,51.75,33.442,47.847Z" fill="#eb4b4f"/>
      <path d="M33.375,58.22c.083.007.166.013.249.016l0,4.425v3.077l.226,2.6.044,2.1.027,2.791c-.019.094-.039.188-.058.283a2.506,2.506,0,0,1-.232-.7Q33.486,65.515,33.375,58.22Z" fill="#ee5f62"/>
      <path d="M33.652,88.5l.45,2.121Z" fill="#ee5f62"/>
      <path d="M34.133,110.273c0,.347.009.694.013,1.041Q34.14,110.794,34.133,110.273Z" fill="#ee5f62"/>
      <path d="M34.173,112.834q.222.416.442.831Z" fill="#ee5f62"/>
      <path d="M33.368,26.388c.168.339.48.678.481,1.018q.047,9.383.006,18.767c0,.313-.273.625-.418.938a5.678,5.678,0,0,1-.3-1.3c.05-5.461.129-10.922.2-16.383C33.35,28.415,33.358,27.4,33.368,26.388Z" fill="#eb4b4f"/>
      <path d="M33.847,58.232l.273-.194.523-.033c2.971-.076,5.944-.105,8.912-.235,11.451-.5,22.9-1.126,34.35-1.535,8.872-.317,17.754-.382,26.631-.559a2.416,2.416,0,0,1,.187.606q.307,9.776.582,19.552a9.513,9.513,0,0,1-.233,1.635q-13.888.591-27.778,1.186c-6.072.266-12.14.676-18.215.807-8.06.173-16.124.137-24.187.19l-.786-6.409a13.538,13.538,0,0,0,.179-1.787C34.156,67.048,34,62.64,33.847,58.232ZM46.88,65.647a9.752,9.752,0,0,0-2.358-.958,32.015,32.015,0,0,0-3.475.028,1.451,1.451,0,0,0-1.635,1.32c-.3,2.813-.481,5.638-.73,8.744h2.994l.5-1.273c.361,0,.66,0,.958,0,2.019.015,2.969-.727,3.242-2.7C46.6,69.2,46.7,67.578,46.88,65.647Zm26.776-3.284c-1.547-.773-3.116-.261-3.252,1.008-.2,1.873-.392,3.748-.591,5.622-.288,2.724.394,3.471,3.077,3.355.473-.021.944-.07,1.417-.09A2.909,2.909,0,0,0,77.141,70a52.138,52.138,0,0,0,.682-6.323L73.9,63.35Zm13.224.893c-1.794-.916-2.979-.243-3.078,1.867-.026.557-.114,1.11-.16,1.667-.131,1.559-.255,3.118-.4,4.85h2.978l.657-2.55.454.053.137,3.135,1.315,1c2.019-.93,2.473-2.88,1.18-4.41,1.632-1.591.83-3.732,1.5-6a7.163,7.163,0,0,0-2.6.218c-.485.263-.726,1.148-.886,1.8a17.44,17.44,0,0,0-.264,2.441l-.432-.011C86.272,66.116,87.9,64.645,86.88,63.256Zm-19,6.657c1.112-1.937,1.092-3.941,1.217-6.243l-2.924.215-.846,4.389-.575-.094q.087-1.5.172-2.992c.065-1.146-.532-1.573-1.6-1.426-.493.068-.975.22-1.546.353.367,2.93-1.6,5.668-.175,8.82.877-.3,1.848-.361,2.374-.878.5-.494.54-1.459.781-2.217l.405.109v3.206c1.167,1.014,1.747,1.1,2.526.417C68.747,72.648,68.8,71.319,67.882,69.913ZM58.3,74.652a7.582,7.582,0,0,0,1.126-2.074c.379-2.146.639-4.319.806-6.493.057-.746.028-1.818-1.106-1.879a34.917,34.917,0,0,0-4.62.058,1.772,1.772,0,0,0-1.7,1.665c-.175,1.618-.368,3.239-.415,4.863a10.947,10.947,0,0,0,.446,2.344l1.7-.169c1.137-1.008,1.14-2.245,1.151-3.515.011-1.195-.079-2.454,1.1-3.634a12.7,12.7,0,0,1,.117,1.852c-.134,1.409-.319,2.814-.52,4.216C56.2,73.187,56.738,74.023,58.3,74.652Zm37.188-5.061-.135-.428a4.86,4.86,0,0,1,1.169-.512,15.038,15.038,0,0,0,1.791-.075,1.859,1.859,0,0,0,1.179-.924,11.94,11.94,0,0,0,.4-2.918,1.886,1.886,0,0,0-1.938-2.114,20.1,20.1,0,0,0-2.954.037,2.52,2.52,0,0,0-2.63,2.724c-.1,1.457-.154,2.916-.261,4.372-.079,1.063.4,1.713,1.437,1.7,1.869-.028,3.736-.19,5.661-.3v-1.56ZM47.567,72.86a2.544,2.544,0,0,0,3.013-.111c.234-1.516.434-2.871.654-4.222.225-1.382.635-2.774-.226-4.041-1.757-.357-2.687.106-2.861,1.561C47.882,68.258,47.762,70.486,47.567,72.86Zm31.787-9.44c-.254,2.02-.595,3.8-.656,5.6-.032.971-.658,2.138.624,3.162l2.531-.759c-.226-2.895,1.235-5.557-.01-8.38Z" fill="#1c1415"/>
      <path d="M61.517,85.059c.092.626.433,1.374.2,1.842a2.315,2.315,0,0,1-1.595.811,19.639,19.639,0,0,1-2.807.034V82.779c.9,0,1.841-.05,2.772.011C61.534,82.886,61.893,83.618,61.517,85.059Zm-3,1.984,2.346-.436a1.824,1.824,0,0,0-2.346-.785Zm-.007-3.551v1.46l1.922-.386.035-.592Z" fill="#fcf3f2"/>
      <path d="M75.453,82.538l-.341.977H72.786l-.084.429c.558.2,1.1.454,1.676.6.787.2,1.547.627,1.3,1.435a2.511,2.511,0,0,1-1.531,1.43,8.3,8.3,0,0,1-2.616-.179l.353-.934h2.6l.083-.435c-.476-.168-.947-.351-1.429-.5-.8-.248-1.621-.475-1.52-1.579s.886-1.419,1.8-1.455A14.363,14.363,0,0,1,75.453,82.538Z" fill="#fce5e3"/>
      <path d="M80.148,85.68H77.477l-.058.433,2.765.4c-1.311,1.083-2.361,1.113-3.358.362a1.773,1.773,0,0,1-.5-2.422,1.945,1.945,0,0,1,2.286-1.042A1.855,1.855,0,0,1,80.148,85.68ZM77.43,84.524l.021.475,1.444-.122-.026-.353Z" fill="#fce5e3"/>
      <path d="M66.809,88.473l1.9-.716-1.677-3.984,1.087-.119,1.142,2.473,1.014-2.415.9-.105c.051.132.113.209.094.256-.526,1.356-1.019,2.727-1.605,4.058C69.143,89.1,68.41,89.288,66.809,88.473Z" fill="#fce5e3"/>
      <path d="M66.534,83.692v3.752c-3.414.793-4.075.211-3.856-3.536l1.044-.071.187,2.543c1.32.516,1.32.516,1.609-2.581Z" fill="#fce5e3"/>
      <path d="M83.236,90.515l-.447-.411-.979,2.305-.924-1.443-.813,1.6L79.028,90.1l.315-.168.775,1.208L80.9,89.65l.822,1.5.568-1.208h2.463l.19,2.109L82.887,91.9l-.134-.408.668-.749.657-.18-.056-.244Zm1.072.9-.066-.266-.736.155.076.312Z" fill="#f9d3d1"/>
      <path d="M80.918,81.924h1.044v5.235H80.918Z" fill="#fce5e3"/>
      <path d="M68.737,90.988l-.911,1.389-.6-1.214-.257.185-.235,1.135h-.309V89.423l1.468,1.846L69,89.484l.349.1.14,2.825-.482.051Z" fill="#f9d3d1"/>
      <path d="M84.119,81.838v5.238l-1.026.132V81.892Z" fill="#fcf3f2"/>
      <path d="M92.254,91.85l-.269-1.5-.9,1.265-.965-1.2-.193,1.475-.321-.026V88.749l1.423,1.931,1.255-1.751.257.125V91.8Z" fill="#fce5e3"/>
      <path d="M72.7,89.584l2.173-.109.3,2.259c-.505.955-1.517.494-2.494.684V91.159Zm1.827,2.055-.042-.492-1.263.064.011.428ZM73.21,90.09l.084.526,1.145-.219-.078-.47Z" fill="#f9d3d1"/>
      <path d="M85.358,89.835H87.61c.048.541.276,1.131.087,1.518s-.792.562-1.428.595l-.294.857-.411.018Zm1.365,1.713.6-.5-.772-.861-.513.416Z" fill="#f8c8c6"/>
      <path d="M52.615,89.905c.918.134,1.519.573,1.47,1.588a1.382,1.382,0,0,1-1.61,1.418,1.4,1.4,0,0,1-1.491-1.558C51.02,90.373,51.7,89.974,52.615,89.905Zm1.4,1.533c-.722-.476-1.1-.921-1.475-.913-.318.007-.907.577-.87.821a1.375,1.375,0,0,0,.859.974C52.865,92.374,53.285,91.9,54.016,91.438Z" fill="#f9d3d1"/>
      <path d="M44.765,92.874l-.246-2.285-1.014.189-.121,2.346L43,93.143l-.307-2.2L41.88,90.6l.007-.353,2.877-.121Q44.764,91.5,44.765,92.874Z" fill="#f8c8c6"/>
      <path d="M78.308,91.389l-1.79-.961c.488-1.328,1.247-1.29,2.176-.685l-1.33.17-.08.242,1.684.826c-.135.354-.2.991-.436,1.059a6.6,6.6,0,0,1-1.787.051l.012-.411h1.5Z" fill="#f9d3d1"/>
      <path d="M72.7,89.584l-.018,1.575c-.048-.42-.1-.841-.153-1.356l-1.1.335-.12,2.273-.431.016-.3-2.179-.832-.428.042-.236Z" fill="#f8c8c6"/>
      <path d="M98.039,90.056l-.177.738-1.274.113-.007.167,1.107.124-.006.307h-1.9V90.024c.8-.939,1.543-.534,2.282.056Zm-.831.259-.041-.354-.779.169.045.238Z" fill="#f8c8c6"/>
      <path d="M49.513,92.008,48.16,92.2l0,.155,1.156.1.02.362a3.594,3.594,0,0,1-1.488-.051,1.26,1.26,0,0,1-.467-1.152,1.421,1.421,0,0,1,1.061-.825c.45.031.869.517,1.3.807Zm-1.537-.626.047.243.8-.071-.051-.33Z" fill="#f8c8c6"/>
      <path d="M95.384,90.8l-1.42.155.025.269h1.172l.018.434a3.649,3.649,0,0,1-1.492-.05,1.268,1.268,0,0,1-.486-1.146,1.425,1.425,0,0,1,1.035-.857c.462.025.9.5,1.346.782Zm-.751-.472-.007-.143h-.633l.012.2Z" fill="#f8c8c6"/>
      <path d="M64.638,91.573l-1.435.176,0,.271,1.175.055.05.351c-.459.039-1.058.273-1.342.069a1.8,1.8,0,0,1-.639-1.339c.009-.284.678-.808.98-.762a4.391,4.391,0,0,1,1.41.819Zm-.769-.359-.01-.342-.746.116.029.226Z" fill="#f8c8c6"/>
      <path d="M56.324,92.738l-.26-1.591c-1.5-.182-.527,1.26-1.359,1.825l-.177-2.333H56.6l.264,2.039Z" fill="#f9d3d1"/>
      <path d="M61.456,92.639l-.311-1.722-.49-.065-.529,1.8-.266.029-.183-2.115h2.148v2.069Z" fill="#f9d3d1"/>
      <path d="M44.765,92.874q0-1.374,0-2.749l.779.708,1.16.092.158,2.03-.406.067-.264-1.559-.857-.081a5.3,5.3,0,0,1-.1,1.074C45.183,92.627,44.928,92.737,44.765,92.874Z" fill="#fce5e3"/>
      <path d="M98.06,90.08l.448-1.228,1.083.753c-.861.689-.639,1.314.345,1.986H98.755l-.715-1.534Z" fill="#f8c8c6"/>
      <path d="M58.678,92.675V89.63l.253-.041.247,3.052Z" fill="#f8c8c6"/>
      <path d="M57.789,89.707v2.956l-.235.016V89.722Z" fill="#fce5e3"/>
      <path d="M104.536,55.676c-8.877.177-17.759.242-26.631.559-11.453.409-22.9,1.031-34.35,1.535-2.968.13-5.941.159-8.912.235,0-3.882.032-7.765,0-11.647q-.092-10.209-.252-20.416c-.069-4.778-.185-9.555-.25-14.333-.033-2.37.082-2.546,2.385-4.374,1.439,0,3.321.022,5.2,0q18.8-.25,37.589-.517,10.594-.141,21.189-.253a3.344,3.344,0,0,1,3.276,3.11C105.384,24.919,104.149,40.311,104.536,55.676ZM83.975,38.205l.481-.057c-.466-3.56-.957-7.117-1.388-10.682a2.582,2.582,0,0,0-2.456-2.632,34.953,34.953,0,0,0-9.226-.3c-3.614.437-7.292.371-10.892.876-3.81.536-4.588.823-5.446,4.249A17.838,17.838,0,0,0,54.5,36.4c.569,4.416.787,8.879,1.108,13.326.118,1.623,1.1,3.3,2.335,3.525a13.786,13.786,0,0,0,3.2.239c2.951-.169,5.893-.483,8.842-.67,3.428-.218,6.86-.347,10.289-.541,2.051-.117,3.659-1.133,3.789-2.5a50.772,50.772,0,0,0,.265-5.4C84.3,42.32,84.1,40.263,83.975,38.205Z" fill="#e12227"/>
      <path d="M33.847,58.232c.149,4.408.309,8.816.438,13.224a13.538,13.538,0,0,1-.179,1.787h-.095l-.094-.013-.027-2.792q.188-1.2.376-2.4L34,68.009l-.151.329q-.112-1.3-.226-2.6,0-1.539,0-3.077l0-4.425A1.276,1.276,0,0,1,33.847,58.232Z" fill="#c33c38"/>
      <path d="M33.621,62.661q0,1.539,0,3.077Q33.62,64.2,33.621,62.661Z" fill="#562843"/>
      <path d="M33.846,68.338,34,68.009l.269.033q-.187,1.2-.376,2.4Q33.868,69.388,33.846,68.338Z" fill="#1c1415"/>
      <path d="M46.88,65.647c-.183,1.931-.281,3.557-.5,5.166-.273,1.969-1.223,2.711-3.242,2.7-.3,0-.6,0-.958,0l-.5,1.273H38.682c.249-3.106.431-5.931.73-8.744a1.451,1.451,0,0,1,1.635-1.32,32.015,32.015,0,0,1,3.475-.028A9.752,9.752,0,0,1,46.88,65.647ZM42.549,71.6a5.406,5.406,0,0,0,.519-5.042A5.413,5.413,0,0,0,42.549,71.6Z" fill="#f5f4f3"/>
      <path d="M73.656,62.363l.245.987,3.922.326A52.138,52.138,0,0,1,77.141,70a2.909,2.909,0,0,1-2.834,2.259c-.473.02-.944.069-1.417.09-2.683.116-3.365-.631-3.077-3.355.2-1.874.391-3.749.591-5.622C70.54,62.1,72.109,61.59,73.656,62.363Zm.811,2.92-.677-.058a8.793,8.793,0,0,0-.427,5.139l.5.046Z" fill="#f5f4f3"/>
      <path d="M86.88,63.256c1.017,1.389-.608,2.86.413,4.062l.432.011a17.44,17.44,0,0,1,.264-2.441c.16-.654.4-1.539.886-1.8a7.163,7.163,0,0,1,2.6-.218c-.675,2.271.127,4.412-1.5,6,1.293,1.53.839,3.48-1.18,4.41l-1.315-1-.137-3.135-.454-.053-.657,2.55H83.246c.141-1.732.265-3.291.4-4.85.046-.557.134-1.11.16-1.667C83.9,63.013,85.086,62.34,86.88,63.256Z" fill="#f5f4f3"/>
      <path d="M67.882,69.913c.921,1.406.865,2.735-.191,3.659-.779.681-1.359.6-2.526-.417V69.949l-.405-.109c-.241.758-.279,1.723-.781,2.217-.526.517-1.5.581-2.374.878-1.428-3.152.542-5.89.175-8.82.571-.133,1.053-.285,1.546-.353,1.068-.147,1.665.28,1.6,1.426q-.086,1.5-.172,2.992l.575.094.846-4.389L69.1,63.67C68.974,65.972,68.994,67.976,67.882,69.913Z" fill="#f5f4f3"/>
      <path d="M58.3,74.652c-1.563-.629-2.1-1.465-1.914-2.766.2-1.4.386-2.807.52-4.216a12.7,12.7,0,0,0-.117-1.852c-1.184,1.18-1.094,2.439-1.1,3.634-.011,1.27-.014,2.507-1.151,3.515l-1.7.169a10.947,10.947,0,0,1-.446-2.344c.047-1.624.24-3.245.415-4.863a1.772,1.772,0,0,1,1.7-1.665,34.917,34.917,0,0,1,4.62-.058c1.134.061,1.163,1.133,1.106,1.879-.167,2.174-.427,4.347-.806,6.493A7.582,7.582,0,0,1,58.3,74.652Z" fill="#f5f4f3"/>
      <path d="M95.489,69.591h3.723v1.56c-1.925.109-3.792.271-5.661.3-1.035.016-1.516-.634-1.437-1.7.107-1.456.163-2.915.261-4.372a2.52,2.52,0,0,1,2.63-2.724,20.1,20.1,0,0,1,2.954-.037A1.886,1.886,0,0,1,99.9,64.734a11.94,11.94,0,0,1-.4,2.918,1.859,1.859,0,0,1-1.179.924,15.038,15.038,0,0,1-1.791.075,4.86,4.86,0,0,0-1.169.512ZM96.738,64.5l-.647-.1c-.4.9-.86,1.793-.315,2.809l.523.078Z" fill="#fbf9f9"/>
      <path d="M47.567,72.86c.2-2.374.315-4.6.58-6.813.174-1.455,1.1-1.918,2.861-1.561.861,1.267.451,2.659.226,4.041-.22,1.351-.42,2.706-.654,4.222A2.544,2.544,0,0,1,47.567,72.86Z" fill="#f5f4f3"/>
      <path d="M79.354,63.42l2.489-.381c1.245,2.823-.216,5.485.01,8.38l-2.531.759c-1.282-1.024-.656-2.191-.624-3.162C78.759,67.223,79.1,65.44,79.354,63.42Z" fill="#f5f4f3"/>
      <path d="M58.519,87.043V85.822a1.824,1.824,0,0,1,2.346.785Z" fill="#e6363b"/>
      <path d="M58.512,83.492l1.957.482-.035.592-1.922.386Z" fill="#e6363b"/>
      <path d="M77.43,84.524h1.439l.026.353L77.451,85Z" fill="#e12227"/>
      <path d="M84.308,91.411l-.726.2-.076-.312.736-.155Z" fill="#e6363b"/>
      <path d="M83.236,90.515l.786-.194.056.244-.657.18Z" fill="#e12227"/>
      <path d="M74.531,91.639H73.237l-.011-.428,1.263-.064Z" fill="#e12227"/>
      <path d="M73.21,90.09l1.151-.163.078.47-1.145.219Z" fill="#e12227"/>
      <path d="M86.723,91.548l-.684-.942.513-.416.772.861Z" fill="#e12227"/>
      <path d="M54.016,91.438c-.731.462-1.151.936-1.486.882a1.375,1.375,0,0,1-.859-.974c-.037-.244.552-.814.87-.821C52.913,90.517,53.294,90.962,54.016,91.438Z" fill="#e12227"/>
      <path d="M97.208,90.315l-.775.053-.045-.238.779-.169Z" fill="#e6363b"/>
      <path d="M47.976,91.382l.793-.158.051.33-.8.071Z" fill="#e6363b"/>
      <path d="M94.633,90.332l-.628.061-.012-.2h.633Z" fill="#e12227"/>
      <path d="M63.869,91.214h-.727l-.029-.226.746-.116Z" fill="#eb4b4f"/>
      <path d="M83.975,38.205c.122,2.058.32,4.115.344,6.175a50.772,50.772,0,0,1-.265,5.4c-.13,1.362-1.738,2.378-3.789,2.5-3.429.194-6.861.323-10.289.541-2.949.187-5.891.5-8.842.67a13.786,13.786,0,0,1-3.195-.239c-1.236-.221-2.217-1.9-2.335-3.525-.321-4.447-.539-8.91-1.108-13.326a17.838,17.838,0,0,1,.552-6.735c.858-3.426,1.636-3.713,5.446-4.249,3.6-.5,7.278-.439,10.892-.876a34.953,34.953,0,0,1,9.226.3,2.582,2.582,0,0,1,2.456,2.632c.431,3.565.922,7.122,1.388,10.682ZM55.589,36.744a5.678,5.678,0,0,0-.218,1.223c.044,1.2.151,2.394.242,3.591.236,3.114.476,6.228.69,9.03A4.464,4.464,0,0,0,60.6,52.815c4.62-.3,9.248-.489,13.867-.806,2.344-.161,4.683-.458,7.007-.806.421-.063.761-.669,1.138-1.024l.376-.413a10.845,10.845,0,0,0,.555-2.437c-.018-3.825-.051-7.653-.246-11.472-.152-2.98-.55-5.947-.838-8.92l-.79.5-1.109-1.5.252-.5c-2.863-.112-5.728-.332-8.59-.3-2.652.024-5.309.235-7.948.51A28,28,0,0,0,58.491,26.7a3.991,3.991,0,0,0-2.363,2.23,45.158,45.158,0,0,0-1,6.679c-.024.194.3.431.457.647Z" fill="#e6363b"/>
      <path d="M42.549,71.6a5.413,5.413,0,0,1,.519-5.042A5.406,5.406,0,0,1,42.549,71.6Z" fill="#363133"/>
      <path d="M74.467,65.283,73.86,70.41l-.5-.046a8.793,8.793,0,0,1,.427-5.139Z" fill="#363133"/>
      <path d="M96.738,64.5,96.3,67.286l-.523-.078c-.545-1.016-.085-1.909.315-2.809Z" fill="#363133"/>
      <path d="M55.586,36.253c-.161-.216-.481-.453-.457-.647a45.158,45.158,0,0,1,1-6.679,3.991,3.991,0,0,1,2.363-2.23,28,28,0,0,1,5.778-1.052c2.639-.275,5.3-.486,7.948-.51,2.862-.027,5.727.193,8.59.3l-.252.5,1.109,1.5.79-.5c.288,2.973.686,5.94.838,8.92.195,3.819.228,7.647.246,11.472a10.825,10.825,0,0,1-.555,2.436.464.464,0,0,1-.193-.109L82.577,48.4l0-1.5c.9-1.355.507-2.772.2-4.185L82.737,33.4l-.231-1.3-.024-.768-.23-.787-.032-.508c-.25-2.843-1.128-3.853-3.579-4.118l-.512-.012-1.292-.047H72.705l-1.551.046-1.3.208-1.553.046-1.545.023a35.408,35.408,0,0,0-3.584,0,10.1,10.1,0,0,0-2.166.7l-.732.024-.564.234-.47.019-.548.255a1.813,1.813,0,0,0-.233.017l-.567.059.008.165h.574l.287.1-.29.463a1.46,1.46,0,0,0-2.054,1.3C56.056,31.746,55.855,34.005,55.586,36.253Z" fill="#e85156"/>
      <path d="M82.607,50.179c-.377.355-.717.961-1.138,1.024-2.324.348-4.663.645-7.007.806-4.619.317-9.247.5-13.867.806A4.464,4.464,0,0,1,56.3,50.588c-.214-2.8-.454-5.916-.69-9.03-.091-1.2-.2-2.392-.242-3.591a5.659,5.659,0,0,1,.218-1.222,2.462,2.462,0,0,1,.27.68c.279,3.841.5,7.688.844,11.523a6.593,6.593,0,0,0,.973,2.035l.288.29c.718.334,1.441.965,2.153.952,3.434-.063,6.864-.287,10.3-.478,2.785-.154,5.572-.307,8.352-.532a28.5,28.5,0,0,0,3.086-.6l-.766-.661H82.49A.95.95,0,0,1,82.607,50.179Z" fill="#e85156"/>
      <path d="M57.676,50.983a6.593,6.593,0,0,1-.973-2.035c-.347-3.835-.565-7.682-.844-11.523a2.462,2.462,0,0,0-.27-.68l0-.492c.269-2.248.47-4.507.835-6.739a1.46,1.46,0,0,1,2.053-1.3,10.276,10.276,0,0,0-1.549,2.565,13.288,13.288,0,0,0-.307,3.959c.23,4.375.568,8.744.864,13.115l.176,1.593Z" fill="#ed7578"/>
      <path d="M82.607,50.179a.95.95,0,0,0-.117-.223l.3-.3a.464.464,0,0,0,.193.109Z" fill="#7a1a1a"/>
      <path d="M57.482,47.857c-.3-4.371-.634-8.74-.864-13.115a13.288,13.288,0,0,1,.307-3.959,10.276,10.276,0,0,1,1.549-2.565l.291-.463,2.038-.406.543-.16L62.986,27l.388.1.8-.023,3.129-.144,1.5-.059,2.855.035,3.135.226h2.6l0-.264H75.251l-.735-.222a1.758,1.758,0,0,1,.008-.218l1.8.014,1.322.191.961.038.3.172a.336.336,0,0,0,.2.095l.325.207.761-.012.757.116.07,1.452.2.815.591,2.577.182,1.091.07,4.571q0,4.69,0,9.381c-.554,2.429-2.278,3.241-4.554,3.332q-9.772.39-19.544.8l-.288-.29-.018-1.533Q57.571,48.653,57.482,47.857ZM60.46,46.04l3.4-.224.4-1.423a23.268,23.268,0,0,0,2.978-.418c.47-.125,1.146-.6,1.2-.99.338-2.536.531-5.09.759-7.516a11.264,11.264,0,0,0-7.965.012ZM78.072,34.168h-3.5l-.58-1.514-3.12.247c-.189,3.652-.808,7.055-.609,10.418a10.851,10.851,0,0,0,6.007.174,2.045,2.045,0,0,0,1.86-2.1c.134-1.848.348-3.692.427-5.543A5.707,5.707,0,0,0,78.072,34.168Z" fill="#e12227"/>
      <path d="M57.964,51.273q9.771-.4,19.544-.8c2.276-.091,4-.9,4.554-3.333.069-.016.139-.03.209-.043l.306,1.3.213,1.256-.3.3H81.084l.766.661a28.5,28.5,0,0,1-3.086.6c-2.78.225-5.567.378-8.352.532-3.431.191-6.861.415-10.3.478C59.405,52.238,58.682,51.607,57.964,51.273Z" fill="#ed7578"/>
      <path d="M64.179,27.077l-.8.023-.388-.1-1.64.191-.543.16-2.038.406-.287-.1c-.006-.074-.011-.149-.015-.224a1.649,1.649,0,0,1,.233-.016l.548-.256.471-.019.563-.234.733-.024c1.7-.077,3.4-.138,5.094-.251.228-.015.437-.292.655-.448l1.545-.023,1.553-.046,1.3-.208,1.551-.046h4.132l1.292.047.512.011,1.549,1.22-.761.012-.325-.207a.336.336,0,0,1-.2-.095l-.3-.172-.961-.038-1.322-.191-1.8-.014L73,26.425l-1.34.194-1.492.069-1.36.186-1.5.059Z" fill="#ee8387"/>
      <path d="M82.577,48.4l-.306-1.3c0-1.757.03-3.515,0-5.271-.027-1.356-.136-2.711-.208-4.066q-.035-2.285-.07-4.571-.091-.546-.182-1.091l-.591-2.577.009-.771A1.847,1.847,0,0,1,81.3,28.5c.011-.027.1-.05.1-.049.278.527.551,1.055.825,1.583.011.17.021.339.033.508.076.262.152.525.229.787q.012.384.025.768.114.651.23,1.3.02,4.654.039,9.309l-.2,4.185Z" fill="#ee8387"/>
      <path d="M82.22,30.035c-.274-.528-.547-1.056-.825-1.583,0,0-.088.022-.1.049a1.847,1.847,0,0,0-.072.247c-.069-.016-.138-.03-.207-.044l-.07-1.452-.757-.116-1.549-1.22C81.092,26.182,81.97,27.192,82.22,30.035Z" fill="#ed7578"/>
      <path d="M66.76,26.18c-.218.156-.427.433-.655.448-1.7.113-3.4.174-5.094.251a10.075,10.075,0,0,1,2.165-.7A35.408,35.408,0,0,1,66.76,26.18Z" fill="#ed7578"/>
      <path d="M82.575,46.9l.2-4.185C83.082,44.123,83.477,45.54,82.575,46.9Z" fill="#ed7578"/>
      <path d="M72.705,25.857l-1.551.046Z" fill="#ed7578"/>
      <path d="M69.858,26.111l-1.553.046Z" fill="#ed7578"/>
      <path d="M78.129,25.905l-1.292-.047Z" fill="#ed7578"/>
      <path d="M82.737,33.4q-.115-.651-.23-1.3Q82.621,32.749,82.737,33.4Z" fill="#ed7578"/>
      <path d="M82.482,31.33c-.077-.262-.153-.525-.229-.787C82.329,30.805,82.405,31.068,82.482,31.33Z" fill="#ed7578"/>
      <path d="M60.278,26.9l-.563.234Z" fill="#ed7578"/>
      <path d="M59.244,27.156l-.548.256Z" fill="#ed7578"/>
      <path d="M58.463,27.428c0,.075.009.15.015.224H57.9l-.008-.165Z" fill="#ed7578"/>
      <path d="M57.482,47.857q.088.8.176,1.593Q57.571,48.653,57.482,47.857Z" fill="#eb4b4f"/>
      <path d="M60.46,46.04l.769-10.559a11.264,11.264,0,0,1,7.965-.012c-.228,2.426-.421,4.98-.759,7.516-.051.388-.727.865-1.2.99a23.268,23.268,0,0,1-2.978.418l-.4,1.423Zm3.774-3.36c1.172-1.023,1.567-4.9.7-6.3C64.167,38.505,64.459,40.439,64.234,42.68Z" fill="#fcf3f2"/>
      <path d="M78.072,34.168a5.707,5.707,0,0,1,.481,1.678c-.079,1.851-.293,3.7-.427,5.543a2.045,2.045,0,0,1-1.86,2.1,10.851,10.851,0,0,1-6.007-.174c-.2-3.363.42-6.766.609-10.418l3.12-.247.58,1.514ZM74.1,41.8c.8-.787,1.135-4.794.478-5.665C73.821,36.859,73.475,40.954,74.1,41.8Z" fill="#fcf3f2"/>
      <path d="M82.058,37.758c.072,1.355.181,2.71.208,4.066.035,1.756.006,3.514,0,5.271-.07.013-.14.027-.209.043Q82.061,42.449,82.058,37.758Z" fill="#eb4b4f"/>
      <path d="M71.66,26.619,73,26.425l1.515.224.735.221-.452.265-3.135-.226.008.011Z" fill="#ee5f62"/>
      <path d="M68.809,26.874l1.36-.186,1.5.232-.008-.011Z" fill="#ee5f62"/>
      <path d="M74.8,27.135l.452-.265H77.4l0,.264Z" fill="#ee8387"/>
      <path d="M64.179,27.077l3.128-.144Z" fill="#ed7578"/>
      <path d="M74.516,26.649,73,26.425l1.523.006A1.758,1.758,0,0,0,74.516,26.649Z" fill="#e6363b"/>
      <path d="M76.323,26.445l1.322.191Z" fill="#e6363b"/>
      <path d="M81.806,32.1q.09.545.182,1.091Q81.9,32.641,81.806,32.1Z" fill="#ed7578"/>
      <path d="M81.017,28.7c.069.014.138.028.207.044l-.009.771Z" fill="#e85156"/>
      <path d="M60.8,27.349l.543-.16Z" fill="#ed7578"/>
      <path d="M78.606,26.674l.3.172Z" fill="#ed7578"/>
      <path d="M79.1,26.941l.325.207Z" fill="#ed7578"/>
      <path d="M62.986,27l.388.1Z" fill="#ed7578"/>
      <path d="M71.672,26.92l-1.5-.232,1.492-.069Z" fill="#e12227"/>
      <path d="M64.234,42.68c.225-2.241-.067-4.175.7-6.3C65.8,37.778,65.406,41.657,64.234,42.68Z" fill="#e6363b"/>
      <path d="M74.1,41.8c-.628-.848-.282-4.943.478-5.665C75.238,37.008,74.9,41.015,74.1,41.8Z" fill="#e6363b"/>
    </g>
  </g>
</svg>
