<svg width="24" height="27" viewBox="0 0 24 27" fill="none" xmlns="http://www.w3.org/2000/svg">
<path d="M12.0768 0.653809C9.68869 0.653809 7.23908 1.53855 5.41724 2.79812C5.41724 2.51047 5.18457 2.27947 4.89484 2.27947H2.17744C1.33895 2.28383 0.658508 2.95502 0.658508 3.78747V24.8122C0.658508 25.6577 1.35212 26.3463 2.20378 26.3463H4.1222C4.83777 26.3463 5.41724 25.771 5.41724 25.0606V20.8635C7.34883 22.2712 9.67991 23.0296 12.0768 23.0252C18.2974 23.0252 23.3459 18.0175 23.3459 11.8373C23.3459 5.6572 18.2974 0.653809 12.0768 0.653809ZM10.356 18.8804C10.356 19.6519 8.95556 18.7933 8.65266 18.6407C8.58242 18.6059 8.50779 18.5666 8.43755 18.5274C8.24878 18.4228 8.06001 18.3139 7.88002 18.1962C7.80539 18.1482 7.73515 18.1003 7.66491 18.0524C7.47175 17.9172 7.28737 17.7734 7.10738 17.6209C7.03275 17.5599 6.96251 17.4945 6.89227 17.4291C6.69473 17.2504 6.51035 17.063 6.33475 16.8669C6.26012 16.7841 6.18988 16.7013 6.11964 16.6141C5.9177 16.3657 5.73332 16.1085 5.56211 15.834C5.51382 15.7555 5.46553 15.6727 5.41724 15.5899V15.5637C4.75875 14.4218 4.41633 13.1274 4.41633 11.8112C4.41633 11.6892 4.42072 11.5323 4.42511 11.3666C4.44267 10.8393 4.88167 10.4209 5.41285 10.4209H10.3516C10.356 10.4252 10.356 18.8456 10.356 18.8804ZM5.77283 7.51822C5.90453 7.33081 6.04501 7.14776 6.19427 6.96906C6.25573 6.89497 6.31719 6.82524 6.38304 6.7555C6.55864 6.56374 6.74302 6.37633 6.94056 6.20199C7.02397 6.1279 7.10299 6.05817 7.19079 5.98843C7.56394 5.67899 7.96782 5.40877 8.38926 5.17778C8.4595 5.13855 8.53413 5.09933 8.60436 5.06446C8.78435 4.97294 8.97312 4.88577 9.16189 4.81168C9.23213 4.78117 9.30676 4.75502 9.377 4.72887C9.56138 4.65914 9.74576 4.59812 9.93453 4.54582C10.0048 4.52403 10.0794 4.50659 10.1496 4.48916C10.3691 4.4325 10.5886 4.38456 10.8125 4.34969C10.8345 4.34533 10.852 4.34098 10.874 4.34098C10.9354 4.33226 10.9969 4.32354 11.0628 4.31483C11.313 4.27996 11.572 4.26253 11.8266 4.25381C11.8486 4.25381 11.8705 4.25381 11.8925 4.25381C11.9539 4.25381 12.0154 4.24945 12.0768 4.24945C12.3358 4.24945 12.5905 4.26253 12.8407 4.28868C12.9022 4.29303 12.9636 4.30175 13.0295 4.31047C13.0558 4.31483 13.0821 4.31918 13.1129 4.31918C13.3016 4.34533 13.4904 4.37584 13.6748 4.41507C13.745 4.42814 13.8197 4.44558 13.8899 4.46301C14.0787 4.50659 14.263 4.55889 14.4474 4.61991C14.5221 4.6417 14.5923 4.66785 14.6625 4.694C14.8513 4.75938 15.0357 4.83783 15.2201 4.91628C15.2947 4.94679 15.3649 4.98165 15.4352 5.01652C15.6239 5.10805 15.8127 5.20829 15.9927 5.31725C16.0717 5.36083 16.1463 5.40877 16.221 5.45671C16.4844 5.62669 16.739 5.80974 16.9804 6.01023C17.0638 6.07996 17.1473 6.14969 17.2263 6.22378C17.4194 6.39812 17.6038 6.58553 17.7794 6.7773C17.8409 6.84703 17.9067 6.91676 17.9638 6.99085C18.1087 7.16519 18.2448 7.34388 18.3765 7.53129L5.77283 7.51822ZM19.7198 12.3255C19.7154 12.3952 19.711 12.4693 19.7022 12.539C19.6847 12.7264 19.6627 12.9095 19.632 13.0925C19.6188 13.1623 19.6056 13.2364 19.5925 13.3061C19.5574 13.4935 19.5135 13.6766 19.4608 13.8596C19.4388 13.9294 19.4213 14.0034 19.3993 14.0732C19.3422 14.2606 19.2764 14.4436 19.2062 14.6267C19.1754 14.7008 19.1491 14.7705 19.1184 14.8403C19.0349 15.0277 18.9471 15.2151 18.8506 15.3938C18.8111 15.4679 18.7716 15.5376 18.732 15.6073C18.6574 15.7381 18.5784 15.8645 18.4994 15.9865C18.4291 16.0911 18.3589 16.1957 18.2843 16.2959C18.1131 16.5313 17.9243 16.7579 17.7267 16.9715C17.6565 17.0456 17.5863 17.124 17.5116 17.1938C17.336 17.3725 17.1473 17.5381 16.9541 17.6993C16.8839 17.756 16.8136 17.8126 16.739 17.8693C16.559 18.0044 16.3746 18.1352 16.1815 18.2572C16.1112 18.3008 16.0366 18.3444 15.9664 18.3879C15.5142 18.6495 15.0313 18.8499 14.544 19.0373C14.2674 19.1463 13.5036 19.5473 13.5036 18.9284V10.4165H19.272C19.4783 10.4165 19.6539 10.5734 19.6759 10.7783C19.6759 10.8131 19.6803 10.8436 19.6803 10.8785C19.7066 11.1008 19.7242 11.3231 19.733 11.5497C19.7373 11.6194 19.7373 11.6935 19.7373 11.7633C19.7373 11.785 19.7373 11.8112 19.7373 11.833C19.7373 12.003 19.7286 12.1642 19.7198 12.3255Z" fill="url(#paint0_linear)" stroke="#1E2221" stroke-opacity="0.2" stroke-miterlimit="10" stroke-linecap="round"/>
<defs>
<linearGradient id="paint0_linear" x1="23.2298" y1="0.562621" x2="-2.0628" y2="28.8695" gradientUnits="userSpaceOnUse">
<stop stop-color="#EFD05F"/>
<stop offset="0.473958" stop-color="#6AD5B4"/>
<stop offset="1" stop-color="#D57C6A"/>
</linearGradient>
</defs>
</svg>
