<?xml version="1.0" encoding="utf-8"?>
<!-- Generator: Adobe Illustrator 24.3.0, SVG Export Plug-In . SVG Version: 6.00 Build 0)  -->
<svg version="1.1" xmlns="http://www.w3.org/2000/svg" xmlns:xlink="http://www.w3.org/1999/xlink" x="0px" y="0px"
	 viewBox="0 0 940.6 916.9" style="enable-background:new 0 0 940.6 916.9;" xml:space="preserve">
<style type="text/css">
	.st0{fill:#D57C6A;}
	.st1{fill:#36886F;}
	.st2{fill:#98FFDF;}
	.st3{fill:#F1CF95;}
</style>
<g id="Layer_1">
</g>
<g id="Layer_2">
	<polygon class="st0" points="367.2,446.9 392.5,367.8 479,348.2 	"/>
	<polyline class="st0" points="367.2,446.9 479,446.9 479,348.2 	"/>
	<path class="st1" d="M663.8,371.8c2.4-9.1,7.8-28.9,26.5-39.8c18.8-11,48.4-11.4,65.8,7.7c20,22.1,10.5,55.4-3.9,72.4
		c-14.3,17-39.1,24.5-44.8,18.2c-6.7-7.3,14.5-31.1,4.4-44.2c-3.5-4.5-8.9-5.4-9.4-5.5c-17-2.7-29.8,28.3-37.6,25.4
		C659.3,404,660.2,385.4,663.8,371.8z"/>
	<g id="Layer_3">
		<polygon class="st1" points="367.2,446.9 491.2,467.3 479,446.9 		"/>
		<polygon class="st1" points="656.8,386.6 662.3,403.1 674,379.7 		"/>
		<polygon class="st1" points="702.2,409.7 706.6,429 721.7,426.6 		"/>
		<polygon class="st1" points="766.8,349.5 767.3,365.3 762.7,365.2 		"/>
		<circle class="st2" cx="575.8" cy="535.5" r="61.9"/>
		<circle class="st3" cx="566.5" cy="535.5" r="61.9"/>
	</g>
	<path class="st2" d="M657.6,352.2c2.6-9.5,8.2-30.4,27.9-41.9c19.8-11.6,51-12,69.2,8.1c21.1,23.2,11,58.3-4.1,76.2
		c-15.1,17.9-41.1,25.8-47.1,19.2c-7-7.7,15.2-32.8,4.7-46.5c-3.6-4.7-9.3-5.7-9.9-5.8c-17.9-2.8-31.3,29.8-39.6,26.8
		C652.8,386,653.7,366.5,657.6,352.2z"/>
</g>
<g id="Layer_4">
	<polygon class="st2" points="491.2,467.3 479,348.2 479,446.9 	"/>
</g>
</svg>
