<svg xmlns="http://www.w3.org/2000/svg" width="72.397" height="65.392" viewBox="0 0 72.397 65.392">
  <path d="M389.79,266.422c0,5.754-4.012,10.418-8.961,10.418s-8.96-4.664-8.96-10.418S375.881,256,380.829,256a7.888,7.888,0,0,1,3.752.954A10.634,10.634,0,0,1,389.79,266.422Z" transform="translate(-368.961 -244.963)" fill="#36886f"/>
  <polygon points="9.788 11.151 12.242 11.04 13.254 13.211 9.788 11.151" fill="#36886f"/>
  <polygon points="9.788 31.767 12.242 31.878 11.244 29.862 9.788 31.767" fill="#36886f"/>
  <path d="M388.537,266.422a9.8,9.8,0,1,1-9.788-10.308,9.343,9.343,0,0,1,4.1.944A10.354,10.354,0,0,1,388.537,266.422Z" transform="translate(-368.961 -244.963)" fill="#98ffdf"/>
  <polygon points="72.397 38.008 55.847 21.459 52.499 18.111 72.397 18.111 72.397 38.008" fill="#d57c6a"/>
  <polygon points="55.91 37.881 69.27 37.881 52.499 21.111 55.91 37.881" fill="#98ffdf"/>
  <polygon points="44.253 44.848 52.304 40.616 50.766 49.58 57.279 55.928 48.279 57.236 44.253 65.392 40.228 57.236 31.228 55.928 37.741 49.58 36.203 40.616 44.253 44.848" fill="#36886f"/>
  <polygon points="45.536 44.848 53.586 40.616 52.049 49.58 58.561 55.928 49.561 57.236 45.536 65.392 41.51 57.236 32.51 55.928 39.023 49.58 37.485 40.616 45.536 44.848" fill="#efd05f"/>
  <polygon points="40.845 5.752 45.141 9.655 39.43 10.691 37.046 15.983 34.296 10.872 28.526 10.24 32.537 6.044 31.355 0.361 36.585 2.88 41.624 0 40.845 5.752" fill="#36886f"/>
  <polygon points="41.125 7.521 45.421 11.424 39.71 12.46 37.326 17.752 34.576 12.641 28.806 12.008 32.817 7.813 31.635 2.13 36.865 4.649 41.904 1.769 41.125 7.521" fill="#efd05f"/>
</svg>
