<?xml version="1.0" encoding="utf-8"?>
<!-- Generator: Adobe Illustrator 24.3.0, SVG Export Plug-In . SVG Version: 6.00 Build 0)  -->
<svg version="1.1" id="Layer_1" xmlns="http://www.w3.org/2000/svg" xmlns:xlink="http://www.w3.org/1999/xlink" x="0px" y="0px"
	 viewBox="0 0 940.6 916.9" style="enable-background:new 0 0 940.6 916.9;" xml:space="preserve">
<style type="text/css">
	.st0{fill:#36886F;}
	.st1{fill:#98FFDF;}
	.st2{fill:#D57C6A;}
	.st3{fill:#EFD05F;}
</style>
<path class="st0" d="M389.8,266.4c0,5.8-4,10.4-9,10.4s-9-4.7-9-10.4c0-5.8,4-10.4,9-10.4c1.3,0,2.6,0.3,3.8,1
	C387.7,258.6,389.8,262.2,389.8,266.4z"/>
<polygon class="st0" points="378.7,256.1 381.2,256 382.2,258.2 "/>
<polygon class="st0" points="378.7,276.7 381.2,276.8 380.2,274.8 "/>
<path class="st1" d="M388.5,266.4c0,5.7-4.4,10.3-9.8,10.3s-9.8-4.6-9.8-10.3c0-5.7,4.4-10.3,9.8-10.3c1.5,0,2.9,0.3,4.1,0.9
	C386.2,258.7,388.5,262.3,388.5,266.4z"/>
<polygon class="st2" points="441.4,283 424.8,266.4 421.5,263.1 441.4,263.1 "/>
<polygon class="st1" points="424.9,282.8 438.2,282.8 421.5,266.1 "/>
<polygon class="st0" points="413.2,289.8 421.3,285.6 419.7,294.5 426.2,300.9 417.2,302.2 413.2,310.4 409.2,302.2 400.2,300.9 
	406.7,294.5 405.2,285.6 "/>
<polygon class="st3" points="414.5,289.8 422.5,285.6 421,294.5 427.5,300.9 418.5,302.2 414.5,310.4 410.5,302.2 401.5,300.9 
	408,294.5 406.4,285.6 "/>
<polygon class="st0" points="409.8,250.7 414.1,254.6 408.4,255.7 406,260.9 403.3,255.8 397.5,255.2 401.5,251 400.3,245.3 
	405.5,247.8 410.6,245 "/>
<polygon class="st3" points="410.1,252.5 414.4,256.4 408.7,257.4 406.3,262.7 403.5,257.6 397.8,257 401.8,252.8 400.6,247.1 
	405.8,249.6 410.9,246.7 "/>
</svg>
