<svg xmlns="http://www.w3.org/2000/svg" width="490.588" height="233.129" viewBox="0 0 490.588 233.129">
  <g>
    <g>
      <polygon points="128.423 92.348 126.753 91.568 125.589 92.99 126.409 90.599 128.423 92.348" fill="#efd05f"/>
      <polygon points="126.409 90.599 125.589 92.99 125.797 91.179 126.409 90.599" fill="#d57c6a"/>
      <polygon points="125.797 91.179 124.11 90.516 126.409 90.599 125.797 91.179" fill="#98ffdf"/>
      <polygon points="124.11 90.516 126.409 90.599 126.038 88.317 125.893 90.13 124.11 90.516" fill="#d57c6a"/>
      <polygon points="126.409 90.599 126.038 88.317 126.941 89.865 126.409 90.599" fill="#36886f"/>
      <polygon points="126.409 90.599 126.941 89.865 128.708 89.421 126.409 90.599" fill="#6ad5b4"/>
      <polygon points="126.409 90.599 128.708 89.421 127.479 90.802 126.409 90.599" fill="#98ffdf"/>
      <polygon points="126.409 90.599 127.479 90.802 128.423 92.348 126.409 90.599" fill="#36886f"/>
    </g>
    <g>
      <polygon points="93.256 77.494 92.476 69.409 84.469 68.173 95.385 65.935 93.256 77.494" fill="#efd05f"/>
      <polygon points="95.385 65.935 84.469 68.173 91.814 64.91 95.385 65.935" fill="#d57c6a"/>
      <polygon points="91.814 64.91 90.554 57.018 95.385 65.935 91.814 64.91" fill="#98ffdf"/>
      <polygon points="90.554 57.018 95.385 65.935 103.219 59.416 96.009 62.926 90.554 57.018" fill="#d57c6a"/>
      <polygon points="95.385 65.935 103.219 59.416 99.364 66.306 95.385 65.935" fill="#36886f"/>
      <polygon points="95.385 65.935 99.364 66.306 105.003 72.022 95.385 65.935" fill="#6ad5b4"/>
      <polygon points="95.385 65.935 105.003 72.022 97.009 70.45 95.385 65.935" fill="#98ffdf"/>
      <polygon points="95.385 65.935 97.009 70.45 93.256 77.494 95.385 65.935" fill="#36886f"/>
    </g>
    <g>
      <polygon points="110.969 139.494 104.543 136.494 100.063 141.967 103.221 132.766 110.969 139.494" fill="#efd05f"/>
      <polygon points="103.221 132.766 100.063 141.967 100.866 134.996 103.221 132.766" fill="#d57c6a"/>
      <polygon points="100.866 134.996 94.373 132.444 103.221 132.766 100.866 134.996" fill="#98ffdf"/>
      <polygon points="94.373 132.444 103.221 132.766 101.794 123.983 101.236 130.962 94.373 132.444" fill="#d57c6a"/>
      <polygon points="103.221 132.766 101.794 123.983 105.265 129.938 103.221 132.766" fill="#36886f"/>
      <polygon points="103.221 132.766 105.265 129.938 112.065 128.233 103.221 132.766" fill="#6ad5b4"/>
      <polygon points="103.221 132.766 112.065 128.233 107.337 133.547 103.221 132.766" fill="#98ffdf"/>
      <polygon points="103.221 132.766 107.337 133.547 110.969 139.494 103.221 132.766" fill="#36886f"/>
    </g>
    <g>
      <polygon points="71.024 112.782 75.388 108.912 72.721 103.741 78.635 109.132 71.024 112.782" fill="#efd05f"/>
      <polygon points="78.635 109.132 72.721 103.741 77.721 106.625 78.635 109.132" fill="#d57c6a"/>
      <polygon points="77.721 106.625 81.769 102.558 78.635 109.132 77.721 106.625" fill="#98ffdf"/>
      <polygon points="81.769 102.558 78.635 109.132 85.731 110.924 80.645 108.223 81.769 102.558" fill="#d57c6a"/>
      <polygon points="78.635 109.132 85.731 110.924 80.101 111.599 78.635 109.132" fill="#36886f"/>
      <polygon points="78.635 109.132 80.101 111.599 79.166 117.289 78.635 109.132" fill="#6ad5b4"/>
      <polygon points="78.635 109.132 79.166 117.289 76.7 111.983 78.635 109.132" fill="#98ffdf"/>
      <polygon points="78.635 109.132 76.7 111.983 71.024 112.782 78.635 109.132" fill="#36886f"/>
    </g>
    <g>
      <polygon points="111.687 97.572 108.408 96.041 106.122 98.834 107.734 94.139 111.687 97.572" fill="#efd05f"/>
      <polygon points="107.734 94.139 106.122 98.834 106.532 95.277 107.734 94.139" fill="#d57c6a"/>
      <polygon points="106.532 95.277 103.219 93.974 107.734 94.139 106.532 95.277" fill="#98ffdf"/>
      <polygon points="103.219 93.974 107.734 94.139 107.005 89.657 106.721 93.218 103.219 93.974" fill="#d57c6a"/>
      <polygon points="107.734 94.139 107.005 89.657 108.777 92.696 107.734 94.139" fill="#36886f"/>
      <polygon points="107.734 94.139 108.777 92.696 112.246 91.826 107.734 94.139" fill="#6ad5b4"/>
      <polygon points="107.734 94.139 112.246 91.826 109.834 94.537 107.734 94.139" fill="#98ffdf"/>
      <polygon points="107.734 94.139 109.834 94.537 111.687 97.572 107.734 94.139" fill="#36886f"/>
    </g>
    <g>
      <polygon points="54.424 141.029 54.077 137.427 50.51 136.876 55.373 135.879 54.424 141.029" fill="#efd05f"/>
      <polygon points="55.373 135.879 50.51 136.876 53.782 135.422 55.373 135.879" fill="#d57c6a"/>
      <polygon points="53.782 135.422 53.221 131.907 55.373 135.879 53.782 135.422" fill="#98ffdf"/>
      <polygon points="53.221 131.907 55.373 135.879 58.863 132.975 55.651 134.539 53.221 131.907" fill="#d57c6a"/>
      <polygon points="55.373 135.879 58.863 132.975 57.145 136.044 55.373 135.879" fill="#36886f"/>
      <polygon points="55.373 135.879 57.145 136.044 59.658 138.591 55.373 135.879" fill="#6ad5b4"/>
      <polygon points="55.373 135.879 59.658 138.591 56.096 137.891 55.373 135.879" fill="#98ffdf"/>
      <polygon points="55.373 135.879 56.096 137.891 54.424 141.029 55.373 135.879" fill="#36886f"/>
    </g>
    <g>
      <polygon points="33.184 48.989 29.905 47.459 27.619 50.251 29.23 45.556 33.184 48.989" fill="#efd05f"/>
      <polygon points="29.23 45.556 27.619 50.251 28.029 46.694 29.23 45.556" fill="#d57c6a"/>
      <polygon points="28.029 46.694 24.716 45.392 29.23 45.556 28.029 46.694" fill="#98ffdf"/>
      <polygon points="24.716 45.392 29.23 45.556 28.502 41.075 28.217 44.636 24.716 45.392" fill="#d57c6a"/>
      <polygon points="29.23 45.556 28.502 41.075 30.273 44.113 29.23 45.556" fill="#36886f"/>
      <polygon points="29.23 45.556 30.273 44.113 33.743 43.243 29.23 45.556" fill="#6ad5b4"/>
      <polygon points="29.23 45.556 33.743 43.243 31.331 45.955 29.23 45.556" fill="#98ffdf"/>
      <polygon points="29.23 45.556 31.331 45.955 33.184 48.989 29.23 45.556" fill="#36886f"/>
    </g>
    <g>
      <polygon points="36.809 84.943 36.461 81.341 32.894 80.791 37.757 79.794 36.809 84.943" fill="#efd05f"/>
      <polygon points="37.757 79.794 32.894 80.791 36.167 79.337 37.757 79.794" fill="#d57c6a"/>
      <polygon points="36.167 79.337 35.605 75.822 37.757 79.794 36.167 79.337" fill="#98ffdf"/>
      <polygon points="35.605 75.822 37.757 79.794 41.247 76.89 38.036 78.454 35.605 75.822" fill="#d57c6a"/>
      <polygon points="37.757 79.794 41.247 76.89 39.53 79.959 37.757 79.794" fill="#36886f"/>
      <polygon points="37.757 79.794 39.53 79.959 42.042 82.505 37.757 79.794" fill="#6ad5b4"/>
      <polygon points="37.757 79.794 42.042 82.505 38.481 81.805 37.757 79.794" fill="#98ffdf"/>
      <polygon points="37.757 79.794 38.481 81.805 36.809 84.943 37.757 79.794" fill="#36886f"/>
    </g>
    <g>
      <polygon points="208.632 65.989 206.963 65.209 205.798 66.632 206.619 64.24 208.632 65.989" fill="#efd05f"/>
      <polygon points="206.619 64.24 205.798 66.632 206.007 64.82 206.619 64.24" fill="#d57c6a"/>
      <polygon points="206.007 64.82 204.32 64.157 206.619 64.24 206.007 64.82" fill="#98ffdf"/>
      <polygon points="204.32 64.157 206.619 64.24 206.248 61.958 206.103 63.772 204.32 64.157" fill="#d57c6a"/>
      <polygon points="206.619 64.24 206.248 61.958 207.15 63.506 206.619 64.24" fill="#36886f"/>
      <polygon points="206.619 64.24 207.15 63.506 208.917 63.062 206.619 64.24" fill="#6ad5b4"/>
      <polygon points="206.619 64.24 208.917 63.062 207.689 64.444 206.619 64.24" fill="#98ffdf"/>
      <polygon points="206.619 64.24 207.689 64.444 208.632 65.989 206.619 64.24" fill="#36886f"/>
    </g>
    <g>
      <polygon points="207.437 39.612 206.657 31.527 198.65 30.291 209.566 28.053 207.437 39.612" fill="#efd05f"/>
      <polygon points="209.566 28.053 198.65 30.291 205.995 27.027 209.566 28.053" fill="#d57c6a"/>
      <polygon points="205.995 27.027 204.735 19.136 209.566 28.053 205.995 27.027" fill="#98ffdf"/>
      <polygon points="204.735 19.136 209.566 28.053 217.4 21.534 210.191 25.044 204.735 19.136" fill="#d57c6a"/>
      <polygon points="209.566 28.053 217.4 21.534 213.545 28.424 209.566 28.053" fill="#36886f"/>
      <polygon points="209.566 28.053 213.545 28.424 219.184 34.14 209.566 28.053" fill="#6ad5b4"/>
      <polygon points="209.566 28.053 219.184 34.14 211.19 32.568 209.566 28.053" fill="#98ffdf"/>
      <polygon points="209.566 28.053 211.19 32.568 207.437 39.612 209.566 28.053" fill="#36886f"/>
    </g>
    <g>
      <polygon points="239.993 105.232 233.567 102.233 229.087 107.706 232.245 98.504 239.993 105.232" fill="#efd05f"/>
      <polygon points="232.245 98.504 229.087 107.706 229.89 100.735 232.245 98.504" fill="#d57c6a"/>
      <polygon points="229.89 100.735 223.397 98.182 232.245 98.504 229.89 100.735" fill="#98ffdf"/>
      <polygon points="223.397 98.182 232.245 98.504 230.818 89.721 230.26 96.7 223.397 98.182" fill="#d57c6a"/>
      <polygon points="232.245 98.504 230.818 89.721 234.289 95.677 232.245 98.504" fill="#36886f"/>
      <polygon points="232.245 98.504 234.289 95.677 241.089 93.971 232.245 98.504" fill="#6ad5b4"/>
      <polygon points="232.245 98.504 241.089 93.971 236.361 99.286 232.245 98.504" fill="#98ffdf"/>
      <polygon points="232.245 98.504 236.361 99.286 239.993 105.232 232.245 98.504" fill="#36886f"/>
    </g>
    <g>
      <polygon points="151.234 86.423 155.598 82.553 152.931 77.382 158.844 82.773 151.234 86.423" fill="#efd05f"/>
      <polygon points="158.844 82.773 152.931 77.382 157.93 80.267 158.844 82.773" fill="#d57c6a"/>
      <polygon points="157.93 80.267 161.979 76.199 158.844 82.773 157.93 80.267" fill="#98ffdf"/>
      <polygon points="161.979 76.199 158.844 82.773 165.941 84.565 160.855 81.864 161.979 76.199" fill="#d57c6a"/>
      <polygon points="158.844 82.773 165.941 84.565 160.311 85.24 158.844 82.773" fill="#36886f"/>
      <polygon points="158.844 82.773 160.311 85.24 159.376 90.93 158.844 82.773" fill="#6ad5b4"/>
      <polygon points="158.844 82.773 159.376 90.93 156.909 85.624 158.844 82.773" fill="#98ffdf"/>
      <polygon points="158.844 82.773 156.909 85.624 151.234 86.423 158.844 82.773" fill="#36886f"/>
    </g>
    <g>
      <polygon points="191.897 71.213 188.618 69.682 186.332 72.475 187.943 67.78 191.897 71.213" fill="#efd05f"/>
      <polygon points="187.943 67.78 186.332 72.475 186.742 68.918 187.943 67.78" fill="#d57c6a"/>
      <polygon points="186.742 68.918 183.429 67.615 187.943 67.78 186.742 68.918" fill="#98ffdf"/>
      <polygon points="183.429 67.615 187.943 67.78 187.215 63.298 186.93 66.859 183.429 67.615" fill="#d57c6a"/>
      <polygon points="187.943 67.78 187.215 63.298 188.986 66.337 187.943 67.78" fill="#36886f"/>
      <polygon points="187.943 67.78 188.986 66.337 192.456 65.467 187.943 67.78" fill="#6ad5b4"/>
      <polygon points="187.943 67.78 192.456 65.467 190.043 68.178 187.943 67.78" fill="#98ffdf"/>
      <polygon points="187.943 67.78 190.043 68.178 191.897 71.213 187.943 67.78" fill="#36886f"/>
    </g>
    <g>
      <polygon points="134.634 114.67 134.287 111.068 130.72 110.517 135.583 109.52 134.634 114.67" fill="#efd05f"/>
      <polygon points="135.583 109.52 130.72 110.517 133.992 109.064 135.583 109.52" fill="#d57c6a"/>
      <polygon points="133.992 109.064 133.43 105.548 135.583 109.52 133.992 109.064" fill="#98ffdf"/>
      <polygon points="133.43 105.548 135.583 109.52 139.073 106.616 135.861 108.18 133.43 105.548" fill="#d57c6a"/>
      <polygon points="135.583 109.52 139.073 106.616 137.355 109.686 135.583 109.52" fill="#36886f"/>
      <polygon points="135.583 109.52 137.355 109.686 139.867 112.232 135.583 109.52" fill="#6ad5b4"/>
      <polygon points="135.583 109.52 139.867 112.232 136.306 111.532 135.583 109.52" fill="#98ffdf"/>
      <polygon points="135.583 109.52 136.306 111.532 134.634 114.67 135.583 109.52" fill="#36886f"/>
    </g>
    <g>
      <polygon points="169.895 14.623 166.616 13.093 164.33 15.885 165.942 11.19 169.895 14.623" fill="#efd05f"/>
      <polygon points="165.942 11.19 164.33 15.885 164.74 12.328 165.942 11.19" fill="#d57c6a"/>
      <polygon points="164.74 12.328 161.427 11.026 165.942 11.19 164.74 12.328" fill="#98ffdf"/>
      <polygon points="161.427 11.026 165.942 11.19 165.213 6.709 164.929 10.27 161.427 11.026" fill="#d57c6a"/>
      <polygon points="165.942 11.19 165.213 6.709 166.985 9.748 165.942 11.19" fill="#36886f"/>
      <polygon points="165.942 11.19 166.985 9.748 170.454 8.877 165.942 11.19" fill="#6ad5b4"/>
      <polygon points="165.942 11.19 170.454 8.877 168.042 11.589 165.942 11.19" fill="#98ffdf"/>
      <polygon points="165.942 11.19 168.042 11.589 169.895 14.623 165.942 11.19" fill="#36886f"/>
    </g>
    <g>
      <polygon points="128.491 38.815 128.144 35.213 124.577 34.663 129.44 33.666 128.491 38.815" fill="#efd05f"/>
      <polygon points="129.44 33.666 124.577 34.663 127.849 33.209 129.44 33.666" fill="#d57c6a"/>
      <polygon points="127.849 33.209 127.287 29.694 129.44 33.666 127.849 33.209" fill="#98ffdf"/>
      <polygon points="127.287 29.694 129.44 33.666 132.93 30.762 129.718 32.326 127.287 29.694" fill="#d57c6a"/>
      <polygon points="129.44 33.666 132.93 30.762 131.212 33.831 129.44 33.666" fill="#36886f"/>
      <polygon points="129.44 33.666 131.212 33.831 133.724 36.377 129.44 33.666" fill="#6ad5b4"/>
      <polygon points="129.44 33.666 133.724 36.377 130.163 35.677 129.44 33.666" fill="#98ffdf"/>
      <polygon points="129.44 33.666 130.163 35.677 128.491 38.815 129.44 33.666" fill="#36886f"/>
    </g>
    <g>
      <polygon points="130.633 184.448 128.963 183.669 127.799 185.091 128.619 182.7 130.633 184.448" fill="#efd05f"/>
      <polygon points="128.619 182.7 127.799 185.091 128.007 183.28 128.619 182.7" fill="#d57c6a"/>
      <polygon points="128.007 183.28 126.32 182.616 128.619 182.7 128.007 183.28" fill="#98ffdf"/>
      <polygon points="126.32 182.616 128.619 182.7 128.248 180.418 128.103 182.231 126.32 182.616" fill="#d57c6a"/>
      <polygon points="128.619 182.7 128.248 180.418 129.15 181.965 128.619 182.7" fill="#36886f"/>
      <polygon points="128.619 182.7 129.15 181.965 130.917 181.522 128.619 182.7" fill="#6ad5b4"/>
      <polygon points="128.619 182.7 130.917 181.522 129.689 182.903 128.619 182.7" fill="#98ffdf"/>
      <polygon points="128.619 182.7 129.689 182.903 130.633 184.448 128.619 182.7" fill="#36886f"/>
    </g>
    <g>
      <polygon points="8.787 144.324 8.007 136.239 0 135.004 10.916 132.765 8.787 144.324" fill="#efd05f"/>
      <polygon points="10.916 132.765 0 135.004 7.345 131.74 10.916 132.765" fill="#d57c6a"/>
      <polygon points="7.345 131.74 6.085 123.849 10.916 132.765 7.345 131.74" fill="#98ffdf"/>
      <polygon points="6.085 123.849 10.916 132.765 18.75 126.246 11.54 129.757 6.085 123.849" fill="#d57c6a"/>
      <polygon points="10.916 132.765 18.75 126.246 14.895 133.136 10.916 132.765" fill="#36886f"/>
      <polygon points="10.916 132.765 14.895 133.136 20.534 138.852 10.916 132.765" fill="#6ad5b4"/>
      <polygon points="10.916 132.765 20.534 138.852 12.54 137.281 10.916 132.765" fill="#98ffdf"/>
      <polygon points="10.916 132.765 12.54 137.281 8.787 144.324 10.916 132.765" fill="#36886f"/>
    </g>
    <g>
      <polygon points="133.136 228.293 126.71 225.293 122.229 230.766 125.388 221.565 133.136 228.293" fill="#efd05f"/>
      <polygon points="125.388 221.565 122.229 230.766 123.033 223.795 125.388 221.565" fill="#d57c6a"/>
      <polygon points="123.033 223.795 116.54 221.242 125.388 221.565 123.033 223.795" fill="#98ffdf"/>
      <polygon points="116.54 221.242 125.388 221.565 123.96 212.782 123.402 219.76 116.54 221.242" fill="#d57c6a"/>
      <polygon points="125.388 221.565 123.96 212.782 127.432 218.737 125.388 221.565" fill="#36886f"/>
      <polygon points="125.388 221.565 127.432 218.737 134.231 217.032 125.388 221.565" fill="#6ad5b4"/>
      <polygon points="125.388 221.565 134.231 217.032 129.504 222.346 125.388 221.565" fill="#98ffdf"/>
      <polygon points="125.388 221.565 129.504 222.346 133.136 228.293 125.388 221.565" fill="#36886f"/>
    </g>
    <g>
      <polygon points="80.587 172.029 84.952 168.159 82.284 162.988 88.198 168.379 80.587 172.029" fill="#efd05f"/>
      <polygon points="88.198 168.379 82.284 162.988 87.284 165.873 88.198 168.379" fill="#d57c6a"/>
      <polygon points="87.284 165.873 91.332 161.806 88.198 168.379 87.284 165.873" fill="#98ffdf"/>
      <polygon points="91.332 161.806 88.198 168.379 95.294 170.172 90.209 167.47 91.332 161.806" fill="#d57c6a"/>
      <polygon points="88.198 168.379 95.294 170.172 89.664 170.846 88.198 168.379" fill="#36886f"/>
      <polygon points="88.198 168.379 89.664 170.846 88.73 176.536 88.198 168.379" fill="#6ad5b4"/>
      <polygon points="88.198 168.379 88.73 176.536 86.263 171.231 88.198 168.379" fill="#98ffdf"/>
      <polygon points="88.198 168.379 86.263 171.231 80.587 172.029 88.198 168.379" fill="#36886f"/>
    </g>
    <g>
      <polygon points="113.897 189.672 110.618 188.142 108.332 190.934 109.944 186.239 113.897 189.672" fill="#efd05f"/>
      <polygon points="109.944 186.239 108.332 190.934 108.742 187.377 109.944 186.239" fill="#d57c6a"/>
      <polygon points="108.742 187.377 105.429 186.075 109.944 186.239 108.742 187.377" fill="#98ffdf"/>
      <polygon points="105.429 186.075 109.944 186.239 109.215 181.758 108.93 185.319 105.429 186.075" fill="#d57c6a"/>
      <polygon points="109.944 186.239 109.215 181.758 110.986 184.796 109.944 186.239" fill="#36886f"/>
      <polygon points="109.944 186.239 110.986 184.796 114.456 183.926 109.944 186.239" fill="#6ad5b4"/>
      <polygon points="109.944 186.239 114.456 183.926 112.044 186.638 109.944 186.239" fill="#98ffdf"/>
      <polygon points="109.944 186.239 112.044 186.638 113.897 189.672 109.944 186.239" fill="#36886f"/>
    </g>
    <g>
      <polygon points="56.634 233.129 56.287 229.527 52.72 228.977 57.583 227.98 56.634 233.129" fill="#efd05f"/>
      <polygon points="57.583 227.98 52.72 228.977 55.992 227.523 57.583 227.98" fill="#d57c6a"/>
      <polygon points="55.992 227.523 55.431 224.008 57.583 227.98 55.992 227.523" fill="#98ffdf"/>
      <polygon points="55.431 224.008 57.583 227.98 61.073 225.076 57.861 226.64 55.431 224.008" fill="#d57c6a"/>
      <polygon points="57.583 227.98 61.073 225.076 59.355 228.145 57.583 227.98" fill="#36886f"/>
      <polygon points="57.583 227.98 59.355 228.145 61.867 230.691 57.583 227.98" fill="#6ad5b4"/>
      <polygon points="57.583 227.98 61.867 230.691 58.306 229.991 57.583 227.98" fill="#98ffdf"/>
      <polygon points="57.583 227.98 58.306 229.991 56.634 233.129 57.583 227.98" fill="#36886f"/>
    </g>
    <g>
      <polygon points="76.245 155.748 72.966 154.217 70.68 157.01 72.292 152.315 76.245 155.748" fill="#efd05f"/>
      <polygon points="72.292 152.315 70.68 157.01 71.09 153.453 72.292 152.315" fill="#d57c6a"/>
      <polygon points="71.09 153.453 67.777 152.151 72.292 152.315 71.09 153.453" fill="#98ffdf"/>
      <polygon points="67.777 152.151 72.292 152.315 71.563 147.833 71.279 151.394 67.777 152.151" fill="#d57c6a"/>
      <polygon points="72.292 152.315 71.563 147.833 73.334 150.872 72.292 152.315" fill="#36886f"/>
      <polygon points="72.292 152.315 73.334 150.872 76.804 150.002 72.292 152.315" fill="#6ad5b4"/>
      <polygon points="72.292 152.315 76.804 150.002 74.392 152.714 72.292 152.315" fill="#98ffdf"/>
      <polygon points="72.292 152.315 74.392 152.714 76.245 155.748 72.292 152.315" fill="#36886f"/>
    </g>
    <g>
      <polygon points="18.355 183.513 18.008 179.911 14.441 179.36 19.304 178.363 18.355 183.513" fill="#efd05f"/>
      <polygon points="19.304 178.363 14.441 179.36 17.713 177.907 19.304 178.363" fill="#d57c6a"/>
      <polygon points="17.713 177.907 17.152 174.391 19.304 178.363 17.713 177.907" fill="#98ffdf"/>
      <polygon points="17.152 174.391 19.304 178.363 22.794 175.459 19.582 177.023 17.152 174.391" fill="#d57c6a"/>
      <polygon points="19.304 178.363 22.794 175.459 21.077 178.529 19.304 178.363" fill="#36886f"/>
      <polygon points="19.304 178.363 21.077 178.529 23.589 181.075 19.304 178.363" fill="#6ad5b4"/>
      <polygon points="19.304 178.363 23.589 181.075 20.027 180.375 19.304 178.363" fill="#98ffdf"/>
      <polygon points="19.304 178.363 20.027 180.375 18.355 183.513 19.304 178.363" fill="#36886f"/>
    </g>
    <g>
      <polygon points="245.401 183.907 243.731 183.127 242.567 184.549 243.388 182.158 245.401 183.907" fill="#efd05f"/>
      <polygon points="243.388 182.158 242.567 184.549 242.776 182.738 243.388 182.158" fill="#d57c6a"/>
      <polygon points="242.776 182.738 241.089 182.074 243.388 182.158 242.776 182.738" fill="#98ffdf"/>
      <polygon points="241.089 182.074 243.388 182.158 243.017 179.876 242.872 181.689 241.089 182.074" fill="#d57c6a"/>
      <polygon points="243.388 182.158 243.017 179.876 243.919 181.423 243.388 182.158" fill="#36886f"/>
      <polygon points="243.388 182.158 243.919 181.423 245.686 180.98 243.388 182.158" fill="#6ad5b4"/>
      <polygon points="243.388 182.158 245.686 180.98 244.457 182.361 243.388 182.158" fill="#98ffdf"/>
      <polygon points="243.388 182.158 244.457 182.361 245.401 183.907 243.388 182.158" fill="#36886f"/>
    </g>
    <g>
      <polygon points="195.924 123.448 195.144 115.363 187.137 114.127 198.053 111.889 195.924 123.448" fill="#efd05f"/>
      <polygon points="198.053 111.889 187.137 114.127 194.482 110.864 198.053 111.889" fill="#d57c6a"/>
      <polygon points="194.482 110.864 193.222 102.973 198.053 111.889 194.482 110.864" fill="#98ffdf"/>
      <polygon points="193.222 102.973 198.053 111.889 205.887 105.37 198.678 108.88 193.222 102.973" fill="#d57c6a"/>
      <polygon points="198.053 111.889 205.887 105.37 202.032 112.26 198.053 111.889" fill="#36886f"/>
      <polygon points="198.053 111.889 202.032 112.26 207.671 117.976 198.053 111.889" fill="#6ad5b4"/>
      <polygon points="198.053 111.889 207.671 117.976 199.677 116.404 198.053 111.889" fill="#98ffdf"/>
      <polygon points="198.053 111.889 199.677 116.404 195.924 123.448 198.053 111.889" fill="#36886f"/>
    </g>
    <g>
      <polygon points="217.77 210.714 211.344 207.715 206.863 213.188 210.022 203.986 217.77 210.714" fill="#efd05f"/>
      <polygon points="210.022 203.986 206.863 213.188 207.667 206.217 210.022 203.986" fill="#d57c6a"/>
      <polygon points="207.667 206.217 201.173 203.664 210.022 203.986 207.667 206.217" fill="#98ffdf"/>
      <polygon points="201.173 203.664 210.022 203.986 208.594 195.203 208.036 202.182 201.173 203.664" fill="#d57c6a"/>
      <polygon points="210.022 203.986 208.594 195.203 212.065 201.159 210.022 203.986" fill="#36886f"/>
      <polygon points="210.022 203.986 212.065 201.159 218.865 199.453 210.022 203.986" fill="#6ad5b4"/>
      <polygon points="210.022 203.986 218.865 199.453 214.137 204.768 210.022 203.986" fill="#98ffdf"/>
      <polygon points="210.022 203.986 214.137 204.768 217.77 210.714 210.022 203.986" fill="#36886f"/>
    </g>
    <g>
      <polygon points="153.444 178.524 157.808 174.653 155.141 169.483 161.054 174.874 153.444 178.524" fill="#efd05f"/>
      <polygon points="161.054 174.874 155.141 169.483 160.14 172.367 161.054 174.874" fill="#d57c6a"/>
      <polygon points="160.14 172.367 164.189 168.3 161.054 174.874 160.14 172.367" fill="#98ffdf"/>
      <polygon points="164.189 168.3 161.054 174.874 168.151 176.666 163.065 173.964 164.189 168.3" fill="#d57c6a"/>
      <polygon points="161.054 174.874 168.151 176.666 162.521 177.34 161.054 174.874" fill="#36886f"/>
      <polygon points="161.054 174.874 162.521 177.34 161.586 183.03 161.054 174.874" fill="#6ad5b4"/>
      <polygon points="161.054 174.874 161.586 183.03 159.119 177.725 161.054 174.874" fill="#98ffdf"/>
      <polygon points="161.054 174.874 159.119 177.725 153.444 178.524 161.054 174.874" fill="#36886f"/>
    </g>
    <g>
      <polygon points="194.107 163.313 190.828 161.783 188.542 164.575 190.153 159.88 194.107 163.313" fill="#efd05f"/>
      <polygon points="190.153 159.88 188.542 164.575 188.952 161.018 190.153 159.88" fill="#d57c6a"/>
      <polygon points="188.952 161.018 185.638 159.716 190.153 159.88 188.952 161.018" fill="#98ffdf"/>
      <polygon points="185.638 159.716 190.153 159.88 189.425 155.399 189.14 158.96 185.638 159.716" fill="#d57c6a"/>
      <polygon points="190.153 159.88 189.425 155.399 191.196 158.437 190.153 159.88" fill="#36886f"/>
      <polygon points="190.153 159.88 191.196 158.437 194.666 157.567 190.153 159.88" fill="#6ad5b4"/>
      <polygon points="190.153 159.88 194.666 157.567 192.253 160.279 190.153 159.88" fill="#98ffdf"/>
      <polygon points="190.153 159.88 192.253 160.279 194.107 163.313 190.153 159.88" fill="#36886f"/>
    </g>
    <g>
      <polygon points="136.844 206.77 136.497 203.168 132.93 202.618 137.792 201.621 136.844 206.77" fill="#efd05f"/>
      <polygon points="137.792 201.621 132.93 202.618 136.202 201.164 137.792 201.621" fill="#d57c6a"/>
      <polygon points="136.202 201.164 135.64 197.649 137.792 201.621 136.202 201.164" fill="#98ffdf"/>
      <polygon points="135.64 197.649 137.792 201.621 141.283 198.717 138.071 200.281 135.64 197.649" fill="#d57c6a"/>
      <polygon points="137.792 201.621 141.283 198.717 139.565 201.786 137.792 201.621" fill="#36886f"/>
      <polygon points="137.792 201.621 139.565 201.786 142.077 204.333 137.792 201.621" fill="#6ad5b4"/>
      <polygon points="137.792 201.621 142.077 204.333 138.516 203.632 137.792 201.621" fill="#98ffdf"/>
      <polygon points="137.792 201.621 138.516 203.632 136.844 206.77 137.792 201.621" fill="#36886f"/>
    </g>
    <g>
      <polygon points="269.247 140.693 265.969 139.162 263.682 141.955 265.294 137.26 269.247 140.693" fill="#efd05f"/>
      <polygon points="265.294 137.26 263.682 141.955 264.092 138.398 265.294 137.26" fill="#d57c6a"/>
      <polygon points="264.092 138.398 260.779 137.095 265.294 137.26 264.092 138.398" fill="#98ffdf"/>
      <polygon points="260.779 137.095 265.294 137.26 264.566 132.778 264.281 136.339 260.779 137.095" fill="#d57c6a"/>
      <polygon points="265.294 137.26 264.566 132.778 266.337 135.817 265.294 137.26" fill="#36886f"/>
      <polygon points="265.294 137.26 266.337 135.817 269.806 134.947 265.294 137.26" fill="#6ad5b4"/>
      <polygon points="265.294 137.26 269.806 134.947 267.394 137.659 265.294 137.26" fill="#98ffdf"/>
      <polygon points="265.294 137.26 267.394 137.659 269.247 140.693 265.294 137.26" fill="#36886f"/>
    </g>
    <g>
      <polygon points="163.943 139.071 163.596 135.469 160.029 134.918 164.891 133.921 163.943 139.071" fill="#efd05f"/>
      <polygon points="164.891 133.921 160.029 134.918 163.301 133.464 164.891 133.921" fill="#d57c6a"/>
      <polygon points="163.301 133.464 162.739 129.949 164.891 133.921 163.301 133.464" fill="#98ffdf"/>
      <polygon points="162.739 129.949 164.891 133.921 168.382 131.017 165.17 132.581 162.739 129.949" fill="#d57c6a"/>
      <polygon points="164.891 133.921 168.382 131.017 166.664 134.086 164.891 133.921" fill="#36886f"/>
      <polygon points="164.891 133.921 166.664 134.086 169.176 136.633 164.891 133.921" fill="#6ad5b4"/>
      <polygon points="164.891 133.921 169.176 136.633 165.615 135.933 164.891 133.921" fill="#98ffdf"/>
      <polygon points="164.891 133.921 165.615 135.933 163.943 139.071 164.891 133.921" fill="#36886f"/>
    </g>
    <g>
      <polygon points="349.204 85.639 347.534 84.859 346.37 86.282 347.191 83.891 349.204 85.639" fill="#efd05f"/>
      <polygon points="347.191 83.891 346.37 86.282 346.579 84.47 347.191 83.891" fill="#d57c6a"/>
      <polygon points="346.579 84.47 344.891 83.807 347.191 83.891 346.579 84.47" fill="#98ffdf"/>
      <polygon points="344.891 83.807 347.191 83.891 346.82 81.608 346.675 83.422 344.891 83.807" fill="#d57c6a"/>
      <polygon points="347.191 83.891 346.82 81.608 347.722 83.156 347.191 83.891" fill="#36886f"/>
      <polygon points="347.191 83.891 347.722 83.156 349.489 82.713 347.191 83.891" fill="#6ad5b4"/>
      <polygon points="347.191 83.891 349.489 82.713 348.26 84.094 347.191 83.891" fill="#98ffdf"/>
      <polygon points="347.191 83.891 348.26 84.094 349.204 85.639 347.191 83.891" fill="#36886f"/>
    </g>
    <g>
      <polygon points="314.037 70.785 313.257 62.7 305.25 61.464 316.166 59.226 314.037 70.785" fill="#efd05f"/>
      <polygon points="316.166 59.226 305.25 61.464 312.595 58.201 316.166 59.226" fill="#d57c6a"/>
      <polygon points="312.595 58.201 311.335 50.31 316.166 59.226 312.595 58.201" fill="#98ffdf"/>
      <polygon points="311.335 50.31 316.166 59.226 324 52.707 316.791 56.218 311.335 50.31" fill="#d57c6a"/>
      <polygon points="316.166 59.226 324 52.707 320.145 59.597 316.166 59.226" fill="#36886f"/>
      <polygon points="316.166 59.226 320.145 59.597 325.784 65.313 316.166 59.226" fill="#6ad5b4"/>
      <polygon points="316.166 59.226 325.784 65.313 317.79 63.742 316.166 59.226" fill="#98ffdf"/>
      <polygon points="316.166 59.226 317.79 63.742 314.037 70.785 316.166 59.226" fill="#36886f"/>
    </g>
    <g>
      <polygon points="331.75 132.785 325.325 129.785 320.844 135.258 324.002 126.057 331.75 132.785" fill="#efd05f"/>
      <polygon points="324.002 126.057 320.844 135.258 321.648 128.287 324.002 126.057" fill="#d57c6a"/>
      <polygon points="321.648 128.287 315.154 125.735 324.002 126.057 321.648 128.287" fill="#98ffdf"/>
      <polygon points="315.154 125.735 324.002 126.057 322.575 117.274 322.017 124.253 315.154 125.735" fill="#d57c6a"/>
      <polygon points="324.002 126.057 322.575 117.274 326.046 123.229 324.002 126.057" fill="#36886f"/>
      <polygon points="324.002 126.057 326.046 123.229 332.846 121.524 324.002 126.057" fill="#6ad5b4"/>
      <polygon points="324.002 126.057 332.846 121.524 328.118 126.839 324.002 126.057" fill="#98ffdf"/>
      <polygon points="324.002 126.057 328.118 126.839 331.75 132.785 324.002 126.057" fill="#36886f"/>
    </g>
    <g>
      <polygon points="291.805 106.073 296.17 102.203 293.502 97.032 299.416 102.423 291.805 106.073" fill="#efd05f"/>
      <polygon points="299.416 102.423 293.502 97.032 298.502 99.917 299.416 102.423" fill="#d57c6a"/>
      <polygon points="298.502 99.917 302.55 95.849 299.416 102.423 298.502 99.917" fill="#98ffdf"/>
      <polygon points="302.55 95.849 299.416 102.423 306.512 104.216 301.427 101.514 302.55 95.849" fill="#d57c6a"/>
      <polygon points="299.416 102.423 306.512 104.216 300.882 104.89 299.416 102.423" fill="#36886f"/>
      <polygon points="299.416 102.423 300.882 104.89 299.948 110.58 299.416 102.423" fill="#6ad5b4"/>
      <polygon points="299.416 102.423 299.948 110.58 297.481 105.275 299.416 102.423" fill="#98ffdf"/>
      <polygon points="299.416 102.423 297.481 105.275 291.805 106.073 299.416 102.423" fill="#36886f"/>
    </g>
    <g>
      <polygon points="332.468 90.863 329.19 89.332 326.903 92.125 328.515 87.43 332.468 90.863" fill="#efd05f"/>
      <polygon points="328.515 87.43 326.903 92.125 327.313 88.568 328.515 87.43" fill="#d57c6a"/>
      <polygon points="327.313 88.568 324 87.265 328.515 87.43 327.313 88.568" fill="#98ffdf"/>
      <polygon points="324 87.265 328.515 87.43 327.786 82.948 327.502 86.509 324 87.265" fill="#d57c6a"/>
      <polygon points="328.515 87.43 327.786 82.948 329.558 85.987 328.515 87.43" fill="#36886f"/>
      <polygon points="328.515 87.43 329.558 85.987 333.027 85.117 328.515 87.43" fill="#6ad5b4"/>
      <polygon points="328.515 87.43 333.027 85.117 330.615 87.829 328.515 87.43" fill="#98ffdf"/>
      <polygon points="328.515 87.43 330.615 87.829 332.468 90.863 328.515 87.43" fill="#36886f"/>
    </g>
    <g>
      <polygon points="275.206 134.32 274.858 130.718 271.291 130.168 276.154 129.17 275.206 134.32" fill="#efd05f"/>
      <polygon points="276.154 129.17 271.291 130.168 274.563 128.714 276.154 129.17" fill="#d57c6a"/>
      <polygon points="274.563 128.714 274.002 125.198 276.154 129.17 274.563 128.714" fill="#98ffdf"/>
      <polygon points="274.002 125.198 276.154 129.17 279.644 126.266 276.432 127.83 274.002 125.198" fill="#d57c6a"/>
      <polygon points="276.154 129.17 279.644 126.266 277.927 129.336 276.154 129.17" fill="#36886f"/>
      <polygon points="276.154 129.17 277.927 129.336 280.439 131.882 276.154 129.17" fill="#6ad5b4"/>
      <polygon points="276.154 129.17 280.439 131.882 276.878 131.182 276.154 129.17" fill="#98ffdf"/>
      <polygon points="276.154 129.17 276.878 131.182 275.206 134.32 276.154 129.17" fill="#36886f"/>
    </g>
    <g>
      <polygon points="253.965 42.28 250.686 40.75 248.4 43.543 250.012 38.847 253.965 42.28" fill="#efd05f"/>
      <polygon points="250.012 38.847 248.4 43.543 248.81 39.986 250.012 38.847" fill="#d57c6a"/>
      <polygon points="248.81 39.986 245.497 38.683 250.012 38.847 248.81 39.986" fill="#98ffdf"/>
      <polygon points="245.497 38.683 250.012 38.847 249.283 34.366 248.999 37.927 245.497 38.683" fill="#d57c6a"/>
      <polygon points="250.012 38.847 249.283 34.366 251.055 37.405 250.012 38.847" fill="#36886f"/>
      <polygon points="250.012 38.847 251.055 37.405 254.524 36.535 250.012 38.847" fill="#6ad5b4"/>
      <polygon points="250.012 38.847 254.524 36.535 252.112 39.246 250.012 38.847" fill="#98ffdf"/>
      <polygon points="250.012 38.847 252.112 39.246 253.965 42.28 250.012 38.847" fill="#36886f"/>
    </g>
    <g>
      <polygon points="257.59 78.234 257.243 74.633 253.676 74.082 258.539 73.085 257.59 78.234" fill="#efd05f"/>
      <polygon points="258.539 73.085 253.676 74.082 256.948 72.628 258.539 73.085" fill="#d57c6a"/>
      <polygon points="256.948 72.628 256.386 69.113 258.539 73.085 256.948 72.628" fill="#98ffdf"/>
      <polygon points="256.386 69.113 258.539 73.085 262.029 70.181 258.817 71.745 256.386 69.113" fill="#d57c6a"/>
      <polygon points="258.539 73.085 262.029 70.181 260.311 73.25 258.539 73.085" fill="#36886f"/>
      <polygon points="258.539 73.085 260.311 73.25 262.823 75.797 258.539 73.085" fill="#6ad5b4"/>
      <polygon points="258.539 73.085 262.823 75.797 259.262 75.097 258.539 73.085" fill="#98ffdf"/>
      <polygon points="258.539 73.085 259.262 75.097 257.59 78.234 258.539 73.085" fill="#36886f"/>
    </g>
    <g>
      <polygon points="429.414 59.28 427.744 58.501 426.58 59.923 427.4 57.532 429.414 59.28" fill="#efd05f"/>
      <polygon points="427.4 57.532 426.58 59.923 426.788 58.111 427.4 57.532" fill="#d57c6a"/>
      <polygon points="426.788 58.111 425.101 57.448 427.4 57.532 426.788 58.111" fill="#98ffdf"/>
      <polygon points="425.101 57.448 427.4 57.532 427.029 55.249 426.884 57.063 425.101 57.448" fill="#d57c6a"/>
      <polygon points="427.4 57.532 427.029 55.249 427.931 56.797 427.4 57.532" fill="#36886f"/>
      <polygon points="427.4 57.532 427.931 56.797 429.698 56.354 427.4 57.532" fill="#6ad5b4"/>
      <polygon points="427.4 57.532 429.698 56.354 428.47 57.735 427.4 57.532" fill="#98ffdf"/>
      <polygon points="427.4 57.532 428.47 57.735 429.414 59.28 427.4 57.532" fill="#36886f"/>
    </g>
    <g>
      <polygon points="428.218 32.903 427.439 24.818 419.432 23.582 430.347 21.344 428.218 32.903" fill="#efd05f"/>
      <polygon points="430.347 21.344 419.432 23.582 426.777 20.319 430.347 21.344" fill="#d57c6a"/>
      <polygon points="426.777 20.319 425.516 12.428 430.347 21.344 426.777 20.319" fill="#98ffdf"/>
      <polygon points="425.516 12.428 430.347 21.344 438.182 14.825 430.972 18.335 425.516 12.428" fill="#d57c6a"/>
      <polygon points="430.347 21.344 438.182 14.825 434.326 21.715 430.347 21.344" fill="#36886f"/>
      <polygon points="430.347 21.344 434.326 21.715 439.965 27.431 430.347 21.344" fill="#6ad5b4"/>
      <polygon points="430.347 21.344 439.965 27.431 431.971 25.86 430.347 21.344" fill="#98ffdf"/>
      <polygon points="430.347 21.344 431.971 25.86 428.218 32.903 430.347 21.344" fill="#36886f"/>
    </g>
    <g>
      <polygon points="460.774 98.524 454.349 95.524 449.868 100.997 453.026 91.796 460.774 98.524" fill="#efd05f"/>
      <polygon points="453.026 91.796 449.868 100.997 450.672 94.026 453.026 91.796" fill="#d57c6a"/>
      <polygon points="450.672 94.026 444.178 91.473 453.026 91.796 450.672 94.026" fill="#98ffdf"/>
      <polygon points="444.178 91.473 453.026 91.796 451.599 83.013 451.041 89.991 444.178 91.473" fill="#d57c6a"/>
      <polygon points="453.026 91.796 451.599 83.013 455.07 88.968 453.026 91.796" fill="#36886f"/>
      <polygon points="453.026 91.796 455.07 88.968 461.87 87.263 453.026 91.796" fill="#6ad5b4"/>
      <polygon points="453.026 91.796 461.87 87.263 457.142 92.577 453.026 91.796" fill="#98ffdf"/>
      <polygon points="453.026 91.796 457.142 92.577 460.774 98.524 453.026 91.796" fill="#36886f"/>
    </g>
    <g>
      <polygon points="372.015 79.714 376.379 75.844 373.712 70.673 379.626 76.064 372.015 79.714" fill="#efd05f"/>
      <polygon points="379.626 76.064 373.712 70.673 378.711 73.558 379.626 76.064" fill="#d57c6a"/>
      <polygon points="378.711 73.558 382.76 69.491 379.626 76.064 378.711 73.558" fill="#98ffdf"/>
      <polygon points="382.76 69.491 379.626 76.064 386.722 77.857 381.636 75.155 382.76 69.491" fill="#d57c6a"/>
      <polygon points="379.626 76.064 386.722 77.857 381.092 78.531 379.626 76.064" fill="#36886f"/>
      <polygon points="379.626 76.064 381.092 78.531 380.157 84.221 379.626 76.064" fill="#6ad5b4"/>
      <polygon points="379.626 76.064 380.157 84.221 377.691 78.916 379.626 76.064" fill="#98ffdf"/>
      <polygon points="379.626 76.064 377.691 78.916 372.015 79.714 379.626 76.064" fill="#36886f"/>
    </g>
    <g>
      <polygon points="412.678 64.504 409.399 62.973 407.113 65.766 408.725 61.071 412.678 64.504" fill="#efd05f"/>
      <polygon points="408.725 61.071 407.113 65.766 407.523 62.209 408.725 61.071" fill="#d57c6a"/>
      <polygon points="407.523 62.209 404.21 60.907 408.725 61.071 407.523 62.209" fill="#98ffdf"/>
      <polygon points="404.21 60.907 408.725 61.071 407.996 56.589 407.711 60.15 404.21 60.907" fill="#d57c6a"/>
      <polygon points="408.725 61.071 407.996 56.589 409.767 59.628 408.725 61.071" fill="#36886f"/>
      <polygon points="408.725 61.071 409.767 59.628 413.237 58.758 408.725 61.071" fill="#6ad5b4"/>
      <polygon points="408.725 61.071 413.237 58.758 410.825 61.47 408.725 61.071" fill="#98ffdf"/>
      <polygon points="408.725 61.071 410.825 61.47 412.678 64.504 408.725 61.071" fill="#36886f"/>
    </g>
    <g>
      <polygon points="355.415 107.961 355.068 104.359 351.501 103.809 356.364 102.812 355.415 107.961" fill="#efd05f"/>
      <polygon points="356.364 102.812 351.501 103.809 354.773 102.355 356.364 102.812" fill="#d57c6a"/>
      <polygon points="354.773 102.355 354.212 98.839 356.364 102.812 354.773 102.355" fill="#98ffdf"/>
      <polygon points="354.212 98.839 356.364 102.812 359.854 99.907 356.642 101.471 354.212 98.839" fill="#d57c6a"/>
      <polygon points="356.364 102.812 359.854 99.907 358.136 102.977 356.364 102.812" fill="#36886f"/>
      <polygon points="356.364 102.812 358.136 102.977 360.648 105.523 356.364 102.812" fill="#6ad5b4"/>
      <polygon points="356.364 102.812 360.648 105.523 357.087 104.823 356.364 102.812" fill="#98ffdf"/>
      <polygon points="356.364 102.812 357.087 104.823 355.415 107.961 356.364 102.812" fill="#36886f"/>
    </g>
    <g>
      <polygon points="390.677 7.915 387.398 6.384 385.111 9.177 386.723 4.482 390.677 7.915" fill="#efd05f"/>
      <polygon points="386.723 4.482 385.111 9.177 385.521 5.62 386.723 4.482" fill="#d57c6a"/>
      <polygon points="385.521 5.62 382.208 4.317 386.723 4.482 385.521 5.62" fill="#98ffdf"/>
      <polygon points="382.208 4.317 386.723 4.482 385.995 0 385.71 3.561 382.208 4.317" fill="#d57c6a"/>
      <polygon points="386.723 4.482 385.995 0 387.766 3.039 386.723 4.482" fill="#36886f"/>
      <polygon points="386.723 4.482 387.766 3.039 391.235 2.169 386.723 4.482" fill="#6ad5b4"/>
      <polygon points="386.723 4.482 391.235 2.169 388.823 4.88 386.723 4.482" fill="#98ffdf"/>
      <polygon points="386.723 4.482 388.823 4.88 390.677 7.915 386.723 4.482" fill="#36886f"/>
    </g>
    <g>
      <polygon points="349.272 32.106 348.925 28.505 345.358 27.954 350.221 26.957 349.272 32.106" fill="#efd05f"/>
      <polygon points="350.221 26.957 345.358 27.954 348.63 26.5 350.221 26.957" fill="#d57c6a"/>
      <polygon points="348.63 26.5 348.069 22.985 350.221 26.957 348.63 26.5" fill="#98ffdf"/>
      <polygon points="348.069 22.985 350.221 26.957 353.711 24.053 350.499 25.617 348.069 22.985" fill="#d57c6a"/>
      <polygon points="350.221 26.957 353.711 24.053 351.993 27.122 350.221 26.957" fill="#36886f"/>
      <polygon points="350.221 26.957 351.993 27.122 354.505 29.669 350.221 26.957" fill="#6ad5b4"/>
      <polygon points="350.221 26.957 354.505 29.669 350.944 28.969 350.221 26.957" fill="#98ffdf"/>
      <polygon points="350.221 26.957 350.944 28.969 349.272 32.106 350.221 26.957" fill="#36886f"/>
    </g>
    <g>
      <polygon points="351.414 177.74 349.744 176.96 348.58 178.382 349.401 175.991 351.414 177.74" fill="#efd05f"/>
      <polygon points="349.401 175.991 348.58 178.382 348.789 176.571 349.401 175.991" fill="#d57c6a"/>
      <polygon points="348.789 176.571 347.101 175.907 349.401 175.991 348.789 176.571" fill="#98ffdf"/>
      <polygon points="347.101 175.907 349.401 175.991 349.03 173.709 348.885 175.522 347.101 175.907" fill="#d57c6a"/>
      <polygon points="349.401 175.991 349.03 173.709 349.932 175.256 349.401 175.991" fill="#36886f"/>
      <polygon points="349.401 175.991 349.932 175.256 351.699 174.813 349.401 175.991" fill="#6ad5b4"/>
      <polygon points="349.401 175.991 351.699 174.813 350.47 176.194 349.401 175.991" fill="#98ffdf"/>
      <polygon points="349.401 175.991 350.47 176.194 351.414 177.74 349.401 175.991" fill="#36886f"/>
    </g>
    <g>
      <polygon points="229.568 137.615 228.788 129.53 220.781 128.295 231.697 126.056 229.568 137.615" fill="#efd05f"/>
      <polygon points="231.697 126.056 220.781 128.295 228.126 125.031 231.697 126.056" fill="#d57c6a"/>
      <polygon points="228.126 125.031 226.866 117.14 231.697 126.056 228.126 125.031" fill="#98ffdf"/>
      <polygon points="226.866 117.14 231.697 126.056 239.531 119.537 232.322 123.048 226.866 117.14" fill="#d57c6a"/>
      <polygon points="231.697 126.056 239.531 119.537 235.676 126.428 231.697 126.056" fill="#36886f"/>
      <polygon points="231.697 126.056 235.676 126.428 241.315 132.143 231.697 126.056" fill="#6ad5b4"/>
      <polygon points="231.697 126.056 241.315 132.143 233.321 130.572 231.697 126.056" fill="#98ffdf"/>
      <polygon points="231.697 126.056 233.321 130.572 229.568 137.615 231.697 126.056" fill="#36886f"/>
    </g>
    <g>
      <polygon points="353.917 221.584 347.491 218.584 343.011 224.057 346.169 214.856 353.917 221.584" fill="#efd05f"/>
      <polygon points="346.169 214.856 343.011 224.057 343.814 217.086 346.169 214.856" fill="#d57c6a"/>
      <polygon points="343.814 217.086 337.321 214.534 346.169 214.856 343.814 217.086" fill="#98ffdf"/>
      <polygon points="337.321 214.534 346.169 214.856 344.742 206.073 344.184 213.052 337.321 214.534" fill="#d57c6a"/>
      <polygon points="346.169 214.856 344.742 206.073 348.213 212.028 346.169 214.856" fill="#36886f"/>
      <polygon points="346.169 214.856 348.213 212.028 355.013 210.323 346.169 214.856" fill="#6ad5b4"/>
      <polygon points="346.169 214.856 355.013 210.323 350.285 215.637 346.169 214.856" fill="#98ffdf"/>
      <polygon points="346.169 214.856 350.285 215.637 353.917 221.584 346.169 214.856" fill="#36886f"/>
    </g>
    <g>
      <polygon points="301.369 165.32 305.733 161.45 303.066 156.279 308.979 161.67 301.369 165.32" fill="#efd05f"/>
      <polygon points="308.979 161.67 303.066 156.279 308.065 159.164 308.979 161.67" fill="#d57c6a"/>
      <polygon points="308.065 159.164 312.114 155.097 308.979 161.67 308.065 159.164" fill="#98ffdf"/>
      <polygon points="312.114 155.097 308.979 161.67 316.076 163.463 310.99 160.761 312.114 155.097" fill="#d57c6a"/>
      <polygon points="308.979 161.67 316.076 163.463 310.446 164.137 308.979 161.67" fill="#36886f"/>
      <polygon points="308.979 161.67 310.446 164.137 309.511 169.827 308.979 161.67" fill="#6ad5b4"/>
      <polygon points="308.979 161.67 309.511 169.827 307.044 164.522 308.979 161.67" fill="#98ffdf"/>
      <polygon points="308.979 161.67 307.044 164.522 301.369 165.32 308.979 161.67" fill="#36886f"/>
    </g>
    <g>
      <polygon points="334.678 182.963 331.399 181.433 329.113 184.226 330.725 179.53 334.678 182.963" fill="#efd05f"/>
      <polygon points="330.725 179.53 329.113 184.226 329.523 180.669 330.725 179.53" fill="#d57c6a"/>
      <polygon points="329.523 180.669 326.21 179.366 330.725 179.53 329.523 180.669" fill="#98ffdf"/>
      <polygon points="326.21 179.366 330.725 179.53 329.996 175.049 329.712 178.61 326.21 179.366" fill="#d57c6a"/>
      <polygon points="330.725 179.53 329.996 175.049 331.768 178.088 330.725 179.53" fill="#36886f"/>
      <polygon points="330.725 179.53 331.768 178.088 335.237 177.218 330.725 179.53" fill="#6ad5b4"/>
      <polygon points="330.725 179.53 335.237 177.218 332.825 179.929 330.725 179.53" fill="#98ffdf"/>
      <polygon points="330.725 179.53 332.825 179.929 334.678 182.963 330.725 179.53" fill="#36886f"/>
    </g>
    <g>
      <polygon points="277.416 226.42 277.068 222.819 273.501 222.268 278.364 221.271 277.416 226.42" fill="#efd05f"/>
      <polygon points="278.364 221.271 273.501 222.268 276.773 220.814 278.364 221.271" fill="#d57c6a"/>
      <polygon points="276.773 220.814 276.212 217.299 278.364 221.271 276.773 220.814" fill="#98ffdf"/>
      <polygon points="276.212 217.299 278.364 221.271 281.854 218.367 278.642 219.931 276.212 217.299" fill="#d57c6a"/>
      <polygon points="278.364 221.271 281.854 218.367 280.137 221.436 278.364 221.271" fill="#36886f"/>
      <polygon points="278.364 221.271 280.137 221.436 282.649 223.983 278.364 221.271" fill="#6ad5b4"/>
      <polygon points="278.364 221.271 282.649 223.983 279.088 223.283 278.364 221.271" fill="#98ffdf"/>
      <polygon points="278.364 221.271 279.088 223.283 277.416 226.42 278.364 221.271" fill="#36886f"/>
    </g>
    <g>
      <polygon points="297.026 149.039 293.747 147.509 291.461 150.301 293.073 145.606 297.026 149.039" fill="#efd05f"/>
      <polygon points="293.073 145.606 291.461 150.301 291.871 146.744 293.073 145.606" fill="#d57c6a"/>
      <polygon points="291.871 146.744 288.558 145.442 293.073 145.606 291.871 146.744" fill="#98ffdf"/>
      <polygon points="288.558 145.442 293.073 145.606 292.344 141.125 292.06 144.686 288.558 145.442" fill="#d57c6a"/>
      <polygon points="293.073 145.606 292.344 141.125 294.116 144.164 293.073 145.606" fill="#36886f"/>
      <polygon points="293.073 145.606 294.116 144.164 297.585 143.293 293.073 145.606" fill="#6ad5b4"/>
      <polygon points="293.073 145.606 297.585 143.293 295.173 146.005 293.073 145.606" fill="#98ffdf"/>
      <polygon points="293.073 145.606 295.173 146.005 297.026 149.039 293.073 145.606" fill="#36886f"/>
    </g>
    <g>
      <polygon points="239.137 176.804 238.789 173.202 235.222 172.652 240.085 171.655 239.137 176.804" fill="#efd05f"/>
      <polygon points="240.085 171.655 235.222 172.652 238.494 171.198 240.085 171.655" fill="#d57c6a"/>
      <polygon points="238.494 171.198 237.933 167.682 240.085 171.655 238.494 171.198" fill="#98ffdf"/>
      <polygon points="237.933 167.682 240.085 171.655 243.575 168.75 240.363 170.314 237.933 167.682" fill="#d57c6a"/>
      <polygon points="240.085 171.655 243.575 168.75 241.858 171.82 240.085 171.655" fill="#36886f"/>
      <polygon points="240.085 171.655 241.858 171.82 244.37 174.366 240.085 171.655" fill="#6ad5b4"/>
      <polygon points="240.085 171.655 244.37 174.366 240.809 173.666 240.085 171.655" fill="#98ffdf"/>
      <polygon points="240.085 171.655 240.809 173.666 239.137 176.804 240.085 171.655" fill="#36886f"/>
    </g>
    <g>
      <polygon points="466.183 177.198 464.513 176.418 463.348 177.841 464.169 175.449 466.183 177.198" fill="#efd05f"/>
      <polygon points="464.169 175.449 463.348 177.841 463.557 176.029 464.169 175.449" fill="#d57c6a"/>
      <polygon points="463.557 176.029 461.87 175.366 464.169 175.449 463.557 176.029" fill="#98ffdf"/>
      <polygon points="461.87 175.366 464.169 175.449 463.798 173.167 463.653 174.981 461.87 175.366" fill="#d57c6a"/>
      <polygon points="464.169 175.449 463.798 173.167 464.7 174.715 464.169 175.449" fill="#36886f"/>
      <polygon points="464.169 175.449 464.7 174.715 466.467 174.272 464.169 175.449" fill="#6ad5b4"/>
      <polygon points="464.169 175.449 466.467 174.272 465.239 175.653 464.169 175.449" fill="#98ffdf"/>
      <polygon points="464.169 175.449 465.239 175.653 466.183 177.198 464.169 175.449" fill="#36886f"/>
    </g>
    <g>
      <polygon points="416.705 116.739 415.926 108.654 407.919 107.419 418.834 105.18 416.705 116.739" fill="#efd05f"/>
      <polygon points="418.834 105.18 407.919 107.419 415.264 104.155 418.834 105.18" fill="#d57c6a"/>
      <polygon points="415.264 104.155 414.004 96.264 418.834 105.18 415.264 104.155" fill="#98ffdf"/>
      <polygon points="414.004 96.264 418.834 105.18 426.669 98.661 419.459 102.172 414.004 96.264" fill="#d57c6a"/>
      <polygon points="418.834 105.18 426.669 98.661 422.813 105.551 418.834 105.18" fill="#36886f"/>
      <polygon points="418.834 105.18 422.813 105.551 428.452 111.267 418.834 105.18" fill="#6ad5b4"/>
      <polygon points="418.834 105.18 428.452 111.267 420.458 109.696 418.834 105.18" fill="#98ffdf"/>
      <polygon points="418.834 105.18 420.458 109.696 416.705 116.739 418.834 105.18" fill="#36886f"/>
    </g>
    <g>
      <polygon points="438.551 204.006 432.125 201.006 427.644 206.479 430.803 197.278 438.551 204.006" fill="#efd05f"/>
      <polygon points="430.803 197.278 427.644 206.479 428.448 199.508 430.803 197.278" fill="#d57c6a"/>
      <polygon points="428.448 199.508 421.955 196.956 430.803 197.278 428.448 199.508" fill="#98ffdf"/>
      <polygon points="421.955 196.956 430.803 197.278 429.375 188.495 428.817 195.473 421.955 196.956" fill="#d57c6a"/>
      <polygon points="430.803 197.278 429.375 188.495 432.847 194.45 430.803 197.278" fill="#36886f"/>
      <polygon points="430.803 197.278 432.847 194.45 439.646 192.745 430.803 197.278" fill="#6ad5b4"/>
      <polygon points="430.803 197.278 439.646 192.745 434.919 198.059 430.803 197.278" fill="#98ffdf"/>
      <polygon points="430.803 197.278 434.919 198.059 438.551 204.006 430.803 197.278" fill="#36886f"/>
    </g>
    <g>
      <polygon points="374.225 171.815 378.589 167.945 375.922 162.774 381.835 168.165 374.225 171.815" fill="#efd05f"/>
      <polygon points="381.835 168.165 375.922 162.774 380.921 165.658 381.835 168.165" fill="#d57c6a"/>
      <polygon points="380.921 165.658 384.97 161.591 381.835 168.165 380.921 165.658" fill="#98ffdf"/>
      <polygon points="384.97 161.591 381.835 168.165 388.932 169.957 383.846 167.256 384.97 161.591" fill="#d57c6a"/>
      <polygon points="381.835 168.165 388.932 169.957 383.302 170.632 381.835 168.165" fill="#36886f"/>
      <polygon points="381.835 168.165 383.302 170.632 382.367 176.322 381.835 168.165" fill="#6ad5b4"/>
      <polygon points="381.835 168.165 382.367 176.322 379.9 171.016 381.835 168.165" fill="#98ffdf"/>
      <polygon points="381.835 168.165 379.9 171.016 374.225 171.815 381.835 168.165" fill="#36886f"/>
    </g>
    <g>
      <polygon points="414.888 156.605 411.609 155.074 409.323 157.867 410.934 153.172 414.888 156.605" fill="#efd05f"/>
      <polygon points="410.934 153.172 409.323 157.867 409.733 154.31 410.934 153.172" fill="#d57c6a"/>
      <polygon points="409.733 154.31 406.42 153.007 410.934 153.172 409.733 154.31" fill="#98ffdf"/>
      <polygon points="406.42 153.007 410.934 153.172 410.206 148.69 409.921 152.251 406.42 153.007" fill="#d57c6a"/>
      <polygon points="410.934 153.172 410.206 148.69 411.977 151.729 410.934 153.172" fill="#36886f"/>
      <polygon points="410.934 153.172 411.977 151.729 415.447 150.859 410.934 153.172" fill="#6ad5b4"/>
      <polygon points="410.934 153.172 415.447 150.859 413.035 153.57 410.934 153.172" fill="#98ffdf"/>
      <polygon points="410.934 153.172 413.035 153.57 414.888 156.605 410.934 153.172" fill="#36886f"/>
    </g>
    <g>
      <polygon points="357.625 200.062 357.278 196.46 353.711 195.909 358.574 194.912 357.625 200.062" fill="#efd05f"/>
      <polygon points="358.574 194.912 353.711 195.909 356.983 194.455 358.574 194.912" fill="#d57c6a"/>
      <polygon points="356.983 194.455 356.422 190.94 358.574 194.912 356.983 194.455" fill="#98ffdf"/>
      <polygon points="356.422 190.94 358.574 194.912 362.064 192.008 358.852 193.572 356.422 190.94" fill="#d57c6a"/>
      <polygon points="358.574 194.912 362.064 192.008 360.346 195.077 358.574 194.912" fill="#36886f"/>
      <polygon points="358.574 194.912 360.346 195.077 362.858 197.624 358.574 194.912" fill="#6ad5b4"/>
      <polygon points="358.574 194.912 362.858 197.624 359.297 196.924 358.574 194.912" fill="#98ffdf"/>
      <polygon points="358.574 194.912 359.297 196.924 357.625 200.062 358.574 194.912" fill="#36886f"/>
    </g>
    <g>
      <polygon points="490.029 133.984 486.75 132.453 484.464 135.246 486.075 130.551 490.029 133.984" fill="#efd05f"/>
      <polygon points="486.075 130.551 484.464 135.246 484.874 131.689 486.075 130.551" fill="#d57c6a"/>
      <polygon points="484.874 131.689 481.561 130.387 486.075 130.551 484.874 131.689" fill="#98ffdf"/>
      <polygon points="481.561 130.387 486.075 130.551 485.347 126.069 485.062 129.63 481.561 130.387" fill="#d57c6a"/>
      <polygon points="486.075 130.551 485.347 126.069 487.118 129.108 486.075 130.551" fill="#36886f"/>
      <polygon points="486.075 130.551 487.118 129.108 490.588 128.238 486.075 130.551" fill="#6ad5b4"/>
      <polygon points="486.075 130.551 490.588 128.238 488.175 130.95 486.075 130.551" fill="#98ffdf"/>
      <polygon points="486.075 130.551 488.175 130.95 490.029 133.984 486.075 130.551" fill="#36886f"/>
    </g>
    <g>
      <polygon points="384.724 132.362 384.377 128.76 380.81 128.21 385.673 127.212 384.724 132.362" fill="#efd05f"/>
      <polygon points="385.673 127.212 380.81 128.21 384.082 126.756 385.673 127.212" fill="#d57c6a"/>
      <polygon points="384.082 126.756 383.521 123.24 385.673 127.212 384.082 126.756" fill="#98ffdf"/>
      <polygon points="383.521 123.24 385.673 127.212 389.163 124.308 385.951 125.872 383.521 123.24" fill="#d57c6a"/>
      <polygon points="385.673 127.212 389.163 124.308 387.445 127.378 385.673 127.212" fill="#36886f"/>
      <polygon points="385.673 127.212 387.445 127.378 389.957 129.924 385.673 127.212" fill="#6ad5b4"/>
      <polygon points="385.673 127.212 389.957 129.924 386.396 129.224 385.673 127.212" fill="#98ffdf"/>
      <polygon points="385.673 127.212 386.396 129.224 384.724 132.362 385.673 127.212" fill="#36886f"/>
    </g>
  </g>
</svg>
