<svg xmlns="http://www.w3.org/2000/svg" width="480.588" height="247.761" viewBox="0 0 480.588 247.761">
  <g>
    <g>
      <polygon points="377.984 109.438 410.891 148.018 456.28 125.702 408.432 176.198 377.984 109.438" fill="#efd05f"/>
      <polygon points="408.432 176.198 456.28 125.702 430.37 168.672 408.432 176.198" fill="#d57c6a"/>
      <polygon points="430.37 168.672 465.043 204.543 408.432 176.198 430.37 168.672" fill="#98ffdf"/>
      <polygon points="465.043 204.543 408.432 176.198 391.664 237.576 415.997 193.826 465.043 204.543" fill="#d57c6a"/>
      <polygon points="408.432 176.198 391.664 237.576 386.746 188.53 408.432 176.198" fill="#36886f"/>
      <polygon points="408.432 176.198 386.746 188.53 337.449 179.452 408.432 176.198" fill="#6ad5b4"/>
      <polygon points="408.432 176.198 337.449 179.452 383.972 158.901 408.432 176.198" fill="#98ffdf"/>
      <polygon points="408.432 176.198 383.972 158.901 377.984 109.438 408.432 176.198" fill="#36886f"/>
    </g>
    <g>
      <polygon points="258.637 30.211 287.527 37.961 315.227 2.458 310.79 43.628 343.467 50.337 279.195 48.714 258.637 30.211" fill="#efd05f"/>
      <polygon points="258.637 30.211 275.354 55.855 279.195 48.714 258.637 30.211" fill="#36886f"/>
      <polygon points="315.227 2.458 312.931 44.068 310.79 43.628 315.227 2.458" fill="#36886f"/>
      <polygon points="279.195 48.714 343.467 50.337 308.41 67.325 279.195 48.714" fill="#d57c6a"/>
      <polygon points="279.195 48.714 304.947 108.008 308.41 67.325 279.195 48.714" fill="#98ffdf"/>
      <polygon points="304.947 108.008 287.527 77.496 279.195 48.714 304.947 108.008" fill="#36886f"/>
      <polygon points="305.024 108.008 308.487 67.325 311.795 65.722 305.024 108.008" fill="#36886f"/>
      <polygon points="279.195 48.714 254.633 92.968 287.527 77.496 279.195 48.714" fill="#98ffdf"/>
    </g>
    <g>
      <polygon points="153.02 92.97 156.104 149.208 138.251 133.303 153.02 92.97" fill="#98ffdf"/>
      <polygon points="153.02 92.97 163.002 135.169 205.282 137.441 156.104 149.208 153.02 92.97" fill="#efd05f"/>
      <polygon points="205.282 137.441 169.494 159.839 156.104 149.208 205.282 137.441" fill="#36886f"/>
      <polygon points="156.104 149.208 180.693 201.47 169.494 159.839 156.104 149.208" fill="#efd05f"/>
      <polygon points="180.693 201.47 148.557 173.148 156.104 149.208 180.693 201.47" fill="#d57c6a"/>
      <polygon points="148.557 173.148 113.337 196.682 156.104 149.208 148.557 173.148" fill="#36886f"/>
      <polygon points="156.104 149.208 113.337 196.682 129.568 156.755 156.104 149.208" fill="#98ffdf"/>
      <polygon points="156.104 149.208 129.568 156.755 95.89 129.57 156.104 149.208" fill="#d57c6a"/>
      <polygon points="138.251 133.303 95.89 129.57 156.104 149.208 138.251 133.303" fill="#efd05f"/>
    </g>
    <g>
      <polygon points="77.341 70.213 61.181 62.669 49.913 76.434 57.856 53.293 77.341 70.213" fill="#efd05f"/>
      <polygon points="57.856 53.293 49.913 76.434 51.934 58.902 57.856 53.293" fill="#d57c6a"/>
      <polygon points="51.934 58.902 35.604 52.483 57.856 53.293 51.934 58.902" fill="#98ffdf"/>
      <polygon points="35.604 52.483 57.856 53.293 54.266 31.205 52.863 48.756 35.604 52.483" fill="#d57c6a"/>
      <polygon points="57.856 53.293 54.266 31.205 62.996 46.182 57.856 53.293" fill="#36886f"/>
      <polygon points="57.856 53.293 62.996 46.182 80.096 41.894 57.856 53.293" fill="#6ad5b4"/>
      <polygon points="57.856 53.293 80.096 41.894 68.207 55.259 57.856 53.293" fill="#98ffdf"/>
      <polygon points="57.856 53.293 68.207 55.259 77.341 70.213 57.856 53.293" fill="#36886f"/>
    </g>
    <polygon points="445.324 29.359 434.948 31.095 431.265 46.498 426.677 32.676 415.241 35.297 436.045 26.438 445.324 29.359" fill="#efd05f"/>
    <polygon points="445.324 29.359 436.232 23.593 436.045 26.438 445.324 29.359" fill="#36886f"/>
    <polygon points="436.045 26.438 415.241 35.297 423.981 24.746 436.045 26.438" fill="#d57c6a"/>
    <polygon points="436.045 26.438 419.152 11.222 423.981 24.746 436.045 26.438" fill="#98ffdf"/>
    <polygon points="419.152 11.222 429.179 18.444 436.045 26.438 419.152 11.222" fill="#36886f"/>
    <polygon points="436.045 26.438 437.447 8.693 429.179 18.444 436.045 26.438" fill="#98ffdf"/>
    <g>
      <polygon points="151.732 42.657 142.539 25.111 150.573 27.595 151.732 42.657" fill="#98ffdf"/>
      <polygon points="151.732 42.657 142.38 30.61 128.519 36.052 142.539 25.111 151.732 42.657" fill="#efd05f"/>
      <polygon points="128.519 36.052 136.703 23.663 142.539 25.111 128.519 36.052" fill="#36886f"/>
      <polygon points="142.539 25.111 127.045 11.975 136.703 23.663 142.539 25.111" fill="#efd05f"/>
      <polygon points="127.045 11.975 141.461 16.349 142.539 25.111 127.045 11.975" fill="#d57c6a"/>
      <polygon points="141.461 16.349 149.297 3.679 142.539 25.111 141.461 16.349" fill="#36886f"/>
      <polygon points="142.539 25.111 149.297 3.679 149.93 18.823 142.539 25.111" fill="#98ffdf"/>
      <polygon points="142.539 25.111 149.93 18.823 164.673 22.609 142.539 25.111" fill="#d57c6a"/>
      <polygon points="150.573 27.595 164.673 22.609 142.539 25.111 150.573 27.595" fill="#efd05f"/>
    </g>
    <g>
      <polygon points="69.403 236.254 53.243 228.71 41.975 242.474 49.918 219.334 69.403 236.254" fill="#efd05f"/>
      <polygon points="49.918 219.334 41.975 242.474 43.996 224.943 49.918 219.334" fill="#d57c6a"/>
      <polygon points="43.996 224.943 27.667 218.524 49.918 219.334 43.996 224.943" fill="#98ffdf"/>
      <polygon points="27.667 218.524 49.918 219.334 46.328 197.246 44.925 214.796 27.667 218.524" fill="#d57c6a"/>
      <polygon points="49.918 219.334 46.328 197.246 55.058 212.223 49.918 219.334" fill="#36886f"/>
      <polygon points="49.918 219.334 55.058 212.223 72.158 207.934 49.918 219.334" fill="#6ad5b4"/>
      <polygon points="49.918 219.334 72.158 207.934 60.269 221.299 49.918 219.334" fill="#98ffdf"/>
      <polygon points="49.918 219.334 60.269 221.299 69.403 236.254 49.918 219.334" fill="#36886f"/>
    </g>
    <g>
      <polygon points="319.601 247.761 305.81 221.438 317.862 225.166 319.601 247.761" fill="#98ffdf"/>
      <polygon points="319.601 247.761 305.571 229.688 284.777 237.852 305.81 221.438 319.601 247.761" fill="#efd05f"/>
      <polygon points="284.777 237.852 297.054 219.266 305.81 221.438 284.777 237.852" fill="#36886f"/>
      <polygon points="305.81 221.438 282.565 201.732 297.054 219.266 305.81 221.438" fill="#efd05f"/>
      <polygon points="282.565 201.732 304.192 208.294 305.81 221.438 282.565 201.732" fill="#d57c6a"/>
      <polygon points="304.192 208.294 315.948 189.286 305.81 221.438 304.192 208.294" fill="#36886f"/>
      <polygon points="305.81 221.438 315.948 189.286 316.897 212.006 305.81 221.438" fill="#98ffdf"/>
      <polygon points="305.81 221.438 316.897 212.006 339.015 217.685 305.81 221.438" fill="#d57c6a"/>
      <polygon points="317.862 225.166 339.015 217.685 305.81 221.438 317.862 225.166" fill="#efd05f"/>
    </g>
    <g>
      <polygon points="22.906 4.239 21.149 3.419 19.925 4.915 20.788 2.4 22.906 4.239" fill="#efd05f"/>
      <polygon points="20.788 2.4 19.925 4.915 20.144 3.01 20.788 2.4" fill="#d57c6a"/>
      <polygon points="20.144 3.01 18.37 2.312 20.788 2.4 20.144 3.01" fill="#98ffdf"/>
      <polygon points="18.37 2.312 20.788 2.4 20.398 0 20.245 1.907 18.37 2.312" fill="#d57c6a"/>
      <polygon points="20.788 2.4 20.398 0 21.347 1.628 20.788 2.4" fill="#36886f"/>
      <polygon points="20.788 2.4 21.347 1.628 23.205 1.162 20.788 2.4" fill="#6ad5b4"/>
      <polygon points="20.788 2.4 23.205 1.162 21.913 2.614 20.788 2.4" fill="#98ffdf"/>
      <polygon points="20.788 2.4 21.913 2.614 22.906 4.239 20.788 2.4" fill="#36886f"/>
    </g>
    <g>
      <polygon points="463.486 100.992 462.666 92.488 454.245 91.189 465.725 88.835 463.486 100.992" fill="#efd05f"/>
      <polygon points="465.725 88.835 454.245 91.189 461.97 87.757 465.725 88.835" fill="#d57c6a"/>
      <polygon points="461.97 87.757 460.645 79.457 465.725 88.835 461.97 87.757" fill="#98ffdf"/>
      <polygon points="460.645 79.457 465.725 88.835 473.965 81.979 466.382 85.671 460.645 79.457" fill="#d57c6a"/>
      <polygon points="465.725 88.835 473.965 81.979 469.91 89.225 465.725 88.835" fill="#36886f"/>
      <polygon points="465.725 88.835 469.91 89.225 475.841 95.237 465.725 88.835" fill="#6ad5b4"/>
      <polygon points="465.725 88.835 475.841 95.237 467.433 93.584 465.725 88.835" fill="#98ffdf"/>
      <polygon points="465.725 88.835 467.433 93.584 463.486 100.992 465.725 88.835" fill="#36886f"/>
    </g>
    <g>
      <polygon points="17.454 147.568 10.696 144.413 5.984 150.169 9.306 140.492 17.454 147.568" fill="#efd05f"/>
      <polygon points="9.306 140.492 5.984 150.169 6.829 142.838 9.306 140.492" fill="#d57c6a"/>
      <polygon points="6.829 142.838 0 140.153 9.306 140.492 6.829 142.838" fill="#98ffdf"/>
      <polygon points="0 140.153 9.306 140.492 7.804 131.255 7.217 138.595 0 140.153" fill="#d57c6a"/>
      <polygon points="9.306 140.492 7.804 131.255 11.455 137.518 9.306 140.492" fill="#36886f"/>
      <polygon points="9.306 140.492 11.455 137.518 18.606 135.725 9.306 140.492" fill="#6ad5b4"/>
      <polygon points="9.306 140.492 18.606 135.725 13.634 141.314 9.306 140.492" fill="#98ffdf"/>
      <polygon points="9.306 140.492 13.634 141.314 17.454 147.568 9.306 140.492" fill="#36886f"/>
    </g>
    <g>
      <polygon points="237.116 158.02 241.706 153.949 238.901 148.511 245.12 154.181 237.116 158.02" fill="#efd05f"/>
      <polygon points="245.12 154.181 238.901 148.511 244.159 151.545 245.12 154.181" fill="#d57c6a"/>
      <polygon points="244.159 151.545 248.417 147.267 245.12 154.181 244.159 151.545" fill="#98ffdf"/>
      <polygon points="248.417 147.267 245.12 154.181 252.584 156.066 247.235 153.225 248.417 147.267" fill="#d57c6a"/>
      <polygon points="245.12 154.181 252.584 156.066 246.663 156.775 245.12 154.181" fill="#36886f"/>
      <polygon points="245.12 154.181 246.663 156.775 245.68 162.76 245.12 154.181" fill="#6ad5b4"/>
      <polygon points="245.12 154.181 245.68 162.76 243.085 157.18 245.12 154.181" fill="#98ffdf"/>
      <polygon points="245.12 154.181 243.085 157.18 237.116 158.02 245.12 154.181" fill="#36886f"/>
    </g>
    <g>
      <polygon points="480 163.337 476.551 161.728 474.147 164.665 475.842 159.727 480 163.337" fill="#efd05f"/>
      <polygon points="475.842 159.727 474.147 164.665 474.578 160.924 475.842 159.727" fill="#d57c6a"/>
      <polygon points="474.578 160.924 471.094 159.554 475.842 159.727 474.578 160.924" fill="#98ffdf"/>
      <polygon points="471.094 159.554 475.842 159.727 475.076 155.014 474.776 158.759 471.094 159.554" fill="#d57c6a"/>
      <polygon points="475.842 159.727 475.076 155.014 476.939 158.209 475.842 159.727" fill="#36886f"/>
      <polygon points="475.842 159.727 476.939 158.209 480.588 157.294 475.842 159.727" fill="#6ad5b4"/>
      <polygon points="475.842 159.727 480.588 157.294 478.051 160.146 475.842 159.727" fill="#98ffdf"/>
      <polygon points="475.842 159.727 478.051 160.146 480 163.337 475.842 159.727" fill="#36886f"/>
    </g>
    <g>
      <polygon points="355.397 19.191 355.031 15.403 351.28 14.824 356.394 13.776 355.397 19.191" fill="#efd05f"/>
      <polygon points="356.394 13.776 351.28 14.824 354.721 13.295 356.394 13.776" fill="#d57c6a"/>
      <polygon points="354.721 13.295 354.131 9.598 356.394 13.776 354.721 13.295" fill="#98ffdf"/>
      <polygon points="354.131 9.598 356.394 13.776 360.065 10.721 356.687 12.366 354.131 9.598" fill="#d57c6a"/>
      <polygon points="356.394 13.776 360.065 10.721 358.258 13.95 356.394 13.776" fill="#36886f"/>
      <polygon points="356.394 13.776 358.258 13.95 360.9 16.628 356.394 13.776" fill="#6ad5b4"/>
      <polygon points="356.394 13.776 360.9 16.628 357.155 15.891 356.394 13.776" fill="#98ffdf"/>
      <polygon points="356.394 13.776 357.155 15.891 355.397 19.191 356.394 13.776" fill="#36886f"/>
    </g>
    <g>
      <polygon points="183.31 62.884 179.862 61.274 177.457 64.211 179.152 59.274 183.31 62.884" fill="#efd05f"/>
      <polygon points="179.152 59.274 177.457 64.211 177.889 60.471 179.152 59.274" fill="#d57c6a"/>
      <polygon points="177.889 60.471 174.404 59.101 179.152 59.274 177.889 60.471" fill="#98ffdf"/>
      <polygon points="174.404 59.101 179.152 59.274 178.386 54.56 178.087 58.305 174.404 59.101" fill="#d57c6a"/>
      <polygon points="179.152 59.274 178.386 54.56 180.249 57.756 179.152 59.274" fill="#36886f"/>
      <polygon points="179.152 59.274 180.249 57.756 183.898 56.841 179.152 59.274" fill="#6ad5b4"/>
      <polygon points="179.152 59.274 183.898 56.841 181.361 59.693 179.152 59.274" fill="#98ffdf"/>
      <polygon points="179.152 59.274 181.361 59.693 183.31 62.884 179.152 59.274" fill="#36886f"/>
    </g>
    <g>
      <polygon points="127.826 226.096 127.46 222.308 123.709 221.729 128.823 220.68 127.826 226.096" fill="#efd05f"/>
      <polygon points="128.823 220.68 123.709 221.729 127.15 220.2 128.823 220.68" fill="#d57c6a"/>
      <polygon points="127.15 220.2 126.56 216.503 128.823 220.68 127.15 220.2" fill="#98ffdf"/>
      <polygon points="126.56 216.503 128.823 220.68 132.494 217.626 129.116 219.271 126.56 216.503" fill="#d57c6a"/>
      <polygon points="128.823 220.68 132.494 217.626 130.688 220.854 128.823 220.68" fill="#36886f"/>
      <polygon points="128.823 220.68 130.688 220.854 133.33 223.532 128.823 220.68" fill="#6ad5b4"/>
      <polygon points="128.823 220.68 133.33 223.532 129.584 222.796 128.823 220.68" fill="#98ffdf"/>
      <polygon points="128.823 220.68 129.584 222.796 127.826 226.096 128.823 220.68" fill="#36886f"/>
    </g>
  </g>
</svg>
