<svg xmlns="http://www.w3.org/2000/svg" width="167.177" height="123.713" viewBox="0 0 167.177 123.713">
  <g>
    <path d="M80.967,23.161A64.684,64.684,0,0,0,21.134,112.4a162.869,162.869,0,0,0,59.833,11.311A162.888,162.888,0,0,0,140.8,112.4,64.684,64.684,0,0,0,80.967,23.161Z" fill="#efd05f"/>
    <path d="M146.064,55.037a82.589,82.589,0,0,1,10.65,28.544,54.792,54.792,0,0,0-30.841-51.359A82.617,82.617,0,0,1,146.064,55.037Z" fill="#d57c6a"/>
    <path d="M8.767,52.011A105.084,105.084,0,0,1,25.8,25.647,66.648,66.648,0,0,0,6.248,50.866,66.66,66.66,0,0,0,.1,82.18,105.063,105.063,0,0,1,8.767,52.011Z" fill="#d57c6a"/>
    <path d="M80.786,16.827a84.234,84.234,0,0,1,27.82,3.508,55.629,55.629,0,0,0-55.278,2.173A84.231,84.231,0,0,1,80.786,16.827Z" fill="#d57c6a"/>
    <path d="M39.884,51.326A105.049,105.049,0,0,1,54.151,34.77,69.689,69.689,0,0,0,27.009,64.776a66.381,66.381,0,0,0-5.666,39.392c.07-1.213.184-2.429.3-3.644.106.907.225,1.811.375,2.708.067-1.14.169-2.283.282-3.426.1.925.2,1.85.355,2.763a75.556,75.556,0,0,1,7.2-27.914A78.028,78.028,0,0,1,46.994,51.087a51.674,51.674,0,0,0-9.615,7.482A90.607,90.607,0,0,1,50.307,43.394,60.03,60.03,0,0,0,39.884,51.326Z" fill="#d57c6a" opacity="0.49"/>
    <path d="M154.39,49.357a94.387,94.387,0,0,1,12.787,27.556A62.257,62.257,0,0,0,133.63,27.179,94.375,94.375,0,0,1,154.39,49.357Z" fill="#efd05f" opacity="0.53"/>
    <path d="M14.671,58.93a71.369,71.369,0,0,1,15.09-21.576A47.355,47.355,0,0,0,8.336,84.487,71.4,71.4,0,0,1,14.671,58.93Z" fill="#efd05f" opacity="0.53"/>
    <path d="M83.253,2.938a88.093,88.093,0,0,1,29.1,3.669A58.18,58.18,0,0,0,54.534,8.88,88.084,88.084,0,0,1,83.253,2.938Z" fill="#efd05f" opacity="0.53"/>
  </g>
</svg>
