<svg xmlns="http://www.w3.org/2000/svg" width="435.165" height="94.408" viewBox="0 0 435.165 94.408">
  <g>
    <path d="M16.326,18.415c1.89-1.119,4-2.813,6.714-3.722a113.345,113.345,0,0,1,21.246-5.92,66.846,66.846,0,0,1,21.52-.427c14.2,2.2,26.287,8.781,40.124,11.418.962.192,1.922.307,2.878.425s1.906.232,2.851.288a34.829,34.829,0,0,0,5.591-.069,23.867,23.867,0,0,0,5.335-1.118,24.183,24.183,0,0,0,4.874-2.358,34.806,34.806,0,0,0,8.046-7.5A98.655,98.655,0,0,0,142.062,0c-2.289,3.7-4.827,7.232-7.379,10.735a30.58,30.58,0,0,1-9.192,8.732A27.612,27.612,0,0,1,112.95,22.98a62.016,62.016,0,0,1-13.269-.716,81.054,81.054,0,0,1-13.492-3.382c-5.372-1.837-9.95-3.287-13.8-4.2a57.535,57.535,0,0,0-9.146-1.528,28.187,28.187,0,0,0-4.125-.1c-.505.052-.121.073,1.182.131-3.522-.122-6.024.86-9.423,1.466-3.45.521-6.751.99-9.989,1.523s-6.4,1.114-9.489,1.927A35.231,35.231,0,0,1,27.178,19.7c-4.024,1.027-7.847,2.1-11.809,3.527A72.562,72.562,0,0,0,2.884,29.043l1.435-1.206c-1.73.778-2.585,1.189-4.3,2.021A104.4,104.4,0,0,1,16.326,18.415Z" transform="translate(-0.02)" fill="#dcfff4"/>
    <path d="M58.278,15.6c1.392-.157,3.1-.829,4.89-.545,19.173,1.623,34.124,7.65,52.06,8.105a54.445,54.445,0,0,0,14.17-1.639,40.926,40.926,0,0,0,12.917-5.806c-2.261,1.532-4.692,2.761-7.1,4.079a19.225,19.225,0,0,1-1.8.98c-.607.3-1.2.619-1.813.9-1.236.5-2.444,1.094-3.712,1.5l-1.9.672-1.945.576c-1.305.421-2.659.68-4.046,1.041-5,1.066-11.389,2.116-17.174,1.258-3.628-.48-6.714-1.014-9.255-1.441s-4.543-.763-6-.975c-2.914-.433-3.643-.4-1.949-.1-2.28-.4-4.068.154-6.359,0-4.574-.526-8.481-1.979-12.466-2.788a11.268,11.268,0,0,1-2.862-.156c-2.562-.615-5-1.307-7.629-1.76a35.28,35.28,0,0,0-8.666-.593l1.139-.4-3.021-.273A58.652,58.652,0,0,1,58.278,15.6Z" transform="translate(-0.02)" fill="#dcfff4"/>
    <path d="M108.049,11.842c1.036-.259,2.218-1.029,3.541-1a103.9,103.9,0,0,0,19.8-3.267c6.371-1.671,12.883-3.941,20.128-5.158a51.24,51.24,0,0,1,11.66-.981,29.857,29.857,0,0,1,11.229,2.525A17.623,17.623,0,0,0,168.049,2.2a35.676,35.676,0,0,0-12.426,2.037C151.907,5.426,147.771,7.8,143.488,9c-5.383,1.567-9.283,2.941-11.518,3.687s-2.767,1.037-1.423.676c-1.791.51-2.879,1.692-4.664,2.345-3.649,1.109-7.172.817-10.513.827a7.059,7.059,0,0,1-2.349.361c-4.4-.491-8.214-1.627-13.327-2.314.479-.091.952-.2.952-.2L98.365,13.6C101.227,13.053,104.911,12.621,108.049,11.842Z" transform="translate(-0.02)" fill="#dcfff4"/>
    <path d="M148.665,10.735c.952-.3,2.069-1.089,3.339-1.024a88.251,88.251,0,0,1,19.061,1.274c6.112,1.059,11.74,2.78,17.9,3.231a25.449,25.449,0,0,0,9.672-1.373,17.059,17.059,0,0,0,7.9-5.571,30.049,30.049,0,0,1-4.036,3.935A25.036,25.036,0,0,1,192.385,16.6c-3.55,1.026-8.195,1.821-12.223,1.007A94.614,94.614,0,0,0,169.608,15.9c-2.019-.147-2.522-.02-1.347.1-1.584-.159-2.795.6-4.368.748-3.153.062-5.956-.815-8.792-1.118a5.885,5.885,0,0,1-2,.192c-3.674-.683-7.074-1.648-11.627-1.37l.785-.375-2.138-.321A62.264,62.264,0,0,1,148.665,10.735Z" transform="translate(-0.02)" fill="#dcfff4"/>
    <path d="M78.817,24.918c.878-.159,1.951-.8,3.041-.592l16.571,1.422a154.4,154.4,0,0,0,16.377.577,56.854,56.854,0,0,0,17.71-3.839c-.8.322-1.637.585-2.455.879-.409.147-.813.3-1.214.476a10.75,10.75,0,0,0-1.2.52l-2.325,1.19-2.339,1.028c-1.554.729-3.175,1.245-4.874,1.931-3.086,1.022-6.969,2.567-10.7,2.414-4.661-.115-7.966-.189-9.858-.15-1.887.019-2.352.172-1.246.2-1.486-.027-2.589.785-4.082.952-3,.131-5.618-.881-8.213-1.423a4.8,4.8,0,0,1-1.877,0C78.8,29.42,75.9,27.966,71.81,27.279l.775-.2-1.818-.767C73.1,25.7,76.15,25.39,78.817,24.918Z" transform="translate(-0.02)" fill="#dcfff4"/>
    <path d="M67.925,12.328c.79-.241,1.787-.952,2.841-.748a28.988,28.988,0,0,1,7.973,1.711,33.038,33.038,0,0,1,6.791,3.5c.994.636,1.934,1.255,2.865,1.825.466.286.926.554,1.4.8s.953.517,1.453.745a36.454,36.454,0,0,0,6.475,2.354,61.224,61.224,0,0,0,15.528,1.023,27.627,27.627,0,0,0-4.486.279,81.6,81.6,0,0,1-8.822,1.592,40.3,40.3,0,0,1-4.689.345,13.068,13.068,0,0,1-4.956-.921,50.11,50.11,0,0,1-4.825-2.364c-1.265-.7-2.229-1.222-2.942-1.562-1.414-.676-1.809-.678-1.016-.27-1.082-.564-2.205-.139-3.308-.334-2.149-.572-3.859-1.874-5.863-2.522a3.264,3.264,0,0,1-1.463-.038c-2.531-1.024-5.113-2.214-8.605-1.836.283-.206.574-.386.574-.386-.672-.13-1.006-.157-1.694-.259A22.812,22.812,0,0,1,67.925,12.328Z" transform="translate(-0.02)" fill="#dcfff4"/>
    <path d="M117.439,25.791c-.719.285-1.54,1.078-2.494,1.026-5.023.373-9.715.467-14.388.367A29.823,29.823,0,0,1,93,26.31a21.553,21.553,0,0,1-6.94-3.655c-2.315-1.592-4.315-3.188-6.426-4.674-2.088-1.5-4.187-2.952-6.423-4.447a24.627,24.627,0,0,0,3.814,2.349c2.843,1.109,5.378,2.137,8.225,3.213,1.289.476,2.751.9,4.163,1.3s2.758.738,3.977,1.173a14.079,14.079,0,0,0,4.393.682,29.281,29.281,0,0,0,3.19-.139c1.578-.154,1.954-.34,1.028-.293,1.245-.07,2.1-.973,3.319-1.29,2.476-.407,4.762.275,7,.467a3.5,3.5,0,0,1,1.565-.254c2.926.6,5.57,1.609,9.1,1.628l-.619.321,1.64.468C122.137,24.137,119.623,24.919,117.439,25.791Z" transform="translate(-0.02)" fill="#dcfff4"/>
    <path d="M90.583,13.107c.614-.226,1.349-.95,2.127-.822a214.324,214.324,0,0,1,23.626,1.68,101.629,101.629,0,0,0,13.036.009,17.9,17.9,0,0,0-3.7.373c-2.431.787-4.644,1.411-7.12,2.17-2.234.631-4.974,1.768-7.576,1.518-6.518-.554-9.353.044-7.8.059-1.047.011-1.8.871-2.845,1.116-2.107.271-3.993-.561-5.854-.918a2.493,2.493,0,0,1-1.329.139c-2.41-.839-4.525-2.053-7.45-2.426l.545-.259-1.311-.625C86.571,14.331,88.716,13.789,90.583,13.107Z" transform="translate(-0.02)" fill="#dcfff4"/>
    <path d="M120.025,20.467c-1.3.663-2.764,1.87-4.652,2.2a61.179,61.179,0,0,1-22.225,1.319l.56-6.381c4.582.521,9.68-.891,14.985-2.3,5.272-1.417,10.633-2.795,16.214-4.2l2-.544.9,2.481c-9.225,2.85-17.53,5.2-26.768,7.584a70.975,70.975,0,0,0,8.192-2.387c5.3-2.2,10.036-4.243,15.22-6.717l2.382-1.151,1.039,2.865a90.679,90.679,0,0,1-13.752,5.442l-9.211,2.58a59.215,59.215,0,0,1-6.359,1.4c-1.6.25-2.632.318-3,.382s-.087.1.884.061c-1.137.062-2.147.21-3.176.345l.465-5.3c1.127-.169,2.213-.413,3.474-.5,4.483-.1,8.575.416,12.664.054a13.652,13.652,0,0,1,2.8-.7,66.3,66.3,0,0,0,7.9-.9,39.967,39.967,0,0,0,4.12-1.017c1.421-.437,2.921-1.013,4.62-1.431-.572.306-1.1.646-1.1.646a13.492,13.492,0,0,1,3.112-.191,28.181,28.181,0,0,0-5.3,2.955C124.1,18.277,122.013,19.45,120.025,20.467Z" transform="translate(-0.02)" fill="#dcfff4"/>
    <path d="M121.028,12.746c.574-.5,1.123-1.5,2.055-1.715a54.686,54.686,0,0,1,13.662-2.914c2.221-.214,4.373-.348,6.638-.442a32.093,32.093,0,0,1,7.124.387c2.689.4,5.012,1.1,7.337,1.575a18.989,18.989,0,0,0,7.073.4c-1.338.271-2.695.079-4.07.292-2.788.431-5.454.335-8.248.594a25.529,25.529,0,0,0-3.913.681,20.8,20.8,0,0,1-4.085.668c-7.215.361-10.195,1.655-8.5,1.333-1.132.217-1.778,1.213-2.819,1.694-2.145.738-4.277.446-6.287.729a3.067,3.067,0,0,1-1.292.587c-2.656.1-5.323-.119-8.281,1.288l.374-.539-1.588.254A26.373,26.373,0,0,1,121.028,12.746Z" transform="translate(-0.02)" fill="#dcfff4"/>
    <path d="M137.737,33.478c-.433.449-.767,1.4-1.5,1.595A83.141,83.141,0,0,1,114.62,41.21c-4.208.885-7.872,1.753-11.921,2.826a14.382,14.382,0,0,0,3.317-1.068c2.051-1.242,3.895-2.353,5.915-3.662,1.835-1.155,3.928-2.921,6.274-3.424,5.891-1.326,8.1-2.937,6.758-2.414.9-.348,1.236-1.4,2.03-1.981,1.688-.957,3.591-.86,5.3-1.228a2.134,2.134,0,0,1,1.061-.62c2.348-.161,4.649.116,7.24-.8l-.337.461,1.373,0A44.719,44.719,0,0,1,137.737,33.478Z" transform="translate(-0.02)" fill="#dcfff4"/>
    <path d="M67.892,29.353c-.536.256-1.17,1.016-1.891.927a42.94,42.94,0,0,1-20.805-4.7c-3.724-1.6-6.91-3.092-10.4-4.84a11.2,11.2,0,0,0,3,1.242,62.362,62.362,0,0,0,6.428.538c2.007.065,4.468-.272,6.5.464,5.18,1.828,7.7,1.242,6.386,1.136.87.1,1.577-.684,2.445-.875a6.9,6.9,0,0,1,2.453.359,23.433,23.433,0,0,0,2.325.71,1.746,1.746,0,0,1,1.1-.155c2,.724,3.9,1.841,6.438,1.8l-.429.325,1.212.454A16.153,16.153,0,0,1,70.4,28.126Z" transform="translate(-0.02)" fill="#dcfff4"/>
    <path d="M100.2,4.869c.537-.377,1.084-1.272,1.905-1.355a43.191,43.191,0,0,1,12.03-1.065,96.115,96.115,0,0,1,11.548,1.329,78.924,78.924,0,0,0,12.547.588,17.941,17.941,0,0,0-3.573.252c-2.368.69-4.541,1.186-6.96,1.817-2.183.524-4.851,1.513-7.3,1.22-6.192-.689-8.8.271-7.344.154-.98.068-1.619.962-2.538,1.313a8.684,8.684,0,0,1-2.756.112A22.573,22.573,0,0,0,105.1,9a2.083,2.083,0,0,1-1.158.378c-2.28-.253-4.584-.928-7.279-.119l.377-.44-1.415-.083a18.047,18.047,0,0,1,2.09-2.009Z" transform="translate(-0.02)" fill="#dcfff4"/>
    <path d="M169.182,10.548c-.574.17-1.3.826-1.976.63-7.323-.717-13.616-1.646-21.041-2.335a55.753,55.753,0,0,0-11.758.781,15.989,15.989,0,0,0,3.307-.678c2.12-.974,4.091-1.708,6.315-2.578,2.006-.71,4.509-1.932,6.922-1.679,6.012.551,8.625.165,7.2.069.965.024,1.7-.807,2.684-.994,1.975-.169,3.67.789,5.348,1.293a2.14,2.14,0,0,1,1.239-.033c2.142,1.057,3.927,2.453,6.516,3.183l-.53.192,1.094.773a19.58,19.58,0,0,1-2.606.714C170.982,10.1,170.049,10.309,169.182,10.548Z" transform="translate(-0.02)" fill="#dcfff4"/>
    <path d="M131.711,22.747a13.391,13.391,0,0,1,3.825-.054c7.342,1.3,13.564,3.654,19.854,4.551a56.41,56.41,0,0,0,19.561-.637,49.389,49.389,0,0,0,10.408-3.671,47.114,47.114,0,0,0,9.277-5.918c-.83.65-1.666,1.3-2.527,1.908-.883.581-1.71,1.241-2.567,1.865a54.223,54.223,0,0,1-10.694,6.451c-3.566,1.631-8.21,3.457-12.765,3.635a73.208,73.208,0,0,1-12.054-.406c-2.308-.262-2.878-.277-1.537-.052-1.8-.287-3.2,0-5-.234-3.582-.644-6.517-2.024-9.511-2.91a11.846,11.846,0,0,1-2.174-.344,46.166,46.166,0,0,0-5.722-1.638,18.744,18.744,0,0,0-6.59-.222,8.171,8.171,0,0,1,.849-.339c-.926-.025-1.383.037-2.325.064A25.872,25.872,0,0,1,131.711,22.747Z" transform="translate(-0.02)" fill="#bbd7ce"/>
    <path d="M72.274,5.42a5.683,5.683,0,0,1-1.641-.247C64.752,2.965,59.007,2.635,52.449,2.1c-3.654-.181-6.9-.24-10.492-.55a16.875,16.875,0,0,0,3,.108c2.011-.246,3.805-.51,5.808-.856a25.708,25.708,0,0,1,6.11-.672l5.595.414c1.082.074,1.356.019.723-.047a24.073,24.073,0,0,0,2.4-.233,14.358,14.358,0,0,1,4.636,1.6,2.92,2.92,0,0,1,1.076.283A62.9,62.9,0,0,1,76.284,6l-.434-.129c.294.338.434.512.71.858A33.94,33.94,0,0,0,72.274,5.42Z" transform="translate(-0.02)" fill="#bbd7ce"/>
    <path d="M22.627,34.568c.328-.366.588-.989,1.134-1.29a66.029,66.029,0,0,1,16.726-8.126c3.331-1.218,6.271-2.24,9.56-3.333a17.76,17.76,0,0,0-2.7,1.019c-1.7.947-3.212,1.843-4.861,2.88a33.509,33.509,0,0,1-5.023,3c-4.586,1.883-6.272,3.336-5.248,2.732-.694.391-.978,1.045-1.588,1.556a27.115,27.115,0,0,1-3.992,1.96,2.821,2.821,0,0,1-.8.613,25.934,25.934,0,0,0-5.336,2.4l.247-.355L19.743,38A41.379,41.379,0,0,1,22.627,34.568Z" transform="translate(-0.02)" fill="#bbd7ce"/>
    <path d="M150.739,3c.328-.133.7-.517,1.141-.478a61.814,61.814,0,0,1,6.565.019,32.7,32.7,0,0,1,6.5.88A15,15,0,0,1,171.6,6.259a5.324,5.324,0,0,0-1.766-1.067,12.783,12.783,0,0,0-3.946-.309,21.563,21.563,0,0,1-4.033.285c-3.466-.35-5.007.067-4.167.033-.561.017-.958.456-1.511.6a10.913,10.913,0,0,1-3.139-.333,1.409,1.409,0,0,1-.7.105,17.386,17.386,0,0,0-4.106-.943l.278-.151-.746-.257A30.243,30.243,0,0,1,150.739,3Z" transform="translate(-0.02)" fill="#bbd7ce"/>
    <path d="M388.352,83.815c-.559.2-1.15.54-1.776.836a5.477,5.477,0,0,1-2.032.658c-7.719,1.388-15.048,3.86-22.726,5.592-7.638,1.769-15.951,2.833-24.317,1.045a35.824,35.824,0,0,1-22.169-13.729c.835.924,1.577,1.937,2.432,2.856.442.444.893.883,1.36,1.3q.35.316.712.616c.258.182.524.353.793.519l1.6.971c.525.315,1.094.554,1.627.828a26.461,26.461,0,0,0,3.27,1.384,13.168,13.168,0,0,0,1.673.53c.565.153,1.122.322,1.691.459a32.3,32.3,0,0,0,3.52.549l1.66.148,1.743.005a16.842,16.842,0,0,0,1.787-.061c.6-.044,1.206-.054,1.815-.111,2.441-.209,4.9-.528,7.335-.614a52.263,52.263,0,0,0,13-2.475c2.478-.808,3.031-1.168,1.568-.74,1.969-.582,3.105-1.943,5-2.8,3.9-1.491,7.836-1.68,11.628-2.149a8.248,8.248,0,0,1,2.625-.721,51.158,51.158,0,0,1,7.474.539c2.507.307,5.094.771,8.015,1.326l-1.1.151,2.542,1.043c-.826.118-1.7.213-2.588.292l-2.746.4c-.93.2-1.859.365-2.769.584C390.09,83.3,389.2,83.514,388.352,83.815Z" transform="translate(-0.02)" fill="#bbd7ce"/>
    <path d="M303.155,76.583c-.668.161-1.459.767-2.278.65a78.582,78.582,0,0,0-12.535.788c-2.061.293-4.235.673-6.547.835A19.679,19.679,0,0,1,274.6,78.2a14.759,14.759,0,0,1-6.619-3.994,18.785,18.785,0,0,1-3.9-6.269,10.832,10.832,0,0,0,2.071,3.662,13,13,0,0,0,6.889,3.7c2.358.465,4.946-.342,7.583-.485a42.308,42.308,0,0,0,7.4-1.285c1.474-.353,1.815-.565.939-.4,1.171-.227,1.907-1.1,3.082-1.488,2.4-.546,4.665.027,6.8.29a3.593,3.593,0,0,1,1.526-.135c2.788.759,5.116,1.975,8.308,2.748l-.627.142,1.375.759C307.541,75.854,305.176,76.08,303.155,76.583Z" transform="translate(-0.02)" fill="#bbd7ce"/>
    <path d="M379.925,78.979c-.559.288-1.076,1.191-1.737,1.186a18.259,18.259,0,0,0-4.949,1.871,26.092,26.092,0,0,0-2.314,1.433c-.773.544-1.578,1.159-2.424,1.8a33.048,33.048,0,0,1-5.843,3.792,20.5,20.5,0,0,1-7.075,1.874c-5.378.623-9.817-.229-14.693-.919a16.04,16.04,0,0,0,4.1.361,33.829,33.829,0,0,0,7.791-1.97,20.834,20.834,0,0,0,3.378-1.807,23.586,23.586,0,0,1,3.275-1.825,14.029,14.029,0,0,0,3.5-2.136,27.11,27.11,0,0,0,2.185-1.985c1.049-1.057,1.232-1.448.551-.859.889-.788.954-2.117,1.881-3.134a8.462,8.462,0,0,1,3.415-1.818,26.8,26.8,0,0,1,3.639-.7,3.029,3.029,0,0,1,1.591-.616,16.945,16.945,0,0,1,4.575.973c1.455.5,2.86,1.079,4.432,1.677a6.237,6.237,0,0,0-.667.15c.522.38.756.626,1.231,1.03A18.819,18.819,0,0,0,379.925,78.979Z" transform="translate(-0.02)" fill="#bbd7ce"/>
    <path d="M338.219,85.805c.71-.213,1.593-.977,2.47-.78,2.357.16,4.627.385,6.848.67q1.665.213,3.3.471l3.132.523a14.655,14.655,0,0,0,2.532.235,6.316,6.316,0,0,0,2.281-.445,25.266,25.266,0,0,0,5.333-3.2c3.934-3.267,7.267-6.333,10.858-9.869a19.126,19.126,0,0,0-2.847,3.075l-4.263,7.225c-.672,1.137-1.342,2.446-2.246,3.722a10.048,10.048,0,0,1-3.609,3.315,15.176,15.176,0,0,1-2.935,1.162,13.24,13.24,0,0,1-2.646.424c-1.558.09-2.671,0-3.461-.014-1.552-.052-1.893.095-1.032.181-1.171-.1-2.1.778-3.279.953-2.358.092-4.374-1-6.42-1.545a2.772,2.772,0,0,1-1.49.054c-2.62-1.1-4.918-2.61-8.189-3.149l.624-.267-1.449-.763A63.074,63.074,0,0,1,338.219,85.805Z" transform="translate(-0.02)" fill="#bbd7ce"/>
    <path d="M360.78,80.113c-.519.307-1.107,1.183-1.817,1.106a53.726,53.726,0,0,1-20.912-2.663c-3.9-.977-7.308-1.788-11.1-2.627a10.692,10.692,0,0,0,3.2.481c2.23-.3,4.225-.6,6.43-1.026,1.994-.364,4.412-1.252,6.555-.762,5.432,1.176,7.878.357,6.555.359.884.01,1.523-.948,2.388-1.239,1.743-.31,3.332.556,4.92.844a1.617,1.617,0,0,1,1.1-.234c2.07.745,4.006,1.933,6.548,1.928l-.425.363,1.215.52A33.766,33.766,0,0,1,360.78,80.113Z" transform="translate(-0.02)" fill="#bbd7ce"/>
    <path d="M336.8,78.237c1.188.349,2.787.191,4.109.876A33.172,33.172,0,0,0,357.44,81.34l1.075,7.177a14.974,14.974,0,0,1-5-.366,21.848,21.848,0,0,1-4.221-1.54,73,73,0,0,1-6.908-4c-4.371-2.728-8.78-5.592-13.186-8.8l-1.189-.832,1.6-2.578a160.722,160.722,0,0,0,22.188,13.274c-2.355-1.1-4.567-2.5-7.027-3.421-4.939-1.834-9.336-3.685-14.219-5.85l-2.684-1.2,1.874-3.029c3.755,1.652,8.033,3.309,11.685,5.627,2.848,1.783,5.4,3.3,7.45,4.414a21.033,21.033,0,0,0,4.844,2.022,6.7,6.7,0,0,0,2.119.251c.252-.031.069-.094-.571-.178a3.452,3.452,0,0,0,2.36-.529l.938,6.262a13.435,13.435,0,0,1-2.93,1.023,19.626,19.626,0,0,1-6.973-.326,40.525,40.525,0,0,1-6.2-1.98A8.6,8.6,0,0,1,339.559,86a39.381,39.381,0,0,1-6.468-4.739c-1-.879-2-1.806-3.036-2.754a16.492,16.492,0,0,0-3.324-2.593,10.632,10.632,0,0,1,1.085.219,7.852,7.852,0,0,0-2.353-1.653c1.867-.153,3.971.8,5.817,1.655A37.878,37.878,0,0,0,336.8,78.237Z" transform="translate(-0.02)" fill="#bbd7ce"/>
    <path d="M369.919,92.348a5.044,5.044,0,0,1-1.767.376c-3.418-.151-6.6-.23-9.782-.24a76.349,76.349,0,0,1-9.978-.273,15.315,15.315,0,0,1-9.962-4.631,8.662,8.662,0,0,0,2.479,1.952,12.907,12.907,0,0,0,5.882,1.048c1.851-.051,4.011-.684,6.126-.688,5.38-.1,7.82-.475,6.493-.444a17.85,17.85,0,0,0,2.378-.7,18.637,18.637,0,0,1,4.937.539,3,3,0,0,1,1.12-.041,62.869,62.869,0,0,0,6.19,1.777l-.46.1,1.07.458C373.26,91.89,371.472,92.049,369.919,92.348Z" transform="translate(-0.02)" fill="#bbd7ce"/>
    <path d="M304.33,89.932a10.706,10.706,0,0,1-1.643.846c-3.406,1.158-6.732,3.192-10.731,3.555a16.866,16.866,0,0,1-11.022-2.94,30.38,30.38,0,0,1-8.532-8.688c.33.471.664.947,1,1.42a11.569,11.569,0,0,0,1.141,1.313,25.617,25.617,0,0,0,5.4,3.934,23.372,23.372,0,0,0,3.036,1.309c1.1.35,2.191.7,3.26,1.014a11.922,11.922,0,0,0,5.907.365c1.123-.259,1.368-.418.718-.259a8.846,8.846,0,0,0,2.2-1.174,43.5,43.5,0,0,1,5.067-1.708,4.511,4.511,0,0,1,1.153-.518,15.97,15.97,0,0,1,3.5-.317,12.059,12.059,0,0,1,3.778.646,2.616,2.616,0,0,0-.518-.013,10.123,10.123,0,0,1,1.11.613A8.812,8.812,0,0,0,304.33,89.932Z" transform="translate(-0.02)" fill="#bbd7ce"/>
    <path d="M415.387,82.492c-2.208-.642-4.974-.877-7.7-1.945a151.006,151.006,0,0,0-21.857-5.765,79.1,79.1,0,0,0-21.306-1.189,147.59,147.59,0,0,0-21.337,4.055c-7.232,1.743-14.71,3.612-22.626,4.334a56.743,56.743,0,0,1-12.936.069,28.433,28.433,0,0,1-11.877-4.109,38,38,0,0,1-9.163-8.321,109.389,109.389,0,0,1-7.251-10.253c2.6,3.919,5.079,8.044,8.514,11.4a32.831,32.831,0,0,0,11.386,7.556,30.787,30.787,0,0,0,13.295,1.484,76.562,76.562,0,0,0,13.444-2.581c4.663-1.252,9.431-2.755,14.17-3.912,5.952-1.482,11.139-2.785,15.508-3.644s7.9-1.349,10.482-1.6,4.195-.334,4.777-.4.14-.12-1.382-.064c4.075-.125,7.062-.891,11.163-.755a58.231,58.231,0,0,1,11.545,2.086c3.617,1,7.041,2.185,10.439,3.36a27.714,27.714,0,0,1,4.912,1.359,132.741,132.741,0,0,1,12.3,6.191c4.072,2.268,8.274,4.753,13.083,7.644l-1.908-.732c1.672,1.207,2.491,1.829,4.122,3.077A182.187,182.187,0,0,0,415.387,82.492Z" transform="translate(-0.02)" fill="#dcfff4"/>
    <path d="M372,80.071c-1.438.349-3.071,1.2-4.939,1.271-9.856.951-19.133,2.583-28.553,3.68a123.67,123.67,0,0,1-29.085.535,76.886,76.886,0,0,1-15.81-3.042,53.147,53.147,0,0,1-14.318-6.841c2.546,1.62,5.1,3.389,8.047,4.25.72.255,1.458.425,2.181.609s1.429.383,2.147.525c1.443.261,2.84.584,4.273.735a64.936,64.936,0,0,0,8.7.591c5.445.022,11.949-.964,18.037-1.134a97.513,97.513,0,0,0,9.879-.737c2.738-.333,4.905-.694,6.473-.979,3.137-.579,3.877-.883,2.031-.583,2.479-.41,4.12-1.6,6.551-2.268,4.946-1.1,9.626-.958,14.189-1.153a13.546,13.546,0,0,1,3.2-.519c3,.148,5.844.425,8.823.808l9.648,1.17-1.309.19,3.192.87C381.425,78.542,376.351,79.063,372,80.071Z" transform="translate(-0.02)" fill="#dcfff4"/>
    <path d="M349.81,89.576c-.915.347-1.951,1.238-3.186,1.244a119.927,119.927,0,0,1-18.7.634,94.133,94.133,0,0,1-18.4-2.684,106.78,106.78,0,0,1-19.347-6.087c.9.333,1.778.729,2.671,1.092.447.18.9.359,1.356.5a12.328,12.328,0,0,0,1.421.3l2.827.408,2.768.256,1.37.123,1.39.053,2.828.091c3.5,0,7.7-.49,11.535.032a55.778,55.778,0,0,0,10.382.551c2.007-.122,2.488-.309,1.314-.284,1.58-.031,2.682-.98,4.227-1.326,3.122-.428,6.011.213,8.862.309a5.37,5.37,0,0,1,1.983-.343c3.733.466,7.152,1.35,11.67,1.082l-.778.389,2.119.364C355.777,87.477,352.589,88.5,349.81,89.576Z" transform="translate(-0.02)" fill="#dcfff4"/>
    <path d="M361.243,76.732c-.752.265-1.572,1.085-2.509,1.058a42.846,42.846,0,0,0-7.112,1.352,51.905,51.905,0,0,0-6.747,2.458c-1.178.49-2.412.994-3.708,1.446-.648.228-1.319.435-1.993.613-.67.2-1.347.357-2.029.491a37.355,37.355,0,0,1-8.28.735,161.038,161.038,0,0,1-17.335-1.058,25.3,25.3,0,0,0,4.908.231,81.235,81.235,0,0,0,9.47-1.753c1.441-.347,2.993-.915,4.549-1.432a29.821,29.821,0,0,1,4.652-1.321,26.5,26.5,0,0,0,8.04-3.057c1.55-.853,1.894-1.2.935-.744,1.26-.619,1.866-1.874,3.177-2.672,2.748-1.344,5.632-1.186,8.245-1.249a4.185,4.185,0,0,1,1.82-.421c3.5.481,6.418,1.684,10.244,2.514-.375.082-.745.192-.745.192.672.327,1,.527,1.646.873A59,59,0,0,0,361.243,76.732Z" transform="translate(-0.02)" fill="#dcfff4"/>
    <path d="M307.244,80.059c.809-.22,1.785-.962,2.81-.8,5.471.169,10.555.594,15.594,1.22a46.757,46.757,0,0,0,7.053.587,23.115,23.115,0,0,0,7.02-1.525c2.7-1.071,5.216-2.375,7.7-3.594,2.484-1.245,4.937-2.529,7.5-3.921a27.226,27.226,0,0,0-4.18,2.47l-7.324,6.264a45.944,45.944,0,0,1-3.985,3.1,11.994,11.994,0,0,1-5.276,2.025,37.106,37.106,0,0,1-5.916.04c-1.56-.088-2.742-.153-3.6-.156-1.724-.015-2.151.139-1.145.193-1.354-.065-2.374.79-3.731.986-2.722.152-5.118-.82-7.516-1.271a3.9,3.9,0,0,1-1.72.092c-3.1-.962-5.841-2.314-9.655-2.728l.705-.268-1.72-.676C301.98,81.274,304.786,80.732,307.244,80.059Z" transform="translate(-0.02)" fill="#dcfff4"/>
    <path d="M324.194,77.321c-.519.219-1.121.857-1.809.793a77.356,77.356,0,0,1-20.522-1.87c-3.886-.646-7.3-1.155-11.107-1.65a14.4,14.4,0,0,0,3.185.257c2.168-.286,4.116-.551,6.279-.912,1.954-.307,4.332-1,6.5-.663,5.465.806,7.887.219,6.569.219.884,0,1.522-.7,2.394-.912,1.758-.228,3.349.415,4.93.639a2.144,2.144,0,0,1,1.112-.164c2.056.568,3.931,1.462,6.448,1.5l-.44.259,1.172.4A41.981,41.981,0,0,1,324.194,77.321Z" transform="translate(-0.02)" fill="#dcfff4"/>
    <path d="M292.631,77.72a21.651,21.651,0,0,1,4.02.269,65.143,65.143,0,0,0,17.222,1.257l.434,5.283a25.748,25.748,0,0,1-7.634-.916c-2.387-.631-4.6-1.405-6.8-2.212-4.412-1.615-8.853-3.3-13.435-5.059l-1.695-.616.7-2.066A214.02,214.02,0,0,0,307.8,81.109c-2.337-.6-4.621-1.429-7.013-1.865-4.8-.873-9.113-1.786-13.921-2.865l-2.184-.5.807-2.383a79.122,79.122,0,0,1,12.2,2.986c2.938,1.068,5.507,1.969,7.607,2.563a28.128,28.128,0,0,0,4.955,1.02,10.867,10.867,0,0,0,2.194.04c.265-.034.064-.074-.62-.1a5.944,5.944,0,0,0,2.129-.315l.359,4.376a19.921,19.921,0,0,1-3.2.824c-4.254.374-8.065-.548-11.7-1.375a10.057,10.057,0,0,1-2.639-.319,55.539,55.539,0,0,1-6.628-2.809c-1.09-.549-2.2-1.105-3.345-1.684a20.953,20.953,0,0,0-3.644-1.579c.512.008,1.032.056,1.032.056a12.062,12.062,0,0,0-2.444-1.027,16.375,16.375,0,0,1,5.422.609A53.089,53.089,0,0,0,292.631,77.72Z" transform="translate(-0.02)" fill="#dcfff4"/>
  </g>
</svg>
